<?xml version="1.0" encoding="UTF-8" standalone="no"?>
<!-- Created with Inkscape (http://www.inkscape.org/) -->
<svg id="svg2" xmlns:rdf="http://www.w3.org/1999/02/22-rdf-syntax-ns#" xmlns="http://www.w3.org/2000/svg" height="100" viewBox="0 0 165 100" width="165" version="1.1" xmlns:cc="http://creativecommons.org/ns#" xmlns:dc="http://purl.org/dc/elements/1.1/">
 <metadata id="metadata7">
  <rdf:RDF>
   <cc:Work rdf:about="">
    <dc:format>image/svg+xml</dc:format>
    <dc:type rdf:resource="http://purl.org/dc/dcmitype/StillImage"/>
    <dc:title/>
   </cc:Work>
  </rdf:RDF>
 </metadata>
 <g id="g3550">
  <path id="path4654" d="m76.653 85.353c0.18602-0.06716 0.49042-0.06716 0.67643 0 0.18602 0.06716 0.03382 0.12211-0.33822 0.12211s-0.52424-0.05495-0.33822-0.12211zm1.3477 0.0015c0.18319-0.06632 0.54846-0.07035 0.81172-0.009 0.26326 0.06138 0.11338 0.11564-0.33307 0.12058-0.44645 0.0049-0.66184-0.04529-0.47865-0.11161zm-5.88-0.492c-16.762-0.882-28.923-2.317-33.603-3.966-5.102-1.798-9.422-5.856-13.497-12.68-1.125-1.884-1.309-2.339-0.9-2.226 0.28285 0.07837 2.0363 0.5179 3.8965 0.97676 1.8602 0.45885 4.0518 1.1614 4.8703 1.5611 2.0366 0.99471 4.4994 1.6635 7.7114 2.094 3.5929 0.48159 5.5104 0.45946 10.282-0.11867 2.1979-0.26631 4.3896-0.4842 4.8704-0.4842 0.85805 0 2.4172 0.96689 12.823 7.9517 1.0999 0.73832 2.3495 1.5663 2.7769 1.84 0.93128 0.59635 7.0197 4.7333 7.3856 5.0183 0.24196 0.1885-3.3159 0.20594-6.6155 0.03243z" fill="#051d5b"/>
  <path id="path4733" d="m87.136 85.314c0.10233-0.16137 0.40533-0.29341 0.67333-0.29341s0.55208-0.10222 0.63129-0.22713c0.2169-0.34206 8.5935-5.2973 13.091-7.7443 5.5916-3.042 6.7573-3.5182 9.3406-3.8161 3.1556-0.36385 5.6753-1.1863 7.6338-2.4917 2.7063-1.8038 2.3743-1.7288 8.3995-1.8999 6.4431-0.18305 8.1924-0.52504 12.127-2.3709 1.3299-0.62386 2.4755-1.1343 2.5456-1.1343 0.23853 0-2.2744 4.4031-3.7435 6.5592-1.7751 2.6053-5.0239 5.8432-7.3048 7.2804-0.92564 0.58326-2.7376 1.3911-4.0267 1.7953-5.2609 1.6494-16.91 3.2444-27.242 3.73-3.0955 0.14546-3.7315 0.22721-2.6494 0.34051 1.3967 0.14621 1.3863 0.14986-0.54163 0.1902-1.0811 0.02263-3.5756 0.11641-5.5433 0.20837-2.6896 0.12574-3.5315 0.09442-3.3916-0.12618z" fill="#061e5b"/>
  <path id="path5204" d="m79.382 85.812c0.08812-0.13073-0.13281-0.36013-0.49096-0.50976-0.35816-0.14963-0.71254-0.41865-0.78752-0.5978-0.20974-0.50122 0.21905-0.3877 0.98083 0.25965 0.71175 0.60485 0.89471 1.0856 0.41314 1.0856-0.15162 0-0.2036-0.10696-0.11548-0.2377zm-2.3423-1.9107c-0.08849-0.13129-0.04374-0.23872 0.09945-0.23872 0.14318 0 0.33272 0.10742 0.42122 0.23872 0.08849 0.13129 0.04376 0.23872-0.09943 0.23872-0.14318 0-0.33275-0.10742-0.42124-0.23872zm-1.562-1.081c-0.42955-0.32286-0.66385-0.58702-0.52066-0.58702 0.14318 0 0.61178 0.26416 1.0413 0.58702 0.42955 0.32286 0.66385 0.58702 0.52066 0.58702-0.14318 0-0.61178-0.26416-1.0413-0.58702zm-1.562-1.0668c-0.08849-0.13129-0.04374-0.23872 0.09945-0.23872 0.14318 0 0.33272 0.10742 0.42122 0.23872 0.08849 0.13129 0.04376 0.23872-0.09943 0.23872-0.14318 0-0.33275-0.10742-0.42124-0.23872zm-1.042-0.716c-0.08849-0.13129-0.04374-0.23872 0.09945-0.23872 0.14318 0 0.33272 0.10742 0.42122 0.23872 0.08849 0.13129 0.04376 0.23872-0.09943 0.23872-0.14318 0-0.33275-0.10742-0.42124-0.23872zm-1.0413-0.71614c-0.08849-0.13129-0.04374-0.23872 0.09945-0.23872 0.14318 0 0.33272 0.10742 0.42122 0.23872 0.08849 0.13129 0.04376 0.23872-0.09943 0.23872-0.14318 0-0.33275-0.10742-0.42124-0.23872zm-1.0413-0.71614c-0.08849-0.13129-0.03682-0.23872 0.1148-0.23872 0.15164 0 0.2757 0.10742 0.2757 0.23872 0 0.13129-0.05165 0.23872-0.1148 0.23872s-0.18721-0.10742-0.2757-0.23872zm-1.4403-1.0221c-0.36263-0.29126-0.94838-0.72229-1.3017-0.95785l-0.64231-0.42829 0.77839 0.14882c0.42811 0.08185 0.83814 0.2287 0.91116 0.32634s0.32152 0.24116 0.55224 0.31894c0.4047 0.13644 0.88001 1.1445 0.53241 1.1291-0.09399-0.0041-0.46758-0.24585-0.83023-0.53711zm-2.725-1.8425c-0.08849-0.13129-0.04374-0.23872 0.09945-0.23872 0.14318 0 0.33272 0.10742 0.42122 0.23872 0.08849 0.13129 0.04376 0.23872-0.09943 0.23872-0.14318 0-0.33275-0.10742-0.42124-0.23872zm-1.562-1.082c-0.42955-0.32286-0.66385-0.58369-0.52066-0.57962 0.14318 0.0041 0.61178 0.27156 1.0413 0.59442 0.42955 0.32286 0.66385 0.58369 0.52066 0.57962-0.14318-0.0041-0.61178-0.27156-1.0413-0.59442zm-1.562-1.0668c-0.08849-0.13129-0.03682-0.23872 0.1148-0.23872 0.15164 0 0.2757 0.10742 0.2757 0.23872 0 0.13129-0.05165 0.23871-0.1148 0.23871s-0.18721-0.10742-0.2757-0.23871zm-1.042-0.716c-0.08849-0.13129-0.04374-0.23872 0.09945-0.23872 0.14318 0 0.33272 0.10742 0.42122 0.23872 0.08849 0.13129 0.04376 0.23871-0.09943 0.23871-0.14318 0-0.33275-0.10742-0.42124-0.23871zm-1.0413-0.71614c-0.08849-0.13129-0.03682-0.23872 0.1148-0.23872 0.15164 0 0.2757 0.10742 0.2757 0.23872 0 0.13129-0.05165 0.23871-0.1148 0.23871s-0.18721-0.10742-0.2757-0.23871zm-0.91116-0.71614c0-0.13129 0.05167-0.23872 0.1148-0.23872 0.06315 0 0.18721 0.10742 0.2757 0.23872 0.08849 0.13129 0.03684 0.23871-0.1148 0.23871s-0.2757-0.10742-0.2757-0.23871zm-1.1715-0.71614c-0.08849-0.13129-0.03682-0.23872 0.1148-0.23872 0.15164 0 0.2757 0.10742 0.2757 0.23872 0 0.13129-0.05165 0.23871-0.1148 0.23871s-0.18721-0.10742-0.2757-0.23871zm-2.0581-1.3129c-0.65108-0.5533-1.3539-0.70544-3.1486-0.68156-0.28637 0.0038-2.0436 0.18979-3.905 0.41328-4.044 0.48556-6.5673 0.52877-9.372 0.16052-3.0964-0.40658-5.0099-0.91253-6.9158-1.8287-2.1317-1.0247-9.48-3.0224-10.421-2.8329-0.61649 0.12416-0.72274 0.02595-1.2205-1.128-0.29988-0.69522-0.90392-2.054-1.3423-3.0195-0.4384-0.96548-0.79707-1.858-0.79707-1.9835 0-0.52162 0.58835 0.17368 1.4113 1.6679 0.72716 1.3202 1.0275 1.6345 1.7508 1.8323 0.56515 0.15453 3.9947 0.17502 9.7243 0.05812 7.1362-0.14561 29.239-0.1076 30.849 0.05304 0.66901 0.06675 1.932-0.27645 2.4038-0.65323 0.24823-0.19821 0.81238-0.94699 1.2537-1.664 0.44127-0.71697 0.85845-1.2521 0.92703-1.1892 0.2685 0.2462-1.2841 3.2798-2.1573 4.2153-1.025 1.098-2.4442 1.8278-5.1316 2.6386-1.8474 0.5574-3.6357 1.7665-3.9482 2.6696-0.11709 0.33829 0.04878 0.68737 0.55826 1.175 0.8855 0.84751 0.45768 0.92735-0.51948 0.09695zm23.535-6.7893c0-0.13904 0.11715-0.2528 0.26033-0.2528s0.26033 0.04737 0.26033 0.10527-0.11715 0.17166-0.26033 0.2528-0.26033 0.03377-0.26033-0.10527zm-61.123-5.37c-0.17357-0.3493-0.311-0.81803-0.30538-1.0416 0.0056-0.22358 0.18427-0.03864 0.39704 0.41098 0.45633 0.96432 0.36984 1.5594-0.09166 0.63063zm49.408-0.12111c0-0.13904 0.11715-0.2528 0.26033-0.2528s0.26033 0.04737 0.26033 0.10527-0.11715 0.17166-0.26033 0.2528-0.26033 0.03377-0.26033-0.10527zm1.9308-2.0531c0.5608-0.45406 1.1368-0.82556 1.2799-0.82556 0.14318 0-0.19848 0.3715-0.75927 0.82556-0.5608 0.45406-1.1368 0.82556-1.28 0.82556-0.14318 0 0.1985-0.3715 0.7593-0.82556zm9.8617-5.4151c-0.38762-0.45873-0.60957-1.1397-0.37146-1.1397 0.23763 0 0.89004 1.204 0.73128 1.3495-0.05654 0.05185-0.21847-0.0426-0.35982-0.20988zm-1.3322-5.0001c0.12263-0.76424 0.73401-0.84609 0.73401-0.09827 0 0.40116-0.14279 0.61668-0.4086 0.61668-0.27135 0-0.38067-0.17413-0.32542-0.51841z" fill="#d3edf8"/>
  <path id="path5277" d="m110.44 71.082c-1.7898-0.80865-4.0392-1.6628-4.9988-1.8981-2.2439-0.55021-4.0469-1.614-5.3879-3.1789-1.0806-1.261-1.3395-2.1887-0.73862-2.646 0.2136-0.16256 3.5291-0.26587 9.437-0.29406 5.0092-0.0239 14.204-0.11724 20.432-0.20742 8.8352-0.12792 11.512-0.09783 12.18 0.13688 0.7716 0.27136 0.91035 0.2505 1.4156-0.21275 0.69344-0.63586 0.88042-0.27237 0.46031 0.89487-0.20162 0.5602-0.59375 0.98397-1.1616 1.2553-0.47149 0.22531-1.7205 0.86677-2.7754 1.4255-3.6646 1.9406-7.1484 2.5997-14.674 2.7761-4.2612 0.09989-4.6788 0.19158-6.5816 1.4451-1.0781 0.71021-4.1032 2.1251-4.2947 2.0087-0.0317-0.01927-1.522-0.69665-3.3118-1.5053zm33.591-9.4405c0-0.19694 0.11356-0.5192 0.25235-0.71614 0.22433-0.31829 0.25238-0.31829 0.25238 0 0 0.19694-0.11357 0.5192-0.25238 0.71614-0.2243 0.31829-0.25235 0.31829-0.25235 0z" fill="#b6e2f5"/>
  <path id="path5317" d="m38.208 55.519c-0.46425-0.5917-0.84409-1.2916-0.84409-1.5554 0-0.26376-0.12635-0.47957-0.28077-0.47957-0.53021 0-0.27924-0.47761 0.77213-1.4694 1.603-1.5122 2.8735-2.3081 5.9061-3.7 4.9041-2.2508 17.468-6.0946 17.468-5.344 0 0.09562-0.1197 0.66297-0.26599 1.2608-0.1463 0.5978-0.34334 1.5332-0.43788 2.0787-0.14614 0.84319-0.32715 1.0484-1.2081 1.3697-7.1674 2.6139-13.978 5.7529-17.495 8.0631-1.7805 1.1697-2.5593 1.1215-3.6148-0.22379z" stroke="#98be4c" stroke-width=".20654" fill="#89c44b"/>
  <path id="path5399" d="m69.438 94.872c-0.644-0.052-3.339-0.26-5.987-0.463-15.548-1.189-25.247-2.576-29.548-4.225-1.746-0.67-5.155-2.7-6.907-4.113-7.142-5.764-12.421-16.138-17.266-33.932-2.8025-10.294-2.8995-10.878-2.8867-17.396 0.0104-5.285 0.0373-5.571 0.7226-7.639 1.9354-5.84 5.4431-10.33 10.025-12.831 0.90202-0.49235 1.6779-0.89518 1.7243-0.89518 0.04634 0-1.1119 1.1011-2.5738 2.4468-2.3622 2.1745-2.808 2.7258-4.005 4.9533-2.1662 4.0311-2.5266 5.6579-2.5123 11.339 0.01375 5.45 0.4743 8.322 2.6189 16.33 4.4034 16.443 9.1799 26.026 16.029 32.159 4.4983 4.0282 7.6767 5.2325 17.526 6.6409 20.916 2.9907 50.723 2.9898 72.242-0.0019 6.0119-0.83585 10.368-1.8509 12.984-3.0251 8.5118-3.8217 16.508-17.037 21.38-35.336 2.1779-8.18 2.6996-11.447 2.7154-17.007 0.0119-4.2223-0.0542-5.0072-0.57294-6.7885-0.76385-2.6233-2.8142-6.4755-4.327-8.1295-1.8333-2.0044-1.5984-2.148 0.68503-0.41871 1.7151 1.2989 4.2597 4.4639 5.4449 6.7723 4.5643 8.8901 2.504 25.001-5.5658 43.523-5.0952 11.695-9.3576 17.462-15.821 21.409-4.6973 2.8678-15.539 4.9642-32.021 6.1917-4.7795 0.35596-30.925 0.68822-34.104 0.43341z" fill="#041e66"/>
  <path id="path5367" d="m66.923 45.013c0.10514-0.30871 0.27694-0.615 0.38176-0.68065 0.10483-0.06565 0.4575-0.79404 0.78371-1.6187 0.32621-0.82462 0.6778-1.5473 0.78132-1.606 0.34325-0.19452 8.8006-1.5878 12.102-1.9937 1.1455-0.14083 3.3127-0.37548 4.8161-0.52145 1.5034-0.14596 3.5174-0.36442 4.4755-0.48546 0.95811-0.12104 2.5592-0.22007 3.5579-0.22007 1.2213 0 1.8514-0.0977 1.9243-0.29839 0.15859-0.43638 27.567-0.43638 27.725 0 0.0753 0.20698 0.77509 0.29839 2.2843 0.29839 1.1967 0 2.2301 0.08057 2.2964 0.17904 0.0664 0.09847-3.7634 0.18369-8.5105 0.18937-14.689 0.01759-24.339 1.0025-40.912 4.1755-2.4656 0.47207-9.5027 2.3306-9.8926 2.6127-0.14318 0.1036-0.65273 0.26536-1.1323 0.35947-0.82651 0.16218-0.86202 0.14183-0.68082-0.39019zm63.647-6.648c0-0.13129 0.0517-0.23872 0.1148-0.23872s0.1872 0.10742 0.27569 0.23872c0.0885 0.13129 0.0368 0.23871-0.1148 0.23871-0.15163 0-0.27569-0.10742-0.27569-0.23871z" fill="#8fc76b"/>
  <path id="path5407" d="m65.751 46.032c0.11388-0.34887 0.29995-0.69502 0.41349-0.7692s0.49552-0.89734 0.84885-1.8292c0.35333-0.93189 0.73414-1.7486 0.84626-1.8149 0.37178-0.21983 9.5321-1.7944 13.108-2.2531 1.2407-0.15915 3.5881-0.42433 5.2164-0.58928 1.6284-0.16495 3.8098-0.41182 4.8475-0.54861s2.7719-0.2487 3.8536-0.2487c1.3228 0 2.0052-0.11042 2.0842-0.33721 0.17177-0.49315 30.899-0.34992 31.071 0.14323 0.0815 0.2339-1.5555 0.05076 0.0791 0.05076 1.2961 0-0.12095 0.23427-0.0491 0.34556 0.0719 0.11128-0.18605 0.20758-5.3278 0.21401-15.91 0.01987-26.362 1.1329-44.313 4.7188-2.6706 0.53348-10.293 2.6338-10.715 2.9526-0.15508 0.11707-0.70698 0.29988-1.2264 0.40623-0.89521 0.18328-0.93367 0.16028-0.73741-0.44095zm62.935-8.0356c-4.2613-0.28897-0.27947 0.27525 3.2462 1.3034-0.76948-0.32968-2.5326-1.2493-3.2462-1.3034z" stroke="#98be4c" stroke-width=".22064" fill="#8fc76b"/>
  <path id="path5422" d="m42.477 56.788c-0.30991-0.11083-0.3689-0.19284-0.14532-0.20203 0.27747-0.0114 0.24709-0.10071-0.11561-0.33983-0.45695-0.30127-0.35328-0.40431 1.4561-1.4473 3.5448-2.0435 15.701-7.1338 16.125-6.7521 0.36723 0.33101-0.3018 0.80878-1.9277 1.3767-4.5703 1.5962-14.696 6.6408-14.348 7.1483 0.19722 0.28782-0.46254 0.42447-1.0445 0.21635zm21.578-5.7649c-0.26998-0.15409-0.2977-0.29987-0.09952-0.52327 0.1511-0.17032 0.34776-0.9414 0.43703-1.7135 0.31223-2.7006 2.7651-8.9697 5.1229-13.093l1.069-1.8696-0.11519 1.465c-0.07747 0.9853-0.36021 1.9042-0.86349 2.8063-0.41156 0.7377-1.2603 2.5811-1.886 4.0965-1.3161 3.1871-1.2579 3.4899 0.58114 3.023 5.261-1.3356 10.526-2.507 14.697-3.2702 8.291-1.5168 21.794-3.0474 26.122-2.961 0.95276 0.01902-0.0198 0.15421-2.4818 0.34502-11.794 0.91406-22.706 2.6516-33.296 5.3019-7.1923 1.7999-7.3397 1.8623-7.8257 3.3143-0.21565 0.6443-0.47375 1.6504-0.57356 2.2359-0.1897 1.1128-0.27433 1.1931-0.88808 0.84284zm-27.763-5.857c-0.09409-0.08481 0.47802-0.38869 1.2713-0.6753 1.8123-0.65472 3.8954-2.0784 5.9144-4.0421 1.2425-1.2084 1.6167-1.4531 1.8072-1.1815 0.13213 0.18839 0.2415 0.51537 0.24304 0.72663 0.0043 0.5908-4.3908 4.1657-5.8797 4.7825-1.2514 0.51839-2.9896 0.72022-3.3563 0.38973zm12.63-3.5289c0.000416-0.11263 0.32761-0.26252 0.72725-0.33308 0.90958-0.1606 2.9576-1.749 4.0069-3.1077 0.85732-1.1101 1.286-1.145 1.2828-0.10434-0.0026 0.85847-0.91616 2.0367-2.3174 2.989-0.92372 0.62774-1.3637 0.76697-2.4148 0.76424-0.70694-0.0019-1.2851-0.09549-1.2847-0.20812zm9.6654-1.1744c0.000417-0.12872 0.19604-0.23354 0.43475-0.23292 0.23872 0.000573 0.95383-0.27011 1.5891-0.60162 0.63531-0.33151 1.2131-0.55044 1.2841-0.4865 0.07093 0.06393-0.05999 0.44149-0.29092 0.83903-0.38397 0.66096-0.531 0.7225-1.7188 0.71942-0.71441-0.0019-1.2986-0.10869-1.2982-0.23741zm-20.069-2.259c-0.5777-1.2669 0.26296-4.8659 1.7522-7.5018 2.8939-5.1219 10.252-12.495 12.464-12.489 1.1003 0.0028 1.0455 0.41563-0.14385 1.0842-1.6502 0.92754-5.3133 4.3063-7.5197 6.9358-3.4857 4.1543-5.4828 7.9173-6.0342 11.37-0.20388 1.2766-0.20793 1.2813-0.51828 0.60077zm73.286 0.58653c0.61434-0.04785 1.5544-0.04471 2.089 0.0071 0.53463 0.05167 0.032 0.09082-1.117 0.08699-1.149-0.0039-1.5864-0.04611-0.97205-0.09396zm-38.465-0.884c-0.1271-0.18549-0.07291-0.34536 0.13826-0.40784 0.19102-0.05652 1.2414-0.50331 2.3342-0.99286 4.7861-2.1441 8.9197-6.3523 10.075-10.257 0.27556-0.93141 0.42903-1.167 0.564-0.86565 0.23037 0.51432 0.13229 0.86446-1.0896 3.8898-0.85904 2.1269-1.18 2.6199-2.564 3.9384-0.87014 0.82899-2.2622 1.9736-3.0935 2.5435-2.5197 1.7275-5.8768 2.8623-6.3641 2.1512zm-13.412-1.829c0.32811-0.78834 5.2675-9.4815 6.9381-12.211 1.8349-2.9978 2.7037-4.7258 3.2566-6.4779 0.58307-1.8477 0.9454-1.5689 0.76461 0.58831-0.12334 1.4717-0.50169 2.2095-6.2572 12.203-2.8283 4.9109-4.0169 6.5369-4.7803 6.5396-0.10416 0.000573-0.06897-0.28864 0.07821-0.64225zm28.837 0.259c-0.52166-0.19382-0.52166-0.19382 0.001-0.36616 1.7818-0.58736 2.9016-1.1227 3.9504-1.8885 0.96636-0.70561 1.235-0.806 1.4264-0.53311 0.4079 0.58133 0.27152 0.8613-0.78151 1.6044-1.7693 1.2486-3.3355 1.6518-4.5965 1.1833zm8.7674-0.90784c-0.278-0.15866-0.30018-0.29322-0.08622-0.52324 0.15841-0.1703 0.78514-1.1509 1.3927-2.1791 1.6572-2.8043 3.3358-4.9732 5.1071-6.5985 1.8565-1.7035 2.4351-1.8895 1.8054-0.58042-0.23189 0.48211-0.48268 1.0081-0.55731 1.1688-0.0746 0.16071-0.22639 0.29197-0.33724 0.29168-0.61767-0.0015-6.0329 7.5278-6.0356 8.3919-0.001 0.30579-0.77344 0.3231-1.2889 0.02889zm-46.059-0.894c0.1374-0.63559 3.4679-6.5029 5.0741-8.939 0.25418-0.38551 0.60423-1.0955 0.7779-1.5778 0.59202-1.644 1.3491-0.78329 0.82851 0.94198-0.17298 0.5733-1.4298 2.8555-2.7929 5.0715s-2.5974 4.3075-2.743 4.6477c-0.16436 0.38422-0.46236 0.61798-0.78676 0.61714-0.44828-0.0011-0.49893-0.10895-0.35784-0.76157zm56.489 0.25998c0.00021-0.09851 0.55926-0.35671 1.2421-0.57378 0.68288-0.21707 1.8138-0.81811 2.5133-1.3356 0.69943-0.51754 1.3627-0.94074 1.4739-0.94045 0.11123 0.000382 0.27459 0.23768 0.36303 0.52754 0.17963 0.5888-0.82354 1.5082-2.3478 2.1516-0.8664 0.36576-3.2456 0.49094-3.2446 0.17072zm18.887 0.08001c0.19525-0.18177 0.83219-0.32177 4.4866-0.98617 0.57481-0.1045 1.386-0.27191 1.8027-0.37202 1.0706-0.25721 0.67218 0.22613-0.71216 0.86388-0.80617 0.37139-1.7115 0.52918-3.4441 0.60028-1.3233 0.0543-2.2554 0.008-2.133-0.10597zm-9.6817-0.53836c-0.20857-0.11944 0.13273-0.29113 0.94536-0.47556 0.69947-0.15875 2.0426-0.68968 2.9846-1.1799 1.6622-0.86487 1.7173-0.87644 1.8635-0.39124 0.3716 1.2334-4.3196 2.8907-5.7935 2.0466zm-45.764-1.711c0.0012-0.40713 2.9948-4.0709 4.1085-5.0284 2.3069-1.9832 4.5334-2.9373 4.5303-1.9412-0.000625 0.19308-0.12135 0.35075-0.26834 0.35037-0.66893-0.0017-5.0218 4.0805-6.4005 6.0025-0.11658 0.16252-1.9703 0.74284-1.9699 0.61669zm18.281-0.5834c0.000625-0.16998 0.87767-1.8797 1.9492-3.7995 1.0715-1.9197 2.0329-3.7892 2.1364-4.1545 0.24816-0.87591 0.6309-0.36273 0.63265 0.84828 0.0022 1.532-3.575 7.4177-4.5069 7.4153-0.11675-0.000382-0.21185-0.13962-0.21132-0.3096zm19.337-1.1221c-0.005-0.10675 0.71498-1.5208 1.6008-3.1423 0.98974-1.8118 1.6784-3.4042 1.7864-4.1311l0.17584-1.1828 0.33469 0.88338c0.44321 1.1698 0.17429 2.5146-0.84752 4.2382-0.76304 1.2871-3.0286 3.764-3.0502 3.3347zm18.973-0.10779c-0.072-0.19328-0.19497-0.53176-0.27321-0.7522-0.24706-0.69602 0.51785-2.7325 1.5068-4.0119 0.5241-0.67794 0.95328-1.3566 0.95375-1.508 0.00041-0.15148 0.23586-0.27481 0.5231-0.27407 0.85136 0.0022 0.63296 0.90349-0.67124 2.7701-0.65462 0.93692-1.3518 2.2489-1.5492 2.9155-0.19748 0.66658-0.41797 1.0538-0.49 0.86056zm-11.143-2.258c0.003-0.86024 1.912-3.4164 3.5462-4.7474 2.38-1.9385 4.8263-2.7451 6.5145-2.1479 0.40422 0.14298 0.24862 0.23731-0.76372 0.463-2.7312 0.60887-5.7315 2.8472-7.4664 5.5702-0.9857 1.5471-1.8339 1.9466-1.8306 0.86216zm11.876-6.7769c-0.29638-0.11063 1.6117-1.959 2.0212-1.9579 0.31682 0.000764 0.28686 1.1015-0.045 1.6536-0.2564 0.42652-1.2422 0.57833-1.9761 0.30433zm-72.325-1.5345c-0.0748-0.17617 0.22409-0.64123 0.66421-1.0335 0.53884-0.48022 0.80092-0.94386 0.80239-1.4195 0.0025-0.79336 0.38784-1.1588 0.6273-0.59481 0.08624 0.2031 0.15538 0.82695 0.15365 1.3863-0.0025 0.81998-0.13675 1.1107-0.69267 1.5003-0.7977 0.5591-1.3611 0.61746-1.5549 0.16108zm38.543-0.538c-0.33367-0.21278-0.3363-0.26855-0.01799-0.38081 0.7151-0.25219 2.5809-1.9485 2.9024-2.6387 0.41181-0.88411 0.69609-0.88135 0.91135 0.0088 0.21142 0.87429-0.62741 2.1846-1.8094 2.8265-0.91847 0.49875-1.4202 0.5453-1.9864 0.18426z" stroke="#042155" stroke-width=".19974" fill="#0d265f"/>
  <path id="path5453" d="m42.477 56.788c-0.30991-0.11083-0.3689-0.19284-0.14532-0.20203 0.27747-0.0114 0.24709-0.10071-0.11561-0.33983-0.45695-0.30127-0.35328-0.40431 1.4561-1.4473 3.5448-2.0435 15.701-7.1338 16.125-6.7521 0.36723 0.33101-0.3018 0.80878-1.9277 1.3767-4.5703 1.5962-14.696 6.6408-14.348 7.1483 0.19722 0.28782-0.46254 0.42447-1.0445 0.21635zm21.578-5.7649c-0.26998-0.15409-0.2977-0.29987-0.09952-0.52327 0.1511-0.17032 0.34776-0.9414 0.43703-1.7135 0.31223-2.7006 2.7651-8.9697 5.1229-13.093l1.069-1.8696-0.11519 1.465c-0.07747 0.9853-0.36021 1.9042-0.86349 2.8063-0.41156 0.7377-1.2603 2.5811-1.886 4.0965-1.3161 3.1871-1.2579 3.4899 0.58114 3.023 5.261-1.3356 10.526-2.507 14.697-3.2702 8.291-1.5168 21.794-3.0474 26.122-2.961 0.95276 0.01902-0.0198 0.15421-2.4818 0.34502-11.794 0.91406-22.706 2.6516-33.296 5.3019-7.1923 1.7999-7.3397 1.8623-7.8257 3.3143-0.21565 0.6443-0.47375 1.6504-0.57356 2.2359-0.1897 1.1128-0.27433 1.1931-0.88808 0.84284zm-27.763-5.857c-0.09409-0.08481 0.47802-0.38869 1.2713-0.6753 1.8123-0.65472 3.8954-2.0784 5.9144-4.0421 1.2425-1.2084 1.6167-1.4531 1.8072-1.1815 0.13213 0.18839 0.2415 0.51537 0.24304 0.72663 0.0043 0.5908-4.3908 4.1657-5.8797 4.7825-1.2514 0.51839-2.9896 0.72022-3.3563 0.38973zm12.63-3.5289c0.000416-0.11263 0.32761-0.26252 0.72725-0.33308 0.90958-0.1606 2.9576-1.749 4.0069-3.1077 0.85732-1.1101 1.286-1.145 1.2828-0.10434-0.0026 0.85847-0.91616 2.0367-2.3174 2.989-0.92372 0.62774-1.3637 0.76697-2.4148 0.76424-0.70694-0.0019-1.2851-0.09549-1.2847-0.20812zm9.6654-1.1744c0.000417-0.12872 0.19604-0.23354 0.43475-0.23292 0.23872 0.000573 0.95383-0.27011 1.5891-0.60162 0.63531-0.33151 1.2131-0.55044 1.2841-0.4865 0.07093 0.06393-0.05999 0.44149-0.29092 0.83903-0.38397 0.66096-0.531 0.7225-1.7188 0.71942-0.71441-0.0019-1.2986-0.10869-1.2982-0.23741zm-20.069-2.259c-0.5777-1.2669 0.26296-4.8659 1.7522-7.5018 2.8939-5.1219 10.252-12.495 12.464-12.489 1.1003 0.0028 1.0455 0.41563-0.14385 1.0842-1.6502 0.92754-5.3133 4.3063-7.5197 6.9358-3.4857 4.1543-5.4828 7.9173-6.0342 11.37-0.20388 1.2766-0.20793 1.2813-0.51828 0.60077zm73.286 0.58653c0.61434-0.04785 1.5544-0.04471 2.089 0.0071 0.53463 0.05167 0.032 0.09082-1.117 0.08699-1.149-0.0039-1.5864-0.04611-0.97205-0.09396zm-38.465-0.884c-0.1271-0.18549-0.07291-0.34536 0.13826-0.40784 0.19102-0.05652 1.2414-0.50331 2.3342-0.99286 4.7861-2.1441 8.9197-6.3523 10.075-10.257 0.27556-0.93141 0.42903-1.167 0.564-0.86565 0.23037 0.51432 0.13229 0.86446-1.0896 3.8898-0.85904 2.1269-1.18 2.6199-2.564 3.9384-0.87014 0.82899-2.2622 1.9736-3.0935 2.5435-2.5197 1.7275-5.8768 2.8623-6.3641 2.1512zm-13.412-1.829c0.32811-0.78834 5.2675-9.4815 6.9381-12.211 1.8349-2.9978 2.7037-4.7258 3.2566-6.4779 0.58307-1.8477 0.9454-1.5689 0.76461 0.58831-0.12334 1.4717-0.50169 2.2095-6.2572 12.203-2.8283 4.9109-4.0169 6.5369-4.7803 6.5396-0.10416 0.000573-0.06897-0.28864 0.07821-0.64225zm28.837 0.259c-0.52166-0.19382-0.52166-0.19382 0.001-0.36616 1.7818-0.58736 2.9016-1.1227 3.9504-1.8885 0.96636-0.70561 1.235-0.806 1.4264-0.53311 0.4079 0.58133 0.27152 0.8613-0.78151 1.6044-1.7693 1.2486-3.3355 1.6518-4.5965 1.1833zm8.7674-0.90784c-0.278-0.15866-0.30018-0.29322-0.08622-0.52324 0.15841-0.1703 0.78514-1.1509 1.3927-2.1791 1.6572-2.8043 3.3358-4.9732 5.1071-6.5985 1.8565-1.7035 2.4351-1.8895 1.8054-0.58042-0.23189 0.48211-0.48268 1.0081-0.55731 1.1688-0.0746 0.16071-0.22639 0.29197-0.33724 0.29168-0.61767-0.0015-6.0329 7.5278-6.0356 8.3919-0.001 0.30579-0.77344 0.3231-1.2889 0.02889zm-46.059-0.894c0.1374-0.63559 3.4679-6.5029 5.0741-8.939 0.25418-0.38551 0.60423-1.0955 0.7779-1.5778 0.59202-1.644 1.3491-0.78329 0.82851 0.94198-0.17298 0.5733-1.4298 2.8555-2.7929 5.0715s-2.5974 4.3075-2.743 4.6477c-0.16436 0.38422-0.46236 0.61798-0.78676 0.61714-0.44828-0.0011-0.49893-0.10895-0.35784-0.76157zm56.489 0.25998c0.00021-0.09851 0.55926-0.35671 1.2421-0.57378 0.68288-0.21707 1.8138-0.81811 2.5133-1.3356 0.69943-0.51754 1.3627-0.94074 1.4739-0.94045 0.11123 0.000382 0.27459 0.23768 0.36303 0.52754 0.17963 0.5888-0.82354 1.5082-2.3478 2.1516-0.8664 0.36576-3.2456 0.49094-3.2446 0.17072zm18.887 0.08001c0.19525-0.18177 0.83219-0.32177 4.4866-0.98617 0.57481-0.1045 1.386-0.27191 1.8027-0.37202 1.0706-0.25721 0.67218 0.22613-0.71216 0.86388-0.80617 0.37139-1.7115 0.52918-3.4441 0.60028-1.3233 0.0543-2.2554 0.008-2.133-0.10597zm-9.6817-0.53836c-0.20857-0.11944 0.13273-0.29113 0.94536-0.47556 0.69947-0.15875 2.0426-0.68968 2.9846-1.1799 1.6622-0.86487 1.7173-0.87644 1.8635-0.39124 0.3716 1.2334-4.3196 2.8907-5.7935 2.0466zm-45.764-1.711c0.0012-0.40713 2.9948-4.0709 4.1085-5.0284 2.3069-1.9832 4.5334-2.9373 4.5303-1.9412-0.000625 0.19308-0.12135 0.35075-0.26834 0.35037-0.66893-0.0017-5.0218 4.0805-6.4005 6.0025-0.11658 0.16252-1.9703 0.74284-1.9699 0.61669zm18.281-0.5834c0.000625-0.16998 0.87767-1.8797 1.9492-3.7995 1.0715-1.9197 2.0329-3.7892 2.1364-4.1545 0.24816-0.87591 0.6309-0.36273 0.63265 0.84828 0.0022 1.532-3.575 7.4177-4.5069 7.4153-0.11675-0.000382-0.21185-0.13962-0.21132-0.3096zm19.337-1.1221c-0.005-0.10675 0.71498-1.5208 1.6008-3.1423 0.98974-1.8118 1.6784-3.4042 1.7864-4.1311l0.17584-1.1828 0.33469 0.88338c0.44321 1.1698 0.17429 2.5146-0.84752 4.2382-0.76304 1.2871-3.0286 3.764-3.0502 3.3347zm18.973-0.10779c-0.072-0.19328-0.19497-0.53176-0.27321-0.7522-0.24706-0.69602 0.51785-2.7325 1.5068-4.0119 0.5241-0.67794 0.95328-1.3566 0.95375-1.508 0.00041-0.15148 0.23586-0.27481 0.5231-0.27407 0.85136 0.0022 0.63296 0.90349-0.67124 2.7701-0.65462 0.93692-1.3518 2.2489-1.5492 2.9155-0.19748 0.66658-0.41797 1.0538-0.49 0.86056zm-11.143-2.258c0.003-0.86024 1.912-3.4164 3.5462-4.7474 2.38-1.9385 4.8263-2.7451 6.5145-2.1479 0.40422 0.14298 0.24862 0.23731-0.76372 0.463-2.7312 0.60887-5.7315 2.8472-7.4664 5.5702-0.9857 1.5471-1.8339 1.9466-1.8306 0.86216zm11.876-6.7769c-0.29638-0.11063 1.6117-1.959 2.0212-1.9579 0.31682 0.000764 0.28686 1.1015-0.045 1.6536-0.2564 0.42652-1.2422 0.57833-1.9761 0.30433zm-72.325-1.5345c-0.0748-0.17617 0.22409-0.64123 0.66421-1.0335 0.53884-0.48022 0.80092-0.94386 0.80239-1.4195 0.0025-0.79336 0.38784-1.1588 0.6273-0.59481 0.08624 0.2031 0.15538 0.82695 0.15365 1.3863-0.0025 0.81998-0.13675 1.1107-0.69267 1.5003-0.7977 0.5591-1.3611 0.61746-1.5549 0.16108zm38.543-0.538c-0.33367-0.21278-0.3363-0.26855-0.01799-0.38081 0.7151-0.25219 2.5809-1.9485 2.9024-2.6387 0.41181-0.88411 0.69609-0.88135 0.91135 0.0088 0.21142 0.87429-0.62741 2.1846-1.8094 2.8265-0.91847 0.49875-1.4202 0.5453-1.9864 0.18426z" stroke="#042155" stroke-width=".19974" fill="#0d265f"/>
  <path id="path5455" d="m42.477 56.788c-0.30991-0.11083-0.3689-0.19284-0.14532-0.20203 0.27747-0.0114-0.79424 0.44493-1.1569 0.2058-0.45695-0.30127 0.68804-0.94995 2.4974-1.993 3.5448-2.0435 15.701-7.1338 16.125-6.7521 0.36723 0.33101-0.3018 0.80878-1.9277 1.3767-4.5703 1.5962-14.696 6.6408-14.348 7.1483 0.19722 0.28782-0.46254 0.42447-1.0445 0.21635zm21.578-5.7649c-0.26998-0.15409-0.2977-0.29987-0.09952-0.52327 0.1511-0.17032 0.34776-0.9414 0.43703-1.7135 0.31223-2.7006 2.7651-8.9697 5.1229-13.093l1.069-1.8696-0.11519 1.465c-0.07747 0.9853-0.36021 1.9042-0.86349 2.8063-0.41156 0.7377-1.2603 2.5811-1.886 4.0965-1.3161 3.1871-1.2579 3.4899 0.58114 3.023 5.261-1.3356 10.526-2.507 14.697-3.2702 8.291-1.5168 41.653-3.4703 45.982-3.3839 0.95276 0.01902-19.879 0.57708-22.341 0.76789-11.794 0.91406-22.706 2.6516-33.296 5.3019-7.1923 1.7999-7.3397 1.8623-7.8257 3.3143-0.21565 0.6443-0.47375 1.6504-0.57356 2.2359-0.1897 1.1128-0.27433 1.1931-0.88808 0.84284zm-27.763-5.857c-0.09409-0.08481 0.47802-0.38869 1.2713-0.6753 1.8123-0.65472 3.8954-2.0784 5.9144-4.0421 1.2425-1.2084 1.6167-1.4531 1.8072-1.1815 0.13213 0.18839 0.2415 0.51537 0.24304 0.72663 0.0043 0.5908-4.3908 4.1657-5.8797 4.7825-1.2514 0.51839-2.9896 0.72022-3.3563 0.38973zm12.63-3.5289c0.000416-0.11263 0.32761-0.26252 0.72725-0.33308 0.90958-0.1606 2.9576-1.749 4.0069-3.1077 0.85732-1.1101 1.286-1.145 1.2828-0.10434-0.0026 0.85847-0.91616 2.0367-2.3174 2.989-0.92372 0.62774-1.3637 0.76697-2.4148 0.76424-0.70694-0.0019-1.2851-0.09549-1.2847-0.20812zm9.6654-1.1744c0.000417-0.12872 0.19604-0.23354 0.43475-0.23292 0.23872 0.000573 0.95383-0.27011 1.5891-0.60162 0.63531-0.33151 1.2131-0.55044 1.2841-0.4865 0.07093 0.06393-0.05999 0.44149-0.29092 0.83903-0.38397 0.66096-0.531 0.7225-1.7188 0.71942-0.71441-0.0019-1.2986-0.10869-1.2982-0.23741zm-20.069-2.259c-0.5777-1.2669 0.26296-4.8659 1.7522-7.5018 2.8939-5.1219 10.252-12.495 12.464-12.489 1.1003 0.0028 1.0455 0.41563-0.14385 1.0842-1.6502 0.92754-5.3133 4.3063-7.5197 6.9358-3.4857 4.1543-5.4828 7.9173-6.0342 11.37-0.20388 1.2766-0.20793 1.2813-0.51828 0.60077zm72.401 1.2549c0.61434-0.04785 17.375-0.98593 17.91-0.93408 0.53462 0.05167-8.6036 0.02944-9.7526 0.02561-1.149-0.0039-10.802 0.38358-10.188 0.33573zm-37.585-1.552c-0.1271-0.18549-0.07291-0.34536 0.13826-0.40784 0.19102-0.05652 1.2414-0.50331 2.3342-0.99286 4.7861-2.1441 8.9197-6.3523 10.075-10.257 0.27556-0.93141 0.42903-1.167 0.564-0.86565 0.23037 0.51432 0.13229 0.86446-1.0896 3.8898-0.85904 2.1269-1.18 2.6199-2.564 3.9384-0.87014 0.82899-2.2622 1.9736-3.0935 2.5435-2.5197 1.7275-5.8768 2.8623-6.3641 2.1512zm-13.412-1.829c0.32811-0.78834 5.2675-9.4815 6.9381-12.211 1.8349-2.9978 2.7037-4.7258 3.2566-6.4779 0.58307-1.8477 0.9454-1.5689 0.76461 0.58831-0.12334 1.4717-0.50169 2.2095-6.2572 12.203-2.8283 4.9109-4.0169 6.5369-4.7803 6.5396-0.10416 0.000573-0.06897-0.28864 0.07821-0.64225zm28.837 0.259c-0.52166-0.19382-0.52166-0.19382 0.001-0.36616 1.7818-0.58736 2.9016-1.1227 3.9504-1.8885 0.96636-0.70561 1.235-0.806 1.4264-0.53311 0.4079 0.58133 0.27152 0.8613-0.78151 1.6044-1.7693 1.2486-3.3355 1.6518-4.5965 1.1833zm8.7674-0.90784c-0.278-0.15866-0.30018-0.29322-0.08622-0.52324 0.15841-0.1703 0.78514-1.1509 1.3927-2.1791 1.6572-2.8043 3.3358-4.9732 5.1071-6.5985 1.8565-1.7035 2.4351-1.8895 1.8054-0.58042-0.23189 0.48211-0.48268 1.0081-0.55731 1.1688-0.0746 0.16071-0.22639 0.29197-0.33724 0.29168-0.61767-0.0015-6.0329 7.5278-6.0356 8.3919-0.001 0.30579-0.77344 0.3231-1.2889 0.02889zm-46.059-0.894c0.1374-0.63559 3.4679-6.5029 5.0741-8.939 0.25418-0.38551 0.60423-1.0955 0.7779-1.5778 0.59202-1.644 1.3491-0.78329 0.82851 0.94198-0.17298 0.5733-1.4298 2.8555-2.7929 5.0715s-2.5974 4.3075-2.743 4.6477c-0.16436 0.38422-0.46236 0.61798-0.78676 0.61714-0.44828-0.0011-0.49893-0.10895-0.35784-0.76157zm56.489 0.25998c0.00021-0.09851 0.55926-0.35671 1.2421-0.57378 0.68288-0.21707 1.8138-0.81811 2.5133-1.3356 0.69943-0.51754 1.3627-0.94074 1.4739-0.94045 0.11123 0.000382 0.27459 0.23768 0.36303 0.52754 0.17963 0.5888-0.82354 1.5082-2.3478 2.1516-0.8664 0.36576-3.2456 0.49094-3.2446 0.17072zm18.887 0.08001c0.19525-0.18177 0.83219-0.32177 4.4866-0.98617 0.57481-0.1045 1.386-0.27191 1.8027-0.37202 1.0706-0.25721 0.67218 0.22613-0.71216 0.86388-0.80617 0.37139-1.7115 0.52918-3.4441 0.60028-1.3233 0.0543-2.2554 0.008-2.133-0.10597zm-9.6817-0.53836c-0.20857-0.11944 0.13273-0.29113 0.94536-0.47556 0.69947-0.15875 2.0426-0.68968 2.9846-1.1799 1.6622-0.86487 1.7173-0.87644 1.8635-0.39124 0.3716 1.2334-4.3196 2.8907-5.7935 2.0466zm-45.764-1.711c0.0012-0.40713 2.9948-4.0709 4.1085-5.0284 2.3069-1.9832 4.5334-2.9373 4.5303-1.9412-0.000625 0.19308-0.12135 0.35075-0.26834 0.35037-0.66893-0.0017-5.0218 4.0805-6.4005 6.0025-0.11658 0.16252-1.9703 0.74284-1.9699 0.61669zm18.281-0.5834c0.000625-0.16998 0.87767-1.8797 1.9492-3.7995 1.0715-1.9197 2.0329-3.7892 2.1364-4.1545 0.24816-0.87591 0.6309-0.36273 0.63265 0.84828 0.0022 1.532-3.575 7.4177-4.5069 7.4153-0.11675-0.000382-0.21185-0.13962-0.21132-0.3096zm19.337-1.1221c-0.005-0.10675 0.71498-1.5208 1.6008-3.1423 0.98974-1.8118 1.6784-3.4042 1.7864-4.1311l0.17584-1.1828 0.33469 0.88338c0.44321 1.1698 0.17429 2.5146-0.84752 4.2382-0.76304 1.2871-3.0286 3.764-3.0502 3.3347zm18.973-0.10779c-0.072-0.19328-0.19497-0.53176-0.27321-0.7522-0.24706-0.69602 0.51785-2.7325 1.5068-4.0119 0.5241-0.67794 0.95328-1.3566 0.95375-1.508 0.00041-0.15148 0.23586-0.27481 0.5231-0.27407 0.85136 0.0022 0.63296 0.90349-0.67124 2.7701-0.65462 0.93692-1.3518 2.2489-1.5492 2.9155-0.19748 0.66658-0.41797 1.0538-0.49 0.86056zm-11.143-2.258c0.003-0.86024 1.912-3.4164 3.5462-4.7474 2.38-1.9385 4.8263-2.7451 6.5145-2.1479 0.40422 0.14298 0.24862 0.23731-0.76372 0.463-2.7312 0.60887-5.7315 2.8472-7.4664 5.5702-0.9857 1.5471-1.8339 1.9466-1.8306 0.86216zm11.876-6.7769c-0.29638-0.11063 1.6117-1.959 2.0212-1.9579 0.31682 0.000764 0.28686 1.1015-0.045 1.6536-0.2564 0.42652-1.2422 0.57833-1.9761 0.30433zm-72.325-1.5345c-0.0748-0.17617 0.22409-0.64123 0.66421-1.0335 0.53884-0.48022 0.80092-0.94386 0.80239-1.4195 0.0025-0.79336 0.38784-1.1588 0.6273-0.59481 0.08624 0.2031 0.15538 0.82695 0.15365 1.3863-0.0025 0.81998-0.13675 1.1107-0.69267 1.5003-0.7977 0.5591-1.3611 0.61746-1.5549 0.16108zm38.543-0.538c-0.33367-0.21278-0.3363-0.26855-0.01799-0.38081 0.7151-0.25219 2.5809-1.9485 2.9024-2.6387 0.41181-0.88411 0.69609-0.88135 0.91135 0.0088 0.21142 0.87429-0.62741 2.1846-1.8094 2.8265-0.91847 0.49875-1.4202 0.5453-1.9864 0.18426z" stroke="#042155" stroke-width=".19974" fill="#0d265f"/>
  <path id="path5457" d="m42.477 56.788c-0.30991-0.11083-0.3689-0.19284-0.14532-0.20203 0.27747-0.0114-0.79424 0.44493-1.1569 0.2058-0.45695-0.30127 0.68804-0.94995 2.4974-1.993 3.5448-2.0435 15.701-7.1338 16.125-6.7521 0.36723 0.33101-0.3018 0.80878-1.9277 1.3767-4.5703 1.5962-14.696 6.6408-14.348 7.1483 0.19722 0.28782-0.46254 0.42447-1.0445 0.21635zm21.578-5.7649c-0.26998-0.15409-0.2977-0.29987-0.09952-0.52327 0.1511-0.17032 0.34776-0.9414 0.43703-1.7135 0.31223-2.7006 2.7651-8.9697 5.1229-13.093l1.069-1.8696-0.11519 1.465c-0.07747 0.9853-0.36021 1.9042-0.86349 2.8063-0.41156 0.7377-1.2603 2.5811-1.886 4.0965-1.3161 3.1871-1.2579 3.4899 0.58114 3.023 5.261-1.3356 10.526-2.507 14.697-3.2702 8.291-1.5168 41.653-3.4703 45.982-3.3839 0.95276 0.01902-19.879 0.57708-22.341 0.76789-11.794 0.91406-22.706 2.6516-33.296 5.3019-7.1923 1.7999-7.3397 1.8623-7.8257 3.3143-0.21565 0.6443-0.47375 1.6504-0.57356 2.2359-0.1897 1.1128-0.27433 1.1931-0.88808 0.84284zm-27.763-5.857c-0.09409-0.08481 0.47802-0.38869 1.2713-0.6753 1.8123-0.65472 3.8954-2.0784 5.9144-4.0421 1.2425-1.2084 1.6167-1.4531 1.8072-1.1815 0.13213 0.18839 0.2415 0.51537 0.24304 0.72663 0.0043 0.5908-4.3908 4.1657-5.8797 4.7825-1.2514 0.51839-2.9896 0.72022-3.3563 0.38973zm12.63-3.5289c0.000416-0.11263 0.32761-0.26252 0.72725-0.33308 0.90958-0.1606 2.9576-1.749 4.0069-3.1077 0.85732-1.1101 1.286-1.145 1.2828-0.10434-0.0026 0.85847-0.91616 2.0367-2.3174 2.989-0.92372 0.62774-1.3637 0.76697-2.4148 0.76424-0.70694-0.0019-1.2851-0.09549-1.2847-0.20812zm9.6654-1.1744c0.000417-0.12872 0.19604-0.23354 0.43475-0.23292 0.23872 0.000573 0.95383-0.27011 1.5891-0.60162 0.63531-0.33151 1.2131-0.55044 1.2841-0.4865 0.07093 0.06393-0.05999 0.44149-0.29092 0.83903-0.38397 0.66096-0.531 0.7225-1.7188 0.71942-0.71441-0.0019-1.2986-0.10869-1.2982-0.23741zm-20.069-2.259c-0.5777-1.2669 0.26296-4.8659 1.7522-7.5018 2.8939-5.1219 10.252-12.495 12.464-12.489 1.1003 0.0028 1.0455 0.41563-0.14385 1.0842-1.6502 0.92754-5.3133 4.3063-7.5197 6.9358-3.4857 4.1543-5.4828 7.9173-6.0342 11.37-0.20388 1.2766-0.20793 1.2813-0.51828 0.60077zm72.401 1.2549c0.61434-0.04785 17.375-0.98593 17.91-0.93408 0.53462 0.05167-8.6036 0.02944-9.7526 0.02561-1.149-0.0039-10.802 0.38358-10.188 0.33573zm-37.585-1.552c-0.1271-0.18549-0.07291-0.34536 0.13826-0.40784 0.19102-0.05652 1.2414-0.50331 2.3342-0.99286 4.7861-2.1441 8.9197-6.3523 10.075-10.257 0.27556-0.93141 0.42903-1.167 0.564-0.86565 0.23037 0.51432 0.13229 0.86446-1.0896 3.8898-0.85904 2.1269-1.18 2.6199-2.564 3.9384-0.87014 0.82899-2.2622 1.9736-3.0935 2.5435-2.5197 1.7275-5.8768 2.8623-6.3641 2.1512zm-13.412-1.829c0.32811-0.78834 5.2675-9.4815 6.9381-12.211 1.8349-2.9978 2.7037-4.7258 3.2566-6.4779 0.58307-1.8477 0.9454-1.5689 0.76461 0.58831-0.12334 1.4717-0.50169 2.2095-6.2572 12.203-2.8283 4.9109-4.0169 6.5369-4.7803 6.5396-0.10416 0.000573-0.06897-0.28864 0.07821-0.64225zm28.837 0.259c-0.52166-0.19382-0.52166-0.19382 0.001-0.36616 1.7818-0.58736 2.9016-1.1227 3.9504-1.8885 0.96636-0.70561 1.235-0.806 1.4264-0.53311 0.4079 0.58133 0.27152 0.8613-0.78151 1.6044-1.7693 1.2486-3.3355 1.6518-4.5965 1.1833zm8.7674-0.90784c-0.278-0.15866-0.30018-0.29322-0.08622-0.52324 0.15841-0.1703 0.78514-1.1509 1.3927-2.1791 1.6572-2.8043 3.3358-4.9732 5.1071-6.5985 1.8565-1.7035 2.4351-1.8895 1.8054-0.58042-0.23189 0.48211-0.48268 1.0081-0.55731 1.1688-0.0746 0.16071-0.22639 0.29197-0.33724 0.29168-0.61767-0.0015-6.0329 7.5278-6.0356 8.3919-0.001 0.30579-0.77344 0.3231-1.2889 0.02889zm-46.059-0.894c0.1374-0.63559 3.4679-6.5029 5.0741-8.939 0.25418-0.38551 0.60423-1.0955 0.7779-1.5778 0.59202-1.644 1.3491-0.78329 0.82851 0.94198-0.17298 0.5733-1.4298 2.8555-2.7929 5.0715s-2.5974 4.3075-2.743 4.6477c-0.16436 0.38422-0.46236 0.61798-0.78676 0.61714-0.44828-0.0011-0.49893-0.10895-0.35784-0.76157zm56.489 0.25998c0.00021-0.09851 0.55926-0.35671 1.2421-0.57378 0.68288-0.21707 1.8138-0.81811 2.5133-1.3356 0.69943-0.51754 1.3627-0.94074 1.4739-0.94045 0.11123 0.000382 0.27459 0.23768 0.36303 0.52754 0.17963 0.5888-0.82354 1.5082-2.3478 2.1516-0.8664 0.36576-3.2456 0.49094-3.2446 0.17072zm18.887 0.08001c0.19525-0.18177 0.83219-0.32177 4.4866-0.98617 0.57481-0.1045 1.386-0.27191 1.8027-0.37202 1.0706-0.25721 0.67218 0.22613-0.71216 0.86388-0.80617 0.37139-1.7115 0.52918-3.4441 0.60028-1.3233 0.0543-2.2554 0.008-2.133-0.10597zm-9.6817-0.53836c-0.20857-0.11944 0.13273-0.29113 0.94536-0.47556 0.69947-0.15875 2.0426-0.68968 2.9846-1.1799 1.6622-0.86487 1.7173-0.87644 1.8635-0.39124 0.3716 1.2334-4.3196 2.8907-5.7935 2.0466zm-45.764-1.711c0.0012-0.40713 2.9948-4.0709 4.1085-5.0284 2.3069-1.9832 4.5334-2.9373 4.5303-1.9412-0.000625 0.19308-0.12135 0.35075-0.26834 0.35037-0.66893-0.0017-5.0218 4.0805-6.4005 6.0025-0.11658 0.16252-1.9703 0.74284-1.9699 0.61669zm18.281-0.5834c0.000625-0.16998 0.87767-1.8797 1.9492-3.7995 1.0715-1.9197 2.0329-3.7892 2.1364-4.1545 0.24816-0.87591 0.6309-0.36273 0.63265 0.84828 0.0022 1.532-3.575 7.4177-4.5069 7.4153-0.11675-0.000382-0.21185-0.13962-0.21132-0.3096zm19.337-1.1221c-0.005-0.10675 0.71498-1.5208 1.6008-3.1423 0.98974-1.8118 1.6784-3.4042 1.7864-4.1311l0.17584-1.1828 0.33469 0.88338c0.44321 1.1698 0.17429 2.5146-0.84752 4.2382-0.76304 1.2871-3.0286 3.764-3.0502 3.3347zm18.973-0.10779c-0.072-0.19328-0.19497-0.53176-0.27321-0.7522-0.24706-0.69602 0.51785-2.7325 1.5068-4.0119 0.5241-0.67794 0.95328-1.3566 0.95375-1.508 0.00041-0.15148 0.23586-0.27481 0.5231-0.27407 0.85136 0.0022 0.63296 0.90349-0.67124 2.7701-0.65462 0.93692-1.3518 2.2489-1.5492 2.9155-0.19748 0.66658-0.41797 1.0538-0.49 0.86056zm-11.143-2.258c0.003-0.86024 1.912-3.4164 3.5462-4.7474 2.38-1.9385 4.8263-2.7451 6.5145-2.1479 0.40422 0.14298 0.24862 0.23731-0.76372 0.463-2.7312 0.60887-5.7315 2.8472-7.4664 5.5702-0.9857 1.5471-1.8339 1.9466-1.8306 0.86216zm11.876-6.7769c-0.29638-0.11063 1.6117-1.959 2.0212-1.9579 0.31682 0.000764 0.28686 1.1015-0.045 1.6536-0.2564 0.42652-1.2422 0.57833-1.9761 0.30433zm-72.325-1.5345c-0.0748-0.17617 0.22409-0.64123 0.66421-1.0335 0.53884-0.48022 0.80092-0.94386 0.80239-1.4195 0.0025-0.79336 0.38784-1.1588 0.6273-0.59481 0.08624 0.2031 0.15538 0.82695 0.15365 1.3863-0.0025 0.81998-0.13675 1.1107-0.69267 1.5003-0.7977 0.5591-1.3611 0.61746-1.5549 0.16108zm38.543-0.538c-0.33367-0.21278-0.3363-0.26855-0.01799-0.38081 0.7151-0.25219 2.5809-1.9485 2.9024-2.6387 0.41181-0.88411 0.69609-0.88135 0.91135 0.0088 0.21142 0.87429-0.62741 2.1846-1.8094 2.8265-0.91847 0.49875-1.4202 0.5453-1.9864 0.18426z" stroke="#042155" stroke-width=".19974" fill="#0d265f"/>
  <path id="path4982-8" d="m86.015 83.114c-3.8594-3.1523-6.021-7.4927-5.2073-10.456 0.32721-1.1916 0.84292-1.5764 1.3982-1.0432 0.18958 0.18207 1.002 1.6738 1.8055 3.315 1.5451 3.1563 3.4639 6.3557 4.485 7.4782 0.79492 0.87392 0.77186 1.1508-0.13531 1.6239-0.74568 0.38893-0.74607 0.38878-2.346-0.91802zm7.2341-4.0956c-3.3726-2.355-6.3205-5.5805-9.1333-9.9931-1.0576-1.6592-1.7121-2.4504-2.0271-2.4504-0.25581 0-1.005 0.57944-1.6648 1.2876-0.67053 0.71969-2.4198 2.0492-3.9658 3.0142-3.1002 1.9351-3.4736 2.4288-4.0199 5.3155-0.36709 1.9398-0.77313 2.4051-1.909 2.1876-1.0832-0.20738-1.452-0.56724-1.6337-1.5942-0.11037-0.62364 0.0217-1.2032 0.48558-2.1319 0.68226-1.3657 1.0014-1.6074 4.8614-3.6822 2.5295-1.3596 5.6968-4.1181 6.521-5.6793 0.40811-0.77303 0.61531-1.8023 0.78167-3.8831 0.23749-2.9704 0.65322-4.3911 1.7176-5.8697 0.93776-1.3027 0.82416-1.7851-0.82994-3.5243-1.8618-1.9575-2.2616-2.815-2.2546-4.8359 0.004-1.1921-0.0854-1.6113-0.34415-1.6113-0.39875 0-1.5051 1.9458-3.4611 6.0872-3.6435 7.7144-3.8858 8.1275-4.4587 7.6022-0.16271-0.14919-0.0664-0.7264 0.27136-1.6266 0.28796-0.76747 0.52356-1.5934 0.52356-1.8354 0-1.5253-3.0021 1.1542-4.8778 4.3536-0.7375 1.2579-1.4939 2.3939-1.6809 2.5244-0.7327 0.51127-2.44 0.79463-3.3484 0.55574-0.99015-0.26039-18.939-0.27618-31.095-0.0273-4.262 0.0872-7.9079 0.0611-8.3723-0.06-0.72463-0.18894-0.97984-0.51795-2.141-2.7603-2.4128-4.6592-5.069-12.895-6.4331-19.946-0.53457-2.7632-0.69424-4.371-0.69932-7.0421-0.01-5.1039 0.90674-8.2666 3.4481-11.899 3.95-5.6464 10.479-8.485 24.481-10.643 23.516-3.6245 58.243-3.6808 81.615-0.1323 9.1841 1.3944 14.498 2.9303 18.422 5.3243 3.9596 2.4159 6.3863 5.344 8.0487 9.7117l0.86312 2.2678v5.2517c0 5.0195-0.0379 5.4176-0.85663 9.0014-2.1812 9.5473-5.8485 19.281-7.7425 20.549-0.51405 0.34425-0.74587 0.37438-1.1928 0.15506-0.68098-0.33419-41.49-0.0529-42.209 0.29089-0.26944 0.1288-0.45558 0.49182-0.45558 0.88852 0 0.37926-0.23849 0.86837-0.5488 1.1255-0.30184 0.25011-0.85549 0.99186-1.2303 1.6483-0.57735 1.0111-0.6825 1.5038-0.68778 3.2226-0.008 2.4897 0.47477 3.7537 2.2377 5.8628 0.69883 0.83604 1.2706 1.6294 1.2706 1.7629 0 0.30156-1.1688 0.58847-1.6736 0.41083-0.58347-0.20531-2.5042-2.5397-3.1751-3.859-0.33387-0.65647-0.68453-1.8216-0.77925-2.5892l-0.17222-1.3956-1.7208-1.0146c-4.152-2.448-5.9309-5.5723-6.089-10.694-0.0844-2.7364-0.30078-3.2624-1.1671-2.8373-0.96341 0.47279-1.4619 1.8894-1.5749 4.4753-0.12501 2.8617 0.22 4.1783 1.8974 7.2408 1.5656 2.8584 3.8497 5.5939 7.5961 9.0974 2.4745 2.3141 3.1364 3.0637 2.898 3.2823-0.44755 0.41039-0.48779 0.39508-2.3138-0.87995zm0.86568-10.713c0.2197-0.22976 0.60536-0.79373 0.85703-1.2532 0.25166-0.45953 0.90409-1.3529 1.4498-1.9852 1.6985-1.9679 1.6267-3.4055-0.28247-5.6537-0.97334-1.1462-2.4368-3.8172-3.2698-5.9679-0.38141-0.9847-0.88541-1.992-1.12-2.2383-0.53635-0.56333-8.5648-6.1167-8.8429-6.1167-0.1129 0-0.43267 0.15247-0.7106 0.33883-0.4081 0.27363-0.50534 0.62962-0.50534 1.85 0 2.0049 0.79264 3.4761 2.872 5.3306 2.4705 2.2034 2.5461 2.3634 2.7522 5.8258 0.15226 2.5579 0.30168 3.304 0.98887 4.938 0.85818 2.0406 2.0675 3.5414 3.7588 4.6648 1.1988 0.79626 1.5077 0.83644 2.0523 0.26687zm-49.625-11.935c2.2674-1.4739 5.347-3.1146 8.4336-4.493 2.8243-1.2613 6.5106-2.7282 6.8558-2.7282 0.12822 0 0.5418 0.26945 0.91906 0.59878 1.8118 1.5816 2.436 1.9992 3.094 2.0699 0.69148 0.0743 0.71867 0.0324 0.91384-1.4086 0.11064-0.81684 0.34567-1.8893 0.52229-2.3833 0.30553-0.85452 0.42861-0.93093 2.534-1.573 6.856-2.0908 18.194-4.4408 26.684-5.5306 11.152-1.4316 19.493-1.9134 30.13-1.7408 4.4671 0.0725 7.6816 0.0362 7.5994-0.0858-0.0784-0.11627-0.35171-0.2114-0.60744-0.2114-0.25572 0-0.66712-0.20484-0.91422-0.45522-1.5702-1.591-26.545-2.0288-41.154-0.72153-7.3964 0.66186-13.369 1.4312-18.438 2.3751-1.5316 0.28517-2.444 0.29862-2.6193 0.0386-0.13548-0.201 0.95937-2.5376 1.4355-3.0637 0.36945-0.40819 1.4568 0.0437 2.3364 0.97103 0.66564 0.70176 0.6966 0.70862 1.8223 0.40347 2.4652-0.66821 4.7392-2.0124 7.4414-4.3985l2.6548-2.3443 0.16813 0.91198c0.29034 1.5749 0.37493 1.7 1.9819 2.9312 1.3952 1.069 1.7062 1.2032 2.7844 1.2012 1.29-0.002 3.3523-0.90121 4.3131-1.8798 0.67864-0.69121 1.4142-0.63353 2.3553 0.18469 0.8722 0.75833 1.6843 1.0648 2.1108 0.79671 0.15186-0.0955 0.89602-1.2478 1.6537-2.5607 1.6003-2.7731 4.1158-6.0872 4.6203-6.0872 0.19176 0 0.34726 0.0269 0.34556 0.0597-0.002 0.0328-0.17604 0.6505-0.38741 1.3726-0.47102 1.6092-0.48341 3.0385-0.0328 3.7836 0.1866 0.30852 1.0267 1.0989 1.8669 1.7563 1.4561 1.1394 1.586 1.1902 2.7731 1.0856 1.1347-0.1 2.2411-0.63711 4.5171-2.1929 0.21415-0.14639 0.53416-0.0826 0.93722 0.18696 0.33662 0.22508 1.0221 0.68381 1.5232 1.0194 1.1927 0.79867 2.7998 0.685 4.9953-0.35332 0.87235-0.41255 1.7828-0.75009 2.0233-0.75009 0.24047 0 0.89763 0.35933 1.4603 0.79851 1.4584 1.1382 1.998 1.3507 3.4141 1.3441 1.7641-0.008 3.3169-0.379 4.5315-1.0821 1.7633-1.0207 1.7349-1.8106-0.0474-1.3209-0.5876 0.16143-1.1363 0.23123-1.2193 0.15512-0.083-0.0761 0.18992-0.46463 0.60652-0.86335 1.0167-0.97311 0.52941-1.252-1.337-0.76515-1.8842 0.49148-2.193 0.3413-2.1872-1.0636 0.005-1.1362 0.0796-1.2956 2.1891-4.6575 0.7967-1.2697 0.73079-1.8828-0.24629-2.2911-0.8344-0.34861-0.83256-1.0819 0.005-1.9946 0.98414-1.0725 0.84533-1.7119-0.6801-3.1329l-1.3309-1.2398h-2.0079c-1.8481 0-2.1913 0.0833-4.311 1.0465-1.8909 0.85919-2.7261 1.4362-4.6664 3.2239-1.2998 1.1976-2.6561 2.5789-3.014 3.0697-0.77283 1.0596-1.4263 1.2024-1.2318 0.26914 0.24025-1.1524-0.33225-2.3095-1.8536-3.7461-1.4472-1.3667-1.4902-1.3871-2.7156-1.2875-0.88722 0.072-1.641 0.35113-2.6224 0.97091-0.75749 0.47838-1.5 0.86979-1.6499 0.86979-0.14997 0-0.72714-0.43647-1.2826-0.96993-1.8738-1.7996-3.5742-2.1312-3.8815-0.75712-0.5714 2.5555-1.5086 4.24-4.2306 7.6036-2.815 3.4786-3.3974 3.5453-1.5032 0.17236 1.2124-2.1589 1.4434-3.2519 0.88839-4.2029-0.52869-0.90584-3.1443-3.0132-3.9383-3.1732-1.0504-0.21154-1.5355 0.31375-2.2651 2.4527-0.95203 2.7911-0.95227 2.7912-2.9505 0.95885-1.4512-1.3307-1.8964-1.5988-2.8793-1.734-1.5848-0.21792-3.6132 0.2228-5.574 1.2111-0.90092 0.45409-1.7394 0.82562-1.8634 0.82562-0.12394 0-0.63536-0.37598-1.1365-0.83551-0.73338-0.67247-1.1116-0.8355-1.9382-0.8355-1.319 0-1.7261 0.42141-2.4314 2.5172-0.30733 0.9132-0.9434 2.3586-1.4135 3.212-1.4428 2.6193-5.3331 7.3495-5.3331 6.4845 0-0.26598 3.3635-6.461 6.2424-11.498 1.6896-2.9559 2.3486-4.5702 2.3486-5.7538 0-1.2489-0.29475-1.7209-2.109-3.377-1.2462-1.1376-1.6569-1.3726-2.399-1.3726-0.49243 0-1.0133 0.13428-1.1575 0.29839-0.14421 0.16412-0.51066 1.2075-0.81435 2.3186-0.39834 1.4574-1.4562 3.6851-3.7974 7.9969-3.4534 6.3602-4.8009 9.229-5.3303 11.348-0.38505 1.5412-0.58974 1.9668-1.0074 2.0944-0.20289 0.062-0.30682-0.24397-0.30682-0.90332 0-0.79634-0.10483-1.0222-0.52067-1.122-0.28636-0.0687-0.52066-0.19515-0.52066-0.28106 0-0.0859 0.76505-1.443 1.7001-3.0158 2.4276-4.0832 3.4825-6.0887 3.6683-6.9738 0.13895-0.66197 0.0394-0.87729-0.69736-1.5084-0.47269-0.4049-1.001-0.98645-1.1741-1.2923-0.29297-0.51782-0.24378-0.58548 0.71334-0.98124 1.2112-0.50083 1.5175-0.94014 1.5157-2.1738-0.002-1.1131-0.76658-2.2822-2.3416-3.5788-1.5549-1.28-2.0863-1.5096-3.4946-1.5096-4.247 0-12.23 5.9463-16.932 12.613-1.6553 2.3466-3.3612 5.7028-4.0846 8.036-0.44937 1.4493-0.59439 2.5428-0.6015 4.5356-0.008 2.3536 0.0623 2.7661 0.68205 3.9783 0.40025 0.78287 1.0032 1.5298 1.4318 1.7737 0.40723 0.2317 1.1018 0.72808 1.5435 1.103 1.9332 1.6412 4.5716 0.83418 8.4333-2.5794 2.3233-2.0537 2.368-2.0791 3.0689-1.7475 0.39123 0.18506 1.0219 0.63189 1.4015 0.99295 1.307 1.2431 3.8848 0.7031 5.7057-1.1952 0.49137-0.51225 1.0138-1.1238 1.1609-1.3591 0.25195-0.40284 0.32004-0.39465 1.1715 0.14086 0.49719 0.31271 1.2346 0.87545 1.6388 1.2506 0.66998 0.62187 0.86043 0.67243 2.1603 0.57359 1.3274-0.10093 1.4202-0.0741 1.3479 0.38963-0.054 0.34639-0.39464 0.58846-1.1189 0.79508-0.57273 0.16338-2.9743 0.84653-5.3368 1.5181-8.4778 2.41-14.694 5.0969-16.719 7.2266-0.92337 0.9711-0.92365 2.0597-0.00084 3.6064 0.64017 1.073 0.90146 1.2659 2.6623 1.9654 1.0739 0.42658 2.0933 0.77741 2.2654 0.77961 0.17212 0.002 1.0979-0.50624 2.0573-1.1299zm-5.46-17.892c-0.5128-0.47022 0.0703-2.9907 1.3228-5.7179 1.5961-3.4754 6.4899-9.5071 9.8073-12.088 1.9306-1.5018 2.4439-1.7095 3.694-1.4944 1.3468 0.23167 1.9743 1.564 0.73661 1.564-1.6067 0-2.3956 0.80054-4.9404 5.013-3.7907 6.2748-9.8006 13.475-10.62 12.723zm34.199-6.6525c0-0.66551 4.3214-4.9099 5.6661-5.5651 1.5433-0.75199 0.62883 1.5495-1.284 3.2316-1.7282 1.5198-4.382 2.9329-4.382 2.3335zm44.379-3.2176c-0.18812-0.27911 1.1795-2.2928 2.4786-3.6495 1.3574-1.4176 4.9487-3.343 4.9487-2.6531 0 0.39344-2.2607 2.8396-3.9198 4.2413-2.0496 1.7317-3.253 2.4389-3.5075 2.0613zm-20.514-9.8993c0.97043-0.9287 1.1269-1.2203 1.1269-2.1007 0-1.0864-0.34213-1.5952-1.0727-1.5952-0.28563 0-0.50983-0.25848-0.61879-0.71341-0.094-0.39237-0.26929-0.76917-0.38957-0.83733-0.12027-0.0682-1.0059-0.0217-1.9681 0.10324-2.0164 0.26184-3.1071 1.0011-3.3126 2.2451-0.17169 1.0397 0.34456 1.8449 1.9206 2.9956 1.8812 1.3735 2.799 1.3528 4.3142-0.0973zm4.7266 56.281c-0.67203-0.89553-0.85252-1.3799-0.85859-2.3042-0.005-0.70844 0.11687-1.2097 0.3079-1.2702 0.42911-0.13571 4.0784 3.1754 3.8588 3.5013-0.15992 0.23728-2.0312 1.207-2.3292 1.207-0.0704 0-0.51094-0.51026-0.97893-1.1339z" fill="#6dc8ee"/>
 </g>
</svg>
