<?xml version="1.0" encoding="UTF-8" standalone="no"?>
<!-- Created with Inkscape (http://www.inkscape.org/) -->
<svg id="svg2" xmlns:rdf="http://www.w3.org/1999/02/22-rdf-syntax-ns#" xmlns="http://www.w3.org/2000/svg" height="100" width="165" version="1.1" xmlns:cc="http://creativecommons.org/ns#" xmlns:dc="http://purl.org/dc/elements/1.1/" viewBox="0 0 165 100">
 <metadata id="metadata7">
  <rdf:RDF>
   <cc:Work rdf:about="">
    <dc:format>image/svg+xml</dc:format>
    <dc:type rdf:resource="http://purl.org/dc/dcmitype/StillImage"/>
    <dc:title/>
   </cc:Work>
  </rdf:RDF>
 </metadata>
 <g id="layer1" transform="translate(0 -952.36)">
  <path id="rect4242" fill="#f00" d="m116.69 19.625v0.063h-116.66l0.00125 55.312h119.56 1 43.32 1.21v-55.375h-1.18-47.25zm9.72 0.063c3.64 15.288 9.07 27.183 16.18 36.093 6.5 0.327 10.77 1.558 11.85 5.313 0.05 0.338-0.66 0.199-0.97 0l-6.03 0.062c4.8 4.675 10.23 8.248 16.25 10.813v0.031c-1.23 0.282-2.48 0.445-3.75 0.5h-1.69c-4.99-0.176-10.29-2.039-15.56-5.781-1.49-1.082-5.64-4.086-8.1-4.219-5.11-0.279-5.52-0.403-5.62-1.75h17.28l-3.87-4.719c-23.73-0.225-25.71-25.863-15.97-36.343zm-78.535 12.562c0.793 0 1.48 0.272 1.969 0.812 0.499 0.541 0.718 1.241 0.718 2.094 0 0.866-0.219 1.572-0.718 2.125-0.489 0.553-1.176 0.844-1.969 0.844-0.783 0-1.407-0.279-1.906-0.844-0.499-0.577-0.75-1.295-0.75-2.125 0-0.853 0.251-1.553 0.75-2.094 0.499-0.54 1.123-0.812 1.906-0.812zm-33.906 1.375h5.593l7.5 25.875h-5.156l-1.5-5.75h-7.5l-1.468 5.75h-5.1568l7.6878-25.875zm2.625 4.625c-0.049 0.757-0.18 1.505-0.375 2.25l-2.281 8.75h5.374l-2.25-8.688c-0.166-0.649-0.275-1.41-0.343-2.312h-0.125zm43.625 2.312c4.285 0 6.406 2.622 6.406 7.876v11.062h-4.375v-2.656h-0.062c-1.008 2.067-2.493 3.094-4.469 3.094-1.458 0-2.628-0.491-3.469-1.5-0.832-1.022-1.219-2.399-1.219-4.094 0-3.583 1.703-5.635 5.157-6.188l4.093-0.687c0-2.02-0.907-3-2.687-3-1.791 0-3.48 0.658-5.094 1.969v-4.313c0.646-0.409 1.51-0.781 2.625-1.094 1.125-0.312 2.174-0.469 3.094-0.469zm19.625 0c3.326 0 5 2.552 5 7.626v11.312h-4.625v-10.281c0-2.861-0.837-4.281-2.5-4.281-0.803 0-1.482 0.398-2 1.156-0.519 0.757-0.75 1.709-0.75 2.875v10.531h-4.625v-18.469h4.625v2.938h0.031c1.106-2.248 2.73-3.407 4.844-3.407zm16.25 0c1.771 0 3.051 0.298 3.844 0.876v4.843c-0.969-0.889-2.057-1.343-3.25-1.343-1.331 0-2.405 0.475-3.188 1.437-0.773 0.95-1.156 2.255-1.156 3.937 0 1.635 0.381 2.938 1.125 3.876 0.743 0.925 1.761 1.374 3.062 1.374 1.155 0 2.301-0.422 3.407-1.312v4.594c-1.047 0.745-2.555 1.094-4.532 1.094-2.309 0-4.196-0.875-5.625-2.594-1.428-1.719-2.156-3.94-2.156-6.656 0-3.138 0.786-5.604 2.313-7.407 1.536-1.815 3.592-2.719 6.156-2.719zm12.936 0c4.29 0 6.44 2.622 6.44 7.876v11.062h-4.38v-2.656h-0.06c-1.01 2.067-2.49 3.094-4.47 3.094-1.46 0-2.62-0.491-3.47-1.5-0.83-1.022-1.25-2.399-1.25-4.094 0-3.583 1.74-5.635 5.19-6.188l4.09-0.687c0-2.02-0.9-3-2.68-3-1.79 0-3.48 0.658-5.1 1.969v-4.313c0.65-0.409 1.54-0.781 2.66-1.094 1.13-0.312 2.11-0.469 3.03-0.469zm-81.686 0.469h4.968l2.594 11.375c0.294 1.287 0.451 2.38 0.5 3.282h0.063c0.068-0.854 0.269-1.895 0.562-3.157l2.657-11.5h4.843l-5.593 18.469h-5.282l-5.312-18.469zm18.218 0h4.626v18.469h-4.626v-18.469zm16.719 9.688l-2.719 0.469c-1.506 0.24-2.281 1.069-2.281 2.5 0 0.649 0.169 1.172 0.531 1.593 0.372 0.409 0.874 0.625 1.5 0.625 0.871 0 1.578-0.36 2.126-1.094 0.547-0.745 0.843-1.682 0.843-2.812v-1.281zm48.839 0l-2.74 0.469c-1.51 0.24-2.26 1.069-2.26 2.5 0 0.649 0.21 1.172 0.57 1.593 0.37 0.409 0.84 0.625 1.47 0.625 0.87 0 1.57-0.36 2.12-1.094 0.55-0.745 0.84-1.682 0.84-2.812v-1.281z" transform="translate(0 952.36)"/>
 </g>
</svg>
