<?xml version="1.0" encoding="UTF-8" standalone="no"?>
<!-- Created with Inkscape (http://www.inkscape.org/) -->
<svg id="svg2" xmlns:rdf="http://www.w3.org/1999/02/22-rdf-syntax-ns#" xmlns="http://www.w3.org/2000/svg" height="100" width="165" version="1.1" xmlns:cc="http://creativecommons.org/ns#" xmlns:dc="http://purl.org/dc/elements/1.1/" viewBox="0 0 165 100">
 <metadata id="metadata7">
  <rdf:RDF>
   <cc:Work rdf:about="">
    <dc:format>image/svg+xml</dc:format>
    <dc:type rdf:resource="http://purl.org/dc/dcmitype/StillImage"/>
    <dc:title/>
   </cc:Work>
  </rdf:RDF>
 </metadata>
 <g id="layer1" transform="translate(0 -952.36)">
  <path id="rect5073" d="m40 5v90h85v-59.656l-2.88 3-2.24-2.156-1.16 1.156 1.94 2.5-3.25 3.375-10.16-14.531 4.56-4.688 13.19 10.719v-29.719h-85zm61.94 1.875c0.33-0.0187 0.63 0.0134 0.9 0.125 0.55 0.2233 1.3 0.8364 2.19 1.8125l0.44 0.5-2.81 2.8755-0.82-0.938c-0.38-0.425-0.66-0.645-0.84-0.688-0.18-0.042-0.36 0.016-0.53 0.188-0.18 0.186-0.24 0.404-0.19 0.656 0.05 0.253 0.21 0.557 0.5 0.875 0.38 0.41 0.71 0.651 1 0.75 0.29 0.105 0.8 0.062 1.53-0.125 2.11-0.533 3.6-0.714 4.44-0.531s1.81 0.89 2.91 2.094c0.8 0.875 1.28 1.605 1.46 2.219 0.19 0.613 0.15 1.338-0.15 2.187s-0.8 1.682-1.53 2.437c-0.81 0.829-1.64 1.363-2.5 1.626-0.87 0.262-1.62 0.225-2.25-0.094-0.64-0.32-1.38-0.923-2.22-1.844l-0.75-0.812 2.81-2.876 1.35 1.5c0.42 0.461 0.73 0.7 0.93 0.75 0.2 0.051 0.4-0.012 0.6-0.218s0.27-0.452 0.21-0.719c-0.05-0.267-0.23-0.577-0.53-0.906-0.66-0.723-1.17-1.094-1.56-1.125-0.39-0.027-1.21 0.095-2.44 0.344-1.22 0.243-2.07 0.362-2.53 0.374-0.46 0.013-0.95-0.119-1.5-0.374-0.54-0.256-1.121-0.692-1.716-1.344-0.859-0.941-1.361-1.739-1.532-2.406-0.17-0.668-0.124-1.392 0.157-2.157s0.785-1.5143 1.5-2.2498c0.781-0.804 1.581-1.358 2.371-1.6562 0.4-0.1491 0.76-0.2313 1.1-0.25zm-7.315 6.375l2.25 2.438-2.031 2.093 2.125 2.313 1.906-1.938 2.125 2.344-1.875 1.938 2.465 2.687 2.19-2.25 2.25 2.437-5.22 5.376-11.216-12.282 5.031-5.156zm-6.219 6.406l11.219 12.282-2.656 2.687-6.657-3.969 5.094 5.594-2.5 2.594-11.218-12.282 2.531-2.593 6.719 3.781-5.063-5.531 2.531-2.563zm23.874 9.438c1.93 2.787 3.38 4.778 4.34 6l1.07-1.094c-1.49-1.293-3.29-2.93-5.41-4.906zm-31.905 0.25c0.173 0.004 0.327 0.001 0.5 0.031 0.693 0.121 1.294 0.428 1.813 0.875 0.518 0.447 1.376 1.298 2.531 2.562l1.906 2.094c1.127 1.234 1.899 2.149 2.313 2.719 0.413 0.57 0.681 1.216 0.781 1.937 0.099 0.722 0.001 1.424-0.281 2.157-0.283 0.732-0.754 1.453-1.407 2.125-0.619 0.637-1.279 1.082-1.969 1.375-0.689 0.292-1.369 0.402-2.062 0.281s-1.294-0.428-1.812-0.875c-0.519-0.447-1.377-1.298-2.532-2.563l-1.906-2.093c-1.127-1.234-1.899-2.149-2.312-2.719-0.414-0.57-0.682-1.216-0.782-1.938-0.099-0.721-0.001-1.423 0.282-2.156 0.282-0.732 0.753-1.453 1.406-2.125 0.619-0.637 1.279-1.082 1.968-1.375 0.517-0.219 1.044-0.325 1.563-0.312zm24.345 3.125c0.67-0.065 1.25 0.063 1.78 0.343 0.71 0.375 1.62 1.141 2.72 2.344l1.12 1.25-3.15 3.219-2.03-2.219c-0.6-0.651-1.01-1.032-1.22-1.125-0.22-0.092-0.46-0.017-0.69 0.219-0.26 0.267-0.33 0.545-0.22 0.812 0.11 0.268 0.47 0.724 1.06 1.376l5.47 5.968c0.57 0.625 0.98 1.006 1.22 1.125 0.25 0.119 0.48 0.033 0.72-0.219 0.23-0.241 0.29-0.484 0.19-0.75-0.1-0.265-0.45-0.764-1.1-1.468l-1.47-1.594 3.13-3.25 0.47 0.5c1.21 1.33 1.98 2.355 2.31 3.094 0.33 0.738 0.38 1.645 0.16 2.687-0.23 1.043-0.77 2.023-1.66 2.938-0.92 0.95-1.86 1.551-2.78 1.812-0.92 0.262-1.76 0.178-2.53-0.25-0.77-0.427-1.72-1.27-2.88-2.531l-3.43-3.75c-0.85-0.927-1.45-1.662-1.82-2.188-0.36-0.525-0.589-1.171-0.684-1.906s0.011-1.493 0.313-2.281c0.301-0.788 0.781-1.515 1.471-2.219 0.93-0.955 1.89-1.572 2.84-1.812 0.24-0.06 0.47-0.104 0.69-0.125zm-25.532 0.437c-0.151-0.019-0.299 0.044-0.438 0.188-0.157 0.162-0.222 0.347-0.188 0.562 0.035 0.215 0.361 0.649 0.938 1.282l5.219 5.75c0.651 0.713 1.074 1.108 1.281 1.218 0.207 0.111 0.425 0.081 0.625-0.125 0.205-0.211 0.243-0.467 0.125-0.719-0.118-0.251-0.496-0.714-1.156-1.437l-5.156-5.656c-0.522-0.572-0.889-0.902-1.094-1-0.051-0.025-0.106-0.056-0.156-0.063zm-6.188 2.594l2.25 2.469-1.781 1.812 8.969 9.844-3.032 3.094-8.968-9.844-1.782 1.844-2.218-2.469 6.562-6.75zm23.594 4.188l11.716 12.843-3.12 3.25-11.752-12.875 3.156-3.218zm-30.875 4.75c0.179 0.003 0.374 0.024 0.562 0.062 0.753 0.152 1.607 0.734 2.563 1.781 0.872 0.956 1.33 1.722 1.406 2.281 0.076 0.56-0.184 1.227-0.781 1.969 0.738-0.456 1.336-0.677 1.781-0.625s0.78 0.175 1.031 0.344 0.845 0.727 1.75 1.719l2.938 3.25-2.781 2.875-3.719-4.063c-0.601-0.657-1.041-1.037-1.281-1.093-0.241-0.057-0.555 0.135-0.969 0.562l5.062 5.531-3 3.094-11.219-12.281 2.126-2.188c1.419-1.461 2.422-2.38 3.031-2.781 0.456-0.301 0.962-0.448 1.5-0.437zm26.437 1.312c0.188 0.004 0.366 0.023 0.563 0.062 0.789 0.16 1.686 0.779 2.687 1.876 0.914 1.001 1.42 1.789 1.5 2.374 0.08 0.586-0.186 1.285-0.812 2.063 0.773-0.478 1.377-0.711 1.844-0.656 0.466 0.054 0.83 0.198 1.093 0.375 0.263 0.176 0.865 0.774 1.809 1.812l3.1 3.406-2.91 3-3.905-4.281c-0.629-0.689-1.091-1.066-1.344-1.125-0.252-0.059-0.566 0.147-1 0.594l5.279 5.781-3.154 3.25-11.75-12.875 2.25-2.281c1.487-1.531 2.55-2.517 3.188-2.937 0.478-0.315 0.999-0.449 1.562-0.438zm-27.281 2.562c-0.242 0.014-0.559 0.174-0.906 0.532l2.5 2.75c0.338-0.348 0.548-0.637 0.593-0.875 0.046-0.239-0.193-0.647-0.687-1.188l-0.625-0.656c-0.356-0.389-0.633-0.576-0.875-0.563zm26.375 1.469c-0.253 0.014-0.573 0.219-0.938 0.594l2.626 2.875c0.354-0.365 0.545-0.688 0.593-0.938 0.048-0.249-0.17-0.651-0.687-1.218l-0.656-0.719c-0.373-0.408-0.685-0.608-0.938-0.594zm-34.438 2.375l12.938 10.5-3.062 3.188-2.188-2.063-1.062 1.125 1.843 2.375-3.125 3.219-9.687-13.875 4.343-4.469zm27.219 0.406l2.375 2.594-2.125 2.156 2.25 2.438 1.969-2.031 2.219 2.469-1.969 2.031 2.594 2.812 2.312-2.375 2.344 2.563-5.469 5.625-11.75-12.844 5.25-5.438zm-26.75 4.438c1.838 2.661 3.209 4.584 4.125 5.75l1.032-1.062c-1.423-1.234-3.139-2.802-5.157-4.688zm20.25 2.281l11.75 12.875-2.781 2.844-7.906-8.688 6.812 9.813-1.937 2-8.907-7.281 7.75 8.5-2.781 2.812-11.719-12.875 4.063-4.187c0.826 0.65 1.782 1.433 2.875 2.344l3.438 2.843-4.782-6.75 4.125-4.25zm-27.5 0.969c0.638-0.062 1.211 0.044 1.719 0.312 0.677 0.358 1.546 1.102 2.594 2.25l1.062 1.157-3 3.093-1.937-2.124c-0.568-0.623-0.951-0.975-1.157-1.063-0.205-0.088-0.437-0.007-0.656 0.219-0.247 0.255-0.323 0.494-0.218 0.75 0.104 0.256 0.463 0.69 1.031 1.312l5.187 5.719c0.545 0.597 0.955 0.949 1.188 1.063 0.233 0.113 0.454 0.052 0.687-0.188 0.224-0.23 0.285-0.466 0.188-0.719s-0.449-0.733-1.063-1.406l-1.406-1.531 3-3.094 0.438 0.469c1.158 1.269 1.903 2.263 2.218 2.969 0.316 0.705 0.37 1.536 0.156 2.531-0.213 0.995-0.745 1.94-1.593 2.812-0.881 0.907-1.776 1.501-2.657 1.75-0.88 0.25-1.673 0.158-2.406-0.25s-1.651-1.202-2.75-2.406l-3.281-3.594c-0.808-0.885-1.372-1.592-1.719-2.093-0.347-0.502-0.565-1.08-0.656-1.782-0.091-0.701-0.007-1.435 0.281-2.187 0.288-0.753 0.754-1.485 1.407-2.157 0.885-0.911 1.778-1.458 2.687-1.687 0.227-0.057 0.444-0.104 0.656-0.125zm15.438 11.469l13.531 11-3.219 3.312-2.281-2.156-1.125 1.187 1.937 2.5-3.281 3.344-10.125-14.5 4.563-4.687zm0.469 5.062c1.925 2.788 3.352 4.81 4.312 6.031l1.094-1.124c-1.49-1.293-3.293-2.93-5.406-4.907z" transform="translate(0 952.36)" fill="#00519b"/>
  <path id="rect5075" d="m125 35l-54 56h-31v4h85v-4-56z" transform="translate(0 952.36)" fill="#b3b3b3"/>
 </g>
</svg>
