<?xml version="1.0" encoding="UTF-8" standalone="no"?>
<!-- Created with Inkscape (http://www.inkscape.org/) -->
<svg id="svg2" xmlns:rdf="http://www.w3.org/1999/02/22-rdf-syntax-ns#" xmlns="http://www.w3.org/2000/svg" height="100" width="165" version="1.1" xmlns:cc="http://creativecommons.org/ns#" xmlns:dc="http://purl.org/dc/elements/1.1/" viewBox="0 0 165 100">
 <metadata id="metadata7">
  <rdf:RDF>
   <cc:Work rdf:about="">
    <dc:format>image/svg+xml</dc:format>
    <dc:type rdf:resource="http://purl.org/dc/dcmitype/StillImage"/>
    <dc:title/>
   </cc:Work>
  </rdf:RDF>
 </metadata>
 <g id="layer1" transform="translate(0 -952.36)">
  <g id="g3441" fill="#f60" transform="translate(.16280 .70711)">
   <path id="path3433" d="m34.92 93.938c-1.069-0.193-2.386-0.414-3.476-1.053-0.544-0.32-1.016-0.51-1.372-0.885-0.355-0.375-0.622-0.906-0.922-1.243-1.005-1.127-4.046-8.965-12.708-33.672-0.822-2.783-2.259-5.668-2.389-8.662-0.114-2.624 1.265-5.283 3.083-7.028 1.808-1.734 5.025-4.316 21.877-17.552 15.282-12.004 20.846-16.235 22.113-16.816 2.0229-0.92713 5.9228-1.5977 8.1354-1.3989 0.76629 0.068847 2.8711 0.59936 5.3917 1.3589 11.058 3.3324 53.84 16.61 62.037 19.254 4.8639 1.5686 5.4869 2.0222 7.6816 3.9725 0.62833 0.55837 1.3135 1.3014 1.9004 2.5193l0.26359 0.99073 0.2636 0.99073 0.3125 21.205c-0.12815 3.3902-0.15738 7.5706-0.0437 11.737-0.27304 4.5728 0.57272 8.3786-1.4144 12.316-0.36073 0.45523-0.73868 0.85039-1.1601 1.1784 0 0-1.456 1.0418-2.5494 1.4758-1.2426 0.49313-5.9684 1.1787-51.843 6.0031-11.084 1.1656-26.994 2.8413-35.355 3.7237-15.714 1.6583-18.279 1.8633-19.826 1.5843zm79.2-18.394c3.0006-0.61148 3.1155-0.72498 3.1155-3.078 0-0.98961-0.0434-1.8427-0.0965-1.8958-0.0531-0.05308-0.69615 0.09392-1.4291 0.32666-4.169 1.3239-8.2374 1.1604-9.5947-0.38554-0.30083-0.34263-0.54697-0.712-0.54697-0.82082 0-0.1418 0.65318-0.16479 2.3057-0.08116 2.5121 0.12714 6.7643-0.12368 7.9585-0.46944 1.1585-0.33541 1.4383-0.84798 1.4383-2.6342 0-1.9582-0.4334-3.0047-1.7384-4.1974-2.1861-1.9979-5.455-2.7091-9.3665-2.0377-3.1757 0.54509-5.6942 2.2335-6.8622 4.6003-0.67328 1.3644-0.83564 3.6944-0.37024 5.3135 0.87338 3.0386 3.5654 5.1092 7.4357 5.7192 1.5711 0.24764 5.7141 0.05538 7.7509-0.35968zm-48.503 0.17921c0.74827-0.12062 1.6041-0.43446 2.4538-0.8998 1.3429-0.73547 1.6023-0.725 1.6094 0.06501 0.0052 0.57905 0.61391 0.67867 3.8436 0.62903l3.1418-0.04829 0.04617-7.3157c0.03316-5.2537-0.01031-7.3838-0.15423-7.5572-0.15569-0.1876-0.89563-0.24086-3.3165-0.23876-1.7139 0.0014-3.2058 0.06115-3.3155 0.13258-0.13305 0.0867-0.24294 1.5991-0.33055 4.5493-0.07218 2.4307-0.19927 4.5984-0.28242 4.8171-0.55579 1.462-3.983 1.489-4.7598 0.0376-0.15946-0.29795-0.4383-5.2436-0.52038-9.2299-0.0058-0.28355-0.28659-0.30936-3.3651-0.30936h-3.3588v5.9647 5.9647l0.63146 0.91686c1.5247 2.2138 4.1795 3.086 7.677 2.5222zm65.807-0.55434c-0.311-0.311-0.61663-0.51428-0.67918-0.45173-0.13549 0.13548 0.77716 1.0172 1.0529 1.0172 0.10547 0-0.0627-0.25446-0.3737-0.56546zm1.7859 0.19908c0.68295-0.53721 0.56831-0.76394-0.15075-0.29815-0.59232 0.38369-0.7901 0.66454-0.46797 0.66454 0.0841 0 0.36254-0.16487 0.61872-0.36638zm-77.355-2.2141 0.04914-2.3153-1.7285-0.11446c-0.95068-0.06295-3.2473-0.11487-5.1035-0.11538l-3.375-0.000913-0.11584-3.3146c-0.06371-1.823-0.11606-5.1243-0.11634-7.3362l-0.0005-4.0217h-3.5149-3.5149l-0.06721 8.1759c-0.03696 4.4968-0.03828 8.8675-0.0029 9.7127 0.05881 1.4061 0.0966 1.5432 0.44429 1.612 0.20901 0.04133 4.1188 0.0657 8.6885 0.05417l8.3085-0.02098 0.04914-2.3153zm30.929 1.2546c0.07874-1.9573 0.21889-2.5451 0.71997-3.0196 0.98605-0.93366 0.90086-0.98228 2.9774 1.699l1.9168 2.475 3.6093-0.04693c2.2995-0.0299 3.6315-0.11361 3.6704-0.23068 0.03362-0.10106-1.3723-2.0882-3.1244-4.4158-1.752-2.3276-3.1594-4.3132-3.1274-4.4124 0.03194-0.0992 1.4258-1.4477 3.0975-2.9967 2.1038-1.9494 2.9705-2.86 2.8157-2.9583-0.123-0.07808-1.8414-0.14318-3.8187-0.14467l-3.595-0.0027-2.3233 2.2097c-1.2778 1.2153-2.3747 2.2097-2.4375 2.2097-0.24389 0-0.33526-1.2381-0.33758-4.5741-0.0014-1.9081-0.05038-3.6482-0.10901-3.867-0.10577-0.39467-0.13239-0.39775-3.4447-0.39775h-3.3381l-0.000354 5.4359c-0.000177 2.9897-0.05277 7.4065-0.1168 9.8149l-0.11641 4.3791 3.5197-0.04803 3.5197-0.04803zm40.036-1.68c0.168-3.6832 0.23111-4.0177 0.94123-4.9896 0.73801-1.0101 1.581-1.4676 3.1961-1.7346 0.66975-0.11072 1.3967-0.23557 1.6155-0.27743 0.39225-0.07507 0.39775-0.1143 0.39775-2.836v-2.7599l-1.2816 0.08403c-1.491 0.09776-2.5988 0.58891-3.8832 1.7217-0.80931 0.71376-0.83653 0.7234-0.92515 0.32777-0.0502-0.22419-0.11252-0.72582-0.13843-1.1147l-0.0471-0.70711-3.403-0.04801-3.403-0.04801v7.609 7.609l3.403-0.04801 3.403-0.04801 0.12498-2.74zm5.8671 2.017c0.15228-0.39686-0.0226-0.60277-0.51199-0.60277-0.52096 0-0.71901 0.28488-0.43552 0.62646 0.2832 0.34123 0.81255 0.32799 0.94751-0.0237zm-1.2191-0.77954c0.54988-0.57395 0.51989-0.63881-0.15348-0.332-0.2394 0.10908-0.47434 0.34773-0.52209 0.53033-0.12409 0.47451 0.0916 0.41118 0.67557-0.19833zm2.2097 0.1868c0-0.22938-0.72558-0.71838-1.0558-0.71154-0.18379 0.0038-0.11162 0.14494 0.22597 0.44194 0.51572 0.45372 0.82983 0.55576 0.82983 0.2696zm-79.778-20.883c0.60522-0.09277 1.3013-0.24504 1.5468-0.33839l0.4464-0.16972v-2.4792c0-1.6176-0.06467-2.4792-0.18607-2.4792-0.10234 0-0.75862 0.13687-1.4584 0.30416-1.78 0.42552-4.667 0.41423-6.0092-0.0235-3.2095-1.0467-4.6825-3.8384-3.4854-6.6056 0.50935-1.1774 1.8146-2.3775 3.0568-2.8108 1.3744-0.4793 4.92-0.43065 6.4913 0.08906 0.63198 0.20903 1.2485 0.38109 1.37 0.38234 0.16727 0.0018 0.22097-0.65669 0.22097-2.7094v-2.7117l-1.2816-0.24933c-2.0521-0.3992-6.7674-0.30926-8.4992 0.16212-4.5102 1.2276-7.7955 3.8922-8.8073 7.1431-0.40754 1.3094-0.4328 3.7179-0.05434 5.1804 0.96523 3.7299 5.4316 7.007 10.23 7.5057 1.5793 0.16416 4.714 0.07138 6.4193-0.19003zm12.865-0.01815c0.48614-0.10578 1.3848-0.41707 1.9971-0.69176 1.183-0.53076 1.1208-0.54448 1.3634 0.3005 0.03093 0.10771 0.31166 0.24692 0.62386 0.30936 0.72844 0.14569 5.08 0.14797 5.8046 0.003l0.55243-0.11049-0.01211-2.2318c-0.0067-1.2275-0.07291-3.6637-0.14721-5.4138-0.15345-3.6143-0.31086-4.1247-1.6824-5.4559-1.5319-1.4868-3.3304-2.0475-7.0052-2.1841-2.7328-0.10154-5.1883 0.10449-7.4166 0.62226l-1.3258 0.30808-0.05047 1.9255c-0.02776 1.059 0.0143 1.9903 0.09347 2.0694 0.07916 0.07916 0.81782-0.01863 1.6415-0.21731 1.9525-0.47099 5.6699-0.65498 6.8061-0.33686 0.95611 0.2677 2.0876 1.2394 1.9944 1.7127-0.05062 0.25679-0.21672 0.31218-0.85446 0.28496-5.5314-0.23606-6.9369-0.11006-8.7466 0.7841-1.8265 0.90247-2.6153 2.0898-2.6153 3.9367 0 1.832 0.83319 2.996 2.805 3.9187 1.751 0.8194 3.8307 0.97659 6.1742 0.46668zm38.917-0.06957c0.50026-0.13831 1.3301-0.44631 1.8441-0.68444 1.038-0.48093 1.2238-0.45401 1.2238 0.17735v0.43151h3.459 3.459l-0.0686-5.2591c-0.0509-3.9024-0.1322-5.4372-0.31505-5.9494-0.35016-0.98095-1.7439-2.4287-2.9452-3.0593-1.678-0.88089-2.5917-1.0239-6.5058-1.0181-3.4516 0.0051-4.9721 0.17437-7.2262 0.8045l-0.68544 0.19162 0.0822 1.8483c0.04521 1.0166 0.15478 1.9194 0.2435 2.0063 0.09508 0.09317 0.74188 0.01009 1.5755-0.20237 1.0907-0.27799 2.041-0.36621 4.1542-0.38567 2.5888-0.02385 2.7807-0.0019 3.4766 0.39675 0.71875 0.41181 1.4907 1.4755 1.2474 1.7188-0.067 0.06702-1.0908 0.0205-2.275-0.10338-4.6909-0.49072-7.9792 0.41863-9.4601 2.6161-0.76565 1.1361-0.69457 3.3109 0.14683 4.4926 1.4125 1.9837 5.3016 2.8814 8.5693 1.978zm-15.157 0.0058c2.3764-0.56017 4.3315-2.0699 4.787-3.6964 0.42921-1.533-0.20116-3.1053-1.6345-4.0769-0.87063-0.59016-1.7018-0.88887-6.3393-2.2784-0.83819-0.25114-1.6307-0.58519-1.7611-0.74232-0.79574-0.95881 2.6032-1.0159 6.2903-0.10572 1.3223 0.32643 2.1879 0.4618 2.2981 0.35939 0.09723-0.09036 0.17678-1.0073 0.17678-2.0376v-1.8733l-0.70711-0.24652c-2.5526-0.88992-8.2877-1.0269-10.518-0.25128-2.3385 0.81319-3.6907 2.0739-4.0773 3.8013-0.40751 1.821 0.47211 3.3007 2.5785 4.3377 0.63677 0.31348 2.3955 0.88301 3.9082 1.2656 1.5127 0.38261 2.902 0.77678 3.0873 0.87593 0.41464 0.22191 0.43198 0.57609 0.04394 0.8975-0.50514 0.4184-3.7037 0.27217-6.38-0.29169-1.272-0.268-2.4389-0.43891-2.5929-0.37978-0.23118 0.08871-0.28013 0.4336-0.28013 1.9736 0 2.1436-0.13707 1.9811 2.0713 2.4551 1.6989 0.36462 7.5234 0.3736 9.0491 0.01396z" transform="translate(0 952.36)"/>
   <path id="path3435" d="m65.904 49.925c-0.63233-0.15258-1.417-0.88738-1.417-1.3269 0-0.51451 0.44221-1.1845 0.96249-1.4582 0.66155-0.34803 3.3419-0.50776 4.0314-0.24025 1.0644 0.41297 0.37446 2.4058-0.97806 2.8248-0.90919 0.28171-1.9345 0.36081-2.5989 0.2005z" transform="translate(0 952.36)"/>
   <path id="path3437" d="m104.62 49.916c-0.86699-0.19689-1.4801-0.95154-1.3444-1.6548 0.2044-1.0598 1.2577-1.5154 3.5071-1.517 1.1386-0.000819 1.4302 0.05919 1.7263 0.35526 0.403 0.403 0.34538 1.023-0.16405 1.7651-0.58508 0.85224-2.3761 1.3578-3.7249 1.0515z" transform="translate(0 952.36)"/>
   <path id="path3439" d="m105.79 66.424c-0.26328-0.26328-0.091-1.1243 0.32343-1.6169 0.78388-0.93158 2.8076-1.4565 4.1852-1.0855 1.5428 0.41542 2.5466 2.235 1.4608 2.6479-0.50486 0.19195-5.7838 0.24019-5.9694 0.05455z" transform="translate(0 952.36)"/>
  </g>
 </g>
</svg>
