<?xml version="1.0" encoding="UTF-8" standalone="no"?>
<!-- Created with Inkscape (http://www.inkscape.org/) -->
<svg id="svg2" xmlns:rdf="http://www.w3.org/1999/02/22-rdf-syntax-ns#" xmlns="http://www.w3.org/2000/svg" height="100" width="165" version="1.1" xmlns:cc="http://creativecommons.org/ns#" xmlns:dc="http://purl.org/dc/elements/1.1/" viewBox="0 0 165 100">
 <metadata id="metadata7">
  <rdf:RDF>
   <cc:Work rdf:about="">
    <dc:format>image/svg+xml</dc:format>
    <dc:type rdf:resource="http://purl.org/dc/dcmitype/StillImage"/>
    <dc:title/>
   </cc:Work>
  </rdf:RDF>
 </metadata>
 <g id="layer1" transform="translate(0 -952.36)">
  <g id="g10924">
   <path id="rect8985" opacity="0.82" d="m159.01 20.51l-148.24 0.234-3.4497 39.735 4.5507-0.067 101.73-0.086c-0.94-3.834-1.21-8.105-0.63-12.527 1.85-14.317 11.78-24.894 22.1-23.555s17.22 14.097 15.36 28.414c-0.35 2.697-0.99 5.26-1.86 7.637h0.65l5.69-0.014 4.1-39.771zm-26.3 6.689l-0.01 0.176a15.978 23.181 8.3272 0 1 0.01 0v-0.176zm-106.9 0.051c0.932 0.023 1.915 0.178 2.944 0.488l-1.178 5.676c-3.066-0.841-7.616-0.252-9.021 6.936-1.406 7.061 1.843 8.49 6.289 6.935l-1.203 5.59c-10.247 2.438-11.371-6.724-9.889-13.365 1.408-6.032 5.537-12.419 12.058-12.26zm41.467 0.332c0.726 0.014 1.569 0.127 2.561 0.324l-0.895 4.246c-1.303 0.084-2.425-0.377-2.859 2.608h2.375l-0.895 4.707h-2.273l-2.813 14.207h-4.06l2.81-14.207h-1.226l0.92-4.707h1.252c1.038-5.396 1.958-7.24 5.103-7.178zm41.479 1.797h4.11l-0.82 4.035h-4.11l0.82-4.035zm-5.93 0.211h3.96l-4.52 24.002h-3.811l0.41-2.229c-1.124 1.682-2.479 2.524-3.935 2.524-0.716 0-1.43-0.298-1.993-0.844-0.638-0.589-1.047-1.553-1.277-2.898-0.23-1.261-0.178-2.944 0.18-4.877 0.664-3.447 1.686-6.011 3.168-7.608 1.456-1.597 3.067-2.48 4.703-2.48 0.153 0 0.355 0.086 0.585 0.086 0.2 0.041 0.46 0.081 0.74 0.166 0.28 0.041 0.51 0.082 0.69 0.082l1.1-5.924zm-27.51 4.902c3.083 0.196 3.889 2.605 3.414 4.975l-2.808 14.207h-4.115l0.228-1.262c-7.563 5.086-7.767-5.759-4.496-8.449 2.402-2.102 4.497-2.689 6.49-1.975 0.818-2.9-0.383-5-5.263-1.763l0.843-4.416c2.436-1.038 4.306-1.406 5.707-1.317zm-41.045 0.225c8.56 0.336 4.675 18.789-3.578 18.789-8.406 0-5.058-18.453 3.578-18.789zm14.871 0.17v0.004c1.585 0 2.53 0.965 2.735 2.814 1.099-1.849 2.503-2.814 4.189-2.814 0.843 0 1.507 0.208 1.992 0.629 0.486 0.504 0.793 1.091 0.92 1.847 0.128 0.757 0.103 1.682-0.101 2.649l-2.76 13.578h-4.164l2.172-10.594c0.179-1.093 0.255-1.848 0.127-2.311-0.128-0.42-0.435-0.673-0.869-0.673-0.409 0-0.867 0.38-1.301 1.052-0.46 0.673-0.871 1.806-1.203 3.319l-1.84 9.207h-4.164l2.146-10.594c0.23-1.093 0.255-1.89 0.153-2.311-0.102-0.42-0.359-0.673-0.768-0.673s-0.868 0.38-1.303 1.052c-0.434 0.757-0.791 1.89-1.097 3.319l-1.865 9.207h-4.166l3.732-18.412h3.959l-0.484 2.355 0.025 0.039c1.048-1.765 2.402-2.689 3.935-2.689zm39.758 0.291c1.303 0 2.199 0.548 2.633 1.599 0.46 1.135 0.485 2.691 0.127 4.666l-2.352 12.106h-3.781l1.815-9.457c0.153-1.009 0.204-1.852 0.025-2.399-0.153-0.588-0.51-0.923-1.072-0.923-0.767 0-1.484 0.588-2.123 1.849-0.588 1.177-1.097 2.773-1.481 4.748l-1.175 6.182h-3.807l3.422-18.076h3.578l-0.537 2.773h0.105c0.716-0.967 1.454-1.764 2.221-2.31 0.741-0.463 1.559-0.758 2.402-0.758zm18.576 0.631h4.12l-3.53 17.74h-4.14l3.55-17.74zm-73.947 3.322c-3.194 0-5.212 10.467-1.941 10.215 2.785 0 4.88-9.963 1.941-10.215zm66.256 0.84c-1.15 0-2.018 0.588-2.631 1.638-0.639 1.051-1.125 2.229-1.33 3.448-0.153 0.966-0.203 1.765-0.152 2.353 0.076 0.631 0.256 1.093 0.486 1.387 0.256 0.252 0.588 0.379 0.92 0.379 0.69 0 1.352-0.547 1.838-1.598 0.562-1.051 1.021-2.566 1.38-4.373l0.59-3.068c-0.51-0.084-0.922-0.166-1.101-0.166zm-26.394 4.961c-1.534 0.168-3.093 1.133-3.528 3.15-0.383 1.639 0.794 3.153 2.813 0.211 0.383-1.093 0.51-2.1 0.715-3.361z" transform="translate(0 952.36)" fill="#2558a5"/>
   <path id="rect8985-3" opacity="0.82" d="m154.72 63.152l-7.38 0.026c-3.3 6.874-8.65 11.718-14.53 12.875l20.86-0.053 1.05-12.848zm-40.22 0.135l-107.6 0.358-0.5309 12.73 121.08-0.309c-5.87-1.149-10.52-6.056-12.95-12.779z" transform="translate(0 952.36)" fill="#e20028"/>
   <path id="path10906" d="m128.91 1028.4c-0.1456-0.021-0.56414-0.042-0.99265-0.048l-1.08-0.016c-0.0944-0.061 0.17478-2.7992 0.87381-10.903 0.50263-5.8285 0.94544-10.913 0.98405-11.299 0.0385-0.3857 0.037-0.7023-0.004-0.7033-0.0407 0.0003-1.115 1.038-2.3876 2.3092l-2.3138 2.3111-0.82023 8.363c-0.45112 4.5997-0.81322 7.9657-0.82277 7.9748-0.0532 0.05-1.911-1.2785-2.4638-1.8755 0 0-0.80532-0.8162-1.0318-1.0663 0.008-0.1794 0.0901-2.5157 0.45808-6.4845l0.66886-7.216-2.9578-4.1978-2.9578-4.1979 0.95615-0.9845c0.52587-0.54147 0.98939-0.98758 1.03-0.99133 0.0406-0.00035 1.4019 1.8801 3.0251 4.1864 1.6232 2.3064 2.9826 4.1942 3.0209 4.1952 0.11779 0 7.2258-7.0196 7.2293-7.1425 0.002-0.063-1.2923-1.9546-2.8758-4.2026s-2.9132-4.1463-2.9549-4.2185c-0.049-0.0847 0.28365-0.47266 0.93889-1.0952 0.55808-0.53015 1.0504-0.96299 1.094-0.96183 0.0436 0.002 1.4104 1.8912 3.0373 4.2s2.9902 4.185 3.0297 4.1694c0.0395-0.0153 1.6299-1.5813 3.5343-3.4792s3.544-3.53 3.6434-3.627c0.16978-0.16552 0.23409-0.10329 1.0514 1.0176l0.87058 1.1939-3.7428 3.6815c-2.2852 2.2478-3.7149 3.7292-3.6712 3.8039 0.0394 0.068 1.3572 1.9297 2.9285 4.1385l2.8569 4.016 3.7293-3.6016c2.0511-1.9807 3.7576-3.6006 3.7922-3.5997 0.0346-0.0003 0.39499 0.522 0.80088 1.1581l0.73798 1.1566-3.5949 3.5676-3.5949 3.5676-0.0842 0.6417c-0.0464 0.3529-0.32781 3.3779-0.62551 6.7222-0.2977 3.3442-0.56136 6.2154-0.61323 6.682l-0.04 0.029-1.9334 1.1477c-0.81148 0.4817-2.114 0.9505-2.114 0.9505s0.20582-3.5731 0.58003-8.1391c0.37422-4.5662 0.6597-8.3608 0.63441-8.4327-0.0706-0.2009-3.7196-5.3612-3.7628-5.3215-0.0209 0.019-0.46315 4.991-0.98272 11.048-0.51957 6.0573-0.97403 11.165-1.0099 11.35l-0.0496 0.2721-0.89904-0.026c-0.4796-0.022-0.97974 0-1.1253-0.024z" fill-opacity=".81961" fill="#2558a5"/>
   <path id="path10908" d="m121.21 1003.2c-0.42521-0.3274-0.71056-0.8324-0.97202-1.7201-0.16798-0.5704-0.19383-0.8404-0.1687-1.7619 0.0436-1.5981 0.45063-2.6769 1.2416-3.2907 1.2838-0.99628 2.6862 0.33555 2.9031 2.757 0.24874 2.7764-1.5284 5.1522-3.004 4.0158z" fill-opacity=".81961" fill="#2558a5"/>
   <path id="path10910" d="m131.51 994.05c-0.53016-0.29837-0.92083-0.87597-1.2253-1.8117-0.25861-0.79468-0.2801-0.95906-0.25482-1.9488 0.0219-0.85794 0.0718-1.209 0.24181-1.7016 0.54923-1.5915 1.6425-2.3848 2.6348-1.9119 0.59314 0.28264 0.99999 0.85486 1.3047 1.8351 0.22998 0.73967 0.25786 0.96086 0.23449 1.8603-0.0347 1.3328-0.35571 2.336-1.0001 3.1246-0.62974 0.77075-1.2401 0.94542-1.9356 0.55399z" fill-opacity=".81961" fill="#2558a5"/>
   <path id="path10912" d="m138.75 1004.7c-0.44771-0.3072-0.91198-1.0311-1.1386-1.7751-0.14757-0.4847-0.17743-0.8062-0.1549-1.6678 0.0322-1.2298 0.20841-1.8412 0.75558-2.621 0.49304-0.70264 0.99703-0.97253 1.6614-0.88966 0.76491 0.0956 1.2653 0.62789 1.6513 1.7573 0.25799 0.75482 0.2789 0.90762 0.25216 1.8425-0.0327 1.1519-0.27059 1.9702-0.79549 2.7396-0.58209 0.8532-1.5106 1.1087-2.2315 0.6141z" fill-opacity=".81961" fill="#2558a5"/>
  </g>
 </g>
</svg>
