<?xml version="1.0" encoding="UTF-8" standalone="no"?>
<!-- Created with Inkscape (http://www.inkscape.org/) -->
<svg id="svg2" xmlns:rdf="http://www.w3.org/1999/02/22-rdf-syntax-ns#" xmlns="http://www.w3.org/2000/svg" height="100" width="165" version="1.1" xmlns:cc="http://creativecommons.org/ns#" xmlns:dc="http://purl.org/dc/elements/1.1/" viewBox="0 0 165 100">
 <metadata id="metadata7">
  <rdf:RDF>
   <cc:Work rdf:about="">
    <dc:format>image/svg+xml</dc:format>
    <dc:type rdf:resource="http://purl.org/dc/dcmitype/StillImage"/>
    <dc:title/>
   </cc:Work>
  </rdf:RDF>
 </metadata>
 <g id="layer1" fill-rule="evenodd" clip-rule="evenodd" transform="translate(0 -952.36)">
  <path id="path5" d="m82.922 963.52c-2.4062 0.0353-4.8159 0.53552-5.7812 1.4609l-33.307 32.186-33.455 32.32c-1.9305 1.8613 2.1371 5.5117 5.998 5.5117h66.611 66.875c3.8607 0 7.4969-3.7852 5.5664-5.6465l-33.32-32.24-33.432-32.32c-0.95556-0.93063-3.3594-1.3595-5.7656-1.3242zm1.1836 17.131c18.202 0 33.045 8.2906 33.045 18.445 0 1.3449-0.27837 2.5358-0.75977 3.8086h-51.285c2.9316 3.8402 10.001 6.5742 18.295 6.5742 6.0304 0 11.448-1.4277 15.066-3.6738h16.383c-4.8425 6.8215-16.809 11.726-30.744 11.726-18.22 0-33.064-8.281-33.064-18.436s14.844-18.445 33.064-18.445zm-0.70508 8.0527c-8.7576 0-16.29 3.0226-18.832 7.1836h37.684c-2.503-4.22-10.017-7.18-18.85-7.18z" fill="#005da4"/>
  <path id="path7" d="m119.65 1024.9v7.6544h1.7058v-3.7227c0-0.8783 0-1.5372 0.58073-2.1018 0.69366-0.6694 1.9305-1.0455 3.5233-1.0455 2.812 0 3.9174 0.8261 3.9174 2.5827v4.2875h1.7431v-4.0051c0-1.1087-0.112-1.9242-0.89968-2.5932-0.89921-0.7737-2.5112-1.213-4.5542-1.213-1.7994 0-3.2049 0.3346-4.3108 1.0248v-0.868h-1.7058v-0.0001z" fill="#fff"/>
  <path id="path9" d="m129.11 1022.2h-1.0121c-0.28115 0.3657-0.63719 0.5226-1.1995 0.5226-0.14979 0-0.41204-0.021-0.69319-0.073l-1.2002-0.2196c-0.20626-0.042-0.43071-0.052-0.65609-0.052-1.2179 0-2.08 0.439-2.4361 1.2756h0.99347c0.26201-0.3344 0.67475-0.5124 1.1617-0.5124 0.28115 0 0.46874 0.031 0.65609 0.063l1.2002 0.209c0.28115 0.042 0.5623 0.073 0.82455 0.073 1.1246 0.0001 1.9305-0.4285 2.3612-1.2858z" fill="#fff"/>
  <path id="path11" d="m83.455 1032.6v-4.622c0-1.2756 0.69366-1.9659 3.0926-2.0705v-1.077c-1.3302 0.021-2.3236 0.3033-3.2235 1.0041v-0.8889h-1.6491v7.6544h1.78v-0.0001z" fill="#fff"/>
  <path id="path13" d="m51.311 1024.9v3.9944c0 2.5621 1.3493 3.8585 5.6043 3.8585 1.7991 0 3.0551-0.2823 4.1608-1.0246v0.8263h1.7618v-7.6545h-1.7618v3.7644c0 0.8992 0 1.5685-0.59963 2.1228-0.71232 0.6693-1.9305 1.0352-3.5238 1.0352-3.0553 0-3.8985-0.9936-3.8985-2.8547v-4.0677h-1.7431v-0.0001z" fill="#fff"/>
  <polygon id="polygon15" transform="matrix(.23332 0 0 .13017 -1.1275 957.15)" points="98.704 488.4 621.18 488.4 615 478.36 105.85 478.36" fill="#fff"/>
  <polygon id="polygon17" transform="matrix(.23332 0 0 .13017 -1.1275 957.15)" points="673.73 662.15 676.06 645.28 676.06 633.55 666.26 633.55 666.26 645.28 668.5 662.15 668.5 662.15" fill="#005da4"/>
  <polygon id="polygon19" transform="matrix(.23332 0 0 .13017 -1.1275 957.15)" points="666.26 675.81 676.06 675.81 676.06 665.69 666.26 665.69" fill="#005da4"/>
  <polygon id="polygon21" transform="matrix(.23332 0 0 .13017 -1.1275 957.15)" points="585.74 675.81 595.22 675.81 595.22 633.55 585.74 633.55" fill="#005da4"/>
  <path id="path23" d="m133.87 1043.2h-2.0534c-0.14139 0.5854-0.76085 0.8991-1.7518 0.8991-1.2032 0-1.947-0.5959-1.947-1.6939 0-1.1084 0.81405-1.7464 2.0173-1.7464 0.92045 0 1.4867 0.272 1.6813 0.7948h2.0709c-0.17708-1.2131-1.5931-1.966-3.6808-1.966-2.6552 0-4.3542 1.1505-4.3542 2.928 0 1.7253 1.699 2.8652 4.2126 2.8652 2.1062 0.0001 3.5042-0.7633 3.8052-2.0808z" fill="#005da4"/>
  <polygon id="polygon25" transform="matrix(.23332 0 0 .13017 -1.1275 957.15)" points="527.41 675.81 536.89 675.81 536.89 633.55 527.41 633.55" fill="#005da4"/>
  <path id="path27" d="m115.79 1045.1h2.0527l2.9909-5.5002h-2.3187l-1.2737 2.9173c-0.17732 0.3976-0.31895 0.7215-0.42441 0.9935-0.15982-0.4705-0.33644-0.8262-0.4426-1.0874l-1.2035-2.8233h-2.354l2.9732 5.5001z" fill="#005da4"/>
  <polygon id="polygon29" transform="matrix(.23332 0 0 .13017 -1.1275 957.15)" points="446.4 667.21 427.21 667.21 427.21 658.14 444.2 658.14 444.2 649.7 427.21 649.7 427.21 642.23 445.79 642.23 445.79 633.55 417.73 633.55 417.73 675.81 417.73 675.81 446.4 675.81" fill="#005da4"/>
  <path id="path31" d="m87.398 1043.3c0.14209 1.3384 1.2924 1.9867 3.5401 1.9867 2.4242 0 3.7518-0.6694 3.7518-1.7357 0-0.4811-0.28302-0.8785-0.84951-1.1609-0.40714-0.2194-1.1328-0.3659-2.1239-0.5749-1.3628-0.2826-2.0355-0.3662-2.0355-0.7739 0-0.2824 0.46057-0.5017 1.2035-0.5017 0.88521 0 1.3451 0.2404 1.4512 0.7527h2.0709c0-1.0981-1.2746-1.8091-3.3806-1.8091-2.1591 0-3.4508 0.6799-3.4508 1.715 0 0.6797 0.65446 1.213 1.9111 1.5267 1.2567 0.3139 2.2301 0.4289 2.7431 0.5962 0.21279 0.063 0.33621 0.209 0.33621 0.387 0 0.3344-0.47784 0.5435-1.4162 0.5435-1.0439 0-1.5922-0.3241-1.6281-0.9513h-2.1234v-0.0003z" fill="#005da4"/>
  <path id="path33" d="m75.002 1045.1h2.3136v-1.6627c0-0.439-0.0385-1.0559-0.11573-1.8193 0.5784 0.6588 1.0987 1.2023 1.5037 1.6206l1.8509 1.8614h2.6029v-5.5002h-2.333v1.4117c0 0.4601 0.01937 1.1712 0.09636 2.1228-0.44331-0.5542-0.96384-1.1397-1.5422-1.7254l-1.7737-1.809h-2.6029v5.5001z" fill="#005da4"/>
  <polygon id="polygon35" transform="matrix(.23332 0 0 .13017 -1.1275 957.15)" points="318.61 667.21 297.7 667.21 297.7 658.14 316.21 658.14 316.21 649.7 297.7 649.7 297.7 642.23 317.94 642.23 317.94 633.55 287.37 633.55 287.37 675.81 287.37 675.81 318.61 675.81" fill="#005da4"/>
  <path id="path37" d="m31.67 1045.1h2.3973v-1.6627c0-0.439-0.0399-1.0559-0.11993-1.8193 0.59963 0.6588 1.1388 1.2023 1.5586 1.6206l1.9179 1.8614h2.6969v-5.5002h-2.4172v1.4117c0 0.4601 0.02007 1.1712 0.11993 2.1228-0.47947-0.5542-1.0189-1.1397-1.6183-1.7254l-1.8381-1.809h-2.6972v5.5001z" fill="#005da4"/>
  <path id="path39" d="m8.775 1045.1h2.2975v-2.0076c0-0.3869-0.0399-1.14-0.09986-2.2272l1.818 4.2348h2.4972l1.8582-4.2348c-0.05996 0.8992-0.09986 1.4951-0.09986 1.7984v2.4364h2.2772v-5.5002h-3.416l-1.2186 2.5304c-0.25992 0.523-0.45964 1.0144-0.63953 1.4848-0.16006-0.4288-0.33971-0.8889-0.55926-1.3384l-1.2786-2.6768h-3.4363v5.5002z" fill="#005da4"/>
  <path id="path41" d="m141.72 1042.4c0-1.1293 0.74289-1.7358 2.07-1.7358 1.3096 0 2.0887 0.6065 2.0887 1.7358s-0.76085 1.7358-2.0887 1.7358c-1.3271 0-2.07-0.6065-2.07-1.7358zm-2.2301 0c0 1.788 1.6633 2.8964 4.3003 2.8964 2.6549 0 4.336-1.1084 4.336-2.8964s-1.6811-2.8963-4.336-2.8963c-2.637 0-4.3003 1.1083-4.3003 2.8963z" fill="#005da4"/>
  <path id="path43" d="m106.86 1042v-1.2444h1.6993c0.83131 0 1.2389 0.1883 1.2389 0.5961 0 0.4495-0.40738 0.6481-1.3098 0.6481h-1.6283v0.0002zm-2.1941 3.1371h2.1941v-2.06h1.4687c0.76178 0 1.1328 0.1882 1.2032 0.6274 0.0714 0.4808-0.035 0.9725 0.23075 1.4326h2.3178v-0.1881c-0.42441-0.1361-0.31801-0.5334-0.37121-1.2027-0.0534-0.6481-0.15912-1.0039-1.0971-1.2339 0.93817-0.2926 1.3628-0.7111 1.3628-1.3385 0-1.056-1.0266-1.5266-3.1857-1.5266h-4.1234v5.4898z" fill="#005da4"/>
  <path id="path45" d="m55.586 1043 1.039-1.8926 1.0789 1.8926h-2.1178zm-0.21979-3.3462-3.5163 5.4898h2.5973l0.5595-1.0143h3.2165l0.59916 1.0143h2.6773l-3.4363-5.4898h-2.6972z" fill="#005da4"/>
  <path id="path47" d="m44.929 1044v-3.1787h1.3385c1.5583 0 2.2375 0.4913 2.2375 1.5893s-0.67919 1.5894-2.2375 1.5894h-1.3385zm-2.4972 1.1501h3.8157c3.2168 0 4.7949-0.9094 4.7949-2.7395 0-1.7671-1.5782-2.7501-4.4751-2.7501h-4.1356v5.4896z" fill="#005da4"/>
  <path id="path49" d="m24.425 1043 1.0387-1.8926 1.0789 1.8926h-2.1176zm-0.21979-3.3462-3.5161 5.4898h2.5973l0.55926-1.0143h3.2165l0.59916 1.0143h2.6773l-3.4363-5.4898h-2.6972z" fill="#005da4"/>
  <path id="path51" d="m135.01 1028.8c0-1.8614 2.4741-3.1161 5.0985-3.1161 3.0364 0 5.36 1.2652 5.36 3.1056 0 1.7984-2.3236 3.116-5.2105 3.116-2.9799 0-5.248-1.3489-5.248-3.1055zm-1.8369 0.01c0 2.1334 2.98 4.0365 7.0847 4.0365 3.9545 0 7.0472-1.8718 7.0472-4.1303 0-2.1227-3.1113-3.9735-7.178-3.9735-3.6927-0.0001-6.9538 1.7776-6.9538 4.0673z" fill="#fff"/>
  <path id="path53" d="m105.27 1028.8c0-1.8614 2.4741-3.1161 5.0985-3.1161 3.0364 0 5.3603 1.2652 5.3603 3.1056 0 1.7984-2.3238 3.116-5.2107 3.116-2.9797 0-5.248-1.3489-5.248-3.1055zm-1.8367 0.01c0 2.1334 2.9804 4.0365 7.0845 4.0365 3.9548 0 7.0474-1.8718 7.0474-4.1303 0-2.1227-3.1113-3.9735-7.1785-3.9735-3.6918-0.0001-6.9534 1.7776-6.9534 4.0673z" fill="#fff"/>
  <path id="path55" d="m99.681 1028.8c0 1.6628-2.5112 3.0325-5.1542 3.0325-2.8115 0-5.3043-1.2967-5.3043-3.1581 0-1.767 2.493-3.0322 5.2667-3.0322 2.6428 0 5.1918 1.3384 5.1918 3.1578zm-0.0371-2.6873c-1.2562-0.9098-3.0742-1.3802-5.2107-1.3802-4.1428 0-7.0287 1.8088-7.0287 3.9837 0 2.2588 3.0735 4.0259 7.0287 4.0259 2.0058 0 3.9545-0.4811 5.2107-1.349v1.1504h1.7431v-10.122h-1.7431v3.6911z" fill="#fff"/>
  <path id="path57" d="m77.217 1028.7c0 1.8195-2.549 3.158-5.1918 3.158-2.7739 0-5.2669-1.2653-5.2669-3.0325 0-1.8614 2.493-3.158 5.3043-3.158 2.643 0 5.1545 1.37 5.1545 3.0325zm0 2.656v1.213h1.7056v-7.6441h-1.7056v1.2339c-1.1622-0.8992-2.9802-1.4014-5.0982-1.4014-4.1986 0-7.1785 1.7778-7.1785 4.0261 0 2.1748 2.8864 3.9838 7.0285 3.9838 2.1932 0.0003 4.1612-0.5434 5.2483-1.4113z" fill="#fff"/>
  <path id="path59" d="m46.84 1026.1c-1.2371-0.9096-3.0551-1.3802-5.1916-1.3802-4.1423 0-7.0287 1.7985-7.0287 3.984 0 2.269 3.0551 4.0362 7.0287 4.0362 2.0054 0 3.9548-0.4914 5.1916-1.3594v1.1503h1.762v-10.112h-1.762v3.6807zm0.03756 2.6875c0 1.6623-2.5117 3.0325-5.1356 3.0325-2.8113 0-5.304-1.2968-5.304-3.1581 0-1.7671 2.493-3.022 5.248-3.022 2.661 0.0001 5.1916 1.3281 5.1916 3.1476z" fill="#fff"/>
  <path id="path61" d="m33.269 1029.1v-0.063c0-2.5725-2.9239-4.2768-6.9912-4.2768-4.2921 0-7.1974 1.7462-7.1974 4.0362 0 2.1333 3.0177 4.0362 7.1225 4.0362 2.9799 0 5.3605-0.9304 6.6351-2.6453h-1.9869c-0.91834 1.0979-2.6801 1.7045-4.7044 1.7045-2.8302 0-5.0231-1.0874-5.248-2.792h12.37v-0.0002zm-1.9307-0.8263h-10.402c0.43094-1.6206 2.4741-2.5931 5.0793-2.5931 2.8677 0 4.6671 0.8889 5.3229 2.5931z" fill="#fff"/>
 </g>
</svg>
