<?xml version="1.0" encoding="UTF-8" standalone="no"?>
<!-- Created with Inkscape (http://www.inkscape.org/) -->
<svg id="svg2" xmlns:rdf="http://www.w3.org/1999/02/22-rdf-syntax-ns#" xmlns="http://www.w3.org/2000/svg" height="100" width="165" version="1.1" xmlns:cc="http://creativecommons.org/ns#" xmlns:dc="http://purl.org/dc/elements/1.1/" viewBox="0 0 165 100">
 <metadata id="metadata7">
  <rdf:RDF>
   <cc:Work rdf:about="">
    <dc:format>image/svg+xml</dc:format>
    <dc:type rdf:resource="http://purl.org/dc/dcmitype/StillImage"/>
    <dc:title/>
   </cc:Work>
  </rdf:RDF>
 </metadata>
 <g id="layer1" transform="translate(0 -952.36)">
  <text id="text6677" style="word-spacing:0px;letter-spacing:0px" xml:space="preserve" font-size="40px" y="1002.3622" x="10.25" font-family="sans-serif" line-height="125%" fill="#000000"><tspan id="tspan6679" y="1002.3622" x="10.25" font-family="Sylfaen"/></text>
  <path id="path6756" d="m11.797 966.21v20.9l-0.06445 10.951c-0.20301 1.5951-0.14964 3.1771 0.22266 4.4804 0.98634 3.4537 3.7253 5.5094 6.543 5.1875v0.041h12.973l-0.02539-4.8106h-7.3203v-0.022c-2.3412 0.035-4.925-0.6524-5.6543-1.8984-0.12849-0.2214-0.24169-0.4511-0.25735-0.6902-0.01472-0.2248-0.04052-0.47449 0.0077-0.70724l0.09927-6.9795 0.06445-4.9121 5.1934-0.0312 4.5859-0.0117 0.01953-2.2988v-2.3848l-4.6797-0.0742h-4.9746l0.07422-4.998 0.07422-6.4043 8.418-0.14649h4.6445v-2.5957-2.5957h-9.9727z"/>
  <path id="path6758" d="m39.176 966.15v20.93 20.93h3.3535 3.9434l-0.07422-6.3809v-5.1972l5.0837-0.0823c5.4524-0.0177 7.6301-1.8667 8.9199-3.8206 1.1139-1.6874 0.99191-5.8761 0.89578-13.503-0.08273-6.5636 0.24064-8.4654-0.31563-9.6696-0.75407-1.6324-2.0166-1.9962-5.1755-2.643-1.5615-0.31969-1.8021-0.34606-8.3652-0.44187zm8.9258 5.6152c0.3773 0.003 0.99665 0.0766 1.7656 0.18555 0.20475-0.058 0.49734 0.0171 0.86914 0.12695 0.15392 0.0237 0.23934 0.034 0.4082 0.0605 2.6279 0.41273 3.276 0.92715 3.6582 2.8984 0.28684 1.4796 0.32945 11.62 0.05078 12.107-0.28293 0.49506-1.6747 1.1586-2.9492 1.4062-1.1191 0.21748-1.9918 0.30863-3.7637 0.39258l-1.2949 0.0625-0.13867-7.7422c-0.13512-7.5614-0.08928-8.6537 0.37695-9.1543 0.2174-0.23342 0.44868-0.34786 1.0176-0.34375z"/>
  <path id="path6760" d="m69.654 966.46v20.922 20.92l7.9688-0.1c-0.03084-1.4788-0.04155-4.4067-0.04687-8.2812h8.2441v8.3614h8.3613v-1.8028c0.12069-2.6212 0.05765-12.944 0.0098-20.387-0.07746-12.026-0.12836-13.31-0.57617-14.305-0.6919-1.537-1.9776-2.7856-3.8477-3.7363-2.6893-1.3673-4.4083-1.5826-12.668-1.5879l-7.4453-0.004zm11.061 5.1562 0.60352 0.12695c0.03411 0.005 0.07229 0.0181 0.10742 0.0254 1.6432 0.26494 2.827 0.65697 3.3164 1.1133 0.14891 0.13882 0.36476 0.60134 0.47852 1.0274 0.24172 0.90526 0.45321 7.5473 0.59961 17.904v2.8555h-8.248c-0.0003-1.3388-0.002-2.0672-0.002-3.6543 0-16.673-0.03472-19.236 0.19141-19.236 0.14624 0 0.78789-0.19428 1.6523-0.11524 0.22767 0.0208 0.67803-0.058 0.89453-0.0332l0.40625-0.0137z"/>
  <path id="path6762" d="m10.134 62.594c0.70873-0.05607 1.9382-0.05666 2.7321-0.0013 0.79393 0.05536 0.21407 0.10124-1.2886 0.10196-1.5027 0.000711-2.1522-0.04459-1.4435-0.10066z" transform="translate(0 952.36)"/>
  <path id="path6764" d="m6.7959 66.073v-5.191h3.6883 3.6883v0.81963 0.81963h-2.7321-2.7321v1.2294 1.2294h2.5955 2.5955v0.81963 0.81963h-2.5955-2.5955v1.6393 1.6393h2.8687 2.8687v0.68303 0.68303h-3.825-3.825v-5.191z" transform="translate(0 952.36)"/>
  <path id="path6766" d="m16.358 66.073v-5.191h1.4489 1.4489l0.64164 2.6638c1.0297 4.2748 1.135 4.5939 1.3708 4.1515 0.11576-0.21718 0.55898-1.8395 0.98495-3.6051l0.77448-3.2102h1.4464 1.4464v5.191 5.191h-0.81963-0.81963l-0.01849-4.1665c-0.02109-4.7519-0.11802-4.7129-1.3612 0.54642l-0.85567 3.62h-0.91073-0.91073l-0.87722-3.7566c-0.48247-2.0662-0.97982-3.9411-1.1052-4.1665-0.13007-0.2338-0.23157 1.3797-0.23631 3.7566l-0.0083 4.1665h-0.81963-0.81963v-5.191z" transform="translate(0 952.36)"/>
  <path id="path6768" d="m28.106 66.049v-5.2152l3.0283 0.09248 3.0283 0.09248 0.79664 0.89224c1.2429 1.3921 1.0201 3.8681-0.43388 4.8208-0.32994 0.21618-1.479 0.47968-2.5534 0.58556l-1.9535 0.19249v1.8772 1.8772h-0.95624-0.95624v-5.2152zm5.311-0.78171c0.55019-0.45662 0.54852-1.7651-0.003-2.3165-0.28485-0.28485-0.92844-0.42933-1.9125-0.42933h-1.4831v1.6731 1.6731l1.4861-0.12324c0.81735-0.06778 1.678-0.28248 1.9125-0.4771z" transform="translate(0 952.36)"/>
  <path id="path6770" d="m37.669 66.05v-5.2139l3.2731 0.09118c3.1575 0.08796 3.2998 0.11793 4.0299 0.84872 0.60548 0.60608 0.75679 1.0066 0.75679 2.0032 0 1.0617-0.13176 1.3634-0.89224 2.0429-0.49074 0.43847-1.0852 0.79722-1.321 0.79722-0.29618 0-0.10481 0.37357 0.61904 1.2084 0.57627 0.6646 1.3281 1.7096 1.6706 2.3223l0.62288 1.1139h-1.0623c-0.99177 0-1.1307-0.10433-2.0917-1.571-1.4882-2.2712-2.0401-2.8004-2.9206-2.8004h-0.77201v2.1857 2.1857h-0.95624-0.95624v-5.2139zm5.926-1.231c1.0058-1.3755 0.10002-2.2974-2.2572-2.2974h-1.7564v1.5401 1.5401l1.8279-0.14672c1.3214-0.10606 1.927-0.28232 2.1857-0.63605z" transform="translate(0 952.36)"/>
  <path id="path6772" d="m48.051 66.073v-5.191h3.5517 3.5517v0.81963 0.81963h-2.7321-2.7321v1.2294 1.2294h2.5955 2.5955v0.81963 0.81963h-2.6091-2.6091l0.08194 1.571 0.08194 1.571 2.8004 0.07786c2.7733 0.07711 2.8004 0.08438 2.8004 0.75133v0.67347h-3.6883-3.6883v-5.191z" transform="translate(0 952.36)"/>
  <path id="path6774" d="m58.843 71.034c-1.0931-0.66834-1.4655-1.1555-1.6718-2.1867-0.16174-0.80869-0.12389-0.86125 0.6131-0.85137 0.58181 0.0078 0.92813 0.23803 1.3356 0.88794 0.46127 0.73565 0.74167 0.8912 1.7355 0.96279 1.353 0.09745 2.2223-0.47378 2.2223-1.4603 0-0.78132-0.39832-1.092-1.9125-1.4916-2.7882-0.73589-3.825-1.7012-3.825-3.5613 0-2.8139 5.0475-3.6462 6.752-1.1133 0.34359 0.51059 0.62471 1.0233 0.62471 1.1394 0 0.38818-1.7432 0.62587-1.8669 0.25457-0.43906-1.3172-2.2328-1.7636-3.3621-0.8368-0.84234 0.69125-0.46212 1.3853 1.0209 1.8637 2.7777 0.8959 3.4521 1.2501 3.957 2.0781 0.28725 0.47108 0.52273 1.1453 0.52329 1.4982 0.0017 1.1036-0.81391 2.4357-1.7689 2.8889-1.2364 0.5867-3.3568 0.55171-4.3773-0.07224z" transform="translate(0 952.36)"/>
  <path id="path6776" d="m66.098 71.059c0.0085-0.1127 0.8408-2.4179 1.8496-5.1227l1.8341-4.9178h1.0468 1.0468l1.7104 4.508c2.3777 6.2666 2.2686 5.7374 1.1826 5.7374-0.80786 0-0.97574-0.13418-1.4528-1.1611l-0.53935-1.1611h-2.0263-2.0263l-0.38705 1.1611c-0.35466 1.064-0.46517 1.1611-1.3205 1.1611-0.51341 0-0.92652-0.09221-0.91804-0.20491zm6.1982-3.9616c-0.07075-0.18783-0.40991-1.1159-0.75368-2.0623-0.34378-0.94643-0.72655-1.6193-0.8506-1.4952-0.2329 0.2329-1.3309 3.2595-1.3309 3.6686 0 0.12674 0.68935 0.23044 1.5319 0.23044 1.112 0 1.4966-0.09361 1.4033-0.34151z" transform="translate(0 952.36)"/>
  <path id="path6778" d="m80.563 66.049v-5.2152l2.9998 0.09248c2.8569 0.08807 3.0358 0.12856 3.7566 0.85002 0.6454 0.64598 0.75686 0.98122 0.75686 2.2764 0 1.363-0.08948 1.5988-0.87197 2.298-0.71477 0.63864-1.2196 0.81336-2.8004 0.96913l-1.9284 0.19002v1.8772 1.8772h-0.95624-0.95624v-5.2152zm5.3686-0.94185c0.49672-0.67931 0.46474-1.4805-0.08329-2.0861-0.33061-0.36532-0.84472-0.49963-1.9125-0.49963h-1.4603v1.6731 1.6731l1.5436-0.12801c1.0799-0.08956 1.6544-0.27953 1.9125-0.63247z" transform="translate(0 952.36)"/>
  <path id="path6780" d="m88.228 71.059c0.0085-0.1127 0.8408-2.4179 1.8496-5.1227l1.8341-4.9178h1.0468 1.0468l1.7104 4.508c2.3777 6.2666 2.2686 5.7374 1.1826 5.7374-0.80786 0-0.97574-0.13418-1.4528-1.1611l-0.53935-1.1611h-2.0263-2.0263l-0.38705 1.1611c-0.35466 1.064-0.46517 1.1611-1.3205 1.1611-0.51341 0-0.92652-0.09221-0.91803-0.20491zm6.1982-3.9616c-0.07-0.187-0.41-1.115-0.753-2.061-0.344-0.947-0.727-1.62-0.851-1.496-0.2329 0.2329-1.3309 3.2595-1.3309 3.6686 0 0.12674 0.68935 0.23044 1.5319 0.23044 1.112 0 1.4966-0.09361 1.4033-0.34151z" transform="translate(0 952.36)"/>
  <path id="path6782" d="m99.414 66.073v-5.191l0.88793 0.0011c0.85142 0.0011 0.97221 0.1477 2.937 3.5659l2.0491 3.5648 0.0762-3.5659 0.0762-3.5659h0.8117 0.8117v5.191 5.191h-0.89918c-0.8632 0-0.98073-0.1394-2.937-3.4834l-2.0378-3.4834-0.0765 3.4834-0.0765 3.4834h-0.81147-0.81147v-5.191z" transform="translate(0 952.36)"/>
  <path id="path6784" d="m108.71 71.196c0.002-0.03757 0.84886-2.3428 1.8809-5.1227l1.8764-5.0544h1.0408 1.0408l1.8419 4.7812c1.013 2.6297 1.8498 4.9349 1.8594 5.1227 0.0107 0.20763-0.33519 0.34151-0.88223 0.34151-0.81001 0-0.94202-0.11584-1.3231-1.1611l-0.42337-1.1611h-2.1375-2.1375l-0.38705 1.1611c-0.35466 1.064-0.46518 1.1611-1.3205 1.1611-0.51341 0-0.93146-0.03074-0.929-0.0683zm6.1212-4.3714c-0.71961-2.2686-1.1527-3.3468-1.3445-3.3468-0.19175 0-0.62489 1.0782-1.3445 3.3468-0.18646 0.58783-0.12765 0.61472 1.3445 0.61472 1.4721 0 1.531-0.02689 1.3445-0.61472z" transform="translate(0 952.36)"/>
  <path id="path6786" d="m119.91 66.059v-5.2053l1.4186 0.08258 1.4186 0.08258 0.50457 2.0491c0.98364 3.9945 1.3417 5.0546 1.5656 4.6349 0.11737-0.22005 0.56191-1.8447 0.98787-3.6103l0.77447-3.2102h1.4464 1.4464v5.191 5.191h-0.81963-0.81963l-0.008-4.1665c-0.005-2.4473-0.10466-3.9974-0.24182-3.7566-0.12843 0.2254-0.63025 2.1003-1.1152 4.1665l-0.88164 3.7566h-0.90721c-0.62945 0-0.94933-0.14638-1.0448-0.47812-0.0757-0.26297-0.54499-2.1379-1.043-4.1665l-0.90537-3.6883-0.0754 4.1665-0.0754 4.1665h-0.81251-0.81252v-5.2053z" transform="translate(0 952.36)"/>
  <path id="path6790" d="m131.65 66.073v-5.191h3.6883 3.6884v0.81963 0.81963h-2.7321-2.7321v1.2294 1.2294h2.5955 2.5955v0.81963 0.81963h-2.5955-2.5955v1.6393 1.6393h2.8687 2.8687v0.68303 0.68303h-3.825-3.825v-5.191z" transform="translate(0 952.36)"/>
  <path id="path6792" d="m141.22 66.073v-5.191h0.92759c0.90369 0 0.97937 0.09131 2.937 3.5437 1.1052 1.949 2.1016 3.5473 2.2143 3.5517s0.20491-1.5903 0.20491-3.5437v-3.5517h0.81963 0.81963v5.191 5.191l-1.0245-0.003c-1.022-0.003-1.0292-0.01123-2.9036-3.2839-1.0335-1.8045-1.9863-3.3472-2.1174-3.4282-0.1311-0.08103-0.23837 1.3967-0.23837 3.2839v3.4313h-0.81963-0.81963v-5.191z" transform="translate(0 952.36)"/>
  <path id="path6794" d="m143.35 1011c0-0.7177 0.85314-1.3093 1.6141-1.1194 1.7192 0.4291 2.2109 0.4679 2.2109 0.1747 0-0.1674 0.18442-0.3043 0.40982-0.3043 0.54375 0 0.52163 0.6688-0.0407 1.2312-0.28018 0.2802-0.66759 0.3868-1.0245 0.2821-1.3874-0.4072-2.3499-0.4821-2.3499-0.183 0 0.17-0.18441 0.309-0.40981 0.309s-0.40982-0.1756-0.40982-0.3903z"/>
  <path id="path6796" d="m151.16 69.573c0.35209-0.94803 1.226-3.2912 1.942-5.2071l1.3019-3.4834h0.99391 0.9939l1.3102 3.4834c0.7206 1.9159 1.604 4.2518 1.9632 5.191l0.653 1.7076h-0.95345c-0.86979 0-0.99968-0.10787-1.4804-1.2294l-0.52701-1.2294h-1.8887c-2.0189 0-2.2514 0.12978-2.6914 1.5027-0.22006 0.68658-0.4246 0.83334-1.26 0.90406l-0.99725 0.08443 0.64017-1.7237zm5.6313-2.3639c0-0.41799-1.1004-3.4382-1.34-3.6778-0.13087-0.13087-0.54297 0.68194-0.93124 1.8367l-0.69648 2.0715h1.4839c0.81614 0 1.4839-0.1037 1.4839-0.23044z" transform="translate(0 952.36)"/>
  <path id="path6798" d="m26.467 84.95v-5.2159h2.7457c3.2693 0 4.0906 0.3292 4.9555 1.9864 0.82749 1.5856 0.87046 4.8349 0.08174 6.1819-1.0205 1.743-1.7555 2.0663-4.9333 2.1702l-2.8496 0.09317v-5.2159zm5.7177 3.0001c0.97116-0.97116 1.074-4.636 0.16412-5.8496-0.38774-0.51715-1.8941-0.9824-3.2181-0.99388l-0.75133-0.0065v3.6883 3.6883h1.6393c1.2546 0 1.7629-0.12362 2.166-0.52673z" transform="translate(0 952.36)"/>
  <path id="path6800" d="m36.849 84.925v-5.191h3.6883 3.6883v0.68303c0 0.68303 0 0.68303-2.7321 0.68303h-2.7321v1.3661 1.3661h2.4589 2.4589v0.81963 0.81963h-2.4589-2.4589v1.5027 1.5027h2.7321 2.7321v0.81963 0.81963h-3.6883-3.6883v-5.191z" transform="translate(0 952.36)"/>
  <path id="path6802" d="m48.934 89.774c0.06725-0.18783 0.91028-2.527 1.8734-5.1982l1.7511-4.8567 1.0791 0.0755 1.0791 0.0755 1.8403 4.7812c1.0122 2.6297 1.8482 4.9349 1.8579 5.1227 0.01067 0.20763-0.3352 0.34151-0.88223 0.34151-0.81001 0-0.94201-0.11584-1.3231-1.1611l-0.42336-1.1611h-2.1375-2.1375l-0.38705 1.1611c-0.35771 1.0731-0.46001 1.1611-1.3497 1.1611-0.65323 0-0.9234-0.10978-0.84043-0.34151zm5.486-5.828c-0.38306-1.1393-0.78981-1.9692-0.90388-1.8442-0.11407 0.12503-0.42484 0.90352-0.6906 1.73-0.26576 0.82646-0.53991 1.6563-0.60924 1.8442-0.09126 0.24727 0.2915 0.34151 1.3871 0.34151h1.5131l-0.69648-2.0715z" transform="translate(0 952.36)"/>
  <path id="path6804" d="m60.072 84.925v-5.191h0.95624 0.95624v4.3714 4.3714h2.4589 2.4589v0.81963 0.81963h-3.4151-3.4151v-5.191z" transform="translate(0 952.36)"/>
  <path id="path6806" d="m68.542 84.925v-5.191h0.95624 0.95624v5.191 5.191h-0.95624-0.95624v-5.191z" transform="translate(0 952.36)"/>
  <path id="path6808" d="m72.64 84.925v-5.191h1.4489 1.4489l0.64164 2.6638c1.0297 4.2748 1.135 4.5939 1.3708 4.1515 0.11576-0.21718 0.55898-1.8395 0.98495-3.6051l0.77448-3.2102h1.4464 1.4464v5.191 5.191h-0.81963-0.81963l-0.0083-4.1665c-0.0049-2.4473-0.10466-3.9974-0.24182-3.7566-0.12843 0.2254-0.63025 2.1003-1.1152 4.1665l-0.88164 3.7566h-0.90493-0.90493l-0.87722-3.7566c-0.48247-2.0662-0.97982-3.9411-1.1052-4.1665-0.13007-0.23379-0.23157 1.3797-0.23631 3.7566l-0.0083 4.1665h-0.81963-0.81963v-5.191z" transform="translate(0 952.36)"/>
  <path id="path6810" d="m84.388 84.925v-5.191h3.6883 3.6883v0.68303c0 0.68303 0 0.68303-2.7321 0.68303h-2.7321v1.3661 1.3661h2.5955 2.5955v0.81963 0.81963h-2.5955-2.5955v1.5027 1.5027h2.8687 2.8687v0.81963 0.81963h-3.825-3.825v-5.191z" transform="translate(0 952.36)"/>
  <path id="path6812" d="m93.95 84.908v-5.2075l0.98805 0.08479c0.9529 0.08178 1.0572 0.20386 2.9322 3.4316 1.0693 1.8408 2.0385 3.3468 2.1539 3.3468 0.11535 0 0.20973-1.5368 0.20973-3.4151v-3.4151h0.81963 0.81964v5.2075 5.2075l-1.0135-0.08479c-0.9869-0.08257-1.0639-0.17237-2.937-3.4268-1.058-1.8381-2.0158-3.3442-2.1285-3.3468s-0.20491 1.532-0.20491 3.4103v3.4151h-0.81963-0.81963v-5.2075z" transform="translate(0 952.36)"/>
  <path id="path6814" d="m106.52 85.608v-4.508h-1.5027c-1.4207 0-1.5027-0.03726-1.5027-0.68303v-0.68303h3.9616 3.9616v0.68303c0 0.64577-0.082 0.68303-1.5027 0.68303h-1.5027v4.508 4.508h-0.95624-0.95624v-4.508z" transform="translate(0 952.36)"/>
  <path id="path6816" d="m115.42 90.105c-1.1998-0.35889-2.5215-1.7989-2.9035-3.1636-0.46491-1.6605-0.19772-4.2124 0.57132-5.4567 1.075-1.7394 3.7848-2.5093 5.7988-1.6475 1.8779 0.8035 2.9331 2.6801 2.9222 5.1971-0.016 3.726-2.9909 6.0871-6.3888 5.0707zm2.852-1.7692c1.231-0.63658 1.7084-1.8178 1.5759-3.8991-0.10053-1.5788-0.20702-1.8535-0.98965-2.5528-1.1858-1.0595-2.465-1.0581-3.6537 0.004-0.8056 0.7198-0.88957 0.94919-0.9751 2.6638-0.0763 1.5293 0.0105 2.0421 0.46911 2.7736 0.86792 1.3842 2.1499 1.7467 3.5735 1.0105z" transform="translate(0 952.36)"/>
  <path id="path6818" d="m125.21 89.887c-0.7419-0.34775-1.2662-0.84367-1.571-1.4858-0.64669-1.3628-0.58243-1.5643 0.49885-1.5643 0.64624 0 0.95624 0.12643 0.95624 0.38999 0 0.56287 1.3261 1.5225 2.1039 1.5225 0.86505 0 1.6366-0.4245 1.9976-1.0991 0.50066-0.93549-0.10319-1.5271-2.2126-2.1678-2.9916-0.90868-4.067-2.3723-3.1524-4.2903 1.0655-2.2344 5.4396-2.3195 6.573-0.12776 0.61844 1.1959 0.54106 1.4011-0.52827 1.4011-0.52593 0-0.95624-0.11416-0.95624-0.2537 0-0.54587-0.90295-1.1124-1.773-1.1124-1.3168 0-1.7787 0.24725-1.7787 0.95202 0 0.76138 0.36512 1.0675 1.7759 1.4889 2.1247 0.63468 3.1832 1.2177 3.5706 1.9669 0.81497 1.576 0.25919 3.6606-1.1467 4.3012-1.3543 0.61704-3.1396 0.64925-4.357 0.0786z" transform="translate(0 952.36)"/>
  <path id="path6891" d="m120.32 1007.8c-4.0473-1.2168-14.58-9.2598-16.808-12.835-1.9628-3.1498-2.6075-9.8196-1.315-13.603 1.2343-3.6126 4.4463-7.2265 8.2622-9.296 1.6583-0.89929 3.015-1.9897 3.015-2.4231 0-1.2866 4.3462-3.8954 7.7454-4.6493 9.4758-2.1015 21.097 1.9362 25.438 8.8379 0.79969 1.2716 1.9248 2.3119 2.5003 2.3119 1.5637 0 4.7774 3.4234 5.6608 6.0301 1.9852 5.8579-0.21032 13.235-5.1421 17.277-8.7081 7.1377-12.596 8.8811-20.403 9.15-3.8438 0.1323-6.6977-0.1229-8.9532-0.801zm12.672-5.5399c2.9989-0.4915 4.6246-2.4657 5.7144-6.9395 0.97743-4.0124 2.3611-4.6358 5.1739-2.3307l1.8526 1.5182 0.79805-1.876c0.74937-1.7616 1.1112-5.3911 0.53747-5.3911-0.14332 0-1.3282 0.43646-2.6332 0.96997-3.9097 1.5983-4.9717 1.0441-5.2355-2.732-0.16483-2.3594 0.20108-4.0057 1.2918-5.8124 1.1712-1.9399 1.3224-2.7174 0.65646-3.375-1.2334-1.2179-6.2691-3.2304-8.083-3.2304-2.2677 0-1.9997 2.8693 0.77895 8.339 2.8849 5.6788 2.7445 7.3096-0.6523 7.5772-5.5996 0.44119-14.62-3.5111-17.665-7.7394l-1.6112-2.2379-1.3292 2.425c-0.73103 1.3338-1.338 3.4598-1.3489 4.7244-0.0179 2.0829 0.28142 2.43 3.1776 3.6861 2.6269 1.1393 4.8081 1.444 12.225 1.708 8.7987 0.31309 9.0342 0.35833 9.2803 1.7844 0.19416 1.1248-0.8846 2.3725-4.6641 5.3945-4.7198 3.7739-4.8316 3.9313-2.7916 3.9313 1.1688 0 3.2059-0.1771 4.527-0.3937z" fill="#fbda0e"/>
  <path id="path6887" d="m122.5 1008.3c-3.9628-0.9879-7.3186-2.8333-12.296-6.7617-6.3443-5.0076-8.1264-7.7328-8.6012-13.154-0.62509-7.1362 2.4537-12.788 8.859-16.261 1.6583-0.89929 3.015-1.9897 3.015-2.4231 0-1.2866 4.3462-3.8954 7.7454-4.6493 9.4758-2.1015 21.097 1.9362 25.438 8.8379 0.79969 1.2716 1.9248 2.3119 2.5003 2.3119 1.5637 0 4.7774 3.4234 5.6608 6.0301 2.3066 6.8062-1.0596 15.494-7.4473 19.222l-2.302 1.3433 0.73289-1.5796c0.40307-0.8689 0.69585-3.0382 0.65061-4.8207-0.0453-1.7825 0.17732-4.5588 0.4946-6.1694s0.40228-2.9284 0.18887-2.9284c-0.21339 0-1.3577 0.41442-2.5429 0.92099-3.1638 1.3521-4.688 1.1613-5.2447-0.65644-0.67115-2.1914 0.22614-6.9742 1.6403-8.7428 0.94865-1.1865 0.99352-1.6467 0.23371-2.397-1.296-1.2797-6.2948-3.3045-8.1581-3.3045-2.2677 0-1.9997 2.8693 0.77895 8.339 2.8849 5.6788 2.7445 7.3096-0.6523 7.5772-5.5996 0.44119-14.62-3.5111-17.665-7.7394l-1.6112-2.2379-1.3292 2.425c-0.73103 1.3338-1.338 3.4598-1.3489 4.7244-0.0179 2.0829 0.28142 2.43 3.1776 3.6861 2.6269 1.1393 4.8081 1.444 12.225 1.708 8.7987 0.31309 8.6486 0.2879 9.4577 1.5664 0.29236 0.46198 0.35829 1.9071-0.21394 2.8315 0 0-0.13033 0.32841-0.3091 0.48453-0.0894 0.0782-0.20559 0.28954-0.20559 0.28954s-0.17313 0.17453-0.19907 0.23687c-0.10373 0.24963-0.25731 0.14014-0.42764 0.36807-0.17033 0.22787-1.1409 0.74166-1.4492 1.0108-0.30832 0.26923-0.70975 0.5645-1.2525 0.89681l-3.0191 1.8487-3.5206 2.013 5.3844-0.628 4.7826-0.3814-2.8308 2.0542c-2.4428 1.7727-4.2307 3.0226-8.4217 4.3022-0.75668 0.231-2.1152-2.1504-2.3419-1.8498-0.49269 0.6533 3.0844 2.319 0.42396 1.6558z" fill="#03589a"/>
  <path id="path6885" fill="#d4aa00" d="m110.84 1001.9 1.4545 1.3421c1.8393 1.6971 3.3384 3.3263 6.857 4.3567 1.5679 0.4592-2.1239-0.1583 4.0379 0.8607 1.0615 0.1755 2.1389 0.053 2.443-0.3507 0 0 0.86896-0.1906 1.1853-0.3119 0.31633-0.1213 0.69497-0.2412 1.0575-0.3868 2.9049-1.1666 3.7627-1.5301 4.2702-1.8263 0.50751-0.2961 0.6647-0.5249 2.1683-1.422l0.98937-1.0924 0.38753-0.7225 1.076-2.0614-6.6188 2.1269c-1.5443 0.076-3.7252 0.5801-5.664 0.6743-1.9388 0.094-3.8362 0.1899-5.2148 0.2723-3.1882 0.1907-5.5526-0.2214-6.6705-0.7025z"/>
  <path id="path6879" d="m113.51 969.66c-1.0986 1.0856-3.8542 2.6596-5.6408 3.997-5.466 4.0917-4.9255 7.2785-0.0909 12.473 0.49486 0.53167 0.89167 0.70344 1.3062 0.91178l0.94041 0.47262c0.47612 0.23931 0.74442 0.11305 0.88342 0.0831 0.27799-0.0598 0.0532 0.0741 0.20236-0.27725 0.0746-0.17571 0.1322-0.1988 0.13655-0.69384 0.004-0.49499-0.009-1.0261-0.006-1.3461 0.006-0.60429 0.65397-2.5154 1.2656-3.7151l1.2531-2.3275 1.1933 1.2319-1.1818-1.183-0.84321-2.5829-0.16457-2.4031c0.19515-2.2242 0.47232-3.6818 0.74604-4.6405z" fill="#05f"/>
  <path id="path6879-5" d="m135.34 965.78c-1.3913 0.83549-2.9461 2.1797-3.6101 3.2896-0.66408 1.1099-0.93901 2.3143-0.77377 3.528 0.10381 0-2.1774 2.1835-2.1774 2.1835 0.43265 2.7541 3.312-1.9266 3.8903-1.9266 0.57821 0 3.7778 0.99812 5.8833 2.0178 0.88778 0.42988 1.5828 0.75711 2.1641 0.99424 0.58132 0.23721 0.80897 0.69635 0.98064 1.0296 0.39546 0.7679 0.5926 2.0749 0.8959 1.6568 0.30331-0.41812 0.75232-0.73982 1.6834-1.3784 0.86604-0.59388 0.40034-0.50254 0.85588-0.39095 0.45553 0.11154 0.43159-0.4456 0.73753-0.53964l0.96822-0.15927 2.523 0.70385-3.7125-4.9539c-2.4064-2.7743-6.038-4.7361-10.308-6.0546z" fill="#00006a"/>
  <path id="path6885-2" fill="#9a1a05" d="m147.92 976.1c0.0592 0.0453-1.3501-0.1969-2.362-0.029-0.50598 0.084-0.85155-0.0164-1.2211 0.0672-0.36954 0.0838-1.1643 0.51663-1.1643 0.51663-0.59384-0.029-0.65755 0.39028-1.1061 0.7477s-0.65926 1.0159-1.1336 1.6092c-1.4141 1.7686-2.1601 6.4693-1.489 8.6608 0.55677 1.8178 2.0805 2.0085 5.2443 0.6563 1.1852-0.50657 2.3288-0.92093 2.5422-0.92093s0.12921 1.3178-0.18808 2.9284-0.54053 4.3865-0.49527 6.169c0.0452 1.7825-0.24736 3.9516-0.65044 4.8203l-0.7335 1.5799 2.3024-1.3435c6.3877-3.7275 9.7546-12.415 7.4479-19.221-0.88343-2.6067-4.0975-6.0302-5.6612-6.0302-0.0701 0-0.14877-0.0171-0.23352-0.046z"/>
  <path id="path6881" fill="#6e1103" d="m154.19 982.09c-0.4538-0.007-2.5448 0.43448-4.0531 1.5477-3.4776 2.5667-3.5107 5.113-3.7945 13.913-0.13618 4.2226-2.605 6.4804 1.2727 3.6734 1.0225-0.7402 1.1686-0.8022 2.9152-2.0932 0.69795-0.5159 1.1689-1.1398 1.6223-1.8487 0.45342-0.70878 0.88929-1.5024 1.517-2.3577 0.75832-1.0332 1.3417-2.5401 1.7226-4.1372 0.38091-1.5971 0.45902-3.2842 0.50766-4.6781 0.025-0.71785-0.23588-2.0706-0.49361-2.598-0.25772-0.5274-0.78062-1.5352-0.78062-1.5352-0.0242-0.0335 0.2811 0.0739 0.21626 0.0732z"/>
  <path id="path6879-2-4-5" d="m126.14 964.35c-2.8955 0.0315-5.7586 0.52392-8.3515 1.532-1.3995 0.54417-3.0994 1.7417-3.7775 2.662-0.0471 0.0638-0.80022 0-1.2951 5.4126l0.0555 2.9253 0.79958 2.5961 2.7335 3.4231c2.8456 2.5041 6.079 3.6105 9.3176 4.6983 4.625 1.5535 6.8802 1.847 9.0047 1.1728 1.7043-0.54089 2.1997-1.7161-0.34925-6.6591-1.5935-3.0901-3.1226-6.4216-3.0175-8.1996-1.0072-3.0601 0.9728-6.2168 4.9061-7.8218-3.1244-1.1633-6.5959-1.7791-10.026-1.7416z" fill="#000041"/>
 </g>
</svg>
