<?xml version="1.0" encoding="UTF-8" standalone="no"?>
<!-- Created with Inkscape (http://www.inkscape.org/) -->
<svg id="svg2" xmlns:rdf="http://www.w3.org/1999/02/22-rdf-syntax-ns#" xmlns="http://www.w3.org/2000/svg" xmlns:osb="http://www.openswatchbook.org/uri/2009/osb" height="100" width="165" version="1.1" xmlns:cc="http://creativecommons.org/ns#" xmlns:xlink="http://www.w3.org/1999/xlink" viewBox="0 0 165 100" xmlns:dc="http://purl.org/dc/elements/1.1/">
 <defs id="defs4">
  <linearGradient id="linearGradient3029" y2="14.617" gradientUnits="userSpaceOnUse" x2="79.119" gradientTransform="matrix(.98770 0 0 1.0667 -17.56 938.51)" y1="14.617" x1="52.226">
   <stop id="stop5672" stop-color="#fa191d" offset="0"/>
   <stop id="stop5674" stop-color="#fa191d" stop-opacity="0" offset="1"/>
  </linearGradient>
  <linearGradient id="linearGradient3031" y2="966.63" gradientUnits="userSpaceOnUse" x2="71.829" gradientTransform="matrix(-1 0 0 -1.0353 116.76 1955)" y1="966.63" x1="44.136">
   <stop id="stop5722" stop-color="#fdb022" offset="0"/>
   <stop id="stop5724" stop-color="#fa191d" stop-opacity="0" offset="1"/>
  </linearGradient>
 </defs>
 <metadata id="metadata7">
  <rdf:RDF>
   <cc:Work rdf:about="">
    <dc:format>image/svg+xml</dc:format>
    <dc:type rdf:resource="http://purl.org/dc/dcmitype/StillImage"/>
    <dc:title/>
   </cc:Work>
  </rdf:RDF>
 </metadata>
 <g id="layer1" transform="translate(0 -952.36)">
  <path id="path3112" d="m61.062 988.36c-2.9386 0.16923-5.7628 1.6081-7.25 4-0.81404 1.3093-1.2783 2.7824-1.4375 4.3125h-3.3438v2.9062h3.4375c0.21414 1.2742 0.63917 2.5352 1.3125 3.6563 1.1032 1.8369 3.3555 3.5306 5.375 4.0312 0.956 0.2367 3.878 0.1844 5.0312-0.094 0.60753-0.1465 1.5819-0.535 2.1562-0.8438l1.0312-0.5625v-1.9375c0-1.9667-0.1612-2.3576-0.625-1.5312-0.46433 0.8274-1.8259 1.8599-2.875 2.1875-1.2739 0.3975-3.3938 0.403-4.5312 0-1.6497-0.5845-3.239-2.3966-3.625-4.125l-0.15625-0.65629h6.125 6.125v-1.5625-1.5312h-6.1875c-3.4181 0-6.2188-0.0345-6.2188-0.0937 0-0.0591 0.14502-0.56464 0.34375-1.125 1.1173-3.1503 3.1674-4.5464 6.375-4.3125 1.805 0.13163 3.2105 0.77799 4.0312 1.8125 1.0489 1.3222 1.2609 1.144 1.1875-1l-0.0625-1.8438-1.0625-0.5625c-1.5863-0.86073-3.3931-1.2265-5.1562-1.125z"/>
  <path id="path3114" d="m72.191 1003.5v-3.7842h-1.0498-1.0498v-1.5317-1.5317h1.0498 1.0498v-4.1171-4.1171l2.257-0.10267c2.8757-0.13083 6.8698 0.0978 7.8207 0.44761 1.7847 0.65658 2.9693 2.463 3.1085 4.7402 0.11174 1.8273-0.26928 2.9374-1.4422 4.2019-0.45457 0.49002-0.82648 1.0067-0.82648 1.1482s0.37115 1.103 0.82477 2.1367 1.1511 2.8727 1.55 4.0868l0.72519 2.2075h-1.3226-1.3226l-0.3243-0.7659c-0.17836-0.4212-0.61655-1.6548-0.97376-2.7412-1.1893-3.6174-1.6044-3.9329-5.3059-4.033l-2.4752-0.0673 0.06072 3.8036 0.06073 3.8036-1.2072-0.0002-1.2072-0.0002v-3.7842zm8.6922-7.0193c1.3929-0.27733 1.7004-0.69846 1.7004-2.3289 0-2.5906-0.54869-2.9271-4.9706-3.0489l-3.1125-0.0857v2.8176 2.8176l2.7818-0.004c1.53-0.003 3.1504-0.0777 3.6009-0.16735z"/>
  <path id="path3116" d="m95.948 1007.4c-2.077-0.1239-3.5785-0.7435-5.1212-2.1133-2.1587-1.9168-3.208-4.4297-3.1785-7.612 0.02276-2.4535 0.64598-4.3018 2.0412-6.0536 1.0535-1.3228 1.9573-1.9541 3.8159-2.6656 2.5287-0.96793 5.9357-0.70977 8.2 0.62133l0.90425 0.53157v1.891c0 1.04-0.0749 1.8904-0.16654 1.8896-0.0916-0.00072-0.39587-0.32726-0.67616-0.72556-1.093-1.5531-3.5963-2.3873-5.9921-1.9969-1.5987 0.26055-2.5351 0.75437-3.37 1.7772-0.63074 0.77276-1.5642 2.8008-1.5642 3.3983 0 0.20886 1.0315 0.25132 6.1065 0.25132h6.1065v1.5317 1.5317h-6.1108-6.1108l0.14645 0.49555c0.36586 1.2381 1.0909 2.4932 1.8167 3.1452 1.2052 1.0825 2.3133 1.4797 4.1519 1.488 2.4436 0.01 3.7849-0.6668 5.3718-2.7149 0.21403-0.2763 0.26671 0.054 0.27605 1.7308l0.0115 2.0724-0.72016 0.3966c-1.7279 0.9519-3.4438 1.2782-5.9385 1.1294z"/>
  <path id="path3118" d="m111.58 1007.2c-2.0944-0.6057-3.7546-1.9282-4.9879-3.9732-1.0931-1.8128-1.455-3.1331-1.4604-5.3288-0.0106-4.3294 2.0745-7.5804 5.758-8.9777 1.0854-0.4117 1.5688-0.48295 3.2771-0.48295 1.7306 0 2.1861 0.0689 3.3392 0.50597 2.2387 0.84829 2.3386 0.97806 2.3386 3.0394 0 0.97383-0.0868 1.7706-0.19307 1.7706-0.10619 0-0.45294-0.3178-0.77054-0.70623-1.7803-2.1772-5.6124-2.6777-8.0501-1.0515-1.493 0.99596-2.7768 3.7254-2.784 5.9186-0.004 1.1053 0.64992 3.4058 1.2338 4.3432 1.2029 1.9311 3.668 2.9174 6.2201 2.4885 1.532-0.2573 2.7656-0.9865 3.4593-2.0449 0.30231-0.4613 0.62497-0.8385 0.71702-0.8385 0.0921 0 0.16739 0.8914 0.16739 1.981v1.9811l-0.92708 0.5435c-0.50989 0.2989-1.4298 0.6643-2.0444 0.812-1.36 0.3269-4.1947 0.3376-5.2932 0.019z"/>
  <path id="path3120" d="m127.84 1007.1c-1.1751-0.2434-3.3324-1.8205-4.3-3.1433-2.5913-3.543-2.436-9.659 0.33158-13.055 2.4668-3.0267 7.0179-3.6288 10.631-1.4066 0.89373 0.54978 2.5663 2.6026 3.0715 3.7699 0.51502 1.1899 0.72733 6.3419 0.32244 7.824-0.69652 2.5498-3.1709 5.2233-5.4055 5.8405-1.0338 0.2855-3.6345 0.3807-4.6506 0.1701zm4.4059-2.911c1.157-0.4169 2.1346-1.5076 2.6934-3.0053 0.55993-1.5007 0.57307-5.512 0.0228-6.9603-0.74836-1.9697-2.306-3.114-4.5309-3.3286-2.8146-0.27148-4.8758 1.36-5.8104 4.5993-0.37945 1.315-0.17474 4.1161 0.41011 5.6118 1.1942 3.054 3.9851 4.2466 7.215 3.0831z"/>
  <path id="path3122" d="m144.48 1007.5c-0.59671-0.1833-1.414-0.5487-1.8162-0.812-1.6527-1.0819-3.217-3.9233-2.6557-4.8236 0.30589-0.4906 1.3594-0.4598 1.913 0.056 0.23935 0.223 0.70331 0.7866 1.031 1.2524 1.1374 1.6169 3.2238 2.311 5.099 1.6963 1.3658-0.4477 2.0671-1.1724 2.1891-2.2624 0.20096-1.7952-0.31601-2.2164-4.3603-3.5521-2.6848-0.88674-4.104-1.6242-4.7977-2.4932-0.97225-1.2179-0.98667-3.8907-0.0297-5.5008 1.1582-1.9485 4.3779-3.0009 7.1552-2.3388 1.3712 0.32694 3.3118 2.285 4.054 4.0904l0.30677 0.74628-0.7818 0.11338c-0.8194 0.11881-1.9177-0.13071-1.9177-0.4357 0-0.50419-1.3641-1.4683-2.4667-1.7434-1.9518-0.48702-3.4179-0.11998-4.2609 1.0668-1 1.4077-0.24285 2.4527 2.3755 3.2783 4.5424 1.4323 6.5374 2.7426 7.2132 4.7379 0.84191 2.4857-0.55057 5.2617-3.2613 6.5019-1.6398 0.7501-3.4281 0.9014-4.9886 0.4222z"/>
  <path id="path4130" d="m17.747 1018.3c-2.4531-0.3965-4.5892-1.4894-6.3473-3.2476-1.5288-1.5288-2.4783-3.1909-3.0192-5.2848-0.33417-1.2938-0.35226-1.608-0.35226-6.1174v-4.1638h2.8323 2.8323l0.08273 0.42188c0.28962 1.477 1.4029 3.6423 2.5787 5.0157 1.2821 1.4975 3.0182 2.5651 4.8303 2.9703 0.29512 0.066 0.93076 0.1099 1.9531 0.1349l1.5156 0.037v-1.6331-1.6332h-0.80028c-1.5577 0.01-2.9764-0.4425-4.0805-1.2904-0.99848-0.7668-1.5801-1.6482-2.0874-3.1634l-0.27845-0.83164 3.7796-0.0161 3.7796-0.0161v-1.8745-1.8745h-3.9132-3.9132l0.04252-0.22663c0.15877-0.84634 0.71159-2.2846 1.1809-3.0724 0.39424-0.66177 1.014-1.4234 1.4456-1.7764 0.48043-0.39297 1.4789-0.8812 2.1435-1.0482 0.67917-0.17061 1.6068-0.25673 2.2493-0.20883l0.51668 0.0385-0.01668-1.6499-0.01668-1.6499-1.4688 0.002c-1.6929 0.002-2.0173 0.0541-3.1875 0.51022-3.0474 1.1879-5.1679 3.5528-6.0282 6.723-0.18593 0.6852-0.31738 1.3569-0.37904 1.9368l-0.04486 0.42187h-2.774-2.774v-3.848c0-4.2219 0.023546-4.5876 0.38098-5.9166 0.54085-2.0111 1.5145-3.6934 2.994-5.1728 1.7872-1.7872 4.0318-2.905 6.58-3.2767 1.0099-0.14732 16.16-0.14789 17.162-0.00064 5.1685 0.75977 9.044 4.5985 9.847 9.7536 0.08191 0.52584 0.09852 1.2923 0.09852 4.5469v3.9144h-2.8976-2.8976l-0.0428-0.42187c-0.12042-1.1868-0.57248-2.7286-1.1224-3.828-0.99136-1.982-2.4515-3.43-4.4458-4.4086-0.8117-0.39834-1.5597-0.66759-2.25-0.80997-0.5667-0.11688-2.3818-0.19734-2.9239-0.12961l-0.35943 0.0449 0.01665 1.6237 0.01665 1.6237 1.0312 0.0197c0.87007 0.0166 1.1277 0.0451 1.6482 0.18253 1.8126 0.47841 2.9574 1.4859 3.9171 3.4474 0.31762 0.64916 0.76803 1.9294 0.84111 2.3906l0.04208 0.26563h-3.7242-3.7242v1.875 1.875h3.5949 3.5949l-0.04081 0.17187c-0.22034 0.92805-0.70867 2.1018-1.1063 2.659-0.34946 0.4897-1.155 1.2489-1.6278 1.5342-1.0492 0.633-2.1502 0.9407-3.5557 0.9935l-0.92188 0.035v1.5766 1.5767l0.67188 0.042c0.78944 0.049 2.2994-0.044 2.9554-0.1823 1.5913-0.3347 3.4167-1.4651 4.6335-2.8694 1.3126-1.5148 2.2894-3.4523 2.7042-5.3644l0.03729-0.17187h2.9676 2.9676v4.2269c0 3.539-0.01603 4.3298-0.09852 4.8594-0.79081 5.0767-4.6325 8.949-9.6515 9.7285-0.74489 0.1157-1.1565 0.1211-8.8438 0.1156-7.4108-0.01-8.1181-0.015-8.75-0.1168z" stroke="#000" stroke-width=".2" fill="none"/>
  <g id="g5739" transform="matrix(0 -1.077 3.5023 0 -3314.8 1055.2)">
   <path id="rect5668" d="m60.495 948.82h-5.536v0.76145 0.79l0.37097 0.009c0.52954 0.0175 1.1436 0.0615 1.7692 0.11422 1.2877 0.10854 2.429 0.29134 3.3958 0.53301v-2.2082zm0 3.8739c-0.18339-0.18544-0.58576-0.42773-0.91316-0.55205-0.32235-0.12243-1.0222-0.29746-1.6266-0.40928-0.7193-0.13311-2.0237-0.29762-2.7966-0.34266l-0.19975-0.009v1.1136 1.1041h-1.7122-1.7122l-0.02853-1.066v-1.0755l-0.77048 0.0762c-1.3836 0.14388-2.182 0.31642-2.8822 0.59964-0.77427 0.31317-1.1791 0.70986-1.17 1.1517v0.22845h-1.5124-1.4839l0.02853-0.42832c0.02283-0.28999 0.08241-0.46835 0.14268-0.55206 0.3701-0.514 1.3435-1.0069 2.7109-1.3706 1.254-0.33351 3.2172-0.65075 4.5658-0.7329l0.39951-0.0286v-0.79952-0.78048h-8.0187c-0.51798 0.0145-0.88052 0.0369-1.3697 0.0762-1.9121 0.1534-3.4551 0.42298-4.8512 0.85663-1.6054 0.49869-2.5771 1.1031-2.9392 1.7989-0.09296 0.17924-0.10501 0.38216-0.11415 2.4842-0.0049 2.1805 0.0085 2.3015 0.11415 2.5128 0.71181 1.4236 4.2389 2.5074 8.8748 2.7317 0.48352 0.0234 1.1914 0.0286 4.4231 0.0286h3.8809v-0.83759-0.84711l-0.17122-0.009c-1.7461-0.11767-3.4964-0.38911-4.8797-0.76145-1.2824-0.34516-2.3197-0.87165-2.6253-1.323-0.1262-0.18609-0.21596-0.61368-0.17122-0.83759l0.02853-0.19037h1.4554 1.4268l0.02853 0.26651c0.04821 0.39865 0.33513 0.71132 0.91316 1.0089 0.26052 0.13409 0.9511 0.35774 1.3983 0.45687 0.50881 0.11276 1.5781 0.25159 2.4256 0.3141l0.17122 0.009v-1.0184-1.0184h1.7122 1.7122v1.0565 1.0565l0.22829-0.009c0.42115-0.0207 1.6045-0.14785 2.1973-0.23796 1.7562-0.2669 2.6635-0.58815 3.1105-1.085v-2.608zm0 4.3117c-0.50026 0.1252-1.047 0.23865-1.6551 0.33313-1.004 0.15598-2.4263 0.27994-3.51 0.31409l-0.37097 0.009v0.82808 0.81856h3.567c0.97648 0 1.4103 0.001 1.969 0v-2.3034z" fill="url(#linearGradient3029)"/>
   <path id="rect5668-6" d="m72.089 954.05c-0.000139-1.1563-0.04736-2.3181-0.11529-2.4627-0.34292-0.72952-1.378-1.3716-3.0263-1.8832-1.3646-0.42355-2.9008-0.69502-4.7557-0.84986-1.2258-0.10231-1.5823-0.11589-5.4762-0.11589h-3.5451v0.80158 0.79192l0.40351 0.009c0.53485 0.0177 1.155 0.0531 1.787 0.10617 2.924 0.24628 5.1013 0.85625 6.1968 1.7287 0.42085 0.33501 0.46116 0.4328 0.46116 0.91747v0.41526l-1.4988 0.009h-1.5276l0.02882-0.14487c0.04418-0.18397-0.04441-0.45261-0.20176-0.64706-0.15403-0.19027-0.58867-0.47088-0.95114-0.60843-0.32558-0.12356-1.0325-0.3024-1.6429-0.41527-0.72651-0.13435-2.0439-0.29255-2.8246-0.33801l-0.23058-0.0192v1.1203 1.1203h-1.7293-1.7293v-1.0816l-0.02882-1.0816-0.74938 0.0869c-1.3975 0.14524-2.2327 0.30326-2.9399 0.58912-0.78203 0.3161-1.1909 0.72262-1.1817 1.1686v0.23179h-1.4988-0.05765v1.0044h0.02882 1.4699l0.02882 0.26076c0.0487 0.40237 0.33849 0.72333 0.92231 1.0237 0.26314 0.13537 0.96064 0.36352 1.4123 0.46356 0.51391 0.11384 1.5939 0.25562 2.4499 0.3187l0.14411 0.009v-1.0334-1.0237h1.7293 1.7293v1.0623 1.072l0.2594-0.0192c0.42537-0.0209 1.5917-0.1505 2.1905-0.24144 1.8091-0.27474 2.758-0.60134 3.1993-1.1203 0.12682-0.14903 0.15725-0.22412 0.17293-0.47321v-0.28972l1.4988-0.009h1.4988l0.05764 0.10618c0.06244 0.1552-0.03629 0.66831-0.14411 0.83055-0.13134 0.19764-0.38193 0.41467-0.74938 0.64706-0.90258 0.57093-2.2359 0.99097-4.0639 1.2748-1.0141 0.15744-2.4218 0.28421-3.5163 0.3187l-0.40351 0.009v0.83054 0.83056h3.6316c3.0017 0 3.6942-0.005 4.1792-0.029 4.7546-0.2299 8.2919-1.3403 8.9926-2.82 0.06793-0.14338 0.11543-1.2967 0.11529-2.453zm-20.377-5.3116h-3.8334c-0.90678 0-1.5733 0.008-2.1617 0.009-0.26509 0.12095-0.46116 0.40204-0.46116 0.73397v2.1343c0.40917-0.17932 0.8944-0.34724 1.4411-0.49253 1.2666-0.33662 3.2782-0.65107 4.6404-0.73398l0.37469-0.029v-0.81124-0.81123zm0 8.9139-0.14411-0.009c-1.7636-0.11877-3.5603-0.3968-4.9574-0.77259-0.49588-0.13338-0.95984-0.29265-1.3546-0.46356v2.1826c0 0.35406 0.22517 0.64791 0.5188 0.75328 0.59414 0.001 1.0299 0.009 2.0464 0.009h3.891v-0.84986-0.84987z" fill="url(#linearGradient3031)"/>
  </g>
 </g>
</svg>
