<?xml version="1.0" encoding="UTF-8" standalone="no"?>
<!-- Created with Inkscape (http://www.inkscape.org/) -->
<svg id="svg2" xmlns:rdf="http://www.w3.org/1999/02/22-rdf-syntax-ns#" xmlns="http://www.w3.org/2000/svg" height="100" width="165" version="1.1" xmlns:cc="http://creativecommons.org/ns#" xmlns:dc="http://purl.org/dc/elements/1.1/" viewBox="0 0 165 100">
 <metadata id="metadata7">
  <rdf:RDF>
   <cc:Work rdf:about="">
    <dc:format>image/svg+xml</dc:format>
    <dc:type rdf:resource="http://purl.org/dc/dcmitype/StillImage"/>
    <dc:title/>
   </cc:Work>
  </rdf:RDF>
 </metadata>
 <g id="layer1" transform="translate(0 -952.36)">
  <path id="path3574" fill="#f3ab34" d="m106 1009.9c-2.3133-0.6124-3.5268-2.7076-3.2199-5.5593 0.23418-2.1756 1.2555-3.9747 2.9523-5.2003 1.1036-0.79712 1.7132-0.99746 3.0466-1.0012 0.96899-0.003 1.2116 0.0337 1.6787 0.25194 0.66095 0.30882 1.5041 1.1886 1.9282 2.012 0.86056 1.6706 0.76742 4.1534-0.22753 6.0661-0.73681 1.4164-2.127 2.7695-3.3456 3.2562-0.78234 0.3125-2.0052 0.3884-2.8128 0.1746z"/>
  <path id="path3572" fill="#79c252" d="m94.514 1002.9c-1.3303-0.337-2.3621-1.248-2.8933-2.5545-0.29302-0.72068-0.30288-0.79178-0.30137-2.1746 0.0014-1.2592 0.0306-1.5226 0.24526-2.2105 0.63212-2.0257 2.2524-3.8185 4.0749-4.509 1.0256-0.38853 2.3731-0.41231 3.2212-0.0568 1.5872 0.66525 2.6985 2.5899 2.6985 4.6733 0 2.0187-0.90087 4.0555-2.4129 5.4552-1.4586 1.3503-2.9671 1.7987-4.6323 1.3768z"/>
  <path id="path3568" fill="#e51587" d="m121.19 996.2c-1.6481-0.36798-2.8479-1.5175-3.2482-3.1122-0.19053-0.75906-0.19389-2.2889-0.007-3.1458 0.456-2.0898 1.9077-4.025 3.7415-4.9877 0.78301-0.41106 1.4216-0.56104 2.3887-0.56104 1.4813 0 2.5789 0.65212 3.3439 1.9867 0.48922 0.85348 0.70241 1.6845 0.70332 2.7417 0.00095 1.0699-0.15543 1.8274-0.60382 2.9254-0.65523 1.6044-2.2761 3.313-3.689 3.8887-0.59066 0.24066-2.0696 0.38932-2.6295 0.26431z"/>
  <path id="path3554" fill="#01a1dd" d="m109.51 986.65c-0.72805-0.22839-1.221-0.55458-1.7968-1.189-0.89494-0.98603-1.2288-2.149-1.1216-3.9072 0.10716-1.7586 0.6191-3.1052 1.6496-4.3391 1.4496-1.7356 2.7575-2.4314 4.5489-2.42 1.3028 0.008 1.8566 0.24703 2.6968 1.1627 0.44275 0.48249 0.70351 0.88819 0.96118 1.4954 0.34943 0.82349 0.35361 0.84901 0.35361 2.1588 0 1.0642-0.0413 1.4772-0.20935 2.0952-0.30175 1.1095-0.82081 2.0608-1.6446 3.014-1.3055 1.5108-2.4264 2.0964-3.9983 2.0891-0.51915-0.002-1.1669-0.0743-1.4394-0.15983z"/>
  <path id="path3666" fill="#7e7e7e" d="m74.452 975.32c-0.0544-0.001-0.11507 0.007-0.19141 0.0215-0.40542 0.0767-0.73764 0.31221-0.93554 0.66406-0.14093 0.25057-1.6524 9.6601-1.6524 10.287 0 0.3834 0.30966 0.86106 0.5918 0.91406 0.23951 0.0447 0.60934-0.0505 0.9043-0.23437 0.30381-0.1894 0.45325-0.61857 0.66406-1.9141 0.10553-0.6486 0.21524-1.2227 0.24414-1.2773 0.029-0.0545 0.37231-0.0714 0.76172-0.0371 2.4751 0.21807 4.7567-2.4081 4.7617-5.4766 0.003-1.8118-0.68513-2.8081-2.0274-2.9336-0.47878-0.0448-0.67878-0.003-1.1855 0.24415-0.33489 0.16358-0.72001 0.35166-0.85743 0.41796-0.22682 0.10945-0.28175 0.0817-0.58984-0.29882-0.2279-0.28152-0.32519-0.37327-0.48828-0.37696zm1.6074 1.6699c0.13696-0.0133 0.26605-0.0104 0.36719 0.0117 0.34949 0.0764 0.7533 0.51295 0.9043 0.97852 0.15657 0.48272 0.11953 1.4155-0.0879 2.1816-0.25448 0.93989-0.73281 1.67-1.3184 2.0156-0.30936 0.1826-0.62224 0.2764-0.91993 0.2754-0.78185-0.003-0.76901 0.0946-0.36523-2.5469 0.19717-1.2898 0.39641-2.4259 0.44141-2.5254 0.0787-0.17396 0.56763-0.35076 0.97851-0.39063z"/>
  <path id="path3662" fill="#7e7e7e" d="m56.224 983.88c-0.26363-0.12375-0.40733-0.43903-0.40733-0.89375 0-0.47657 0.91952-6.4426 1.0532-6.8332 0.11816-0.34533 0.47659-0.67297 0.85169-0.77852 0.4446-0.1251 1.0079 0.26097 1.0197 0.6989 0.002 0.0907 0.0426 0.23521 0.0893 0.32109 0.0675 0.1243 0.18172 0.0547 0.55991-0.34146 0.56263-0.5893 1.1722-0.83496 1.6969-0.68391 0.30091 0.0866 0.34948 0.14639 0.37552 0.46214 0.032 0.38829-0.27778 1.1212-0.63168 1.4943-0.17776 0.1874-0.23785 0.19377-0.62793 0.0665-0.33617-0.10965-0.51256-0.11236-0.79926-0.0123-0.71102 0.24817-0.91378 0.79286-1.3616 3.6578-0.17625 1.1276-0.39058 2.1748-0.47629 2.3272-0.16889 0.30028-0.6812 0.63011-0.96135 0.61892-0.096-0.004-0.26731-0.0505-0.38073-0.10376z"/>
  <path id="path3660" fill="#7e7e7e" d="m67.74 983.86c-0.11311-0.0637-0.25669-0.25935-0.31906-0.43477-0.0624-0.17541-0.14655-0.3428-0.18706-0.37197-0.0405-0.0292-0.38421 0.12034-0.76377 0.33225-0.55816 0.31162-0.80121 0.38528-1.2712 0.38528-0.65137 0-1.1176-0.18591-1.4238-0.5677-0.52174-0.65066-0.52896-1.4632-0.0408-4.587 0.39777-2.5451 0.47964-2.782 1.0822-3.1309 0.6346-0.36743 1.194 0.0209 1.194 0.82891 0 0.25333-0.15061 1.4443-0.33469 2.6466s-0.30662 2.294-0.27232 2.4259c0.0991 0.38104 0.42291 0.72582 0.74866 0.79702 0.38398 0.0839 1.0086-0.11093 1.2174-0.37979 0.11097-0.14284 0.29388-1.0492 0.58081-2.8778 0.23036-1.4681 0.48337-2.7841 0.56226-2.9244 0.45422-0.80758 1.4153-0.87482 1.7256-0.12072 0.10633 0.25833 0.0544 0.73224-0.40922 3.7355-0.29205 1.8918-0.59339 3.5533-0.66965 3.6923-0.30736 0.56008-0.95642 0.81215-1.4196 0.5513z"/>
  <path id="path3658" fill="#7e7e7e" d="m48.24 983.77c-2.2074-0.35341-3.3413-1.6737-3.4463-4.0129-0.0594-1.3239 0.1573-2.5702 0.65862-3.7873 0.52553-1.2759 1.5837-2.5271 2.6714-3.1588 1.3505-0.78433 1.9222-0.9527 3.2565-0.9591 1.0848-0.005 1.222 0.0177 1.7019 0.28388 0.73585 0.40815 0.83151 0.5665 0.6194 1.0254-0.25118 0.54334-0.53861 0.68559-1.0279 0.50867-0.65927-0.23839-2.0491-0.27651-2.6509-0.0727-1.711 0.57946-2.8499 2.5088-2.9585 5.0118-0.0602 1.3892 0.15556 2.1127 0.87566 2.9358 0.40933 0.46788 0.62263 0.615 1.1749 0.81043 0.76713 0.27145 1.561 0.25113 1.7467-0.0447 0.0607-0.0967 0.24838-1.0788 0.41704-2.1824 0.40225-2.6321 0.54377-2.9354 1.4151-3.0329 0.40685-0.0455 0.49665-0.0163 0.70888 0.23096 0.31868 0.37125 0.31332 0.56616-0.0868 3.1591-0.46747 3.0297-0.58705 3.2349-1.8884 3.2398-0.41532 0.002-1.1586 0.0353-1.6518 0.0751-0.49319 0.0397-1.1842 0.0262-1.5355-0.0301z"/>
  <path id="path3656" fill="#7e7e7e" d="m85.566 975.33c-0.59669 0.0289-1.2145 0.20722-1.7754 0.52735-1.0368 0.59176-2.027 2.0639-2.2949 3.418-0.13465 0.68061-0.11477 2.1668 0.0352 2.6562 0.25653 0.83743 0.83738 1.4464 1.6582 1.7383 0.12979 0.0462 0.56322 0.0888 0.96094 0.0937 2.4758 0.0324 4.3262-2.2016 4.3262-5.2207 0-1.4823-0.38609-2.3502-1.2656-2.8516-0.4738-0.27006-1.0478-0.39021-1.6445-0.36133zm-0.38867 1.2168c0.36583-0.048 0.47214-0.0131 0.72461 0.23437 0.37622 0.3688 0.53298 0.91816 0.52148 1.8223-0.0194 1.5236-0.5515 3.2388-1.1504 3.709-0.6896 0.54138-1.4721 0.17835-1.7051-0.79101-0.16371-0.68117-0.0811-2.0087 0.18946-3.0645 0.2975-1.161 0.79271-1.828 1.4199-1.9102z"/>
  <path id="path3752" fill="#0d5ea7" d="m103 1031.8c-0.22064-0.024-0.40116-0.09-0.40116-0.1468 0-0.057-0.0743-0.1041-0.16518-0.1047-0.0909-0.0006-0.37757-0.1176-0.63714-0.2601-1.4593-0.8007-2.3203-2.7548-2.0532-4.66 0.0572-0.4081 0.68062-4.2974 1.3854-8.643 0.70477-4.3456 1.282-7.9331 1.2828-7.9723 0.00095-0.039 0.04-0.1422 0.0872-0.2291 0.068-0.1252 0.20995-0.023 0.68584 0.4961 1.1239 1.2248 2.4452 1.8159 4.0809 1.8257 1.3304 0.01 2.581-0.5481 3.884-1.7269 0.53264-0.4818 0.72702-0.5023 0.64075-0.067-0.0197 0.099-0.62795 3.8172-1.3518 8.2625-0.72379 4.4452-1.3775 8.2837-1.4528 8.5299-0.31525 1.0317-0.6769 1.668-1.4675 2.582-0.62759 0.7256-0.97919 1.0333-1.5391 1.3471-0.39915 0.2236-0.78143 0.4069-0.84952 0.4073-0.0681 0.0003-0.23331 0.067-0.36713 0.1486-0.27699 0.1683-1.1677 0.275-1.7625 0.2111z"/>
  <path id="path3750" fill="#0d5ea7" d="m53.097 1026.9c-2.0182-0.3231-3.4223-2.4091-3.2081-4.7661 0.03298-0.3629 0.92208-6.0559 1.9758-12.651 1.4106-8.8291 1.981-12.178 2.1629-12.701 0.69602-1.998 2.2372-3.7224 3.984-4.4577l0.74127-0.31203 4.6098-0.0374c3.121-0.0253 4.7721 0.002 5.1124 0.0841 0.77424 0.18725 1.9143 0.89037 2.5635 1.581 0.31966 0.34005 0.6029 0.61828 0.62943 0.61828s0.26714-0.21768 0.53469-0.48373c0.59816-0.59481 1.3232-1.0523 2.3135-1.4597l0.75513-0.31068 4.0349-0.034c4.5346-0.0382 4.5961-0.0305 5.999 0.74864 1.2692 0.7049 2.236 1.9027 2.7282 3.3802 0.20872 0.6265 0.24862 0.9249 0.25378 1.898 0.0056 1.0649-0.14232 2.0478-1.9036 12.646l-1.9098 11.491-0.42046 0.9981c-0.34847 0.8272-0.54961 1.1418-1.1748 1.8376-1.358 1.5114-2.9447 2.1865-4.5367 1.9301-1.8153-0.2924-3.1862-2.0094-3.223-4.0367-0.007-0.3855 0.55065-4.1089 1.4773-9.864 1.0296-6.3944 1.4675-9.3422 1.4204-9.5608-0.03745-0.1738-0.21056-0.4726-0.3847-0.6639-0.76702-0.8427-2.2209-0.4333-2.6952 0.759-0.10843 0.2726-0.79224 4.2252-1.6961 9.8036-1.7309 10.683-1.6087 10.177-2.7657 11.457-1.7755 1.9647-3.9449 2.6219-5.8777 1.7806-0.76702-0.3339-1.6357-1.3399-1.8883-2.1867-0.36766-1.2325-0.30167-1.8346 1.2677-11.568 0.78694-4.8805 1.4306-8.9876 1.4304-9.1269-0.000472-0.3424-0.31045-0.9121-0.62816-1.1546-0.386-0.2946-1.312-0.2593-1.7656 0.067-0.78126 0.5625-0.67465 0.097-2.3181 10.115-1.3747 8.3799-1.5286 9.2157-1.8345 9.9663-1.2214 2.9962-3.4025 4.5902-5.7637 4.2122z"/>
  <path id="path3748" fill="#0d5ea7" d="m8.887 1026.8c-1.8837-0.5907-3.2667-2.3867-3.5401-4.5975-0.097673-0.7898-0.071567-0.9863 1.398-10.526 0.82366-5.3468 1.5157-9.8854 1.5379-10.086 0.03006-0.2713-0.01478-0.4325-0.1759-0.6322-0.18794-0.2331-0.29994-0.2682-0.85588-0.2682-1.7034 0-2.972-0.7956-3.4561-2.1676-0.091353-0.2589-0.19795-0.4708-0.23689-0.4711-0.10165-0.0006-0.087597-1.8357 0.015806-2.0637 0.04763-0.10502 0.23786-0.57733 0.42273-1.0496 0.74758-1.9097 2.48-3.155 4.389-3.155 0.83136 0 1.3449-0.29481 1.6825-0.96583 0.19401-0.38567 0.383-1.2204 0.80053-3.5357 0.30061-1.667 0.63726-3.3278 0.74812-3.6906 0.25106-0.82181 0.86432-2.2594 1.2431-2.914 1.6195-2.7988 4.2497-4.5821 7.2829-4.9377 1.2887-0.15109 4.2033-0.15694 4.8694-0.01 1.9739 0.4361 3.3243 2.5811 3.0156 4.7903-0.32132 2.3-1.9455 3.7859-4.1381 3.7859-0.89386 0-1.687 0.21612-2.164 0.58964-0.89416 0.70025-1.3173 1.6517-1.7671 3.9738-0.4708 2.4301-0.3375 2.7803 1.1124 2.9229 1.1651 0.11452 2.0396 0.52541 2.5869 1.2154 0.31666 0.39925 0.67586 1.4031 0.74411 2.0796 0.12299 1.2191-0.45765 2.9016-1.3669 3.9609-0.87102 1.0147-1.8847 1.5038-3.3345 1.6087-1.0278 0.074-1.3841 0.2493-1.6283 0.7996-0.08202 0.1848-0.87155 4.9992-1.7545 10.699-0.88296 5.6995-1.6901 10.665-1.7937 11.034-0.74531 2.6581-3.3513 4.3273-5.6371 3.6106z"/>
  <path id="path3746" fill="#0d5ea7" d="m90.406 1026.7c-1.3784-0.5135-2.2814-1.7648-2.5485-3.5318-0.12421-0.8214-0.27537 0.2518 1.5673-11.127 1.4043-8.672 1.5347-9.4315 1.6197-9.4315 0.02006 0 0.2881 0.2886 0.59564 0.6414 1.2859 1.4749 3.3912 2.1829 5.142 1.7292 0.84477-0.219 1.9448-0.8371 2.7462-1.5433 0.31047-0.2736 0.59718-0.4974 0.63714-0.4974 0.04 0 0.0725 0.1114 0.0724 0.2474 0 0.5204-3.0224 18.78-3.1963 19.313-0.30672 0.9404-0.67495 1.569-1.4266 2.4351-0.78264 0.9018-1.6715 1.499-2.6885 1.8061-0.74802 0.2259-1.8522 0.2079-2.5206-0.041z"/>
  <path id="path3744" d="m36.906 39.504c-2.993-0.009-5.945 0.032-6.347 0.131-1.354 0.331-2.615 1.408-3.182 2.717-0.677 1.563-0.737 2.771-0.201 4.039 0.343 0.812 0.846 1.327 1.687 1.72 0.527 0.247 0.602 0.251 5.774 0.307 5.203 0.056 5.24 0.059 5.574 0.301 0.44 0.319 0.611 0.711 0.594 1.369-0.011 0.397-0.082 0.639-0.274 0.932-0.445 0.679-0.764 0.771-3.73 1.082-1.476 0.154-3.407 0.357-4.289 0.449-2.465 0.258-3.812 0.645-5.366 1.541-3.09 1.78-5.02 4.935-5.882 9.615-0.226 1.227-0.221 3.287 0.009 4.285 0.82 3.542 3.233 5.802 6.803 6.371 0.902 0.144 4.782 0.043 5.971-0.156 1.054-0.176 2.175-0.572 2.875-1.016l0.445-0.281 0.311 0.274c1.28 1.135 3.479 1.594 5.193 1.084 1.809-0.54 2.844-1.683 3.484-3.852 0.266-0.899 3.258-19.953 3.385-21.557 0.243-3.058-0.272-5.064-1.736-6.761-1.165-1.352-2.504-2.075-4.494-2.426-0.573-0.101-3.61-0.159-6.604-0.168zm1.961 19.291c0.195 0 0.296 0.024 0.334 0.068 0.077 0.089 0.021 0.602-0.209 1.905-0.338 1.918-0.516 2.506-0.947 3.136-0.497 0.727-1.843 1.522-3.09 1.823v0.002c-1.573 0.379-3.009 0.284-3.953-0.264-0.713-0.414-0.923-0.747-0.973-1.541-0.084-1.357 0.736-2.525 2.463-3.512 1.496-0.855 3.028-1.287 5.485-1.549 0.408-0.044 0.695-0.068 0.89-0.068z" transform="translate(0 952.36)" fill="#0d5ea7"/>
  <path id="path3740" fill="#0d5ea7" d="m116.27 1026.7c-2.0002-0.4154-3.3813-2.6233-3.097-4.9507 0.15044-1.2315 4.0666-25.466 4.1547-25.71 0.0896-0.24901 0.10048-0.24322 0.54959 0.2939 0.49739 0.5949 1.2927 1.231 1.868 1.4942 1.0999 0.503 2.6147 0.6381 3.653 0.3259 0.70901-0.2133 1.8041-0.8676 2.5587-1.5288 0.30956-0.2713 0.59671-0.4538 0.63811-0.4055 0.12384 0.1442-4.0183 25.469-4.2958 26.264-0.44158 1.2656-1.2876 2.4289-2.3466 3.2267-1.0145 0.7643-2.6516 1.2046-3.6826 0.9904z"/>
  <path id="path3738" d="m142.12 39.514c-6.43 0.001-6.45 0.003-7.63 0.73-1.4 0.856-2.35 2.672-2.35 4.506 0 1.836 1.04 3.182 2.74 3.559 0.29 0.063 2.47 0.111 5.18 0.111 3.11 0 4.81 0.041 5.06 0.121 0.2 0.066 0.51 0.283 0.68 0.482 0.28 0.32 0.31 0.433 0.31 0.952 0 1.039-0.53 1.662-1.57 1.853-0.3 0.055-2.1 0.252-4 0.436-4.24 0.412-5.12 0.562-6.56 1.117-3.51 1.357-5.72 4.012-6.94 8.342-1.18 4.198-0.72 7.497 1.37 9.963 1.23 1.441 2.75 2.298 4.68 2.621 1.73 0.29 5.29 0.156 7.07-0.266 0.54-0.129 1.2-0.384 1.69-0.658l0.8-0.447 0.57 0.433c1.73 1.3 4.3 1.467 6.16 0.401 1.07-0.618 1.76-1.609 2.24-3.249 0.22-0.729 2.93-17.421 3.32-20.453 0.18-1.348 0.18-3.575 0-4.564-0.37-2.037-1.63-3.899-3.29-4.838-0.93-0.526-1.87-0.849-3.03-1.037-0.45-0.073-2.92-0.116-6.5-0.115zm1.99 19.283c0.23-0.004 0.39 0.012 0.42 0.053 0.07 0.083 0.07 0.303-0.01 0.754-0.66 3.56-0.76 3.868-1.46 4.621-0.57 0.61-1.42 1.095-2.46 1.402-1.87 0.549-3.74 0.4-4.65-0.371-0.49-0.413-0.63-0.821-0.58-1.707 0.03-0.579 0.09-0.804 0.35-1.238 0.84-1.418 2.6-2.467 5.14-3.055 1.1-0.255 2.54-0.448 3.25-0.459z" transform="translate(0 952.36)" fill="#0d5ea7"/>
  <path id="path3734" fill="#0d5ea7" d="m112.98 998.85c-1.567-1.8702-4.0961-2.4911-6.1829-1.5179-0.66376 0.3095-1.6356 0.9949-2.0431 1.4409-0.13967 0.1529-0.31584 0.2503-0.39147 0.2165-0.11984-0.054-0.1205-0.1651-0.005-0.8665 0.0728-0.4428 0.51887-3.205 0.99127-6.1382 0.47239-2.9332 0.89733-5.3806 0.94432-5.4387 0.0531-0.0656 0.29038 0.12959 0.62727 0.51598 1.1001 1.2618 2.4026 1.8606 4.0782 1.875 0.7473 0.006 1.0282-0.0436 1.6552-0.29475 0.86117-0.34495 1.5411-0.77279 2.2164-1.3947 0.52801-0.48622 0.66248-0.5288 0.66248-0.20981 0 0.22887-1.8519 11.78-1.9434 12.122-0.0752 0.2808-0.14328 0.2462-0.60908-0.3098z"/>
  <path id="path3732" d="m157.5 36.5c-0.36-0.009-0.72 0.052-1.03 0.188-0.59 0.266-1.33 1.201-1.47 1.874-0.14 0.629-0.14 0.945 0 1.588 0.14 0.62 0.89 1.558 1.4 1.746 0.45 0.166 1.18 0.171 1.63 0.012 0.48-0.166 1.35-1.08 1.5-1.578 0.13-0.372 0.29-0.692 0.27-1.209-0.03-0.356-0.04-0.591-0.23-0.986-0.13-0.391-0.68-1.127-1.13-1.399-0.25-0.149-0.59-0.227-0.94-0.236zm-0.12 0.164c1 0.004 1.79 0.621 2.1 1.635 0.37 1.238-0.08 2.608-1.06 3.232-0.96 0.608-2.07 0.434-2.78-0.433-0.37-0.454-0.55-1.038-0.55-1.797 0-1.534 0.96-2.642 2.29-2.637z" transform="translate(0 952.36)" fill="#0d5ea7"/>
  <path id="path3760" fill="#0d5ea7" d="m156.38 990.06-0.0254 1.4688c-0.0208 1.1533-0.001 1.4563 0.0937 1.4199 0.0693-0.0266 0.13379-0.26643 0.15039-0.56446 0.0325-0.58304 0.22484-0.75428 0.73047-0.64843 0.39729 0.0832 0.60382 0.33459 0.66992 0.8164 0.0683 0.49726 0.22266 0.45347 0.22266-0.0625 0-0.22168-0.0736-0.43649-0.18945-0.55859-0.2453-0.25866-0.23841-0.3619 0.0469-0.66992 0.28241-0.30493 0.30025-0.59065 0.0566-0.94141-0.1634-0.23527-0.2553-0.25976-0.96875-0.25976h-0.78711zm0.77149 0.084c0.64371-0.0577 1.1485 0.6491 0.69141 1.1816-0.13671 0.15925-0.31417 0.21875-0.64454 0.21875-0.25092 0-0.48493-0.032-0.51953-0.0723s-0.0625-0.31362-0.0625-0.60743c0-0.4779 0.0262-0.54648 0.25196-0.64648 0.0952-0.0421 0.1912-0.0662 0.2832-0.0742z"/>
 </g>
</svg>
