<?xml version="1.0" encoding="UTF-8" standalone="no"?>
<!-- Created with Inkscape (http://www.inkscape.org/) -->
<svg id="svg2" xmlns:rdf="http://www.w3.org/1999/02/22-rdf-syntax-ns#" xmlns="http://www.w3.org/2000/svg" height="100" width="165" version="1.1" xmlns:cc="http://creativecommons.org/ns#" xmlns:dc="http://purl.org/dc/elements/1.1/" viewBox="0 0 165 100">
 <metadata id="metadata7">
  <rdf:RDF>
   <cc:Work rdf:about="">
    <dc:format>image/svg+xml</dc:format>
    <dc:type rdf:resource="http://purl.org/dc/dcmitype/StillImage"/>
    <dc:title/>
   </cc:Work>
  </rdf:RDF>
 </metadata>
 <g id="layer1" transform="translate(0 -952.36)">
  <path id="rect3799" fill="#d5d3e9" d="m68.706 1012.9v5.5312h62.608v-0.1891c-0.8817-1.0958-1.6394-2.9121-2.135-5.3421h-60.473z"/>
  <path id="path3807" fill="#999" d="m103.61 968.89c-8.3488 0.38782-18.13 5.6795-24.063 13.375-3.9481 5.121-6.5184 10.751-7.5 16.344-0.68226 3.8869-0.62804 6.225 0.1875 9.4062 0.46551 1.8157 1.075 3.4384 1.8438 4.875h9.4688c-0.05719-0.2057-0.11075-0.4085-0.15625-0.625-1.0415-4.9565 1.3603-17.999 4.8438-26.312 2.5062-5.981 6.3108-11.156 9.5938-13.062 2.4532-1.4247 6.4632-1.7064 8.5313-0.59375 1.0966 0.58997 2.4628 2.2105 3.0312 3.5625 2.253 5.3584-0.52711 20.611-5.5938 30.656-2.9038 5.7575-7.0605 10.309-10.25 11.25-4.352 1.284-7.8692-0.083-9.4688-3.4687v4.3125h-4.6875c1.6791 1.0129 3.6025 1.6893 5.7812 2.0312 0.99979 0.1571 3.3154 0.2413 5.1562 0.1563 8.0757-0.3697 13.297-2.7221 19.188-8.6563 6.1147-6.16 10.492-14.168 11.781-21.5 0.93531-5.3176 0.53514-8.6442-1.5625-12.75-2.2842-4.471-7.5591-8.1501-12.656-8.8438-1.1201-0.15241-2.2761-0.21165-3.4688-0.15625z"/>
  <path id="path8" d="m76.41 955.86c-0.02098 0.0382-0.02237 0.12608-0.03072 0.26164-0.06672 0.55779-4.3585 5.1932-6.3265 6.7736-0.99024 0.9141-1.5811 1.4165-1.9041 1.7443-1.7469 1.5002-2.5281 4.0079-2.5183 5.727 0 1.4874 0.5168 3.7882 0.58351 2.7036 0.06672-0.55777 4.3585-5.1933 6.3265-6.7736 2.6186-1.957 4.4378-4.7663 4.4224-7.4714 0-1.3014-0.40596-3.2326-0.5528-2.9652z" fill="#5d62a2"/>
  <path id="path3805" d="m73.393 1021c-6.4609-0.8755-10.81-3.2149-14.22-7.6489-3.5404-4.6041-4.9272-9.2852-4.6277-15.621 0.39505-8.3581 4.1464-15.193 11.485-20.925 9.2137-7.197 21.145-9.8445 33.145-7.3551 4.55 0.94391 5.3926 0.91977 6.6256-0.18983 0.76291-0.68655 1.8667-0.94663 1.8744-0.44166 0.002 0.14136-0.75624 3.6881-1.6853 7.8816-1.3171 5.945-1.8101 7.6247-2.2379 7.6255-0.41563 0.00074-0.65042-0.67334-0.96829-2.78-0.73973-4.9024-2.6087-7.8277-6.0389-9.4521-1.8235-0.86355-2.3751-0.95578-5.5719-0.93173-4.2502 0.032-6.8377 0.83909-10.756 3.3552-5.6609 3.6352-10.556 11.037-12.833 19.406-0.9678 3.5568-1.3778 11.483-0.74603 14.423 1.6165 7.5215 7.8608 11.933 14.323 10.118 1.7513-0.492 2.0394-0.6982 2.3299-1.6697 3.4373-11.492 4.666-15.951 4.666-16.933 0-1.674-1.4997-3.0629-3.6426-3.3733-1.189-0.17222-1.5778-0.36534-1.4389-0.71479 0.26495-0.66692 22.61-0.721 22.38-0.0541-0.0806 0.23356-0.8748 0.62332-1.7649 0.86616-1.8729 0.51096-3.2855 1.7347-3.7867 3.2803-0.19329 0.59603-1.496 4.8622-2.8949 9.4803s-2.7254 8.5758-2.9477 8.7947c-0.56592 0.5572-4.7986 1.7599-8.1936 2.3283-3.8167 0.6389-9.8024 0.8943-12.474 0.5325z" stroke="#fff" stroke-width=".55883" fill="#999"/>
  <path id="path3805-4" d="m64.594 12.344c-3.4418 0.9091-6.5476 1.4049-9.6562 3.2188-0.02804 0.01442-0.06585 0.01675-0.09375 0.03125-1.8109 0.94079-3.3277 2.0335-4.5938 3.3125-1.1338 0.96779-2.2235 1.9896-3.25 3.125-5.7446 6.3536-8.2906 13.378-7.8125 21.438 0.36247 6.1096 2.0077 10.406 5.5 14.406 2.6626 3.0499 5.7396 4.746 9.6875 5.375 10.174 2.6133 15.993 1.5957 16.594 1.6875l-5.158-4.407c-0.87443 0.13956-1.7718 0.05653-2.375-0.0625-9.7969-3.5392-12.759-12.339-12.219-22 0.29203-4.7304 1.3266-7.3669 2.2188-10.312 1.7503-5.7789 6.4269-10.863 11.156-15.812z" transform="translate(0 952.36)" fill="#5d62a2"/>
  <rect id="rect4182" height="4.5243" width="12.374" y="1012.9" x="65.54" fill="#d5d3e9"/>
  <path id="path3497" d="m14.149 89.072c-1.9787-0.26243-3.5159-1.5445-4.0011-3.3369-1.0007-3.6968 2.4976-7.2309 7.5769-7.6545 0.71128-0.05932 1.3765-0.01757 2.3755 0.14908 1.3212 0.2204 1.4057 0.22107 1.7663 0.01412 0.20829-0.11954 0.40632-0.18974 0.44006-0.156 0.08918 0.08918-0.73165 3.3215-0.84348 3.3215-0.05182 0-0.16093-0.33913-0.24248-0.75363-0.23876-1.2136-0.97823-1.9007-2.2232-2.0659-2.0138-0.26714-4.2767 1.1783-5.3926 3.4445-1.6834 3.4186-0.7776 6.6098 1.8797 6.6223 1.1055 0.0052 1.1378-0.03131 1.7979-2.0275 0.39779-1.2029 0.56741-1.8992 0.51427-2.111-0.08192-0.32638-0.53355-0.60881-0.97355-0.60881-0.13832 0-0.21673-0.05625-0.17424-0.125 0.09649-0.15613 5.1875-0.17146 5.1875-0.01563 0 0.06016-0.17912 0.1452-0.39805 0.18898-0.21893 0.04379-0.49562 0.16791-0.61487 0.27583s-0.51669 1.0998-0.8832 2.2041c-0.63383 1.9098-0.68648 2.0163-1.0778 2.1811-0.8876 0.37378-3.4532 0.62056-4.7136 0.45339z" transform="translate(0 952.36)"/>
  <path id="path3499" d="m23.524 89.07c-0.96703-0.23559-1.3441-1.7403-0.81396-3.2485 0.7183-2.0437 2.5445-3.8597 4.1369-4.1137 0.61934-0.09879 1.0674 0.1224 1.3483 0.66558l0.24513 0.474 0.13555-0.35189c0.07455-0.19354 0.13555-0.40448 0.13555-0.46875s0.18281-0.11735 0.40625-0.11795c0.22344-0.000597 0.69864-0.03621 1.056-0.07914l0.64976-0.07806-0.99993 3.0182c-0.54996 1.66-0.96559 3.0737-0.92363 3.1416 0.15418 0.24947 0.59805 0.11195 1.0287-0.31873 0.2432-0.2432 0.49622-0.42418 0.56226-0.40216 0.20338 0.06779-1.0337 1.3414-1.5674 1.6137-0.6738 0.34375-1.6004 0.36992-1.9487 0.05503-0.32801-0.29655-0.33055-0.59004-0.01306-1.5128 0.13768-0.40017 0.22878-0.74912 0.20246-0.77544s-0.25431 0.23337-0.50663 0.57709c-0.64236 0.87507-1.6326 1.7323-2.175 1.883-0.48234 0.13397-0.55609 0.13696-0.95867 0.03889zm2.8383-2.0408c1.0311-1.0952 1.8595-3.1939 1.6507-4.1818-0.09894-0.46795-0.39387-0.8125-0.69548-0.8125-0.90801 0-2.606 3.0866-2.606 4.7371 0 1.206 0.66058 1.3089 1.6508 0.25713z" transform="translate(0 952.36)"/>
  <path id="path3503" d="m31.372 88.816c0.0365-0.18906 0.13562-0.77969 0.22028-1.3125 0.08465-0.53281 0.19481-0.96875 0.24478-0.96875 0.04998 0 0.18838 0.25535 0.30757 0.56744 0.41447 1.0853 1.1425 1.6826 2.0508 1.6826 0.67212 0 0.86841-0.0929 1.0862-0.51407 0.29306-0.56672 0.10882-0.92852-1.1645-2.2868-1.5248-1.6265-1.7851-2.2188-1.3473-3.0655 0.53124-1.0273 1.6065-1.3766 3.4758-1.1292 0.99334 0.13147 1.2921 0.13324 1.4913 0.0088 0.13704-0.08558 0.27534-0.12942 0.30734-0.09742 0.05108 0.05107-0.07712 0.94932-0.28406 1.9904-0.09384 0.47208-0.25427 0.43103-0.35203-0.09007-0.09496-0.50618-0.57638-1.1227-1.0801-1.3832-0.51912-0.26845-1.3138-0.23551-1.6163 0.06699-0.48964 0.48964-0.33102 0.81503 1.1279 2.3138 0.82813 0.85074 1.1309 1.2548 1.2378 1.6516 0.34349 1.2756-0.54618 2.4207-2.161 2.7813-0.48122 0.10746-0.83951 0.09315-1.7204-0.06874-1.0223-0.18788-1.1375-0.18818-1.4191-0.0037-0.42114 0.27594-0.48186 0.25452-0.40513-0.14296z" transform="translate(0 952.36)"/>
  <path id="path3505" d="m40.587 89.026c-1.1609-0.23609-1.6723-0.96634-1.5884-2.2682 0.15828-2.4545 2.7112-4.7487 5.6153-5.0462 1.9699-0.20182 2.5567 1.0487 1.1886 2.5329-0.79102 0.85816-2.1139 1.442-3.6366 1.6051-0.80904 0.08664-0.82441 0.0952-0.90065 0.50163-0.34635 1.8462 1.6512 2.4223 3.6442 1.051 0.58158-0.40014 0.85205-0.41862 0.5389-0.03683-0.35609 0.43415-1.6314 1.2801-2.2055 1.4629-0.78944 0.25139-1.9626 0.33873-2.6559 0.19774zm2.0837-3.6945c0.98529-0.35036 1.9691-1.7398 1.8907-2.6702-0.03457-0.41005-0.0686-0.4422-0.50653-0.47842-0.4218-0.03489-0.53273 0.0261-1.0924 0.60068-0.59762 0.61356-1.5006 2.2217-1.5006 2.6724 0 0.23292 0.28685 0.20338 1.2089-0.12449z" transform="translate(0 952.36)"/>
  <path id="path3507" d="m46.784 88.816c0.03608-0.18906 0.13483-0.76562 0.21945-1.2812 0.08462-0.51562 0.19996-0.9375 0.25631-0.9375s0.20685 0.27499 0.33443 0.61109c0.40407 1.0645 1.0714 1.5764 2.0549 1.5764 0.44318 0 0.64448-0.07009 0.88121-0.30682 0.60319-0.60319 0.38428-1.1293-1.1138-2.6767-1.3138-1.3572-1.5502-1.8215-1.3347-2.6219 0.31788-1.1805 1.5705-1.6623 3.5981-1.3839 0.94756 0.1301 1.2269 0.13095 1.4296 0.0044 0.13855-0.08653 0.28219-0.12704 0.31919-0.09004 0.12541 0.12541-0.27612 2.241-0.43538 2.2939-0.0924 0.03072-0.15625-0.05701-0.15625-0.21468 0-0.37205-0.28448-0.87688-0.73607-1.3062-0.30005-0.28525-0.52911-0.37657-1.0537-0.42007-0.60472-0.05015-0.69512-0.02406-0.92373 0.26657-0.39721 0.50497-0.23483 0.84798 0.98598 2.0828 1.5031 1.5204 1.7322 2.1123 1.2384 3.1997-0.54833 1.2075-1.9126 1.6934-3.787 1.349-1.0125-0.18606-1.1272-0.18621-1.4086-0.0018-0.41171 0.26976-0.44471 0.25695-0.36839-0.14296z" transform="translate(0 952.36)"/>
  <path id="path3509" d="m59.973 88.998c-0.62016-0.21934-0.92341-0.70195-0.98616-1.5695-0.16788-2.321 2.1896-5.3733 4.412-5.7123 0.50869-0.07759 0.90878 0.03381 1.397 0.38899 0.26982 0.19628 0.27568 0.18662 0.71875-1.1839 0.58706-1.816 0.57225-2.141-0.09937-2.1799-0.4294-0.02487-0.42115-0.16786 0.01483-0.2568 0.91921-0.18752 2.9344-0.46325 2.9887-0.40893 0.03378 0.03378-0.64596 2.2254-1.5105 4.8703-0.86457 2.6449-1.5719 4.8719-1.5719 4.9489 0 0.31642 0.66621 0.13133 1.0706-0.29745 0.22694-0.24062 0.44452-0.4375 0.48351-0.4375 0.38322 0-0.77239 1.2887-1.486 1.6571-0.71797 0.37068-1.6505 0.36025-1.96-0.02193-0.29123-0.35965-0.28989-0.5047 0.01389-1.5037 0.1348-0.44332 0.22698-0.82415 0.20484-0.84629s-0.18119 0.17183-0.35345 0.43104c-0.47385 0.71304-1.4648 1.7732-1.8334 1.9614-0.52254 0.26686-1.0448 0.3226-1.5033 0.16045zm2.3283-1.4594c0.74392-0.45359 1.8278-2.262 2.2363-3.7313 0.2191-0.78804 0.1755-1.2528-0.14785-1.5762-0.71844-0.71844-2.0067 0.63464-2.8149 2.9566-0.40999 1.1779-0.46611 2.0266-0.15662 2.3686 0.26117 0.28859 0.38476 0.28611 0.8831-0.01774z" transform="translate(0 952.36)"/>
  <path id="path3511" d="m69.922 89.038c-0.53923-0.10433-1.0121-0.41992-1.3904-0.92803-0.20298-0.27258-0.25575-0.52319-0.24843-1.1798 0.01933-1.7328 1.3153-3.5165 3.2598-4.4862 2.2407-1.1175 4.2935-0.96232 4.2935 0.32465 0 1.4254-2.0294 2.845-4.417 3.0896l-0.83302 0.08535v0.72577c0 0.95902 0.31834 1.3609 1.1526 1.4549 0.84757 0.09553 1.3293-0.03203 2.2751-0.60245 0.46376-0.2797 0.8675-0.48425 0.8972-0.45455s-0.22991 0.31957-0.57691 0.64416c-0.74198 0.69403-1.6953 1.1612-2.7078 1.3271-0.81122 0.13286-1.016 0.13281-1.7044-0.0004v-0.000003zm2.2893-3.8608c0.76873-0.37602 1.395-1.1641 1.6358-2.0584 0.17125-0.63599 0.04203-0.88325-0.48931-0.93622-0.59277-0.05909-1.493 0.84475-2.1378 2.1463-0.27981 0.56485-0.50875 1.0938-0.50875 1.1755 0 0.21941 0.69056 0.06881 1.5-0.32712z" transform="translate(0 952.36)"/>
  <path id="path3513" d="m84.351 88.971c-0.82485-0.23258-1.5826-0.77311-2.0413-1.4561-1.5425-2.2967-0.04763-6.1425 3.1632-8.1378 1.416-0.87997 2.6672-1.2666 4.1141-1.2712 1.0462-0.0033 1.2802 0.03874 1.9668 0.35372 0.9336 0.42832 1.7732 1.2758 2.0926 2.1122 1.0024 2.6247-2.0427 7.2583-5.4344 8.2695-0.99871 0.29775-3.0235 0.36572-3.861 0.1296zm3.1104-0.6234c0.59062-0.30542 1.7439-1.6799 2.2393-2.6688 1.3919-2.7785 1.7686-5.7564 0.83863-6.63-0.90611-0.85125-2.5348-0.49816-3.6745 0.7966-1.2503 1.4204-2.4028 4.6541-2.4028 6.7416 0 0.92592 0.31062 1.5024 1.0025 1.8604 0.48816 0.25263 1.4039 0.20686 1.9969-0.09983z" transform="translate(0 952.36)"/>
  <path id="path3515" d="m96.399 89.047c-0.63188-0.16107-1.1538-0.48906-1.4589-0.91678-0.24654-0.34565-0.2911-0.56124-0.2911-1.4081 0-1.2865 0.40487-2.1708 1.4949-3.2651 0.83247-0.83571 1.6727-1.3227 2.7793-1.611 1.7175-0.44736 3.0383 0.05944 3.0383 1.1658 0 0.89153-0.95818 1.4465-1.7582 1.0183-0.38491-0.206-0.31235-0.79198 0.15178-1.2257 0.44148-0.4126 0.42002-0.71776-0.0589-0.83797-0.90148-0.22626-2.2749 0.75498-2.9289 2.0925-0.51848 1.0605-0.73834 2.2071-0.54617 2.8485 0.15865 0.52952 0.72271 1.0803 1.2391 1.2099 0.49863 0.12515 1.6365-0.1612 2.3139-0.58232 0.66814-0.41534 0.71235-0.43087 0.71235-0.25019 0 0.21415-1.4728 1.2217-2.1594 1.4772-0.7611 0.28325-1.991 0.42188-2.5281 0.28496z" transform="translate(0 952.36)"/>
  <path id="path3517" d="m104.4 88.976c-1.6545-0.44403-2.1022-2.2303-1.0527-4.1995 1.3304-2.4962 5.0396-3.9631 6.4513-2.5515 0.53749 0.53748 0.55217 1.0609 0.044 1.569-0.47348 0.47348-1.2638 0.5177-1.565 0.08757-0.28653-0.40908-0.24378-0.58091 0.25916-1.0416 0.5025-0.46028 0.49912-0.72758-0.0108-0.85557-1.1874-0.29802-2.7261 1.1174-3.3324 3.0656-0.29695 0.95412-0.29927 1.6819-0.007 2.2267 0.54014 1.0072 1.7623 1.1293 3.2295 0.32281 0.4521-0.24851 0.84454-0.42929 0.87209-0.40174 0.0276 0.02755-0.2084 0.28835-0.52433 0.57956-0.6938 0.63952-1.6593 1.1008-2.6406 1.2615-0.89308 0.14626-0.95217 0.14411-1.7231-0.0628z" transform="translate(0 952.36)"/>
  <path id="path3519" d="m111.62 89.075c-0.31473-0.06496-0.78374-0.59976-0.78374-0.89368 0-0.10679 0.36901-1.3124 0.82001-2.6792 0.45101-1.3668 0.80241-2.5796 0.78089-2.6952-0.0215-0.11559-0.23192-0.30648-0.46755-0.4242-0.27605-0.13791-0.36483-0.23463-0.24963-0.27197 0.191-0.0619 2.9586-0.45384 3.1944-0.45238 0.0812 0.000506-0.27965 1.2992-0.85362 3.0725-0.54683 1.6894-0.96343 3.1519-0.92578 3.25 0.12223 0.31852 0.47263 0.18993 1.0467-0.38412 0.30937-0.30938 0.58322-0.5625 0.60855-0.5625 0.33042 0-0.95994 1.4342-1.5707 1.7458-0.50876 0.25955-1.1755 0.38253-1.5995 0.29501z" transform="translate(0 952.36)"/>
  <path id="path3521" d="m113.87 80.038c-0.70473-0.42969-0.70473-1.3271 0-1.7568 0.51019-0.31108 0.92059-0.31108 1.4308 0 0.70473 0.42969 0.70473 1.3271 0 1.7568-0.2216 0.13511-0.54352 0.24566-0.7154 0.24566-0.17187 0-0.4938-0.11054-0.71539-0.24566z" transform="translate(0 952.36)"/>
  <path id="path3523" d="m117.15 89.068c-0.48176-0.12238-0.8081-0.43779-1.0159-0.98192-0.31218-0.81744-0.16925-1.7477 0.4689-3.0519 0.61034-1.2473 1.8003-2.5279 2.7895-3.0019 0.84325-0.4041 1.7783-0.41388 2.3059-0.02413 0.28498 0.21051 0.40362 0.24364 0.44765 0.125 0.43141-1.1625 0.81122-2.4811 0.81122-2.8164 0-0.36022-0.0571-0.44044-0.39763-0.55917-0.34363-0.11979-0.36485-0.15029-0.15625-0.2246 0.36393-0.12963 3.0525-0.54185 3.1165-0.47783 0.0307 0.03068-0.67137 2.2419-1.5601 4.9138-0.88872 2.6719-1.587 4.9046-1.5518 4.9616 0.14611 0.23642 0.63124 0.07435 1.0753-0.35924 0.73358-0.71632 0.5887-0.18757-0.15586 0.56883-0.77347 0.78577-1.7142 1.1311-2.434 0.89358-0.53985-0.17817-0.65825-0.55304-0.45172-1.4302 0.0818-0.3475 0.18173-0.77245 0.22203-0.94432 0.0543-0.23174-0.0402-0.15596-0.36565 0.29321-1.2078 1.6668-2.2247 2.3502-3.1481 2.1156zm2.7166-2.0541c0.80515-0.84842 1.7159-2.7207 1.8058-3.7125 0.0576-0.63564 0.0306-0.77155-0.19923-1.0014-0.40424-0.40424-0.82101-0.33583-1.384 0.22716-0.81566 0.81566-1.8819 3.3133-1.8819 4.4082 0 0.46309 0.42481 0.88619 0.78765 0.78446 0.15117-0.04238 0.54343-0.36007 0.87169-0.70597z" transform="translate(0 952.36)"/>
  <path id="path3525" d="m126.98 89.029c-1.2021-0.24552-1.6718-0.88183-1.6142-2.1867 0.1022-2.3143 2.3678-4.5634 5.0942-5.057 0.86677-0.15692 1.6862-0.08771 2.0314 0.17158 0.60103 0.45147 0.49724 1.3992-0.24295 2.2185-0.80375 0.88966-1.902 1.3913-3.6273 1.657l-0.9686 0.14913-0.0393 0.5438c-0.079 1.0944 0.43915 1.6354 1.5643 1.6331 0.61487-0.0013 1.5874-0.37529 2.3058-0.88681 0.40528-0.28858 0.61683-0.2379 0.34983 0.0838-0.32268 0.38881-1.6859 1.2784-2.2431 1.4639-0.75543 0.25138-1.9399 0.34653-2.61 0.20967zm2.0708-3.6982c0.94513-0.33546 1.977-1.8125 1.8906-2.7064-0.0356-0.36881-0.0791-0.40554-0.52247-0.44192-0.43855-0.03598-0.53999 0.01882-1.0889 0.58827-0.59471 0.617-1.1039 1.4718-1.4338 2.4067l-0.16692 0.4731 0.39909-0.06701c0.21951-0.03686 0.63459-0.15059 0.9224-0.25275z" transform="translate(0 952.36)"/>
  <path id="path3527" d="m139.15 88.945c-0.42018-0.10236-0.6875-0.42897-0.6875-0.83998 0-0.21512 0.30938-1.3154 0.6875-2.4451 0.37813-1.1297 0.6875-2.1561 0.6875-2.2809 0-0.59875-0.7323-0.35006-1.6284 0.55301-1.047 1.0551-1.9162 2.4904-2.3144 3.8216l-0.34585 1.1562h-1.0936-1.0936l0.93291-2.8181c1.0092-3.0487 1.0892-3.5881 0.54291-3.6612-0.47554-0.06366-0.56804-0.23682-0.1686-0.31566 1.0048-0.19832 3.0697-0.47054 3.1279-0.41236 0.0366 0.03665-0.17005 0.77683-0.45932 1.6448-0.28927 0.86802-0.49993 1.6042-0.46813 1.636s0.29062-0.24393 0.57515-0.61273c0.68524-0.8882 1.974-2.1165 2.5185-2.4005 0.59205-0.30874 1.5215-0.31681 1.854-0.01609 0.4933 0.44611 0.4554 0.79953-0.34694 3.2349-0.41672 1.2649-0.75767 2.3912-0.75767 2.5029 0 0.41522 0.2888 0.35688 0.82154-0.16597 0.63216-0.62042 0.87119-0.57991 0.37978 0.06436-0.76704 1.0057-1.9056 1.5637-2.7638 1.3546z" transform="translate(0 952.36)"/>
  <path id="path3529" d="m144.5 89.072c-0.15332-0.02962-0.39539-0.20212-0.53795-0.38335-0.34056-0.43295-0.28624-0.72943 0.64208-3.5047 0.40542-1.212 0.73713-2.2758 0.73713-2.3639 0-0.10598-0.18633-0.16016-0.5508-0.16016-0.48925 0-0.54349-0.02793-0.48542-0.25 0.036-0.1375 0.13668-0.25 0.22383-0.25 0.38976 0 2.201-1.0509 2.8973-1.681 1.107-1.0017 1.2333-0.9428 0.79006 0.36851l-0.35915 1.0625h0.55458c0.58105 0 0.59715 0.01587 0.47579 0.46875-0.0649 0.24214-0.15882 0.28125-0.67541 0.28125h-0.60003l-0.83206 2.4963c-0.45764 1.373-0.81387 2.624-0.79164 2.78 0.0653 0.45795 0.42593 0.40176 1.0371-0.16157 0.31404-0.28947 0.60495-0.49233 0.64647-0.45081 0.11566 0.11566-0.54898 0.85748-1.112 1.2411-0.73284 0.49937-1.3337 0.64728-2.0598 0.50702z" transform="translate(0 952.36)"/>
  <path id="path3531" d="m150.61 89.031c-1.1717-0.24024-1.7246-1.0254-1.622-2.3035 0.15471-1.9273 1.8159-3.8396 4.0354-4.6452 2.9038-1.054 4.5717 0.15977 2.8504 2.0743-0.84115 0.93556-2.131 1.5239-3.7123 1.6932-0.80904 0.08664-0.82441 0.0952-0.90065 0.50163-0.34636 1.8462 1.6512 2.4223 3.6442 1.051 0.58158-0.40014 0.85205-0.41862 0.5389-0.03683-0.35608 0.43415-1.6314 1.2801-2.2055 1.4629-0.7798 0.24832-1.961 0.33928-2.6285 0.20241zm2.0627-3.7016c0.6388-0.22736 1.5968-1.2432 1.7944-1.9027 0.0756-0.25251 0.11849-0.62684 0.0952-0.83184-0.0377-0.33152-0.0943-0.37704-0.51182-0.41158-0.41963-0.03471-0.53296 0.02634-1.0674 0.57498-0.57584 0.59119-1.2892 1.8359-1.4693 2.5638-0.0824 0.33291-0.0691 0.34616 0.27226 0.27258 0.19737-0.04254 0.59635-0.16187 0.88662-0.26518z" transform="translate(0 952.36)"/>
 </g>
</svg>
