<?xml version="1.0" encoding="UTF-8" standalone="no"?>
<!-- Created with Inkscape (http://www.inkscape.org/) -->
<svg id="svg2" xmlns:rdf="http://www.w3.org/1999/02/22-rdf-syntax-ns#" xmlns="http://www.w3.org/2000/svg" height="100" width="165" version="1.1" xmlns:cc="http://creativecommons.org/ns#" xmlns:dc="http://purl.org/dc/elements/1.1/" viewBox="0 0 165 100">
 <metadata id="metadata7">
  <rdf:RDF>
   <cc:Work rdf:about="">
    <dc:format>image/svg+xml</dc:format>
    <dc:type rdf:resource="http://purl.org/dc/dcmitype/StillImage"/>
    <dc:title/>
   </cc:Work>
  </rdf:RDF>
 </metadata>
 <g id="layer1" transform="translate(0 -952.36)">
  <path id="rect4882-6" d="m110.2 997.71-1.8615 11.721h3.5901l-1.7286-11.721z" fill="#fcbe24"/>
  <path id="path5014" d="m-116.55 41.128c-1.1757-0.4323-1.841-2.1614-2.2984-5.9734-0.55001-4.5836-0.50114-19.854 0.0773-24.156 0.47542-3.5354 1.2287-5.2721 2.4056-5.5462 0.62106-0.14462 1.3506 0.46515 1.5812 1.3216 0.56917 2.1137 0.88215 9.9624 0.88905 22.295 0.006 10.372-0.11941 11.309-1.5908 11.897-0.39461 0.15789-0.73576 0.2808-0.75809 0.27312-0.0223-0.0077-0.15995-0.05783-0.30579-0.11146z" transform="translate(0 952.36)" fill="#fcbe24"/>
  <path id="path5021" d="m-117.04 40.256c-1.2709-1.4043-1.8541-6.6522-1.8475-16.623 0.007-10.285 0.59287-15.737 1.8399-17.114 0.74574-0.82404 0.90718-0.83914 1.5969-0.14942 0.62526 0.62526 0.82745 2.9188 1.0923 12.391 0.40873 14.616 0.12391 20.567-1.0344 21.616-0.76237 0.68993-0.92533 0.67811-1.6472-0.11952z" transform="translate(0 952.36)" fill="#f00"/>
  <g id="g5052">
   <rect id="rect4019" height="55.435" width="126.55" y="975.78" x=".5" fill="#fcbe24"/>
   <path id="path8" d="m124.09 23.5v6.3125 20.938 20.625 2.8125 4.7188h40.969v-28.156-27.25zm10.062 8.8438c1.013 0.0338 1.9746 0.33709 2.5312 0.96875 1.6475 1.7145 2.0492 3.7248 2.0938 9.5v5.6562h-1.9688-2l-0.125-4.7812c-0.09-3.43-0.29-4.688-0.78-4.688-0.57886 0-0.86425 2.0099-0.6875 12.656 0.0233 1.4011 0.0466 2.3092 0.0625 3.4375 0.0221 1.5725 0.0446 3.0201 0.0625 4.125 0.006 0.39293 0.0231 0.72288 0.0312 1.0625 0.0222 0.89876 0.0234 1.7459 0.0625 2.3125 0.0972 1.4091 0.24728 1.875 0.5 1.875 0.48981 0 0.69225-1.2585 0.78125-4.6875l0.125-4.6875h0.0937 3.875v0.0625 5.5c-0.003 0.36094-0.0216 0.67102-0.0312 1-0.00032 0.01634 0.00035 0.04634 0 0.0625-0.00063 0.02042 0.00066 0.0422 0 0.0625-0.0283 0.87293-0.0799 1.6068-0.15625 2.2812l-0.56 0.937-0.4375 0.75-0.5 0.875-0.25 0.375-0.125 0.21875-0.34375 0.59375-0.4 0.687-0.0312 0.03125-0.71875 1.1875-0.125 0.21875-0.71875 1.1875c-0.0751 0.0017-0.13452-0.0028-0.21875 0-1.013 0.034-2.0911-0.226-2.7812-0.8125-1.4874-1.1931-2.1133-2.7411-2.3125-8.5312-0.0546-1.5865-0.1-3.5347-0.0937-5.8438v-0.84375l-0.03-1.093v-11.688c0.19581-6.2733 0.8714-7.925 2.4062-9.1562 0.69017-0.58654 1.7682-0.84634 2.7812-0.8125zm16.469 0.78125h10.125v7.3125h-2.8125v3.875 22.156 4.5938h-1.0312c-0.16432-0.25666-0.33985-0.53499-0.46875-0.75l-2.9375-4.7812v-0.09375-12.531-12.469h-2.875zm-7.7812 0.03125h2.7812 2.7812l1.5625 14.875c0.93509 8.2022 1.8078 14.288 1.7188 14.469-0.089 0.1805-2.0855-3.3006-3.6875-5.7812-1.5979-2.4744-2.3039-3.9375-2.4375-3.9375-0.0731-0.20995-0.62009 1.2443-2.5938 4.3125-0.43362 0.67411-0.7356 1.1382-1.0938 1.7188l-0.875 1.375-0.71875 1.1875-0.1875 0.3125c0.0273-0.23416 0.0296-0.23106 0.0625-0.53125 0.57886-4.7826 1.907-19.987 2.2188-22.875zm2.78 9.344l-0.75 7.125h1.4688z" transform="translate(0 952.36)"/>
   <path id="path4975" d="m136.19 1023.2c0.47184-0.9193 9.2718-15.512 9.3534-15.51 0.0745 0.001 7.6374 12.309 9.252 15.056l0.50072 0.852h-9.6551-9.6551l0.20415-0.3978z" fill="#fcbe24"/>
   <path id="path5023" d="m44.295 70.945c-3.8861-1.7572-4.9871-7.7681-4.5665-24.93 0.23059-9.409 0.30337-9.9935 1.5657-12.574 2.3115-4.7246 6.8577-5.6766 10.139-2.1233 2.1141 2.2894 2.6554 4.5165 2.6587 10.94l0.0028 5.375h-2.75-2.75v-4.4375c0-5.7136-0.36774-7.5625-1.5042-7.5625-0.48908 0-1.013 0.49917-1.1807 1.125-0.39303 1.4666-0.39303 25.783 0 27.25 0.16582 0.61875 0.61832 1.125 1.0055 1.125 1.1067 0 1.6793-2.2274 1.6793-6.5326v-3.9674h2.75 2.75l-0.0028 4.625c-0.0034 5.6703-0.59884 7.955-2.659 10.203-1.8599 2.0295-4.6494 2.6095-7.1379 1.4843h0.000011z" transform="translate(0 952.36)"/>
   <path id="path5025" d="m27.094 50.383v-20.25h5 5v3.75 3.75h-2-2v4.25 4.25h2 2v3.75 3.75h-2-2v4.75 4.75h2.25 2.25v3.75 3.75h-5.25-5.25v-20.25z" transform="translate(0 952.36)"/>
   <path id="path5027" d="m13.699 70.85c-0.61487-0.43067-1.6212-1.7244-2.2363-2.875-1.0712-2.0038-1.1247-2.6961-1.2713-16.435-0.17369-16.286 0.017-17.639 2.8922-20.514 2.2688-2.2688 4.4576-2.5084 7.0183-0.76813 2.6348 1.7906 3.6746 4.3804 3.9088 9.7363l0.20288 4.6387h-3.0402-3.0402l-0.14447-4.375c-0.11325-3.4296-0.3017-4.375-0.87208-4.375-1.2674 0-1.5841 3.5766-1.4256 16.101 0.11626 9.1843 0.31192 12.257 0.81184 12.75 1.2685 1.2502 2.0913-0.89278 2.0913-5.4464 0-3.3595-0.14351-4.1544-0.75-4.1544-0.58333 0-0.75-0.66667-0.75-3v-3h3.5 3.5v10.75 10.75h-1.6958c-1.4186 0-1.7503-0.21718-2.0292-1.3285l-0.33343-1.3285-1.5072 1.8285c-1.6485 1.9999-3.0378 2.3006-4.8298 1.0454z" transform="translate(0 952.36)"/>
   <path id="path5029" d="m61.844 71.181c-1.5993-0.70243-3.1563-2.6572-3.9831-5.0007-1.0944-3.102-1.1169-27.688-0.02865-31.352 1.974-6.6471 8.686-7.5465 11.867-1.5902 1.1205 2.0983 1.1452 2.4684 1.1452 17.145 0 14.38-0.04433 15.083-1.0718 17-0.58949 1.1-1.5283 2.4128-2.0862 2.9174-1.1594 1.0485-4.3614 1.5315-5.842 0.8812zm3.1329-20.522c0.1325-14.163-0.062-16.046-1.5079-14.602-0.45159 0.45103-0.67198 3.7043-0.79434 11.725-0.20266 13.286 0.12261 17.481 1.3372 17.248 0.74917-0.1441 0.84542-1.5772 0.9651-14.37z" transform="translate(0 952.36)"/>
   <path id="path5031" d="m74.094 50.383v-20.25h3 3v16.5 16.5h1.75 1.75v3.75 3.75h-4.75-4.75v-20.25z" transform="translate(0 952.36)"/>
   <path id="path5033" d="m89.244 70.682c-2.5174-1.581-3.3146-3.6386-3.5544-9.1745l-0.2112-4.875h2.8082 2.8082v4.0157c0 3.2208 0.15845 4.0765 0.80046 4.3229 1.2112 0.46477 1.6834-0.75009 1.6919-4.3523 0.0084-3.6017-0.11553-3.856-4.2879-8.7975-3.3634-3.9833-3.9515-5.7828-3.9021-11.939 0.04724-5.8792 0.84776-8.2466 3.2925-9.7372 1.994-1.2157 3.9311-1.2846 6.1752-0.21974 2.6495 1.2573 3.3982 2.8684 3.6395 7.8319l0.2127 4.375h-2.7873-2.7873l-0.14886-3.125c-0.11216-2.3545-0.3308-3.125-0.88682-3.125-1.0789 0-1.699 2.2677-1.3115 4.7958 0.26864 1.7525 1.0019 2.9667 3.5775 5.9243 3.9884 4.5799 4.7219 6.737 4.7219 13.887 0 5.6448-0.55273 7.6388-2.6544 9.5761-1.7958 1.6553-5.0925 1.9378-7.1963 0.6166z" transform="translate(0 952.36)"/>
   <path id="path5035" d="m100.59 68.802c0-2.1483 2.3861-33.432 2.7873-36.544l0.27397-2.125h4.2098c3.9628 0 4.2236 0.06601 4.4447 1.125 0.27202 1.3031 3.3092 36.568 3.2942 38.25-0.009 1.0406-0.23519 1.125-3.01 1.125h-3v-3.7832-3.7832l-1.375 0.15821c-1.3432 0.15456-1.3784 0.24199-1.5219 3.7832l-0.14691 3.625h-2.9781-2.9781v-1.8309zm8.498-14.544c-0.004-5.2098-0.67161-15.077-1.0055-14.87-0.19523 0.12066-0.50377 2.869-0.68565 6.1074-0.18187 3.2384-0.46374 7.0692-0.62638 8.513-0.28982 2.5729-0.26973 2.625 1.0119 2.625 1.2269 0 1.3075-0.14658 1.3056-2.375z" transform="translate(0 952.36)"/>
  </g>
  <path id="path5037" fill-opacity="0" d="m13.058 69.593c-0.79088-0.84664-1.6674-2.3654-1.9478-3.375-0.29259-1.0534-0.50636-7.9078-0.50166-16.086 0.0074-12.819 0.10169-14.456 0.93895-16.299 2.2982-5.0604 7.696-5.564 10.528-0.98212 0.91919 1.4873 1.957 7.2589 2.0106 11.182 0.0065 0.47605-0.76036 0.60983-2.8661 0.5l-2.875-0.14995-0.25-4.25c-0.19087-3.2448-0.41987-4.25-0.96822-4.25-0.39814 0-0.91602 0.76334-1.1621 1.7129-0.53724 2.0733-0.28489 26.791 0.27926 27.354 0.21944 0.219 0.78194 0.15736 1.25-0.13697 0.67499-0.42446 0.88105-1.4394 0.9962-4.9068 0.07985-2.4044-0.07443-4.6362-0.34285-4.9597-0.26842-0.32343-0.644-1.7637-0.8346-3.2006l-0.34656-2.6125h3.5644 3.5644v10.75c0 6.3343-0.19201 10.75-0.46745 10.75-1.2807 0-2.9273-1.0434-3.1816-2.0161-0.2716-1.0386-0.36443-1.0033-1.8701 0.71164-1.997 2.2744-3.57 2.35-5.5175 0.26514z" transform="translate(0 952.36)"/>
  <path id="path5039" fill-opacity="0" d="m13.058 69.593c-0.79088-0.84664-1.6674-2.3654-1.9478-3.375-0.29259-1.0534-0.50636-7.9078-0.50166-16.086 0.0074-12.819 0.10169-14.456 0.93895-16.299 2.2982-5.0604 7.696-5.564 10.528-0.98212 0.91919 1.4873 1.957 7.2589 2.0106 11.182 0.0065 0.47605-0.76036 0.60983-2.8661 0.5l-2.875-0.14995-0.25-4.25c-0.19087-3.2448-0.41987-4.25-0.96822-4.25-0.39814 0-0.91602 0.76334-1.1621 1.7129-0.53724 2.0733-0.28489 26.791 0.27926 27.354 0.21944 0.219 0.78194 0.15736 1.25-0.13697 0.67499-0.42446 0.88105-1.4394 0.9962-4.9068 0.07985-2.4044-0.07443-4.6362-0.34285-4.9597-0.26842-0.32343-0.644-1.7637-0.8346-3.2006l-0.34656-2.6125h3.5644 3.5644v10.75c0 6.3343-0.19201 10.75-0.46745 10.75-1.2807 0-2.9273-1.0434-3.1816-2.0161-0.2716-1.0386-0.36443-1.0033-1.8701 0.71164-1.997 2.2744-3.57 2.35-5.5175 0.26514z" transform="translate(0 952.36)"/>
 </g>
</svg>
