<?xml version="1.0" encoding="UTF-8" standalone="no"?>
<!-- Created with Inkscape (http://www.inkscape.org/) -->
<svg id="svg2" xmlns:rdf="http://www.w3.org/1999/02/22-rdf-syntax-ns#" xmlns="http://www.w3.org/2000/svg" height="100" width="165" version="1.1" xmlns:cc="http://creativecommons.org/ns#" xmlns:dc="http://purl.org/dc/elements/1.1/" viewBox="0 0 165 100">
 <metadata id="metadata7">
  <rdf:RDF>
   <cc:Work rdf:about="">
    <dc:format>image/svg+xml</dc:format>
    <dc:type rdf:resource="http://purl.org/dc/dcmitype/StillImage"/>
    <dc:title/>
   </cc:Work>
  </rdf:RDF>
 </metadata>
 <g id="layer1" transform="translate(0 -952.36)">
  <path id="rect3943" fill="#000080" d="m15.438 1019.9c-1.875 0-3.3405 0.4295-4.4375 1.3232-1.097 0.8936-1.9284 2.1438-2.4688 3.7133-0.54037 1.5695-0.8125 3.3274-0.8125 5.2925-9e-7 3.0055 0.61328 5.5087 1.8438 7.4694s3.1979 2.945 5.9062 2.945c0.65754 0 1.2858-0.077 1.875-0.1708 0.58918-0.093 1.5234-0.3574 2.8125-0.8109v-8.4937h-3v6.4877c-0.46225 0.1333-0.87371 0.2133-1.2188 0.2133-1.5951 0-2.8086-0.6793-3.6875-2.0487-0.87891-1.3694-1.3438-3.2277-1.3438-5.5486-0.000004-2.1252 0.37955-3.9267 1.125-5.4206 0.74544-1.4939 1.9635-2.2621 3.6562-2.2621 0.52082 0 1.0833 0.098 1.6562 0.2134 0.57291 0.1156 1.5039 0.4535 2.8125 1.0671v-3.2013c-1.556-0.5068-3.1367-0.7682-4.7188-0.7682zm55.312 0c-1.4909 0-2.7865 0.4313-3.9062 1.2805-1.1198 0.8492-1.9518 2.07-2.5312 3.6706-0.57943 1.6005-0.875 3.4109-0.875 5.4206-0.000001 2.0184 0.29557 3.8244 0.875 5.4205 0.57942 1.5961 1.418 2.8215 2.5312 3.6707 1.1133 0.8492 2.4023 1.2805 3.9062 1.2805s2.8275-0.4313 3.9375-1.2805 1.9518-2.0746 2.5312-3.6707c0.57941-1.5961 0.87498-3.4021 0.875-5.4205-0.000016-2.0097-0.29559-3.8201-0.875-5.4206-0.57944-1.6006-1.4427-2.8214-2.5625-3.6706s-2.4219-1.2805-3.9062-1.2805zm51.812 0c-1.875 0-3.3718 0.4295-4.4688 1.3232-1.097 0.8936-1.8971 2.1438-2.4375 3.7133-0.54037 1.5695-0.8125 3.3274-0.8125 5.2925 0 3.0055 0.61328 5.5087 1.8438 7.4694s3.1979 2.945 5.9062 2.945c0.65754 0 1.2858-0.077 1.875-0.1708 0.58918-0.093 1.5234-0.3574 2.8125-0.8109v-8.4937h-3v6.4877c-0.46225 0.1333-0.87371 0.2133-1.2188 0.2133-1.5951 0-2.8398-0.6793-3.7188-2.0487-0.87891-1.3694-1.3125-3.2277-1.3125-5.5486 0-2.1252 0.37955-3.9267 1.125-5.4206 0.74544-1.4939 1.9635-2.2621 3.6562-2.2621 0.52082 0 1.0521 0.098 1.625 0.2134 0.57291 0.1156 1.5351 0.4535 2.8438 1.0671v-3.2013c-1.556-0.5068-3.1367-0.7682-4.7188-0.7682zm14.531 0c-1.4909 0-2.7865 0.4313-3.9062 1.2805-1.1198 0.8492-1.9831 2.07-2.5625 3.6706-0.57943 1.6005-0.875 3.4109-0.875 5.4206 0 2.0184 0.29557 3.8244 0.875 5.4205 0.57942 1.5961 1.418 2.8215 2.5312 3.6707 1.1133 0.8492 2.4336 1.2805 3.9375 1.2805s2.7962-0.4313 3.9062-1.2805 1.9831-2.0746 2.5625-3.6707c0.57941-1.5961 0.84373-3.4021 0.84375-5.4205-0.00002-2.0097-0.26434-3.8201-0.84375-5.4206-0.57944-1.6006-1.4427-2.8214-2.5625-3.6706s-2.4219-1.2805-3.9062-1.2805zm14 0c-1.543 0-2.7389 0.5212-3.5625 1.5793-0.82357 1.0581-1.2188 2.3564-1.2188 3.8413 0 1.1826 0.22396 2.2177 0.71875 3.1158 0.48828 0.8981 1.4323 1.8442 2.8125 2.9023l0.96875 0.7684c0.89843 0.6935 1.4661 1.2287 1.6875 1.6645 0.22135 0.4446 0.31249 0.9425 0.3125 1.4939-0.00001 0.7203-0.1836 1.3622-0.59375 1.8779-0.41016 0.5158-1.0417 0.7683-1.875 0.7683-0.46224 0-0.98112-0.047-1.5312-0.1708-0.55013-0.1244-1.3555-0.5121-2.4688-1.1524v3.372c1.5365 0.4446 2.8724 0.6829 4.0312 0.6829 1.9531 0 3.3861-0.6029 4.2812-1.7499 0.89517-1.1472 1.3437-2.5219 1.3438-4.1402-0.00001-1.1293-0.22657-2.1234-0.65625-3.0304-0.43621-0.8982-1.4492-1.9829-3.0312-3.2011l-1.0312-0.7684c-0.89844-0.6935-1.4414-1.2644-1.6562-1.6645-0.22136-0.4001-0.34375-0.8181-0.34375-1.2805 0-0.6046 0.18815-1.1053 0.5625-1.5365 0.37434-0.4313 0.90885-0.6829 1.625-0.6829 0.86588 0 2.0286 0.3966 3.5 1.1524v-3.1584c-1.4453-0.4535-2.7227-0.683-3.875-0.683zm-127.53 0.5122v19.719h2.8125v-8.0667h1.6562l3.5938 8.0667h3.6562l-4.7188-9.2191c0.89192-0.5425 1.5742-1.3205 2.0625-2.3475 0.48827-1.0271 0.74999-2.1306 0.75-3.2866-0.000012-0.9691-0.19598-1.8344-0.53125-2.6035-0.3353-0.7692-0.76433-1.3294-1.3438-1.7074-0.57944-0.3778-1.4245-0.5548-2.5312-0.5548h-5.4062zm13.656 0v12.079c-0.000002 2.2853 0.2487 3.949 0.75 4.9938s1.1719 1.8185 2.0312 2.3475c0.85937 0.5291 1.8958 0.811 3.0938 0.811 1.2174 0 2.237-0.2845 3.0312-0.8537 0.79426-0.5691 1.3926-1.356 1.8125-2.3475 0.41991-0.9914 0.62499-2.6231 0.625-4.9084v-12.122h-2.625v12.378c-0.00001 2.0096-0.24545 3.3523-0.75 4.0547-0.50457 0.7026-1.1784 1.0671-2.0312 1.0671-0.86589 0-1.5814-0.3557-2.125-1.0671-0.54362-0.7113-0.8125-2.166-0.8125-4.3535v-12.079h-3zm14.844 0v19.719h2.9375v-7.7253h1.25c1.7448 0 3.1491-0.594 4.1875-1.7499 1.0384-1.1561 1.5625-2.8313 1.5625-5.0365-0.000012-1.147-0.16603-2.1038-0.46875-2.8597-0.30274-0.7559-0.74806-1.3364-1.3438-1.75-0.59571-0.4134-1.6289-0.5975-3.0938-0.5975h-5.0312zm39.188 0-5.625 19.719h2.1875l1.5312-5.2498h5.9688l1.5 5.2498h3.0938l-5.625-19.719h-3.0312zm10.688 0v19.719h2.8438v-8.0667h1.6562l3.5938 8.0667h3.6562l-4.7188-9.2191c0.89192-0.5425 1.5742-1.3205 2.0625-2.3475 0.48827-1.0271 0.71874-2.1306 0.71875-3.2866-0.00001-0.9691-0.16472-1.8344-0.5-2.6035-0.3353-0.7692-0.79558-1.3294-1.375-1.7074-0.57944-0.3778-1.4245-0.5548-2.5312-0.5548h-5.4062zm-31.188 2.1768c1.3867 0 2.4414 0.8048 3.125 2.3475 0.68358 1.5427 1.0312 3.3255 1.0312 5.3352-0.000012 2.0007-0.35092 3.7408-1.0312 5.2925-0.68035 1.5516-1.7318 2.3475-3.125 2.3475-1.3997 0-2.4134-0.7959-3.0938-2.3475-0.68034-1.5517-1.0313-3.2918-1.0312-5.2925-0.000004-2.0097 0.34765-3.7925 1.0312-5.3352 0.68359-1.5427 1.7005-2.3475 3.0938-2.3475zm66.344 0c1.3867 0 2.4102 0.8048 3.0938 2.3475 0.68358 1.5427 1.0312 3.3255 1.0312 5.3352-0.00001 2.0007-0.35092 3.7408-1.0312 5.2925-0.68035 1.5516-1.7005 2.3475-3.0938 2.3475-1.3998 0-2.4447-0.7959-3.125-2.3475-0.68034-1.5517-1.0312-3.2918-1.0312-5.2925 0-2.0097 0.34765-3.7925 1.0312-5.3352 0.68359-1.5427 1.7318-2.3475 3.125-2.3475zm-110.72 0.5121h1.0625c1.1784 0 1.9596 0.25 2.3438 0.7257 0.38411 0.4757 0.56249 1.1115 0.5625 1.9206-0.000009 0.9337-0.21876 1.7802-0.6875 2.5183-0.46876 0.738-1.3503 1.1097-2.5938 1.1097h-0.6875v-6.2743zm28.625 0h1.1875c0.78124 0 1.3327 0.1263 1.6875 0.3842 0.35481 0.2579 0.64322 0.618 0.8125 1.067 0.16926 0.4491 0.24999 0.9426 0.25 1.4939-0.000009 0.9782-0.2754 1.8362-0.8125 2.5608-0.53712 0.7248-1.3854 1.0672-2.5312 1.0672h-0.59375v-6.5731zm49.781 0h1.0312c1.1784 0 1.9596 0.25 2.3438 0.7257 0.38411 0.4757 0.59374 1.1115 0.59375 1.9206-0.00001 0.9337-0.25001 1.7802-0.71875 2.5183-0.46876 0.738-1.319 1.1097-2.5625 1.1097h-0.6875v-6.2743zm-12.469 1.2805 2.25 7.8534h-4.5l2.25-7.8534z"/>
  <path id="rect3919" fill="#000080" d="m56.307 959.93v22.375c1.3109-10.128 7.8759-18.893 17.375-21.781 0.80468-0.24466 1.5999-0.44359 2.4062-0.59375h-19.781zm27.781 0c9.0317 1.6736 16.861 8.935 19.531 19.312 0.3005 1.168 0.53338 2.3312 0.6875 3.5v-22.812h-20.219zm-27.781 29.906v22.875h20.219c-9.0317-1.6736-16.861-8.935-19.531-19.312-0.30648-1.1912-0.53317-2.3712-0.6875-3.5625zm48 0.46875c-1.2737 9.9296-7.5808 18.587-16.813 21.656l-0.53125 0.1563c-0.80468 0.2446-1.6312 0.4436-2.4375 0.5937h19.781v-22.406z"/>
  <text id="text3935" style="word-spacing:0px;letter-spacing:0px" xml:space="preserve" transform="translate(0 952.36)" font-size="40px" y="80.807098" x="8.8388348" font-family="Sans" line-height="125%" fill="#000000"><tspan id="tspan3937" x="8.8388348" y="80.807098"/></text>
 </g>
</svg>
