<?xml version="1.0" encoding="UTF-8" standalone="no"?>
<!-- Created with Inkscape (http://www.inkscape.org/) -->
<svg id="svg2" xmlns:rdf="http://www.w3.org/1999/02/22-rdf-syntax-ns#" xmlns="http://www.w3.org/2000/svg" xmlns:osb="http://www.openswatchbook.org/uri/2009/osb" height="100" width="165" version="1.1" xmlns:cc="http://creativecommons.org/ns#" xmlns:xlink="http://www.w3.org/1999/xlink" viewBox="0 0 165 100" xmlns:dc="http://purl.org/dc/elements/1.1/">
 <defs id="defs4">
  <linearGradient id="linearGradient6985" y2="1022.4" gradientUnits="userSpaceOnUse" x2="126.86" gradientTransform="translate(-88,-2)" y1="959.34" x1="200.61">
   <stop id="stop6981" stop-color="#5bbf7c" offset="0"/>
   <stop id="stop6983" stop-color="#5bbf7c" stop-opacity="0" offset="1"/>
  </linearGradient>
  <linearGradient id="linearGradient7137" y2="958.32" gradientUnits="userSpaceOnUse" x2="161.91" gradientTransform="translate(-49.324 -1.383)" y1="1020" x1="87.877">
   <stop id="stop7133" stop-color="#047bac" offset="0"/>
   <stop id="stop7135" stop-color="#047bac" stop-opacity="0" offset="1"/>
  </linearGradient>
 </defs>
 <metadata id="metadata7">
  <rdf:RDF>
   <cc:Work rdf:about="">
    <dc:format>image/svg+xml</dc:format>
    <dc:type rdf:resource="http://purl.org/dc/dcmitype/StillImage"/>
    <dc:title/>
   </cc:Work>
  </rdf:RDF>
 </metadata>
 <g id="layer1" transform="translate(0 -952.36)">
  <text id="text4700" style="word-spacing:0px;letter-spacing:0px" xml:space="preserve" font-size="16.25px" y="1037.5129" x="11.490485" font-family="sans-serif" line-height="125%" fill="#000000"><tspan id="tspan4702" y="1037.5129" x="11.490485" font-family="sans-serif"/></text>
  <path id="path5057" fill="#047bac" d="m9.9024 1044.4c-0.22881-0.1446-0.27299-1.4056-0.32226-9.1985l-0.0571-9.0309 1.1178 0.053 1.1178 0.053 0.10932 2.0329c0.06013 1.1182 0.11979 2.4888 0.13258 3.0458l0.02326 1.0128 0.7916-0.5579c0.67818-0.4781 0.95046-0.5595 1.9003-0.5684 2.1183-0.02 3.4411 1.0444 3.8261 3.0782 0.10123 0.5347 0.23804 3.0604 0.30402 5.6126l0.11997 4.6404h-0.87395c-1.5597 0-1.5181 0.1209-1.6473-4.7933-0.093-3.5368-0.16658-4.4119-0.40986-4.8745-0.88588-1.6844-2.7848-1.4085-3.5719 0.519-0.2751 0.6736-0.54353 4.4351-0.60558 8.4859l-0.01015 0.6629h-0.83969c-0.46183 0-0.95901-0.078-1.1049-0.1702z"/>
  <path id="path5059" fill="#047bac" d="m22.511 1044.5c-0.75473-0.2185-1.9033-1.5605-2.1793-2.5463-0.33962-1.213-0.15039-3.0704 0.41027-4.0271 0.57531-0.9817 1.0692-1.307 2.5326-1.6681 0.92024-0.2271 1.4131-0.2516 2.3793-0.118l1.2186 0.1684v-0.5094c0-2.1366-2.2952-2.8486-4.0556-1.2582-1.2057 1.0893-2.2909 0.5637-2.0801-1.0075 0.2006-1.4956 1.7067-2.363 4.1028-2.363 1.7256 0 2.8114 0.4577 3.5236 1.4853 0.70041 1.0107 0.80413 1.6053 0.9654 5.5344 0.12904 3.1438 0.19498 3.6881 0.52515 4.3353 0.476 0.933 0.47253 1.0288-0.05633 1.5577-0.64596 0.646-1.5711 0.5958-2.2412-0.1216l-0.5189-0.5554-0.39675 0.3727c-0.84135 0.7904-2.7425 1.1222-4.1295 0.7208zm2.7617-2.6505c0.36192-0.2034 0.86994-0.6967 1.1289-1.0961 0.81886-1.2628 0.5446-1.9574-0.85588-2.1674-1.1575-0.1736-1.943 0.029-2.4511 0.6332-0.64762 0.7696-0.71496 1.1574-0.33025 1.9017 0.57252 1.1078 1.4039 1.3492 2.5083 0.7286z"/>
  <path id="path5061" d="m31.422 1044.5c-0.44871-0.3403-0.15967-3.0826-0.2202-8.9485l-0.04584-4.4423h0.76092c0.41851 0 1.0001 0.1373 1.2925 0.3051 0.51313 0.2945 0.55584 0.2914 1.2316-0.088 1.2412-0.6976 3.0971-0.3857 3.5443 0.5956 0.27346 0.6002 0.25379 1.6999-0.03754 2.0983-0.20254 0.277-0.37033 0.3062-1.1049 0.192-0.47632-0.074-1.0165-0.1303-1.2004-0.1251-0.9335 0.1908-1.2321 0.091-1.5279 1.6086-0.14018 0.4879-0.21574 5.1003-0.25302 7.5672-0.0055 0.3618-0.35604 1.4585-1.2097 1.4585-0.51617 0-1.0696-0.1-1.2299-0.221z" fill="#047bac"/>
  <path id="path5063" fill="#047bac" d="m39.258 1044.4c-0.39751-0.2515-0.52186-2.0884-0.53177-7.8555l-0.0091-5.2819 1.1038 0.1249c0.60708 0.069 1.1179 0.139 1.1352 0.1563 0.01729 0.017 0.05755 2.9545 0.08946 6.5272l0.05803 6.4957h-0.7955c-0.43752 0-0.91009-0.075-1.0501-0.1639z"/>
  <path id="path5065" fill="#047bac" d="m39.303 1029.7c-0.53156-0.2234-0.76286-0.7247-0.76286-1.6536 0-1.0982 0.44526-1.6142 1.393-1.6142 1.044 0 1.347 0.376 1.347 1.6714 0 0.7-0.08884 1.1369-0.26753 1.3155-0.34515 0.3452-1.2162 0.4883-1.7096 0.2809z"/>
  <path id="path5067" fill="#047bac" d="m43.768 1044.3c-0.24226-0.2422-0.27779-1.0929-0.27779-6.651v-6.3732l0.98854 0.082c0.90269 0.075 1.1787 0.2247 1.3592 0.7379 0.03045 0.087 0.4096-0.067 0.84256-0.3413 1.9812-1.2554 4.5762-0.4676 5.525 1.6771 0.31199 0.7053 0.35703 1.3189 0.43803 5.9662l0.09028 5.1801h-0.90538c-1.3762 0-1.3891-0.043-1.492-4.9626-0.09309-4.45-0.18576-4.939-1.0508-5.5449-0.89659-0.628-2.3158-0.1108-2.8636 1.0435-0.40162 0.8463-0.62287 3.1965-0.62886 6.6798l-0.0048 2.7842h-0.87126c-0.55635 0-0.97166-0.1004-1.149-0.2778z"/>
  <path id="path5069" fill="#047bac" d="m57.764 1044.5c-2.7255-1.0167-4.0699-4.1407-3.5059-8.1463 0.33328-2.3668 1.3468-3.9982 2.9884-4.8102 0.97811-0.4838 3.2401-0.446 4.2135 0.07 1.3322 0.7069 2.0141 1.9436 2.0274 3.6771 0.01563 2.037-0.50834 3.125-1.8507 3.8428-0.64889 0.3469-0.98723 0.3914-2.9001 0.381-1.191-0.01-2.1655 0.057-2.1655 0.1414 0 0.3273 0.52706 1.1333 1.0898 1.6664 1.2397 1.1744 2.6142 1.1603 4.053-0.042 1.1592-0.9685 1.8105-0.7108 1.8105 0.7161 0 1.0354-0.38277 1.5569-1.5686 2.1371-1.2 0.5871-3.144 0.7569-4.1917 0.366zm2.7143-7.7633c1.1126-0.7473 0.84433-2.3334-0.4889-2.8904-1.0641-0.4447-2.4004 0.2239-3.0696 1.5357-0.4922 0.9648-0.45478 1.3744 0.13751 1.505 0.26738 0.059 0.56569 0.1338 0.66291 0.1662 0.09723 0.032 0.62242 0.065 1.1671 0.073 0.75379 0.011 1.1338-0.082 1.591-0.3894z"/>
  <path id="path5071" fill="#047bac" d="m65.269 1044.4c-0.1572-0.1572-0.21213-1.8739-0.21213-6.6291v-6.417h0.72457c0.57042 0 0.82574 0.1083 1.2001 0.5091l0.47556 0.509 0.48171-0.4143c1.0746-0.9243 2.7993-0.9896 3.4743-0.1315 0.40006 0.5086 0.49744 1.7956 0.16131 2.1317-0.12983 0.1299-0.61074 0.1655-1.3719 0.1017-1.1147-0.093-1.1991-0.073-1.7269 0.4202-0.84228 0.7868-0.96942 1.501-1.072 6.0223l-0.09323 4.11h-0.91466c-0.50306 0-1.0101-0.095-1.1268-0.2121z"/>
  <path id="path5073" fill="#047bac" d="m74.909 1044.7c-1.2727-0.2864-1.9726-0.7785-2.5243-1.7745-0.46442-0.8384-0.52209-1.1095-0.5202-2.4456 0.0023-1.618 0.31807-2.5055 1.1763-3.3061 0.92754-0.8652 3.0489-1.3117 4.5668-0.9611 0.43752 0.101 0.86095 0.1182 0.94095 0.038 0.27064-0.2706-0.22765-1.5679-0.78107-2.0336-0.405-0.3408-0.73956-0.4549-1.3341-0.4549-0.87633 0-1.2669 0.1632-2.1806 0.911-1.0858 0.8887-1.8306 0.5602-1.8306-0.8075 0-0.9889 0.52035-1.7187 1.607-2.2538 1.2433-0.6123 3.5023-0.5934 4.7323 0.039 0.93985 0.4836 1.5554 1.2343 1.8589 2.2668 0.10339 0.3517 0.25112 2.2828 0.3283 4.2913 0.12578 3.2735 0.17975 3.7186 0.52098 4.2969 0.48702 0.8255 0.47881 1.0732-0.05325 1.6053-0.63556 0.6356-1.5556 0.593-2.2529-0.1043-0.47516-0.4752-0.57199-0.5087-0.82609-0.2858-0.43267 0.3795-1.633 0.9381-2.2324 1.0389-0.29168 0.049-0.82988 0.022-1.196-0.061zm1.9444-2.7489c0.73127-0.347 1.6381-1.6664 1.6381-2.3834 0-0.6054-0.41694-0.8511-1.662-0.9796-2.1952-0.2266-3.4013 1.6369-1.9796 3.0586 0.67345 0.6734 1.0919 0.737 2.0035 0.3044z"/>
  <path id="path5075" fill="#047bac" d="m90.931 1044.4c-0.69058-0.2131-1.7365-1.3525-2.2395-2.4396-0.3426-0.7405-0.38196-1.126-0.38211-3.7423-0.00015-2.6498 0.03789-3.012 0.41543-3.9558 0.249-0.6225 0.74374-1.3769 1.2342-1.8819 0.69398-0.7146 0.9788-0.8756 1.8713-1.0582 0.97104-0.1986 2.2605-0.1543 3.2341 0.1111l0.39775 0.1085v-2.6723-2.6723h1.0502c0.57762 0 1.0849 0.06 1.1274 0.1326 0.04243 0.073 0.1346 4.2095 0.20482 9.1924l0.12767 9.0598h-0.90149c-0.68352 0-0.99234-0.091-1.2772-0.3757-0.36762-0.3676-0.38955-0.369-1.0165-0.063-0.74391 0.3634-3.0097 0.5145-3.846 0.2564zm2.7511-2.3749c1.3455-0.6958 1.78-1.9443 1.78-5.1142 0-2.1925-0.01816-2.2348-1.222-2.8452-1.2993-0.6588-2.7011 0.042-3.3268 1.6633-0.41495 1.0751-0.40166 3.6944 0.02383 4.6963 0.4612 1.0861 1.2509 1.8102 2.0147 1.8474 0.12636 0.01 0.45497-0.1053 0.73024-0.2476z"/>
  <path id="path5077" fill="#047bac" d="m102.88 1044.5c-1.1616-0.3581-2.182-1.3164-2.8531-2.6797-0.57006-1.1579-0.57526-1.192-0.57275-3.7491 0.0022-2.2784 0.05052-2.7022 0.41244-3.6201 0.45396-1.1513 1.3008-2.1897 2.2846-2.8013 0.54773-0.3405 0.88952-0.4015 2.2503-0.4016 1.4753-0.0001 1.6737 0.043 2.4652 0.5318 1.0911 0.6742 1.6802 1.7538 1.8034 3.3049 0.22261 2.8027-1.1584 4.3555-4.0169 4.5166-0.7292 0.041-1.6639 0-2.0771-0.099-0.69375-0.1603-0.75131-0.1462-0.75131 0.1845 0 0.5063 0.63708 1.4749 1.2634 1.9209 1.2213 0.8697 2.6057 0.7669 3.8672-0.2871 1.1777-0.9839 1.7637-0.7675 1.7637 0.6514 0 1.2047-0.69974 1.9664-2.2449 2.4437-1.3253 0.4093-2.4533 0.4357-3.5942 0.084zm2.9964-7.816c0.20818-0.1702 0.42594-0.6056 0.4839-0.9676 0.0936-0.5844 0.0354-0.7282-0.51803-1.2817-1.2294-1.2294-2.9171-0.6753-3.857 1.2664-0.381 0.7871-0.38317 0.8214-0.0666 1.0529 0.5185 0.3792 3.4722 0.3269 3.9578-0.07z"/>
  <path id="path5079" fill="#047bac" d="m110.44 1044.3c-0.34642-0.3464-0.48272-3.6282-0.48272-11.622v-6.5128h1.0662c0.69875 0 1.0897 0.076 1.1344 0.221 0.0375 0.1215 0.11139 4.2581 0.16421 9.1924l0.096 8.9714h-0.86424c-0.50862 0-0.96696-0.1027-1.1139-0.2496z"/>
  <path id="path5081" fill="#047bac" d="m123.27 1044.4c-0.51014-0.2467-1.2797-2.0075-2.2662-5.1851-0.92688-2.9854-1.855-6.5384-1.857-7.1085-0.002-0.5781 0.73589-0.999 1.5-0.8556 0.79054 0.1483 1.0104 0.5687 1.5919 3.0439 0.24777 1.0547 0.78233 3.1006 1.1879 4.5463l0.7374 2.6285 0.24083-0.684c0.13246-0.3762 0.71377-2.4739 1.2918-4.6615s1.1979-4.1763 1.3774-4.4194c0.61061-0.8266 2.1476-0.6026 2.1476 0.313 0 0.9178-1.9522 7.9868-2.8492 10.317-0.67008 1.7409-1.1566 2.2783-2.0479 2.2624-0.36924-0.01-0.84382-0.095-1.0546-0.1973z"/>
  <path id="path5083" fill="#047bac" d="m131.43 1044.4c-0.96137-0.4518-1.61-1.2671-1.9566-2.4596-0.51793-1.7816 0.0214-3.984 1.1916-4.8659 1.1851-0.8931 3.2592-1.2662 4.716-0.8484 0.72133 0.2069 0.84379-0.012 0.57164-1.0229-0.26188-0.9726-0.89645-1.4423-1.9485-1.4423-0.67122 0-1.0447 0.1371-1.9267 0.7071-1.1827 0.7645-1.619 0.8601-1.9738 0.4326-0.33299-0.4013-0.28062-1.6888 0.0918-2.2572 0.17584-0.2684 0.68628-0.7034 1.1343-0.9668 0.73729-0.4335 0.97401-0.4777 2.494-0.4662 1.9595 0.015 2.7404 0.2824 3.4184 1.1713 0.96153 1.2606 1.0574 1.7294 1.1684 5.7108 0.0957 3.4348 0.13303 3.7608 0.49839 4.3519 0.48855 0.7905 0.49298 1.0437 0.0285 1.6341-0.49465 0.6289-1.515 0.6448-2.2397 0.035l-0.5119-0.4308-0.91066 0.4507c-1.2356 0.6115-2.87 0.7248-3.8452 0.2665zm2.8738-2.4488c1.2933-0.6137 2.1474-2.6037 1.3099-3.0519-0.58979-0.3156-1.6979-0.4038-2.4683-0.1963-1.6004 0.4309-1.9422 2.5191-0.53958 3.2965 0.56707 0.3143 0.95709 0.3032 1.6979-0.048z"/>
  <path id="path5085" fill="#047bac" d="m140.48 1044.4c-0.0648-0.065-0.11786-4.2014-0.11786-9.1924v-9.0746h0.83969c1.4787 0 1.3636-0.7524 1.4232 9.3599l0.0532 9.0222h-1.0402c-0.57209 0-1.0932-0.053-1.158-0.1178z"/>
  <path id="path5087" fill="#047bac" d="m144.96 1044.4c-0.22899-0.1447-0.27184-1.3986-0.31405-9.1897l-0.0489-9.0222h1.1537 1.1537v9.1924 9.1924h-0.83969c-0.46183 0-0.95901-0.078-1.1048-0.1702z"/>
  <path id="path5089" fill="#047bac" d="m152.21 1044.6c-3.025-0.9979-4.5243-4.6808-3.6278-8.9114 0.66108-3.1198 2.5893-4.7443 5.3277-4.4886 1.1588 0.1082 2.2378 0.5475 2.7581 1.1229 1.0563 1.168 1.3968 3.7693 0.68577 5.2382-0.70539 1.4571-2.3154 2.1689-4.5742 2.0224-0.75013-0.049-1.5031-0.1468-1.6732-0.218-0.48142-0.2017-0.39057 0.418 0.19713 1.3447 0.59941 0.9452 1.4278 1.3919 2.5812 1.3919 0.91867 0 1.3261-0.1702 2.1775-0.9098 1.0429-0.9059 1.629-0.5948 1.629 0.8648 0 1.1202-0.38591 1.6106-1.7205 2.1863-0.91586 0.3951-3.0349 0.5961-3.7607 0.3566zm2.5284-7.8258c0.53741-0.2829 0.64893-0.4938 0.65206-1.2332 0.007-1.7006-2.1407-2.4238-3.4961-1.1771-0.51464 0.4734-1.321 2.1052-1.1331 2.2931 0.4748 0.4748 3.1482 0.5536 3.9772 0.1172z"/>
  <path id="path5396-3" d="m69.853 1019.9c-22.658-2.9771-37.235-23.119-29.951-41.384 4.1867-10.497 13.504-17.972 25.851-20.737 4.8655-1.0899 14.719-1.09 19.585-0.00007 12.554 2.8122 22.609 11.266 26.491 22.272 1.4262 4.0435 1.4707 12.308 0.0898 16.676-2.5313 8.006-10.248 16.299-18.404 19.777-7.2337 3.0852-16.216 4.3743-23.661 3.3959zm12.189-4.8089c16.064-2.8194 28.122-16.443 26.245-29.651-1.8183-12.793-12.652-22.341-27.725-24.436-9.4037-1.3071-19.371 1.4995-26.959 7.5912-11.807 9.4787-13.426 24.825-3.783 35.85 7.5401 8.6205 20.105 12.772 32.222 10.645zm-25.178-17.32c-0.94289-1.2112-1.089-3.2543-0.92721-12.962 0.18363-11.015 0.25443-11.531 1.6042-11.676 2.4417-0.26277 3.7736 0.81139 3.86 4.1294 0.07807 2.9986 0.43282 3.564 1.7886 2.9419 0.7138-0.32755 2.9388-0.23036 4.8048-0.25303 2.888-0.0351 3.7188 0.23333 5.5857 1.8046 2.1179 1.7826 2.2044 2.0595 2.5226 8.0814 0.4018 7.6037 0.002 9.2981-2.1943 9.2981-2.7977 0-3.3051-1.0732-3.3051-6.9919 0-6.8014-0.55452-7.8678-4.0848-7.8556-4.4564 0.0155-4.7023 0.39386-5.0942 7.8414-0.33365 6.3403-0.43786 6.719-1.8971 6.8938-1.0123 0.1213-1.9295-0.3101-2.6634-1.2527zm28.723 0.62208c-1.3403-1.3779-8.011-16.63-7.6346-17.455 0.58536-1.2838 3.7399-0.97173 4.9567 0.49044 0.59899 0.71976 1.7395 2.9537 2.5345 4.9644 2.5485 6.4455 2.9415 6.5008 5.61 0.78866 2.0516-4.3916 4.1776-7.0808 5.5757-7.0526 0.24823 0.005 0.90543 0.25097 1.4604 0.54658 0.83569 0.44512 0.36409 1.9499-2.7443 8.7563-2.0644 4.5204-4.0666 8.5531-4.4494 8.9616-0.38281 0.4085-1.5714 0.7428-2.6413 0.7428s-2.2704-0.3343-2.6678-0.7428z" fill-rule="evenodd" fill="url(#linearGradient6985)"/>
  <path id="path5396-3-1" d="m69.864 1019.5c-22.658-2.9-37.236-23.09-29.951-41.35 4.1867-10.497 13.504-17.972 25.851-20.737 4.8655-1.0899 14.719-1.09 19.585-0.00007 12.554 2.8122 22.609 11.266 26.491 22.272 1.4262 4.0435 1.4707 12.308 0.0898 16.676-2.5313 8.006-10.248 16.299-18.404 19.777-7.2337 3.0852-16.216 4.3743-23.661 3.3959zm12.189-4.8089c16.064-2.8194 28.122-16.443 26.245-29.651-1.8183-12.793-12.652-22.341-27.725-24.436-9.4037-1.3071-19.371 1.4995-26.959 7.5912-11.807 9.4787-13.426 24.825-3.783 35.85 7.5401 8.6205 20.105 12.772 32.222 10.645zm-25.179-17.32c-0.94289-1.2112-1.089-3.2543-0.92721-12.962 0.18363-11.015 0.25443-11.531 1.6042-11.676 2.4417-0.26277 3.7192 0.81325 3.86 4.1294 0.14057 3.3111-0.0672 3.814 1.7886 2.9419 0.71079-0.33404 2.9388-0.23036 4.8048-0.25303 2.888-0.0351 3.7188 0.23333 5.5857 1.8046 2.1179 1.7825 2.2044 2.0594 2.5226 8.0814 0.4018 7.6037 0.002 9.2981-2.1943 9.2981-2.7977 0-3.3051-1.0732-3.3051-6.9919 0-6.8014-0.55452-7.8678-4.0848-7.8555-4.4564 0.015-4.7023 0.3938-5.0942 7.8414-0.33365 6.3403-0.43786 6.719-1.8971 6.8938-1.0123 0.1213-1.9295-0.3101-2.6634-1.2527zm28.723 0.6221c-1.3403-1.3779-8.011-16.63-7.6346-17.455 0.58536-1.2838 3.7399-0.97173 4.9567 0.49044 0.59899 0.71976 1.7395 2.9537 2.5345 4.9644 2.5485 6.4455 2.9415 6.5007 5.61 0.7886 2.0516-4.3916 4.1776-7.0808 5.5757-7.0526 0.24823 0.005 0.90543 0.25097 1.4604 0.54658 0.83569 0.44512 0.36409 1.9499-2.7443 8.7563-2.0644 4.5203-4.0666 8.5531-4.4494 8.9616-0.38281 0.4085-1.5714 0.7428-2.6413 0.7428s-2.2704-0.3343-2.6678-0.7428z" fill-rule="evenodd" fill="url(#linearGradient7137)"/>
 </g>
</svg>
