<?xml version="1.0" encoding="UTF-8" standalone="no"?>
<!-- Created with Inkscape (http://www.inkscape.org/) -->
<svg id="svg2" xmlns:rdf="http://www.w3.org/1999/02/22-rdf-syntax-ns#" xmlns="http://www.w3.org/2000/svg" height="100" width="165" version="1.1" xmlns:cc="http://creativecommons.org/ns#" xmlns:dc="http://purl.org/dc/elements/1.1/" viewBox="0 0 165 100">
 <metadata id="metadata7">
  <rdf:RDF>
   <cc:Work rdf:about="">
    <dc:format>image/svg+xml</dc:format>
    <dc:type rdf:resource="http://purl.org/dc/dcmitype/StillImage"/>
    <dc:title/>
   </cc:Work>
  </rdf:RDF>
 </metadata>
 <g id="layer1" transform="translate(0 -952.36)">
  <path id="path7773" d="m3.8256 1007.9c-0.66084-1.0692 2.1113-1.9619 9.2339-2.9736 2.0023-0.2844 2.9419-0.7273 3.865-1.8218 0.36999-0.4387 2.2687-4.0403 4.2193-8.0036 3.1653-6.4313 7.3394-14.127 12.543-23.126 0.96205-1.6637 1.7492-3.3238 1.7492-3.689 0-1.022-1.564-1.819-4.4193-2.252-2.7936-0.42367-3.7134-0.96321-3.3329-1.9549 0.35387-0.92218 2.3245-1.1524 8.0088-0.93544 5.0927 0.19433 6.0841 0.40319 5.042 1.0622-0.3897 0.24645-0.0099 0.35458 1.2596 0.35864 1.8024 0.006 7.3091 0.99667 8.0363 1.4461 0.58641 0.36242-1.2711 0.75533-3.7856 0.80074-1.2516 0.0226-3.1422 0.14525-4.2015 0.27254l-1.9259 0.23144-2.6832 4.2216c-4.0403 6.3566-6.6195 10.955-11.325 20.191-5.7029 11.193-5.8568 12.174-2.233 14.219 1.1432 0.6451 2.0785 1.2968 2.0785 1.4483 0 0.1514-3.968 0.2631-8.8178 0.2482-4.8498-0.015-9.7785 0.118-10.953 0.2954-1.3124 0.1982-2.2209 0.1832-2.3582-0.039z" stroke="#464646" stroke-width="2" fill="#464646"/>
  <path id="path7775" d="m52.276 1007.2c-0.36439-1.4518 0.68873-5.059 3.3949-11.628 2.8004-6.7982 3.1604-8.07 2.5071-8.8571-2.3693-2.8549-14.33 6.0176-19.563 14.513-3.2633 5.2968-4.3557 6.3641-4.9442 4.8304-0.43607-1.1364 2.7072-9.16 7.4617-19.047 2.7978-5.8181 4.0178-7.811 4.5721-7.4684 0.61611 0.38077 0.37986 1.6838-0.78752 4.3436-2.5377 5.782-0.47651 7.7933 3.9757 3.8794 1.8331-1.6114 8.4106-5.4442 10.512-6.1257 2.0316-0.65872 3.7164 0.46761 3.7164 2.4846 0 0.3671-1.3429 4.005-2.9842 8.0842s-3.3719 8.6114-3.8456 10.072c-1.3335 4.1099-2.2557 5.8785-3.0654 5.8785-0.44249 0-0.80003-0.3605-0.94999-0.9581z" stroke="#464646" stroke-width="2" fill="#464646"/>
  <path id="path7777" d="m69.811 1007.2c-1.782-0.6352-3.4781-2.1891-4.4483-4.0752-2.1087-4.0996 0.36984-11.666 5.5123-16.828 4.4145-4.431 11.352-6.7766 13.959-4.7196 1.9803 1.5622 0.9489 4.8721-2.0544 6.5928-1.343 0.76942-1.4167 0.7733-2.1466 0.11273-0.41574-0.37624-0.85917-1.0956-0.9854-1.5985-0.35396-1.4103-1.8417-1.5864-3.5956-0.42575-1.9816 1.3114-3.8622 3.6885-5.5554 7.0222-2.7234 5.3621-2.1133 10.052 1.5374 11.82 3.9874 1.9303 13.201 0.042 14.79-3.0318 0.32085-0.6204 1.3299-3.1581 2.2424-5.6393 2.0445-5.5594 3.4733-7.8233 7.1106-11.266 2.9834-2.8241 5.9882-4.7592 8.4068-5.4139 2.112-0.57167 2.5331-0.27407 2.5234 1.7832-0.0167 3.5375-2.2585 6.8563-9.9529 14.734-4.4684 4.5751-5.2443 5.5426-5.1411 6.4099 0.16074 1.3509 1.6908 2.436 3.7574 2.6649 4.0268 0.446 4.4096 0.9411 1.4154 1.8303-2.8966 0.8602-3.8981 0.7371-6.051-0.7438-1.0613-0.7301-2.2946-1.3253-2.7405-1.3226-0.44593 0-2.0941 0.4148-3.6627 0.9158-5.2041 1.6624-12.048 2.2029-14.921 1.1786zm25.761-12.671c1.4091-0.8593 4.2396-4.1533 5.6095-6.528 1.8246-3.1631 0.99761-5.3188-1.5374-4.0076-1.5079 0.78-5.1806 4.733-6.1345 6.6027-0.77829 1.5256-1.0737 3.8707-0.55313 4.3913 0.44254 0.44254 1.4186 0.27148 2.6155-0.45838z" stroke="#464646" stroke-width="2" fill="#464646"/>
  <path id="path7779" d="m104.18 1009c-0.52771-0.098-0.85333-0.4316-0.85333-0.8745 0-0.5627 0.58873-0.8868 2.7496-1.5135 7.3143-2.1213 9.3599-3.0463 11.886-5.3749 2.7739-2.5568 2.3549-3.3739-3.1449-6.1337-3.015-1.5129-5.2336-3.2703-5.5223-4.3742-1.0718-4.0988 11.566-10.243 18.299-8.8959 0.93316 0.18663 1.3582 0.55746 1.7708 1.5449 0.52799 1.2636 0.40005 2.7606-0.23592 2.7606-0.17325 0-1.0578-0.42461-1.9656-0.94358-2.0388-1.1655-3.9534-1.2125-7.2996-0.17893-1.7216 0.53173-2.9797 1.2252-4.0222 2.2168-2.7227 2.5901-1.925 3.9128 4.0542 6.7223 3.8288 1.799 4.3869 2.1846 4.8838 3.3737 0.65904 1.5773 0.46651 2.0608-1.6072 4.0358-4.6236 4.4038-14.662 8.439-18.993 7.6351z" stroke="#464646" stroke-width="2" fill="#464646"/>
  <path id="path7781" d="m145.7 1009.2c0.15891-0.8865 0.28893-3.0625 0.28893-4.8356 0-2.9351-0.0679-3.2332-0.75852-3.3307-0.41719-0.059-1.6972 0.4838-2.8444 1.2061-1.1473 0.7223-3.0629 1.9146-4.257 2.6495-3.8789 2.3875-7.4202 2.9264-8.8497 1.3468-0.49728-0.5495-0.60308-1.2347-0.48264-3.1262 0.2502-3.9294 1.9317-6.8418 6.7319-11.66 5.7152-5.7367 10.687-8.5278 15.982-8.9717l2.5176-0.21107 0.24515 1.2258c0.13483 0.67416 0.69055 1.7551 1.2349 2.402 1.3762 1.6356 1.082 3.2406-1.39 7.5812-1.094 1.9211-3.075 6.2154-4.4022 9.5429-1.3271 3.3275-2.6699 6.4422-2.984 6.9215-0.90878 1.387-1.3559 1.0662-1.0321-0.7404zm-5.8228-7.4604c5.9603-4.1008 10.386-12.199 7.9809-14.604-0.73848-0.73849-0.98044-0.73981-2.7156-0.0148-5.213 2.1781-13.435 12.302-12.394 15.262 0.68384 1.9445 3.7732 1.666 7.1286-0.6425z" stroke="#464646" stroke-width="2" fill="#464646"/>
  <path id="rect7793" d="m64.847 1012.2v32.236h34.893v-32.236h-34.893zm16.521 1.5332a15.739 14.601 0 0 1 15.504 9.5234 15.739 14.601 0 0 1 -9.2051 18.723l-0.4082 0.1367a15.739 14.601 0 0 1 -19.986 -8.9238 15.739 14.601 0 0 1 9.4824 -18.604 15.739 14.601 0 0 1 4.6133 -0.8555zm0.67188 7.5703a7.2059 8.2447 0 0 0 -0.46094 0.01 7.2059 8.2447 0 0 0 -2.1113 0.4824 7.2059 8.2447 0 0 0 -4.6699 8.9903h14.246a7.2059 8.2447 0 0 0 -0.36523 -4.0957 7.2059 8.2447 0 0 0 -6.6387 -5.3848zm-10.74 11.1v0.051l11.004 5.7754 10.992-5.7676v-0.059h-21.996z" fill="#4d4d4d"/>
 </g>
</svg>
