<?xml version="1.0" encoding="UTF-8" standalone="no"?>
<!-- Created with Inkscape (http://www.inkscape.org/) -->
<svg id="svg2" xmlns:rdf="http://www.w3.org/1999/02/22-rdf-syntax-ns#" xmlns="http://www.w3.org/2000/svg" height="100" viewBox="0 0 165 100" width="165" version="1.1" xmlns:cc="http://creativecommons.org/ns#" xmlns:dc="http://purl.org/dc/elements/1.1/">
 <metadata id="metadata7">
  <rdf:RDF>
   <cc:Work rdf:about="">
    <dc:format>image/svg+xml</dc:format>
    <dc:type rdf:resource="http://purl.org/dc/dcmitype/StillImage"/>
    <dc:title/>
   </cc:Work>
  </rdf:RDF>
 </metadata>
 <text id="text4233" style="word-spacing:0px;letter-spacing:0px" xml:space="preserve" font-size="60px" y="86.918526" x="77.781746" font-family="sans-serif" line-height="125%" fill="#000000"><tspan id="tspan4235" x="77.781746" y="86.918526"/></text>
 <g id="g4197" transform="matrix(1.0357 0 0 1.2533 -2.9489 -11.784)">
  <path id="path4189" fill="#92b2d4" d="m103.44 64.6c0-0.30915 0.58371-1.8928 1.2971-3.5192 0.71343-1.6264 1.2971-3.0868 1.2971-3.2453 0-0.15851-0.23512-0.545-0.52249-0.85888-0.4585-0.5008-0.50935-0.73392-0.41522-1.9038 0.0633-0.78727 0.35898-1.8552 0.72205-2.6084 0.68091-1.4124 0.75059-1.7129 0.33563-1.4475-0.15354 0.09821-0.34855-0.0086-0.43337-0.23736-0.0991-0.26734 0.12332-0.81584 0.62264-1.5353 0.61892-0.89185 0.92-1.0993 1.481-1.0206 1.1268 0.15818 1.0517 1.2673-0.28481 4.2081-1.1405 2.5095-1.2898 3.0429-0.85142 3.0429 0.48551 0 1.1392-1.0386 2.469-3.9225 1.5936-3.4561 1.7765-3.7287 2.5028-3.7287 0.40537 0 0.56054 0.16467 0.56054 0.59487 0 0.32718-1.6436 4.1819-3.6525 8.566-3.511 7.6624-3.6811 7.9752-4.3903 8.0744-0.58404 0.08173-0.73781-0.01391-0.73781-0.45885zm-35.32-0.991c0-0.28328 0.68183-2.0159 1.5152-3.8502 0.83335-1.8344 1.4665-3.4163 1.4071-3.5154-0.05944-0.09909-0.39547-0.01315-0.74672 0.19096-0.87319 0.50742-1.4965 0.46589-2.2773-0.15172-0.60093-0.47535-0.71606-0.47535-1.2675 0-0.7212 0.6217-1.6499 0.67959-1.9834 0.12365-0.48211-0.80367-0.12031-3.1805 0.64539-4.2399 0.34423-0.47623 0.42279-1.3488 0.12144-1.3488-0.10508 0-0.70898 1.0853-1.342 2.4118-1.3663 2.8631-1.775 3.4731-2.5162 3.7554-0.69161 0.26344-1.4817-0.52939-1.5796-1.585-0.06499-0.70127-0.09625-0.67559-0.4269 0.35067-0.88269 2.7397-3.8961 2.47-3.4601-0.30971 0.12508-0.79731 0.1187-0.79614-1.0527 0.19337-1.4897 1.2584-2.666 1.6077-3.4873 1.0356-1.6343-1.1383-1.4181-4.1463 0.50854-7.0748 0.76101-1.1567 2.4677-2.4367 3.249-2.4367 0.8053 0 1.5176 0.9314 1.5176 1.9844 0 1.1725-1.1354 2.8782-2.6928 4.0454-1.5415 1.1553-1.8399 1.6214-1.0382 1.6214 0.79933 0 2.5918-1.7364 3.7809-3.6628 0.98134-1.5897 1.1475-2.0336 1.1475-3.0662 0-1.0802 0.40074-2.2614 0.7626-2.2478 0.47497 0.01787 0.62384 0.67682 0.5809 2.5711-0.0657 2.898 0.22188 3.2526 1.2698 1.5659 0.44919-0.72298 1.2234-2.2576 1.7206-3.4102 0.8521-1.9757 0.88287-2.1212 0.53755-2.5421-0.31071-0.37873-0.32587-0.52765-0.09993-0.98146 0.1465-0.29424 0.51003-0.53499 0.80786-0.53499 0.37929 0 0.75618-0.39862 1.2581-1.3306 0.39413-0.73186 0.89177-1.3306 1.1059-1.3306 0.52708 0 0.86506 0.72057 0.62936 1.3418-0.41162 1.0849-0.21708 1.3195 1.0942 1.3195 1.3252 0 1.5978 0.22281 1.388 1.1343-0.09858 0.42826-0.45707 0.52901-1.8822 0.52901-2.0391 0-1.8234-0.23668-3.8201 4.1915-1.2941 2.8701-1.8853 4.8499-1.6431 5.503 0.22161 0.59774 0.5098 0.20765 1.6901-2.2877 0.98221-2.0765 1.1967-2.7426 1.1116-3.4519-0.058-0.4834 0.0083-1.1382 0.14728-1.4551 0.41141-0.93789 0.96274-0.48144 1.269 1.0506 0.15261 0.76345 0.49681 1.6277 0.76489 1.9205 0.61576 0.67256 0.61341 1.2412-0.01149 2.7742-0.5741 1.4084-0.6134 1.7348-0.20887 1.7348 0.30062 0 0.51199-0.42352 1.5263-3.0583 1.0137-2.6331 3.3024-4.6675 4.44-3.9466 0.27935 0.17705 0.66129 0.71212 0.84875 1.189 0.31548 0.80261 0.317 0.95045 0.02049 1.987-0.35887 1.2545-1.4718 2.4521-3.0844 3.319-0.98445 0.52924-1.4017 1.1751-0.75909 1.1751 0.50994 0 3.3742-2.6452 4.0629-3.7522 0.3666-0.58927 1.2528-2.3813 1.9692-3.9822 1.2488-2.7904 1.3349-2.9108 2.0809-2.9108 0.9778 0 1.015 0.57003 0.15544 2.3793-0.71243 1.4995-0.65626 1.8412 0.21905 1.3325 1.3308-0.77335 1.5183 0.25224 0.60037 3.2836-0.57758 1.9073-0.52499 2.6241 0.10305 1.4043 0.16485-0.32019 0.63631-1.2418 1.0477-2.048 0.87339-1.7116 2.0099-2.6749 3.1681-2.6852 0.9191-0.0082 1.2103 0.39623 1.3952 1.9372 0.06925 0.57719 0.24939 1.0494 0.4003 1.0494 0.6559 0 0.1852 1.5558-0.69813 2.3076-0.39806 0.33876-1.0692 1.1594-1.4915 1.8237-1.3986 2.2-2.8403 2.9943-3.4848 1.9199-0.21295-0.35498-0.42589-0.83903-0.47321-1.0757-0.06388-0.31948-0.36984-0.1988-1.1883 0.46872-1.2306 1.0036-1.7071 0.90412-1.903-0.39744-0.09592-0.63706 0.04167-1.3863 0.51752-2.8182 0.35649-1.0727 0.60039-2.0301 0.54199-2.1274-0.34026-0.56721-1.7969 1.8873-4.1484 6.9899-1.4488 3.144-2.7308 5.8264-2.8487 5.9608-0.41654 0.47468-1.5116 0.28599-1.5116-0.26045zm-9.9589-8.3389c0.23146-0.46491 0.2168-0.52097-0.1087-0.41583-0.20692 0.06684-0.41361 0.30866-0.45929 0.53736-0.11853 0.59343 0.25144 0.51427 0.56799-0.12153zm23.135-0.87645c0.80697-0.91143 0.88719-1.2508 0.49466-2.0926-0.29579-0.63432-0.32003-0.62087-0.90071 0.49988-0.56666 1.0937-0.79402 2.3412-0.42669 2.3412 0.09353 0 0.46826-0.33682 0.83274-0.74849zm-22.897-1.664c0.23604-0.29408 0.27822-0.56193 0.14408-0.91482-0.16002-0.42098-0.27573-0.35598-0.74009 0.41583-0.50636 0.84159-0.51789 0.91482-0.14408 0.91482 0.22348 0 0.55652-0.18712 0.74009-0.41583zm-4.3196-1.2772c0.69178-0.71271 1.1474-1.7242 0.93568-2.0771-0.16416-0.27365-0.85644 0.35676-1.5133 1.3781-0.94767 1.4734-0.59189 1.904 0.57765 0.69904zm16.635 0.36239c0.24522 0 1.3959-1.6697 1.3959-2.0255 0-0.65277-0.81959-0.25151-1.4898 0.72936-0.73416 1.0745-0.93512 1.847-0.38974 1.4981 0.17361-0.11106 0.39123-0.20192 0.48359-0.20192zm12.561-1.9464c-0.32648-0.18141-0.65863 0.4891-0.48041 0.96982 0.11344 0.30598 0.22376 0.2502 0.42855-0.21667 0.19179-0.43723 0.20758-0.66661 0.05186-0.75314zm-34.587 7.576c-1.2406-1.6268-1.6354-4.6171-0.94432-7.1535 0.75326-2.7647 1.9083-4.1021 5.8895-6.8196 1.7593-1.2008 2.9909-2.9602 3.2039-4.5769 0.43903-3.3321-2.1687-3.8757-6.4517-1.3448-2.4393 1.4414-2.6377 1.4936-2.9518 0.77761-0.14748-0.33621-0.26814-0.80419-0.26814-1.0399 0-0.57117 1.126-1.4945 3.193-2.6183 2.1705-1.1801 5.6524-1.3793 6.744-0.38584 1.4701 1.3379 1.8291 4.065 0.86782 6.5917-1.0183 2.6766-1.5246 3.2187-7.1646 7.6702-1.584 1.2502-2.0057 2.3774-1.648 4.405 0.13193 0.74789 0.47601 1.7769 0.76463 2.2867 0.56871 1.0046 0.49999 1.5839-0.2918 2.4603-0.35493 0.39285-0.47476 0.36074-0.94247-0.25255zm51.691 0.08257c-0.46698-0.86018-0.41021-1.6176 0.16863-2.2499 0.46216-0.50478 0.53565-0.50478 0.9978 0 0.58934 0.64371 0.64149 1.542 0.13396 2.3077-0.47433 0.71557-0.89058 0.69707-1.3004-0.0578zm14.902-0.0364c-1.6747-1.2675-1.9558-3.5405-0.86105-6.9643 1.3918-4.3528 4.9448-8.657 7.3952-8.9585 1.0487-0.12905 1.142-0.07672 1.6464 0.92237 0.29405 0.58255 0.53465 1.4267 0.53465 1.876 0 1.9506-1.2507 4.9877-1.8865 4.581-0.52221-0.33405-0.60885-1.7316-0.15849-2.5565 1.0542-1.9309 0.99877-3.0197-0.15101-2.9652-1.9107 0.09056-6.1856 7.1661-6.1856 10.238 0 1.8916 1.0694 2.6243 2.5382 1.7389 0.52884-0.31877 0.75429-0.31737 1.0655 0.0066 0.63637 0.66249 2.161-0.63116 3.3939-2.8798 1.9315-3.5227 2.1366-3.9436 2.2742-4.6664 0.18733-0.98387 0.98806-1.8101 1.4945-1.5421 0.54598 0.28886 0.51755 0.53882-0.18978 1.6685-0.32928 0.52587-0.59868 1.1768-0.59868 1.4464 0 0.26967-0.50156 1.6011-1.1146 2.9588-0.61301 1.3577-1.0697 2.5433-1.0149 2.6347 0.19381 0.32306 0.9228-0.57777 1.4607-1.805 1.5193-3.4663 2.5506-4.736 3.8472-4.736 0.63263 0 0.87172 0.17344 1.124 0.81536 0.18868 0.48002 0.26712 1.0957 0.19072 1.497-0.15064 0.79116-0.80494 0.91393-0.97329 0.18262-0.20064-0.87157-1.083-0.56086-1.8995 0.66891-0.83825 1.2624-1.3363 2.8424-1.1505 3.6497 0.19209 0.83447 0.68834 0.57875 1.6024-0.82568 0.864-1.3276 1.3813-1.6406 1.625-0.98336 0.0708 0.19101-0.0137 0.70968-0.18778 1.1526-0.41203 1.0482-0.42812 1.7299-0.0278 1.176 0.15882-0.21973 0.49558-0.36469 0.74835-0.32213 0.25276 0.04256 0.7077-0.03726 1.011-0.17736 0.6603-0.30506 1.1449 0.24125 1.1449 1.2907 0 1.5501-0.79003 1.9641-1.5316 0.80274-0.4469-0.69986-0.4711-0.70296-0.86357-0.11089-0.23529 0.35495-0.65254 0.58023-0.99989 0.53984-0.8908-0.10357-1.4145-0.10408-2.2376-0.0022-0.5432 0.06723-0.86915-0.10487-1.2102-0.639-0.57413-0.8991-0.75733-0.90685-1.5837-0.06694-0.7664 0.77893-1.8011 0.8685-2.1412 0.18535-0.20827-0.41832-0.32935-0.40986-0.92639 0.06473-0.6205 0.49325-0.71668 0.49615-0.99629 0.03005-0.2796-0.4661-0.37963-0.45629-1.0361 0.1016-0.92508 0.78619-2.1097 0.77601-3.171-0.02725zm19.806 0.29428c-1.0383-0.43542-1.3128-0.86442-1.3128-2.0522 0-0.68292 0.21071-1.3418 0.67851-2.1216 0.75635-1.2608 0.95616-1.357 1.3163-0.63372 0.19983 0.40139 0.18172 0.66493-0.0939 1.3662-0.25605 0.65143-0.28448 0.96405-0.11358 1.2491 0.31243 0.52121 3.6822 0.4893 4.7392-0.04487 1.1999-0.60635 2.0913-1.941 2.0154-3.0173-0.0638-0.90369-0.49518-1.2843-2.3372-2.0617-0.48492-0.20468-1.1454-0.81424-1.4718-1.3584-0.51689-0.86163-0.57829-1.1591-0.4832-2.3409 0.14518-1.8044 1.0223-3.552 2.3554-4.6928 2.1512-1.841 4.1712-1.4836 4.1712 0.73804 0 1.0975-1.1246 3.7793-1.6564 3.95-0.48027 0.15418-0.64967-0.84748-0.26359-1.5586 0.17795-0.32778 0.32354-0.91814 0.32354-1.3119 0-1.0645-0.84343-1.2917-1.9482-0.52482-1.1236 0.78006-1.7456 2.0696-1.5678 3.2507 0.11035 0.73292 0.36887 0.97352 1.8615 1.7325 1.8451 0.93815 2.8518 2.1571 2.8518 3.4532 0 2.0437-1.4932 4.2743-3.5912 5.3647-1.4934 0.77618-4.3285 1.0945-5.4732 0.61447zm8.3802-0.17228c-0.36774-0.613-0.38768-0.95355-0.10702-1.8277 0.23092-0.71925 0.98337-0.8554 1.35-0.24426 0.36662 0.61114 0.28494 1.8655-0.14653 2.2504-0.52442 0.46786-0.72871 0.43462-1.0964-0.17839zm10.976 0c-0.60276-1.0048-0.25596-2.4712 0.58442-2.4712 0.87661 0 1.2597 1.9825 0.51202 2.6496-0.52442 0.46786-0.72871 0.43462-1.0964-0.17839zm-143-0.463c-1.7982-1.032-2.5923-3.205-2.3359-6.392 0.12504-1.554 0.83654-2.9683 2.0362-4.0474 0.76052-0.6841 1.0077-0.71323 5.2316-0.61666l4.4333 0.10136 1.7031-3.8369c0.93673-2.1103 1.7031-3.9897 1.7031-4.1765 0-0.18673-0.1743-0.33951-0.38734-0.33951-0.58325 0-0.67355-0.55094-0.27476-1.6763 0.39668-1.1194 0.52627-1.1922 2.6078-1.4652 1.1291-0.14807 1.4468-0.0924 1.4468 0.25352 0 0.24379-0.89802 2.4869-1.9956 4.9847s-1.9956 4.6023-1.9956 4.6765c0 0.07427 0.19038 0.21803 0.42307 0.31946l0.42307 0.18443-0.43436 1.1716-0.43436 1.1716 0.98424-0.19432c0.83098-0.16406 1.0503-0.08426 1.4082 0.51244 0.24382 0.40645 0.42397 1.1308 0.42397 1.7047 0 1.2129 0.12911 1.2347 0.99635 0.16812 0.78492-0.96533 1.755-2.8705 3.4238-6.7238 0.73644-1.7005 1.3747-2.8328 1.6653-2.9544 0.55562-0.23246 1.2983 0.09781 1.2983 0.57737 0 0.18533-0.72692 1.9215-1.6154 3.8581-1.928 4.2026-2.08 4.6842-1.2574 3.9861 1.0829-0.91911 1.4365-0.98642 1.6522-0.31453 0.14279 0.44475 0.12094 0.88084-0.07579 1.513-0.37027 1.1897-0.13112 1.1187 0.9191-0.27298 0.48192-0.6386 1.0751-1.1625 1.3182-1.1643 0.49388-0.0036 0.94846 1.1076 0.77009 1.8824-0.26714 1.1605 0.17821 1.0184 1.2133-0.38716 1.6851-2.2882 2.3954-1.8073 1.7582 1.1905-0.19652 0.92455-0.29219 2.3085-0.25806 3.7328 0.05793 2.4169-0.09681 2.8775-0.97022 2.8877-0.5813 0.0068-0.68984-0.36103-0.76637-2.5971-0.03556-1.0388-0.07115-1.931-0.07909-1.9827-0.0079-0.05167-0.49406 0.5097-1.0803 1.2475-1.614 2.0313-1.9653 1.8088-1.7724-1.1225 0.12298-1.869 0.28013-1.9257-1.9033 0.68576-2.1823 2.61-3.0689 2.3791-2.1931-0.57095 0.2802-0.9438 0.39306-1.6429 0.26524-1.6429-0.47925 0-1.7305 1.7538-2.6089 3.6567-0.81145 1.7579-1.0052 1.9985-1.6093 1.9985-0.88819 0-0.90546-0.70393-0.06407-2.6111 0.94553-2.1433 0.52478-2.0585-0.87134 0.17556-0.71288 1.1407-1.5783 2.1787-2.0182 2.4205-0.6893 0.37888-0.8255 0.35477-1.2971-0.22968-1.1145-1.381-0.54556-5.2998 1.1254-7.7517 0.87819-1.2886 0.88616-1.3181 0.35596-1.3181-0.59157 0-1.1158 0.78649-2.4075 3.6121-1.3105 2.8667-3.2171 5.0409-5.1886 5.9166-1.3577 0.60309-2.3895 0.54699-3.6919-0.20076zm3.2066-2.2051c0.59615-0.29059 1.5016-0.97039 2.0122-1.5107 1.1177-1.1828 2.8239-4.1449 2.7121-4.7087-0.12232-0.61719-5.1557-1.0764-6.4616-0.58946-1.1681 0.43549-1.602 1.0835-1.89 2.8225-0.28519 1.7218 0.25576 3.5326 1.2189 4.0801 0.93398 0.53094 1.1436 0.52278 2.4084-0.09375zm8.7517-0.9982c0.68103-0.95526 0.74379-1.377 0.34144-2.2942-0.25591-0.58341-0.31074-0.53347-0.89802 0.81798-1.0056 2.3141-0.67186 3.1994 0.55658 1.4763zm1.8114-3.982c0-0.28524-0.0898-0.42611-0.19956-0.31303s-0.19956 0.34646-0.19956 0.51862c0 0.17217 0.0898 0.31303 0.19956 0.31303s0.19956-0.23338 0.19956-0.51862zm64.857 6.9741c-1.8324-1.3231-2.5274-4.1791-1.9157-7.8725 0.85425-5.1581 4.3772-11.128 8.4351-14.293 1.6651-1.2989 3.9993-1.6667 5.016-0.79022 1.1776 1.0151 1.5319 3.3775 0.93183 6.2127-0.33275 1.5721-0.81672 2.6365-1.1988 2.6365-0.44596 0-0.76023-1.8552-0.51384-3.0333 0.29127-1.3929 0.28192-3.3856-0.0183-3.886-0.40527-0.67558-1.5986-0.44454-2.8537 0.55249-3.5968 2.8572-7.4255 10.128-7.8126 14.836-0.15158 1.8435 0.15726 3.009 0.98682 3.7241 0.5104 0.43998 0.68534 0.43368 1.624-0.0585 1.5269-0.8006 2.8013-2.5704 4.5544-6.3248 1.5781-3.3796 1.941-3.8434 2.453-3.1351 0.49724 0.68792 0.32839 1.4042-0.93794 3.9787-1.2271 2.4947-1.9631 4.2708-1.9645 4.7404-0.0016 0.52827 0.57244 0.20796 1.3844-0.77248 0.86023-1.0388 1.3208-1.0777 1.539-0.13003 0.14261 0.6195-0.74353 2.2943-1.6153 3.0528-1.0947 0.95253-1.7119 1.0992-2.4531 0.58305-0.61396-0.42763-0.83684-0.42619-1.8512 0.01195-1.4558 0.62884-2.891 0.61662-3.7896-0.03225zm57.226 0.0054c-1.9299-1.7306-1.2922-6.6844 1.3873-10.777 1.7786-2.7168 3.732-4.3327 5.2376-4.3327 0.92917 0 1.2147 0.14004 1.5697 0.76993 0.51934 0.92152 0.57659 2.7951 0.12944 4.2365-0.59409 1.9151-1.3804 0.84254-1.0367-1.4142 0.16081-1.0561 0.1402-1.4122-0.10541-1.8216-0.43096-0.7184-1.229-0.34827-2.6973 1.2509-2.8253 3.0774-4.8064 8.6239-3.7245 10.428 0.80455 1.3412 2.5058-0.02796 3.9668-3.1924 1.2393-2.6842 1.4936-3.0379 1.8396-2.5591 0.42743 0.59134 0.31967 1.1131-0.6322 3.061-1.1534 2.3603-1.2243 3.1375-0.18229 1.9994 0.61444-0.67112 1.1167-0.14948 0.76105 0.7904-0.58514 1.5464-1.174 1.8656-3.6161 1.9604-1.7734 0.06882-2.4849-0.02909-2.897-0.39866zm-105.09-0.475c0.10929-1.1441 8.333-18.609 8.8678-18.833 0.59831-0.25032 1.0742 0.04265 1.0742 0.66131 0 0.262-1.8903 4.6079-4.2008 9.6576l-4.2008 9.1813h-0.80213c-0.69118 0-0.79331-0.09234-0.73836-0.66758z"/>
  <path id="path4187" fill="#6391c3" d="m103.65 64.49c0-0.16432 0.62861-1.7203 1.3969-3.4577 0.76831-1.7374 1.3969-3.3082 1.3969-3.4908 0-0.18253-0.22314-0.42524-0.49586-0.53934-0.53808-0.22512-0.82176-1.3703-0.61217-2.4711 0.069-0.36216 0.4354-1.3086 0.81432-2.1031 0.76631-1.6069 0.86611-2.2711 0.3436-2.2868-0.57234-0.01723 0.67912-1.6528 1.2646-1.6528 1.0197 0 0.83244 1.2343-0.64803 4.2719-0.98533 2.0217-1.1186 3.0466-0.39611 3.0466 0.51662 0 1.7671-2.0689 3.3714-5.5782 0.90282-1.9748 1.5371-2.5739 1.8453-1.7427 0.11111 0.29968-6.6676 15.473-7.1696 16.048-0.30177 0.34579-1.1113 0.31361-1.1113-0.04418zm-35.203-0.975c-0.0563-0.15186 0.66727-1.9798 1.6079-4.0622 0.94066-2.0824 1.6159-3.8386 1.5005-3.9027-0.11541-0.06413-0.62291 0.11718-1.1278 0.40292-1.1593 0.65613-1.5224 0.65167-2.379-0.0292-0.64139-0.50985-0.73942-0.50985-1.384 0-1.8941 1.4983-2.5352-0.54173-1.109-3.5292 0.32828-0.68764 0.54184-1.3987 0.47458-1.5801-0.31403-0.84701-0.91264-0.18811-1.9832 2.183-1.1039 2.445-2.0766 3.8039-2.7244 3.8065-0.52745 0.0021-0.97884-1.1344-0.97884-2.4645 0-1.5605-0.40704-1.4613-0.65567 0.15971-0.29952 1.9529-0.8715 2.684-2.0111 2.5704-1.2695-0.12651-1.5947-0.83035-1.0004-2.1652 0.22694-0.50974 0.76325-1.122 1.1918-1.3606 0.42855-0.23857 0.8515-0.55374 0.9399-0.70037 0.21356-0.35427-0.04642-2.0261-0.31508-2.0261-0.11598 0-0.75912 0.87759-1.4292 1.9502-1.6688 2.6712-3.1542 3.8446-4.776 3.7727-0.7238-0.03211-1.5231-1.2611-1.5231-2.3419 0-3.6464 4.4284-8.3615 5.6828-6.0508 0.30949 0.57008 0.32328 0.79091 0.10435 1.6719-0.31517 1.2684-1.0842 2.1927-2.7733 3.3332-1.4485 0.97812-1.7158 1.7591-0.65987 1.9283 0.96246 0.1542 2.2975-1.0646 3.8634-3.5271 1.217-1.9138 1.3658-2.284 1.3658-3.3975 0-1.3627 0.35306-2.1224 0.78135-1.6811 0.19107 0.19685 0.22922 0.63128 0.1316 1.4987-0.17939 1.594 0.19196 3.5087 0.68051 3.5087 0.40951 0 1.9052-2.6356 2.9237-5.1518 0.71368-1.7632 0.81552-2.3639 0.43654-2.5745-0.40926-0.22741 0.03652-0.92291 0.59153-0.92291 0.36698 0 0.76013-0.41485 1.2641-1.3338 0.50455-0.92012 0.83442-1.2679 1.0635-1.1214 0.21215 0.13571 0.28392 0.40722 0.1987 0.75168-0.34142 1.3799-0.23364 1.5319 1.2081 1.7035 0.76831 0.09148 1.3969 0.31603 1.3969 0.49899 0 0.18658-0.82834 0.4057-1.8864 0.49899l-1.8864 0.16633-1.4808 3.1603c-1.6243 3.4665-2.3215 5.6488-2.1285 6.6622 0.25393 1.3337 0.84515 0.6829 2.3589-2.5964 0.6485-1.4049 0.92212-2.3269 0.96798-3.2617 0.07775-1.585 0.54241-1.7579 0.82015-0.30518 0.10494 0.54889 0.46945 1.4891 0.81002 2.0893 0.52312 0.92192 0.58107 1.1801 0.37339 1.6633-0.47901 1.1146-0.91183 2.7289-0.78732 2.9364 0.35671 0.59463 1.142-0.31276 1.7019-1.9665 1.3508-3.99 4.062-6.1672 5.2382-4.2065 0.84426 1.4074 0.0054 3.1353-2.3096 4.7579-0.95089 0.66645-1.618 1.3363-1.6565 1.6634-0.10799 0.91654 0.80844 0.65436 2.293-0.65599 2.0613-1.8195 2.352-2.2454 4.0831-5.9834 1.3856-2.9919 1.6801-3.4582 2.185-3.4582 0.32091 0 0.58348 0.12817 0.58348 0.28482s-0.31431 0.97101-0.69846 1.8097c-0.8186 1.7871-0.89196 2.4017-0.24945 2.0896 0.24696-0.11994 0.74087-0.30669 1.0976-0.41499 0.86791-0.2635 0.85718 0.36868-0.05225 3.0796-1.0837 3.2304-0.19454 3.3034 1.2162 0.09982 0.81901-1.8599 2.2825-3.2801 3.386-3.286 0.78318-0.0042 1.0876 0.52564 1.0876 1.8929 0 0.87601 0.08063 1.0978 0.39912 1.0978 0.21952 0 0.39912 0.1265 0.39912 0.2811 0 0.40555-0.68693 1.3822-0.97217 1.3822-0.13326 0-0.665 0.64788-1.1816 1.4397-1.3776 2.1114-1.8412 2.5522-2.6843 2.5522-0.615 0-0.80103-0.157-0.98543-0.83165-0.27398-1.0024-0.66295-1.0467-1.4604-0.16633-0.73922 0.81609-1.6614 0.8711-1.8367 0.10956-0.07605-0.33036 0.14906-1.4346 0.55505-2.7227 0.89169-2.8291 0.87184-2.7097 0.45017-2.7077-0.88702 0.0041-1.9277 1.6941-4.5568 7.4-2.1745 4.7193-2.8158 5.9047-3.1944 5.9047-0.26055 0-0.51979-0.12425-0.57609-0.2761zm-10.285-7.719c0.41879-0.37362 0.51118-1.1507 0.17766-1.4943-0.2826-0.29115-1.1886 0.73585-1.1886 1.3474 0 0.57214 0.45946 0.63893 1.0109 0.14696zm23.428-1.354c0.78985-1.156 0.84138-1.4899 0.39426-2.554-0.38855-0.92472-0.86231-0.58779-1.4671 1.0434-0.90926 2.4525-0.22704 3.4131 1.0728 1.5106zm-27.769-2.3348c0.64638-0.55357 1.5335-2.0154 1.5335-2.527 0-0.78968-0.56933-0.84348-1.2714-0.12014-0.6743 0.6947-1.3229 2.0067-1.3229 2.6761 0 0.45257 0.51498 0.43852 1.0608-0.02894zm17.293-0.28756c0.71632-0.60918 1.4022-1.7866 1.4022-2.4071 0-0.48847-1.0979-0.25391-1.6495 0.3524-0.9925 1.091-1.4933 2.7156-0.83706 2.7156 0.16901 0 0.65698-0.29739 1.0844-0.66087zm12.417-1.177c0.1747-0.63916 0.17315-0.93509-0.0065-1.2345-0.31691-0.52828-1.1386 0.79126-0.96429 1.5485 0.18427 0.8005 0.7129 0.62953 0.97079-0.31398zm17.029 6.6236c-0.37073-0.61799-0.32423-1.0941 0.1562-1.5992 0.3561-0.37444 0.94301 0.0094 1.0827 0.70817 0.0768 0.38407-0.46819 1.4287-0.74538 1.4287-0.0941 0-0.31618-0.24192-0.49355-0.5376zm15.143 0.1977c-0.33916-0.17428-0.85553-0.6859-1.1475-1.1369-1.7004-2.627 0.93181-9.8745 4.7197-12.995 2.803-2.3093 4.4281-1.8522 4.4281 1.2453 0 1.0966-0.14173 1.7788-0.55895 2.6907-1.0509 2.2967-1.729 1.0762-0.71273-1.2827 0.69094-1.6038 0.66042-2.2821-0.12973-2.8822-0.4401-0.33426-0.67113-0.26285-1.5961 0.49338-1.2855 1.051-3.8093 4.9454-4.6937 7.2429-1.228 3.1901-0.67138 5.5835 1.2034 5.1744 1.6993-0.37085 1.8577-0.37105 1.935-0.0024 0.22858 1.0905-2.1787 2.1049-3.4476 1.4529zm15.009-0.16734c-0.40687-0.67824-0.1002-1.8214 0.48863-1.8214 0.47652 0 0.72615 0.88431 0.45323 1.6056-0.28611 0.7561-0.57768 0.82291-0.94186 0.21583zm4.7333 0.19757c-1.5254-0.41566-1.8466-1.5427-0.94744-3.3241 0.62409-1.2364 1.1937-1.3945 0.99056-0.27502-0.0747 0.41167-0.15253 0.96428-0.17294 1.228-0.0621 0.80248 0.88548 1.34 2.3713 1.3452 2.4635 0.0086 4.7114-1.5872 4.8401-3.4357 0.0935-1.344-0.24246-1.8066-1.893-2.606-1.6591-0.80361-2.4619-1.8152-2.4619-3.1022 0-2.6197 2.0757-5.5068 4.3151-6.002 0.79933-0.17676 1.0683-0.09824 1.456 0.42501 0.59762 0.80669 0.47275 1.9063-0.40591 3.5745-0.6754 1.2823-1.1915 1.2733-0.68632-0.01192 1.1584-2.9472-1.1845-3.8765-2.9029-1.1514-1.4301 2.2678-0.93196 3.5771 1.8324 4.8157 1.3048 0.58464 2.179 1.7846 2.179 2.9912 0 0.49972-0.2852 1.3728-0.6961 2.131-1.4649 2.7029-4.8956 4.194-7.8178 3.3978zm8.2645-0.04963c-0.69577-0.67554-0.14831-2.2246 0.639-1.8081 0.45258 0.23945 0.53977 1.1505 0.16922 1.7682-0.28595 0.47667-0.35485 0.48007-0.80822 0.03989zm10.85-0.122c-0.53895-1.0825 0.35297-2.385 0.95079-1.3884 0.25415 0.42366 0.28018 0.6836 0.11281 1.1266-0.29139 0.77133-0.75331 0.88501-1.0636 0.26176zm-142.76-0.325c-1.6004-0.71749-2.5386-2.7338-2.5386-5.4556 0-1.762 0.67782-3.3249 1.8929-4.3648 0.98994-0.84716 1.0161-0.85085 5.2883-0.7459 3.3339 0.0819 4.3634 0.0076 4.6063-0.33266 0.48064-0.67311 3.5786-7.7796 3.5786-8.2091 0-0.20859-0.22451-0.37926-0.4989-0.37926-0.58845 0-0.64748-0.63378-0.14967-1.6071 0.2797-0.54688 0.62733-0.70137 1.7462-0.77605 0.78468-0.05238 1.4207 0.04848 1.4512 0.23013 0.02987 0.17785-0.8457 2.3687-1.9457 4.8684-1.1 2.4998-2 4.7078-2 4.9068 0 0.19892 0.19056 0.36168 0.42346 0.36168 0.76148 0-0.04834 1.4384-1.0847 1.9267-0.77351 0.36443-1.0467 0.74416-1.7981 2.4996-1.6317 3.8118-3.455 6.0957-5.6148 7.0332-1.4071 0.61078-2.0724 0.61947-3.3563 0.04384zm3.9126-2.2922c1.9827-1.5249 4.517-5.6976 3.992-6.5728-0.11248-0.1875-1.7017-0.36191-3.6743-0.40325-4.0142-0.08413-4.5073 0.16386-5.0814 2.5557-1.0425 4.3431 1.6345 6.827 4.7637 4.4204zm32.846 2.0161c-1.0248-1.7823-1.2346-4.1598-0.56944-6.4504 0.57109-1.9666 1.5836-3.3406 3.5751-4.8517 0.9348-0.70931 2.2239-1.6901 2.8646-2.1795 1.2668-0.9676 2.4377-2.8591 2.6523-4.2843 0.1653-1.0979-0.24087-2.4255-0.92967-3.0388-1.0036-0.89359-4.2873 0.10926-7.5266 2.2986-0.56492 0.38182-0.69045 0.36685-0.98066-0.11691-0.48645-0.8109-0.11629-1.3692 1.5896-2.3975 3.9164-2.3609 7.1181-2.4527 8.3894-0.24065 1.1309 1.9678 0.83235 4.6-0.82146 7.2415-0.85865 1.3715-1.6073 2.0674-5.245 4.8758-2.0169 1.5571-2.786 2.7193-2.7785 4.1988 0.0054 1.0727 0.61642 3.3737 1.0574 3.982 0.24723 0.34104 0.27751 0.6042 0.12438 1.0811-0.27183 0.84669-0.87594 0.79578-1.4014-0.1181zm70.984 0.2355c-0.086-0.37367 0.13846-0.69631 0.82656-1.188 1.3236-0.94576 2.1096-2.0238 3.2698-4.4848 0.60821-1.2901 1.1548-2.1307 1.3854-2.1307 0.59255 0 0.46587 0.54472-0.71667 3.0817-1.1659 2.5014-1.3298 3.2388-0.71957 3.2388 0.44659 0 1.2966-1.3365 2.0791-3.269 0.78999-1.9511 1.7722-3.1031 2.8124-3.2985 0.78292-0.1471 0.91394-0.06976 1.2258 0.72351 0.47646 1.2122 0.10794 1.8816-0.48849 0.88732-0.53379-0.88981-0.56361-0.88512-1.6459 0.25905-1.3915 1.471-2.1477 3.9292-1.5271 4.9637 0.42346 0.70591 0.94594 0.43126 1.8644-0.98009 0.98573-1.5146 1.3752-1.4694 0.83584 0.09707-0.5771 1.6762-0.43675 1.8997 0.70221 1.118 0.24411-0.16753 0.34922-0.08467 0.34922 0.27529 0 0.84464-0.405 1.0353-2.347 1.1046-1.7072 0.06095-1.893 0.0029-2.4377-0.76103l-0.5896-0.82701-0.75171 0.8515c-0.86867 0.98398-1.4697 1.0713-2.1628 0.31425-0.4528-0.49456-0.53097-0.49456-0.98376 0-0.61419 0.67084-0.83036 0.67619-0.98043 0.02426zm-98.293-0.457c-1.1125-1.8546 0.22942-6.5186 2.4088-8.372 1.4695-1.2497 2.5629-0.49717 2.5629 1.764 0 1.0431 0.18371 1.1298 0.95782 0.45239 0.75417-0.65998 1.7542-2.4925 3.4161-6.2599 0.78573-1.7812 1.5983-3.3899 1.8056-3.5749 0.37742-0.33671 1.0046-0.1463 1.0046 0.305 0 0.13194-0.76332 1.938-1.6963 4.0135-1.9281 4.2895-2.0788 4.9447-0.94791 4.1214 1.2467-0.90747 1.6464-0.96377 1.6464-0.23187 0 0.35229-0.13185 0.9311-0.29299 1.2863-0.32379 0.71362-0.39669 1.4774-0.14101 1.4774 0.09057 0 0.68509-0.67364 1.3212-1.497 0.63606-0.82334 1.3253-1.497 1.5316-1.497 0.31153 0 0.37511 0.25372 0.37511 1.497 0 1.8601 0.25822 1.9185 1.4072 0.31836 1.6951-2.3608 2.1437-2.2437 1.6604 0.43354-0.15055 0.83388-0.27372 2.5301-0.27372 3.7695 0 1.9578-0.05211 2.2809-0.39733 2.4636-0.65102 0.34444-0.80003-0.09276-0.80003-2.3473 0-2.5124-0.16212-2.6491-1.3196-1.1132-1.6126 2.1398-1.9395 2.0164-1.644-0.62054 0.09467-0.84476 0.09632-1.6623 0.0037-1.8168-0.09266-0.15446-0.73358 0.41264-1.4243 1.2602-1.576 1.934-2.4302 2.8061-2.7501 2.8077-0.39098 0.002-0.29006-1.0306 0.25652-2.6245 0.27564-0.80381 0.45834-1.5329 0.40601-1.6201-0.32666-0.54453-1.4004 0.63109-2.8379 3.1073-0.89465 1.541-1.7649 2.8018-1.9339 2.8018-0.59728 0-0.5506-0.6967 0.15387-2.2965 0.39194-0.89005 0.71262-1.7776 0.71262-1.9722 0-0.72736-1.1986 0.35006-1.8018 1.6196-0.66253 1.3944-1.5881 2.4716-2.4215 2.8183-0.39374 0.16378-0.63943 0.04117-0.94791-0.47306zm2.3532-2.2768c0.59916-0.83382 0.6464-1.0306 0.51904-2.1623-0.07723-0.68622-0.25751-1.245-0.40169-1.245-0.35121 0-1.6896 2.6386-1.6896 3.331 0 1.2931 0.67432 1.3258 1.5722 0.07624zm1.9052-3.9619c0.07022-0.30504 0.04096-0.69916-0.06501-0.87582-0.29386-0.48986-0.8182-0.0062-0.8182 0.75468 0 0.83439 0.69701 0.93 0.88321 0.12114zm64.954 6.5573c-1.5407-0.77831-2.2456-2.5027-2.2499-5.5038-0.007-4.849 3.1262-11.392 7.3087-15.262 2.6046-2.4102 5.405-2.9034 6.4639-1.1382 0.77433 1.2908 0.84846 3.3742 0.20362 5.7222-0.28137 1.0245-0.60828 1.8627-0.72646 1.8627-0.42359 0-0.67051-1.5389-0.43082-2.685 0.34224-1.6366 0.27991-3.4489-0.14044-4.083-1.9037-2.8719-8.9488 6.0491-10.641 13.475-0.58567 2.5694-0.49765 4.1224 0.30994 5.4687 0.79082 1.3183 1.1137 1.3731 2.6061 0.44224 1.3453-0.83907 2.908-3.1473 4.5189-6.6749 1.3831-3.0288 1.5129-3.1963 1.933-2.496 0.35272 0.58798 0.45052 0.31178-1.9037 5.3764-1.5598 3.3556-1.2903 4.5834 0.55301 2.5197 0.8547-0.95688 1.3927-1.0307 1.3927-0.19104 0 0.44326-1.142 2.0812-1.9326 2.7718-0.54893 0.47955-1.6953 0.49094-2.3114 0.02297-0.35445-0.26922-0.77161-0.22803-1.6846 0.16633-1.2934 0.5587-2.4289 0.63035-3.2685 0.20622zm57.291 0.083c-0.59003-0.35955-1.1933-1.5534-1.3103-2.5929-0.52055-4.6255 4.1867-12.142 7.604-12.142 1.478 0 2.1405 1.9857 1.4364 4.3049-0.37862 1.2471-0.64563 0.7101-0.64563-1.2984 0-1.6563-0.0459-1.8444-0.51927-2.126-1.2758-0.75905-5.1298 4.0937-6.2638 7.887-1.1864 3.9688-0.0907 6.4087 2.0514 4.5681 0.7727-0.66392 1.52-1.8829 2.6182-4.2706 0.60765-1.3212 1.2154-1.8558 1.2154-1.0691 0 0.1896-0.44901 1.3213-0.9978 2.5148-0.54879 1.1936-0.9978 2.2859-0.9978 2.4275 0 0.5902 0.27899 0.62698 0.91585 0.12072 0.73-0.58029 1.0817-0.39177 0.69989 0.37515-0.4897 0.9836-1.6017 1.6089-2.2212 1.2489-0.37382-0.21723-0.81338-0.22627-1.2336-0.02537-0.70144 0.33535-1.8654 0.37354-2.3517 0.07717zm-105.29-0.606c0.21607-0.93862 7.9461-17.481 8.4006-17.977 0.43852-0.47896 1.1782-0.33055 1.0623 0.21315-0.06688 0.3138-5.4718 12.221-7.195 15.851-0.98419 2.0732-1.2389 2.4222-1.7675 2.4222-0.4725 0-0.59009-0.11964-0.50042-0.50916zm82.743-8.2398c0-0.61711 0.41793-1.2308 0.83815-1.2308 0.48978 0 0.45152 0.5198-0.0843 1.1455-0.54066 0.63127-0.75383 0.65542-0.75383 0.0854z"/>
  <path id="path4185" fill="#2466b1" d="m103.96 64.069c0.0876-0.24409 0.72618-1.7373 1.4191-3.3183 0.69289-1.581 1.2598-3.0324 1.2598-3.2253 0-0.19292-0.24696-0.54716-0.54879-0.7872-0.742-0.59009-0.80233-1.8081-0.16198-3.2706 1.1902-2.7183 1.3024-3.0948 1.0646-3.5724-0.27653-0.55544 0.0986-1.0604 0.79361-1.0683 0.76783-0.0087 0.54089 0.99539-0.88408 3.9117-1.0003 2.0472-1.0859 3.1725-0.25376 3.3342 0.62315 0.12105 1.4342-1.1269 3.187-4.9039 0.77101-1.6614 1.3858-2.6798 1.6178-2.6798 0.20581 0 0.36893 0.11227 0.36251 0.2495-0.006 0.13722-1.6011 3.6925-3.5436 7.9007-2.5908 5.6124-3.6571 7.6808-4.0017 7.7624-0.34778 0.08229-0.42837-0.004-0.31045-0.33266zm-35.235-0.892c0-0.15464 0.71842-1.8718 1.5965-3.816 1.3705-3.0345 1.872-4.5521 1.5041-4.5521-0.05082 0-0.54805 0.2994-1.105 0.66532-1.2336 0.81055-1.7718 0.83243-2.6818 0.10905-0.65844-0.52341-0.73858-0.52143-1.3566 0.03341-1.6437 1.4756-2.27-0.28376-1.0497-2.9487 0.57473-1.2551 0.67254-1.6674 0.48492-2.0443-0.47533-0.95473-0.95544-0.46312-2.253 2.307-1.9407 4.1429-3.1547 4.6712-3.2823 1.4283-0.04971-1.2636-0.13034-1.5461-0.44132-1.5461-0.27918 0-0.44062 0.37646-0.60631 1.4138-0.33328 2.0867-0.68068 2.5781-1.8224 2.5781-0.68313 0-1.0075-0.14947-1.0886-0.50156-0.1274-0.55344 0.4199-2.1597 0.73587-2.1597 0.10976 0 0.05504 0.36766-0.12158 0.81702-0.55744 1.4182 0.15601 2.056 1.0857 0.97052 0.36417-0.42521 0.43886-0.74579 0.34873-1.497-0.06308-0.52574-0.03318-0.95589 0.06644-0.95589 0.30575 0 0.42871-1.1947 0.21804-2.1184-0.24444-1.0717-0.53056-1.1024-1.1849-0.1271-0.48513 0.72307-0.48387 0.7109 0.03709-0.3583 0.52417-1.0758 0.66679-1.6878 0.78263-3.3581 0.03073-0.44308 0.18003-0.87384 0.33179-0.95725 0.22038-0.12112 0.24856 0.1526 0.13997 1.3597-0.16999 1.8896 0.26831 3.8961 0.85104 3.8961 0.44541 0 2.1506-2.9813 3.1726-5.5469 0.47939-1.2034 0.64614-1.9291 0.55423-2.4118-0.10817-0.56811-0.04647-0.69047 0.34815-0.69047 0.30839 0 0.73972-0.483 1.2082-1.3529 0.78238-1.4528 1.2744-1.5248 0.89341-0.13074-0.12345 0.45165-0.1577 0.93282-0.07611 1.0693 0.08159 0.13645 0.74724 0.33681 1.4792 0.44524l1.3309 0.19716-1.5597 0.05234c-0.85784 0.02879-1.7319 0.20597-1.9424 0.39374-0.57518 0.51314-3.4178 6.921-3.721 8.3878-0.19076 0.92298-0.20642 1.4627-0.05602 1.9312 0.39521 1.231 0.94119 0.77328 2.159-1.81 1.2024-2.5506 1.4901-3.4299 1.3708-4.1903-0.05129-0.32697-0.01447-0.79818 0.08184-1.0471 0.1455-0.37614 0.20832-0.36831 0.3716 0.04634 0.10808 0.27444 0.19788 0.73296 0.19956 1.0189 0.0016 0.28596 0.27246 0.95018 0.60174 1.476 0.32927 0.52587 0.59868 1.0712 0.59868 1.2118 0 0.14061-0.2245 0.80713-0.4989 1.4812-0.65816 1.6167-0.6557 2.4633 0.0071 2.4633 0.57012 0 1.0342-0.748 1.9541-3.1498 1.0648-2.7799 2.9183-4.4479 4.1671-3.75 1.0864 0.60711 0.82216 2.6507-0.48884 3.7808l-0.64291 0.5542 0.65516-1.2439c0.74961-1.4232 0.73755-1.9671-0.04704-2.1211-0.69847-0.13703-1.9932 1.254-2.4062 2.5851-0.27982 0.90202-0.27618 1.0097 0.04433 1.3087 0.30895 0.28822 0.28434 0.36692-0.2134 0.68239-0.42342 0.26836-0.54686 0.54165-0.4989 1.1045 0.09968 1.17 0.82464 1.0945 2.417-0.2517 2.0545-1.7368 2.5711-2.4839 4.2756-6.1831 1.1768-2.5539 1.6266-3.2961 1.9977-3.2961 0.46722 0 0.45915 0.04684-0.33212 1.9273-0.44604 1.06-0.81099 2.05-0.81099 2.2001 0 0.15004 0.26941 0.18096 0.59868 0.06871s0.86809-0.29593 1.1974-0.40818c0.78593-0.26792 0.77156 0.1238-0.09978 2.7211-0.77913 2.3225-0.84457 2.8055-0.38002 2.8055 0.56566 0 1.3654-1.0197 1.8767-2.3928 0.61658-1.6558 2.2019-3.255 3.2311-3.2593 0.40512-0.0017 0.79802 0.16261 0.87312 0.36518 0.09139 0.24649-0.0004 0.29587-0.27735 0.14931-0.48938-0.25892-1.292 0.8914-1.1949 1.7126 0.1129 0.95547 0.6934 1.3009 1.1157 0.66385 0.35857-0.54094 0.39718-0.53629 0.73648 0.08869 0.34771 0.64047 0.34205 0.66971-0.19543 1.0104-0.30442 0.19294-1.0384 1.0896-1.6312 1.9926-1.5714 2.394-2.8742 2.8412-3.2665 1.1211-0.2266-0.99349-0.5389-0.98826-1.6858 0.02826-1.6415 1.4549-1.924 0.22806-0.70688-3.0694 0.97368-2.6379 0.77545-3.1415-0.74074-1.882-0.86893 0.72181-1.3758 1.6419-3.7522 6.8103-1.8013 3.9177-2.8739 5.9757-3.1144 5.9757-0.20176 0-0.36684-0.12652-0.36684-0.28117zm12.777-8.2084c0.3749-0.46108 0.75915-1.0692 0.85386-1.3513 0.21593-0.64319-0.36516-2.8003-0.75435-2.8003-0.34746 0-1.4776 2.2484-1.6299 3.2427-0.28226 1.8425 0.42819 2.2644 1.5304 0.90889zm19.16 2.0172c-0.29916-0.60091-0.10704-1.1789 0.39187-1.1789 0.20656 0 0.4335 0.15626 0.5043 0.34723 0.13233 0.35691-0.23521 1.3161-0.5043 1.3161-0.0829 0-0.25922-0.21799-0.39187-0.48442zm15.049 0.14754c-0.88967-0.45801-1.5655-1.8002-1.5655-3.109 0-1.7455 1.0262-4.7977 2.3572-7.0111 2.2656-3.7678 5.662-5.9153 6.6776-4.2223 0.50527 0.84228 0.54087 2.0275 0.10671 3.5527-0.41513 1.4583-0.82606 2.0344-1.1116 1.5585-0.15363-0.2561-0.0279-0.79261 0.44031-1.8795 0.56023-1.3004 0.62397-1.6358 0.43932-2.3113-0.55645-2.0358-2.8174-0.74939-5.0577 2.8778-2.675 4.3309-3.486 7.5429-2.3139 9.1645 0.45748 0.63291 1.6303 0.84455 2.353 0.42459 0.7489-0.43519 0.98216-0.235 0.55529 0.47658-0.37134 0.61901-2.0623 0.89997-2.8807 0.47865zm10.114-0.04263c-0.26043-0.16202-0.67882-0.624-0.92977-1.0266l-0.45626-0.73203 0.43087-0.90152c0.23697-0.49584 0.70027-1.5288 1.0296-2.2956 0.81166-1.89 1.8122-2.9813 2.7334-2.9813 0.54065 0 0.80346 0.18242 0.95849 0.66532 0.25491 0.79398 0.14144 0.83515-0.46777 0.16973-0.41215-0.45017-0.5347-0.4273-1.3371 0.2495-1.0004 0.8438-2.1863 3.2339-2.1863 4.4065 0 0.9505 0.48782 1.8275 1.0165 1.8275 0.21413 0 0.79142-0.61786 1.2829-1.373 0.90438-1.3896 1.1565-1.3967 0.57643-0.01622-0.17443 0.41512-0.26705 0.97237-0.20583 1.2383 0.13658 0.59331 0.74377 0.62997 1.122 0.06774 0.23291-0.34621 0.23234-0.31204-0.003 0.20413-0.2324 0.50897-0.45557 0.5859-1.2466 0.42973-0.52992-0.10462-1.1615-0.06589-1.4036 0.08607-0.24204 0.15196-0.65314 0.14373-0.91357-0.01829zm5.0216 0.01047c-0.31621-0.5271-0.0931-1.2943 0.37635-1.2943 0.2885 0 0.37485 0.19026 0.32787 0.72243-0.0751 0.85025-0.38582 1.1026-0.70422 0.57184zm4.4147 0.05541c-1.2377-0.49325-1.4111-1.337-0.59824-2.9113 0.5249-1.0166 0.87841-0.89827 0.53276 0.17836-0.48659 1.5156 0.40967 2.3812 2.4655 2.3812 2.5548 0 4.9216-1.7778 5.066-3.8053 0.0952-1.3365-0.4425-2.0951-2.0424-2.8816-1.5783-0.77589-2.313-1.687-2.313-2.8684 0-0.95069 0.44355-2.4571 0.9157-3.11 0.32468-0.44896 0.32474-0.41479 0.001 0.6289-0.18826 0.60702-0.31439 1.4252-0.28029 1.8182 0.0854 0.98438 1.089 2.0277 2.4327 2.529 1.3066 0.48741 2.319 1.7403 2.319 2.8697 0 3.3056-5.216 6.4794-8.4987 5.1712zm8.3718-0.18314c-0.0691-0.30027-0.03-0.70545 0.087-0.90041 0.30405-0.50685 0.88014-0.04361 0.80072 0.64386-0.0885 0.76575-0.72793 0.95056-0.88769 0.25655zm10.976 0c-0.0691-0.30027-0.03-0.70545 0.087-0.90041 0.30405-0.50685 0.88014-0.04361 0.80072 0.64386-0.0885 0.76575-0.72793 0.95056-0.88769 0.25655zm-142.92-0.309c-1.4935-0.81164-2.2294-2.4351-2.2281-4.9152 0.00106-1.9487 0.55935-3.3384 1.7259-4.2957 0.94025-0.77161 1.0838-0.79098 5.1113-0.6899 2.2791 0.0572 4.3126 0.01474 4.5188-0.09435 0.51356-0.27171 4.0674-8.4263 3.9308-9.0196-0.05962-0.25901-0.29083-0.47093-0.51379-0.47093-0.46567 0-0.51124-0.31261-0.15593-1.0697 0.31716-0.67579 3.0118-1.0376 2.8614-0.38421-0.05173 0.2247-0.95244 2.3487-2.0016 4.72-1.0491 2.3713-1.9075 4.4703-1.9075 4.6644 0 0.19415 0.15715 0.51003 0.34923 0.70195 0.32878 0.32851 0.32654 0.37819-0.03814 0.84818-0.21305 0.27458-0.6074 0.49924-0.87633 0.49924-0.50822 0-0.91886 0.65884-2.4881 3.9919-2.1675 4.6039-5.6721 6.9355-8.2879 5.5139zm4.2703-1.8653c1.3994-1.1133 2.7542-2.9961 3.5727-4.965 0.90514-2.1773 0.68127-2.3328-3.4953-2.429-3.3178-0.07639-3.518-0.04431-4.2116 0.67467-1.3288 1.3774-1.6985 4.6567-0.72198 6.4039 1.0619 1.9 2.7283 2.0082 4.8562 0.31538zm32.674 1.5908c-0.97659-1.7873-1.1204-3.7929-0.44006-6.1358 0.6129-2.1106 1.7698-3.4895 4.6523-5.5452 2.767-1.9734 3.9249-3.4273 4.3205-5.4252 0.40011-2.0209-0.28658-3.5969-1.7238-3.9562-1.0928-0.27318-3.6711 0.5853-5.7269 1.9069-0.85724 0.55108-1.6968 0.91358-1.8657 0.80556-1.2784-0.81778 2.8458-3.3908 6.0123-3.7509 1.9913-0.22648 3.0943 0.23805 3.7771 1.5907 1.0713 2.1224 0.42466 5.0033-1.7413 7.7572-0.36708 0.46672-1.8663 1.746-3.3315 2.8428-2.6739 2.0015-3.7154 3.2076-3.9151 4.5336-0.15737 1.0452 0.26026 3.2911 0.81712 4.3943 0.36722 0.72749 0.42896 1.0544 0.25418 1.3458-0.34168 0.56958-0.63222 0.47257-1.0891-0.36364zm71.183 0.43139c0-0.1744 0.39265-0.60663 0.87255-0.9605 1.0577-0.7799 2.2735-2.5646 3.2356-4.7492 0.39342-0.89341 0.84236-1.6244 0.99765-1.6244 0.4289 0 0.3615 0.24203-0.68626 2.4645-1.5314 3.2483-1.6458 3.8431-0.74428 3.8671 0.40317 0.01073 0.40149 0.03086-0.0554 0.66532-0.57204 0.79441-1.2716 0.8368-1.9306 0.117-0.4528-0.49456-0.53097-0.49456-0.98376 0-0.56678 0.61906-0.70548 0.66234-0.70548 0.22016zm-98.469-0.53832c-0.97874-1.6315 0.35839-6.1352 2.3226-7.8229 1.4819-1.2733 2.3528-0.65495 2.3528 1.6706 0 2.7899 2.2334-0.1016 4.9489-6.4071 1.2627-2.932 1.7025-3.5739 2.051-2.993 0.11769 0.19619-0.49578 1.8371-1.6396 4.3857-2.0278 4.5181-2.0933 5.1685-0.40258 3.9973 0.57118-0.39569 1.1021-0.6135 1.1797-0.48403 0.07767 0.12948-0.01424 0.68698-0.20426 1.2389-0.81237 2.3596-0.25214 2.5395 1.3698 0.43998 1.4033-1.8165 1.777-1.8145 1.777 0.0095 0 1.8426 0.40388 1.8394 1.7543-0.01378 0.61698-0.8467 1.2068-1.4519 1.3107-1.3449 0.11423 0.11768 0.07402 0.81933-0.10174 1.7752-0.16723 0.90946-0.26489 2.4986-0.22999 3.7429 0.05566 1.9846 0.02603 2.1705-0.3606 2.2625-0.34427 0.08192-0.44225-0.11563-0.53624-1.0811-0.06325-0.64976-0.06585-1.6863-0.0058-2.3034 0.06479-0.66547 0.01754-1.2165-0.11608-1.3541-0.12392-0.12767-0.7765 0.45858-1.4502 1.3028-0.67368 0.84418-1.2961 1.4161-1.3832 1.271-0.08706-0.14515-0.0703-0.91678 0.03726-1.7147 0.1388-1.0297 0.12982-1.5829-0.03095-1.9058-0.28102-0.56444-0.4888-0.39017-2.4154 2.0259-2.0227 2.5366-2.4388 2.4084-1.4586-0.44966 0.61447-1.7918 0.61788-2.0452 0.02754-2.0452-0.64224 0-1.8569 1.5322-3.1381 3.9585-0.5894 1.1162-1.2313 2.0294-1.4264 2.0294-0.48855 0-0.44693-0.32594 0.21332-1.6707 0.77983-1.5883 1.0724-2.5693 0.8382-2.8106-0.36609-0.37716-1.5357 0.74503-2.1717 2.0837-0.57735 1.2152-2.0069 2.7303-2.576 2.7303-0.12214 0-0.3632-0.23524-0.53568-0.52275zm2.3766-1.9046c0.73145-1.054 0.75386-1.1479 0.57487-2.4095-0.23945-1.6878-0.66564-1.8127-1.4446-0.42325-1.7041 3.0395-0.95864 5.4675 0.86976 2.8328zm1.908-3.9192c0.30198-0.94061 0.08987-1.7079-0.43608-1.5775-0.52486 0.13014-0.87727 0.9887-0.70786 1.7246 0.1766 0.76716 0.87944 0.67677 1.1439-0.14711zm64.292 5.6399c-1.1043-0.91123-1.5215-2.2193-1.525-4.7823-0.007-5.1031 3.4107-11.87 7.8442-15.531 1.4674-1.2117 1.8995-1.412 3.3125-1.5357 1.4922-0.13056 1.6705-0.07695 2.1815 0.65568 0.77637 1.1132 0.91306 3.2667 0.34357 5.4129-0.24879 0.93756-0.52079 1.5176-0.67115 1.4312-0.25986-0.14928-0.26266-0.41118-0.0387-3.6184 0.11412-1.6345 0.0768-1.9649-0.29104-2.5781-0.62109-1.0353-1.6773-0.90531-3.3212 0.40888-3.8499 3.0777-7.7021 10.567-8.0122 15.576-0.10022 1.6187-0.05636 1.9052 0.44333 2.8951 0.79082 1.5667 1.3365 1.8273 2.5724 1.2283 1.6106-0.78048 3.0715-2.7642 4.7932-6.5085 0.84964-1.8478 1.6427-3.3051 1.7624-3.2386 0.46056 0.25591 0.33081 0.90866-0.53138 2.6732-2.3193 4.7466-2.8321 6.5543-1.8594 6.5543 0.25291 0 0.87859-0.4427 1.3904-0.98378 0.51643-0.54596 0.98312-0.84205 1.0486-0.66532 0.16644 0.44893 0.02045 0.74832-0.86203 1.7678-1.1307 1.3062-1.8123 1.5478-2.7985 0.99206-0.73021-0.41147-0.96584-0.40632-1.8692 0.04088-1.4616 0.72355-2.8852 0.65262-3.9123-0.19492zm57.216-0.26577c-0.44417-0.74042-0.58228-1.2761-0.57895-2.2455 0.0111-3.2343 2.2797-7.8353 4.8848-9.9071 1.5713-1.2496 2.1196-1.328 0.80678-0.11529-1.5126 1.3972-3.65 4.9805-4.3536 7.2988-0.70594 2.3259-0.70824 3.7898-0.008 5.0084 0.44563 0.77537 0.47676 0.93302 0.18421 0.93302-0.19361 0-0.61452-0.43758-0.93535-0.9724zm2.7094 0.21476c0.94499-0.76508 2.2812-2.8598 3.2299-5.0633 0.23618-0.54856 0.49611-0.8862 0.57762-0.75032 0.0815 0.13588-0.22338 0.98166-0.67754 1.8795-1.0266 2.0295-1.3828 3.2465-1.092 3.7311 0.14847 0.24749 0.41043 0.18501 0.88263-0.21049l0.6715-0.56244-0.44457 0.76699c-0.42835 0.73899-0.64997 0.79745-2.1996 0.58022-0.19208-0.02692-0.70844 0.06029-1.1475 0.19381l-0.79824 0.24276 0.9978-0.80783zm-107.08-0.133c0.42346-1.253 7.9214-17.182 8.2507-17.529 0.22371-0.23521 0.4105-0.24787 0.53492-0.03623 0.12298 0.20918-1.2487 3.4701-3.8449 9.1407-3.3843 7.392-4.1256 8.8329-4.5909 8.9232-0.48583 0.09426-0.52935 0.03219-0.34984-0.49899zm9.2041 0.32091c-1.062-0.64828-1.2654-2.1877-0.54777-4.1461 1.1637-3.1758 4.3102-5.3994 5.0085-3.5396 0.32939 0.87718-0.21925 2.2048-1.3631 3.2985-1.3901 1.3292-1.5201 1.2027-0.4212-0.40969 0.65549-0.96182 0.9184-1.5858 0.87602-2.0791-0.13394-1.5594-2.1813-0.04558-2.8489 2.1065-0.25695 0.82831-0.25743 0.99775-0.0038 1.3487 0.24909 0.34461 0.2281 0.48503-0.14845 0.99332-0.37522 0.50648-0.39993 0.66955-0.17114 1.1291 0.54569 1.0961 1.8662 0.53735 3.8134-1.6134l1.0948-1.2093-0.79824 1.2241c-1.2507 1.9179-3.6053 3.4371-4.4901 2.897zm73.438-8.4112c0-0.40329 0.55966-0.8425 0.72415-0.5683 0.0595 0.09926-0.079 0.34757-0.30794 0.55179-0.2886 0.25747-0.41621 0.26253-0.41621 0.01651zm29.645-2.2566c0.0871-1.1924 0.0488-1.916-0.11926-2.2535-0.34824-0.69946-0.10708-0.95959 0.28448-0.30686 0.41133 0.68567 0.41994 2.8224 0.0148 3.6709-0.28491 0.59675-0.29857 0.51249-0.18003-1.1106zm-11.894-0.30096c0.4801-1.6667-0.019-3.0789-1.1035-3.1224-0.50595-0.02029-0.53024-0.06115-0.18385-0.30928 0.59549-0.42656 1.7827-0.38814 2.0555 0.06653 0.40255 0.67103 0.26946 1.7315-0.36896 2.94-0.37215 0.70448-0.52714 0.86957-0.39912 0.42513z"/>
 </g>
</svg>
