<?xml version="1.0" encoding="UTF-8" standalone="no"?>
<!-- Created with Inkscape (http://www.inkscape.org/) -->
<svg id="svg2" xmlns:rdf="http://www.w3.org/1999/02/22-rdf-syntax-ns#" xmlns="http://www.w3.org/2000/svg" height="100" width="165" version="1.1" xmlns:cc="http://creativecommons.org/ns#" xmlns:dc="http://purl.org/dc/elements/1.1/" viewBox="0 0 165 100">
 <metadata id="metadata7">
  <rdf:RDF>
   <cc:Work rdf:about="">
    <dc:format>image/svg+xml</dc:format>
    <dc:type rdf:resource="http://purl.org/dc/dcmitype/StillImage"/>
    <dc:title/>
   </cc:Work>
  </rdf:RDF>
 </metadata>
 <g id="layer1" transform="translate(0 -952.36)" fill="#28317c">
  <g id="g6" transform="matrix(.084428 0 0 -.081316 6.8672 1057.9)">
   <path id="path8" d="m81.156 18c-6.048 0.003-11.699 0.264-15.625 0.812-16.717 2.359-32.814 8.133-40.75 14.719-8.189 6.831-10.318 15.132-5.843 22.531 3.123 5.205 8.197 9.103 17.062 13.25 35.966 16.833 98.68 9.438 112.44-13.25 8.95-14.636-7.66-29.851-39.41-36.031-6.54-1.321-17.794-2.036-27.874-2.031zm2.532 8.625h32.502l0.15 0.125 12.6 9.594c0.02 0.033 0.04 0.061 0.06 0.094v1.874l-8.84-6.5c-0.03-0.021-0.04-0.041-0.07-0.062l-3.71-2.688h-32.505-32.5l-1.625 1.25c-3.598 2.659-7.624 5.644-11.562 8.563v-2.563c0.572-0.425 1.147-0.857 1.718-1.281 0.016-0.012 0.047-0.019 0.063-0.031 1.369-1.093 3.37-2.605 6.156-4.625l2.094-1.5 1.562-1.156c0.408-0.224 0.933-0.718 1.407-1l32.5-0.094zm47.622 3.563h2.88v0.062h0.06v23.75h-3v-23.75h0.06v-0.062zm-98.622 0.312h3l0.187 17.906 0.063 0.594c0.684 2.513 2.714 2.031 6.656 2.031 3.377 0 3.968 0.243 3.968 1.625 0 1.464-0.619 1.625-5.093 1.625-4.306 0-5.468-0.323-7.157-2.031-0.939-0.867-1.339-1.375-1.5-2.594-0.263-6.079-0.124-12.847-0.124-19.156zm34.187 0.625c0.021 0.001 0.042-0.001 0.063 0h2.218c0.434 0 0.782 0.453 0.782 1v0.75c0 0.547-0.348 1-0.782 1h-0.875-1.343-1.094c-0.48 0-0.875 0.542-0.875 1.219v4.406c0 0.349 0.116 0.653 0.281 0.875 0.014 0.019 0.017 0.045 0.031 0.063 0.046 0.082 0.138 0.138 0.219 0.187 0.085 0.051 0.171 0.094 0.281 0.094 0.02 0.002 0.042 0 0.063 0h3.125 0.219c0.39 0.087 0.687 0.427 0.687 0.843v1c0 0.396-0.264 0.713-0.625 0.813-0.019 0.005-0.043-0.004-0.062 0h-3.438c-0.462 0.194-0.593 0.225-0.75 1v18.469h-3v-28.875c0.024-0.079 0.063-0.142 0.094-0.219 0.524-1.319 1.951-2.375 3.844-2.594 0.308-0.035 0.635-0.041 0.937-0.031zm18.344 9.187c2.103 0.043 4.147 0.565 4.969 1.282 1.096 0.956 1.461 3.358 1.468 9.344 0.004 2.699 0.019 2.706-0.281 2.781-0.454 0.114-6.462 0.064-7.531-0.063-1.835-0.217-2.854-0.751-3.438-1.781-0.251-0.443-0.31-0.734-0.312-1.906-0.004-1.724 0.264-2.557 1.031-3.281 0.726-0.686 1.451-0.891 3.656-1.032 2.249-0.143 2.79-0.254 3.094-0.687 0.35-0.5 0.319-1.613-0.063-1.969-0.29-0.271-0.384-0.273-3-0.281-2.793-0.01-3.307-0.085-3.624-0.563-0.182-0.274 0-0.837 0.374-1.187 0.44-0.412 1.135-0.553 2.75-0.625 0.3-0.014 0.606-0.038 0.907-0.032zm-32.25 0.157c2.096-0.114 4.8 0.366 5.75 1.281 0.773 0.744 1.163 2.306 1.281 5.031v7.25l-1.75 0.031h-0.375-3.969c-0.058-0.002-0.099 0.003-0.156 0-3.543-0.18-4.656-1.19-4.656-3.781 0-3.252 1.238-4.469 4.531-4.469 2.448 0 3.063-0.311 3.063-1.531 0-1.219-0.512-1.475-2.876-1.312-3.208 0.325-4.397-0.243-3.468-1.625 0.316-0.519 1.367-0.807 2.625-0.875zm20.031 0.031h3.25v0.062h0.031v0.688c0.006 0.347-0.017 0.789 0 0.75 0.559-1.319 1.241-1.406 2.5-1.406v1.062l-0.031 1.469-1.062 0.031c-0.79-0.058-0.993 0.199-1.282 0.75l-0.062 2.406c-0.016 1.781-0.062 3.61-0.063 5.157v2.531h-0.031-2.562-0.688v-13.5zm46.44 0h6.87c1.21 0 2.19 0.977 2.19 2.188v9.124c0 1.211-0.98 2.188-2.19 2.188h-6.87c-1.21 0-2.19-0.977-2.19-2.188v-9.124c0-1.211 0.98-2.188 2.19-2.188zm-25.409 0.062h2.625v1.282c0.124-0.608 1.074-1.288 1.719-1.282l4.565 0.032c0.47 0.004 0.89 0.255 1.12 0.625 0.05 0.079 0.09 0.16 0.13 0.25 0.04 0.128 0.06 0.139 0.06 0.25v0.031 0.312 0.657 1.281 1.656 8.375h-2.66l0.03-9.843c0-0.011 0.01-0.021 0-0.032 0-0.008 0.01-0.023 0-0.031-0.02-0.434-0.36-0.782-0.78-0.875h-2.871-0.375c-0.489 0.016-0.828 0.551-0.875 1.031-0.003 0.032 0 0.545 0 0.313-0.008 0.603-0.063 3.393-0.063 3.812v5.625h-2.594-0.031v-13.469zm15.439 0c1.43-0.024 3.72-0.024 5.15 0v2.657h-2.78-0.56c-1.05 0-1.9 0.852-1.9 1.906v3.969c0 1.053 0.85 1.906 1.9 1.906h3.34v3c-0.55 0.006-1.05 0.031-2.4 0.031-2.02 0-3.71-0.02-3.78-0.031-0.93-0.121-1.69-0.783-1.91-1.656-0.06-0.258-0.06-0.81-0.06-5.063 0-4.223 0-4.823 0.06-5.062 0.21-0.794 0.81-1.386 1.63-1.594 0.09-0.025 0.59-0.05 1.31-0.063zm27.41 0.969l8.53 6.438c0.21 0.442 0.11 0.776-0.25 1.093-0.59 0.488-7.34 5.365-14.94 10.813l-13.75 9.844h-32.532-32.5l-3.938-2.719-25.312-18.844c2.669-1.944 5.344-3.947 8.031-5.937v2.593c-1.566 1.163-3.145 2.315-4.657 3.438 4.623 3.246 8.091 6.208 12.157 9.062l13.719 9.969h32.5 32.442l13.34-9.5 13.34-9.437-0.12-0.094h0.18l-6.24-4.75v-1.969zm-13.88 1.657c-0.92-0.034-1.15 0.001-1.62 0.25-1.03 0.531-1.09 0.683-1.13 3.406-0.02 1.314-0.01 2.502 0.03 2.656 0.1 0.409 0.69 1.059 1.13 1.25 0.5 0.224 2.23 0.217 2.75 0 0.53-0.224 1.04-0.829 1.22-1.469 0.08-0.312 0.12-1.31 0.09-2.531-0.05-2.257-0.14-2.544-0.94-3.156-0.4-0.311-0.58-0.372-1.53-0.406zm-36.969 4.5c-0.371 0.003-0.767 0.038-1.25 0.156-1.219 0.297-2.062 1.071-2.062 1.844 0 0.666 0.863 1.425 2 1.75 0.58 0.165 2.054 0.107 2.781-0.094 0.974-0.271 1.751-1.012 1.75-1.656-0.001-0.927-0.638-1.489-2.062-1.844-0.437-0.109-0.785-0.16-1.157-0.156zm-31.656 0.312c-0.198 0.016-0.398 0.051-0.594 0.094-1.565 0.339-2.417 1.427-1.875 2.406s2.247 1.495 3.813 1.156l0.093-0.031c1.524-0.357 2.314-1.414 1.782-2.375-0.475-0.856-1.836-1.364-3.219-1.25z" transform="matrix(11.844 0 0 -12.298 -81.338 1297.4)" fill="#28317c"/>
  </g>
  <rect id="rect4579" transform="translate(0 952.36)" height="1.75" width="1.75" y="33.688" x="128.5"/>
 </g>
</svg>
