<?xml version="1.0" encoding="UTF-8" standalone="no"?>
<!-- Created with Inkscape (http://www.inkscape.org/) -->
<svg id="svg2" xmlns:rdf="http://www.w3.org/1999/02/22-rdf-syntax-ns#" xmlns="http://www.w3.org/2000/svg" height="100" width="165" version="1.1" xmlns:cc="http://creativecommons.org/ns#" xmlns:dc="http://purl.org/dc/elements/1.1/" viewBox="0 0 165 100">
 <metadata id="metadata7">
  <rdf:RDF>
   <cc:Work rdf:about="">
    <dc:format>image/svg+xml</dc:format>
    <dc:type rdf:resource="http://purl.org/dc/dcmitype/StillImage"/>
    <dc:title/>
   </cc:Work>
  </rdf:RDF>
 </metadata>
 <g id="layer1" transform="translate(0 -952.36)">
  <path id="rect3064" d="m0.75 19v61.5h163.66v-61.5h-163.66zm81.812 1.344c16.149 0 29.248 8.378 29.248 18.718 0 5.425-3.61 10.301-9.37 13.719h41.22c5.89 0 10.72 4.052 10.72 9.031v7.782c0 4.979-4.83 9.031-10.72 9.031h-122.16c-5.897 0-10.719-4.052-10.719-9.031v-7.782c0-4.979 4.822-9.031 10.719-9.031h41.188c-5.75-3.418-9.344-8.295-9.344-13.719 0-10.34 13.07-18.718 29.218-18.718zm-62.562 37.562v16.188h124.81v-16.188h-124.81z" transform="translate(0 952.36)" stroke="#000" stroke-width="1.1019"/>
  <g id="g2989" transform="matrix(.16403 0 0 .13318 17.62 930.48)">
   <g id="g2991">
    <g id="g2995">
     <path id="path3001" d="m23.469 34.188c-5.5038 0-10 3.6564-10 8.125v6.3125c0 4.4686 4.4962 8.125 10 8.125h118.06c5.5038 0 10-3.6564 10-8.125v-6.3125c0-4.4686-4.4962-8.125-10-8.125h-118.06zm-2.8438 4.1875h0.1875c0.24779 0 0.50218-0.0037 0.75 0 0.3911 0.0057 0.76511 0.03125 1.1562 0.03125 0.4382 0 0.87435-0.0052 1.3125 0 0.38328 0.0045 0.77292 0 1.1562 0h0.125l0.063 0.093c0.21221 0.43151 0.40344 0.85374 0.625 1.2812 0.2291 0.43018 0.46346 0.88152 0.6875 1.3125l4.9688 9.25 4.8125-9.4375c0.20225-0.39475 0.4038-0.81907 0.59375-1.2188 0.19454-0.39675 0.37321-0.78889 0.5625-1.1875l0.03125-0.09375h0.15625c0.3261 0 0.64265 0.004 0.96875 0 0.43403-0.0053 0.84706 0 1.2812 0 0.42386 0 0.85739-0.02566 1.2812-0.03125 0.28263-0.0037 0.56129 0 0.84375 0h0.1875l0.0625 0.8125h-0.1875c-0.40336 0.02371-0.85862 0.07328-1.25 0.15625-0.22341 0.04821-0.46179 0.11176-0.625 0.25-0.16026 0.12612-0.24549 0.32566-0.28125 0.5-0.059 0.291-0.041 0.612-0.032 0.906l0.375 10.219c0.0092 0.18419 0.02043 0.41822 0.09375 0.59375 0.05118 0.13438 0.14609 0.22593 0.28125 0.3125 0.18749 0.10854 0.46507 0.18186 0.6875 0.21875 0.40106 0.06539 0.8108 0.07777 1.2188 0.09375h0.1875l-0.0625 0.84375h-0.15625c-0.25277 0-0.49723 0.0045-0.75 0-0.30313-0.0055-0.60295 0-0.90625 0-0.31986 0-0.64872 0.0051-0.96875 0-0.303-0.006-0.602-0.032-0.906-0.032-0.24769 0-0.50231 0.02619-0.75 0.03125-0.25491 0.0051-0.52618 0-0.78125 0-0.23736 0-0.45014-0.0053-0.6875 0-0.20012 0.0047-0.42488 0-0.625 0h-0.15625l-0.09375-0.8125h0.1875c0.32872-0.01984 0.68539-0.04882 1-0.125 0.19307-0.05061 0.37599-0.14767 0.5-0.28125 0.13582-0.13505 0.19693-0.29881 0.21875-0.46875 0.038-0.297 0.041-0.607 0.031-0.905l-0.375-9.0312c-0.93154 1.8245-1.8558 3.6735-2.7812 5.5-1.0366 2.0514-2.0577 4.0945-3.0625 6.1562l-0.03125 0.09375-1.125 0.125-0.03125-0.125c-0.281-0.58-0.606-1.147-0.906-1.719-0.531-1.013-1.055-2.022-1.594-3.032-1.132-2.11-2.275-4.234-3.406-6.344l-0.34375 8.1562c-0.01822 0.35533-0.02459 0.74188 0.03125 1.0938 0.03391 0.18299 0.09642 0.38941 0.25 0.53125 0.15214 0.12772 0.3528 0.21591 0.5625 0.25 0.3611 0.05207 0.72837 0.06871 1.0938 0.09375l0.1875 0.03125-0.0625 0.8125h-0.1875c-0.41458 0-0.80437 0.0097-1.2188 0-0.508-0.012-1.025-0.031-1.532-0.031-0.47456 0-0.96313 0.02126-1.4375 0.03125-0.45921 0.0096-0.91559 0-1.375 0h-0.15625l-0.09375-0.78125 0.1875-0.03125c0.39788-0.02917 0.79776-0.06027 1.1875-0.125 0.24698-0.04501 0.46105-0.15441 0.625-0.3125 0.19474-0.19338 0.29656-0.44418 0.34375-0.6875 0.0974-0.45415 0.1064-0.94544 0.125-1.4062l0.375-7.875c0.01037-0.30765 0.01455-0.62998 0-0.9375-0.01-0.211-0.008-0.416-0.062-0.624-0.039-0.148-0.099-0.303-0.188-0.438v-0.03125c-0.073-0.123-0.17-0.213-0.281-0.312-0.214-0.181-0.486-0.282-0.781-0.344-0.383-0.074-0.796-0.138-1.188-0.156h-0.1875l0.0625-0.84375zm62.188 0.8125c0.80786 0 1.5803 0.0857 2.3125 0.21875 0.7324 0.13292 1.3854 0.34607 1.9375 0.65625 0.54623 0.30538 0.98132 0.71652 1.3125 1.2188 0.3256 0.50729 0.5 1.1101 0.5 1.8438 0 0.73876-0.20212 1.3908-0.5625 1.9375-0.36612 0.5515-0.83082 1.0106-1.4062 1.375-0.58117 0.36438-1.2226 0.63031-1.9375 0.8125-0.71485 0.18219-1.4355 0.28125-2.1562 0.28125-0.43009 0-0.83303-0.01322-1.1875-0.0625-0.36038-0.04928-0.6287-0.11358-0.84375-0.1875v4.0312c0 0.23147-0.0037 0.43127 0.03125 0.59375 0.03477 0.15755 0.14404 0.3029 0.3125 0.40625 0.17437 0.10841 0.43252 0.16947 0.78125 0.21875 0.34283 0.05421 0.8469 0.08389 1.4688 0.09375l-0.0625 0.53125c-0.6102 0-1.2321 0.0099-1.9062 0-0.66827-0.0099-1.2663-0.03125-1.8125-0.03125-0.21521 0-0.45712-0.0049-0.71875 0-0.26147 0.0049-0.51962 0.03125-0.78125 0.03125-0.24982 0-0.49206-0.0049-0.71875 0s-0.43103 0-0.59375 0l-0.03125-0.5c0.44174-0.02464 0.79513-0.06587 1.0625-0.125 0.26737-0.06393 0.47393-0.15326 0.625-0.28125 0.14533-0.12812 0.26017-0.30964 0.3125-0.53125 0.05233-0.22654 0.0625-0.53694 0.0625-0.90625v-9.6875c0-0.23147-0.01592-0.44112-0.0625-0.59375-0.04642-0.15755-0.14182-0.27658-0.28125-0.375-0.13943-0.10348-0.37149-0.16947-0.65625-0.21875-0.28476-0.04435-0.64848-0.10529-1.125-0.125l0.03125-0.5c0.18011 0 0.41217-0.0049 0.65625 0s0.49649 0 0.78125 0 0.57876 0.02632 0.875 0.03125c0.29657 0.0049 0.57064 0 0.84375 0 0.4068 0 0.88315-0.0494 1.4062-0.09375 0.52294-0.04928 1.0257-0.0625 1.5312-0.0625zm-0.313 0.781c-0.40106 0-0.71081-0.0082-0.9375 0.03125-0.22653 0.03942-0.3778 0.10373-0.5 0.1875-0.11614 0.07871-0.21522 0.20591-0.25 0.34375-0.03494 0.13292-0.03125 0.2981-0.03125 0.5v5.5312c0.26147 0.06885 0.52183 0.09051 0.8125 0.125 0.29641 0.03449 0.63962 0.0625 1 0.0625 0.44748 0 0.91013-0.07416 1.375-0.1875 0.46503-0.1132 0.87223-0.28668 1.25-0.5625 0.37777-0.27076 0.71876-0.6408 0.96875-1.0938 0.24982-0.45308 0.34375-1.0079 0.34375-1.6875 0-1.1081-0.35339-1.9368-1.0625-2.4688-0.708-0.527-1.701-0.781-2.968-0.781zm15.625 1.3438c1.0715 0 2.0641 0.16261 2.9688 0.4375 0.90464 0.27489 1.6757 0.67462 2.3125 1.1875 0.64186 0.51288 1.1413 1.1174 1.5 1.8438 0.35874 0.72624 0.53125 1.5429 0.53125 2.4375 0 0.89032-0.17251 1.7179-0.53125 2.4688-0.35382 0.74688-0.85814 1.3919-1.5 1.9375-0.64186 0.54578-1.413 0.9776-2.3125 1.2812-0.89447 0.30365-1.8771 0.4375-2.9688 0.4375-1.0764 0-2.0743-0.13136-2.9688-0.40625-0.89956-0.27902-1.6656-0.67462-2.3125-1.1875-0.64678-0.51288-1.1673-1.1174-1.5312-1.8438-0.35874-0.72211-0.53125-1.5388-0.53125-2.4375 0-0.89032 0.17743-1.7179 0.53125-2.4688 0.35365-0.75088 0.85814-1.3919 1.5-1.9375 0.64186-0.54578 1.4129-0.9776 2.3125-1.2812 0.89447-0.30365 1.9033-0.46875 3-0.46875zm39.688 0c1.0715 0 2.0641 0.16261 2.9688 0.4375 0.90464 0.27489 1.6757 0.67462 2.3125 1.1875 0.64186 0.51288 1.1724 1.1174 1.5312 1.8438 0.35874 0.72624 0.53125 1.5429 0.53125 2.4375 0 0.89032-0.17251 1.7179-0.53125 2.4688-0.35382 0.74688-0.85814 1.3919-1.5 1.9375-0.64186 0.54578-1.413 0.9776-2.3125 1.2812-0.89447 0.30365-1.9084 0.4375-3 0.4375-1.0766 0-2.043-0.13136-2.9375-0.40625-0.89955-0.27902-1.6968-0.67462-2.3438-1.1875-0.64694-0.51288-1.1362-1.1174-1.5-1.8438-0.35874-0.72211-0.53125-1.5388-0.53125-2.4375 0-0.89032 0.1776-1.7179 0.53125-2.4688 0.35382-0.75088 0.85814-1.3919 1.5-1.9375 0.64186-0.54578 1.413-0.9776 2.3125-1.2812 0.89447-0.30365 1.872-0.46875 2.9688-0.46875zm-30.531 0.25c0.15665 0 0.36132-0.0041 0.59375 0 0.2326 0.0041 0.48213 0.03125 0.75 0.03125 0.26278 0 0.53463-0.0041 0.8125 0 0.27295 0.0041 0.51248 0 0.75 0 0.187 0 0.41873 0.0041 0.65625 0s0.48139 0 0.71875 0c0.23752 0 0.44399-0.02712 0.65625-0.03125 0.21226-0.0041 0.39477 0 0.53125 0l0.0312 0.40625c-0.40434 0.02464-0.71614 0.07159-0.96875 0.125-0.25277 0.05327-0.45219 0.13919-0.59375 0.25-0.13648 0.10668-0.23581 0.24865-0.28125 0.4375-0.0507 0.19285-0.0625 0.42322-0.0625 0.71875v7.6562c0 0.27489 0.022 0.47978 0.0625 0.65625 0.0353 0.1722 0.11861 0.33495 0.25 0.4375 0.13139 0.09855 0.3199 0.14635 0.5625 0.1875 0.2426 0.04102 0.56457 0.0625 0.96875 0.0625h0.78125c0.57608 0 1.0373-0.01983 1.4062-0.09375 0.36382-0.07791 0.68473-0.22566 0.9375-0.40625 0.25261-0.18059 0.46925-0.42335 0.65625-0.71875 0.187-0.29952 0.39765-0.66291 0.625-1.0938l0.5625 0.125c-0.0809 0.23387-0.15314 0.4875-0.21875 0.75-0.0709 0.26263-0.16314 0.52687-0.21875 0.78125-0.0607 0.2585-0.0845 0.49714-0.125 0.71875-0.0404 0.22561-0.0836 0.38768-0.0937 0.53125h-2.25c-0.65187 0-1.2125 0.0041-1.6875 0-0.46995-0.0041-0.88527 0-1.2188 0-0.33364 0-0.62747 0.004-0.875 0-0.24769-0.0041-0.438 0-0.625 0h-0.53125c-0.19717 0-0.41873-0.0041-0.65625 0-0.23752 0.004-0.48123 0-0.71875 0s-0.44399-0.0041-0.65625 0-0.39477 0-0.53125 0l-0.02-0.405c0.40434-0.02051 0.71614-0.04447 0.96875-0.09375 0.25277-0.05327 0.45219-0.14332 0.59375-0.25 0.13648-0.10668 0.23581-0.25291 0.28125-0.4375 0.0505-0.18872 0.0625-0.44222 0.0625-0.75v-8.0938c0-0.19285-0.0171-0.34143-0.0625-0.46875-0.0454-0.13118-0.11861-0.23059-0.25-0.3125-0.13139-0.0863-0.34114-0.14648-0.59375-0.1875-0.25277-0.03689-0.57548-0.07737-1-0.09375l0.0312-0.4375zm11.562 0c0.15665 0 0.3299-0.0041 0.5625 0 0.23243 0.0041 0.48213 0.03125 0.75 0.03125 0.26294 0 0.53446-0.0041 0.8125 0 0.27279 0.0041 0.54373 0 0.78125 0 0.187 0 0.38748 0.0041 0.625 0s0.48123 0 0.71875 0 0.47524-0.02712 0.6875-0.03125c0.21226-0.0041 0.36369 0 0.5 0l0.0625 0.40625c-0.40434 0.02464-0.74723 0.07159-1 0.125-0.25261 0.05327-0.42094 0.13919-0.5625 0.25-0.13648 0.10668-0.23581 0.24865-0.28125 0.4375-0.0505 0.19285-0.0937 0.42322-0.0937 0.71875v7.6562c0 0.27489 0.0221 0.47978 0.0625 0.65625 0.0354 0.1722 0.11861 0.33495 0.25 0.4375 0.13123 0.09855 0.3199 0.14635 0.5625 0.1875 0.2426 0.04102 0.56441 0.0625 0.96875 0.0625h0.78125c0.57608 0 1.0686-0.01983 1.4375-0.09375 0.36382-0.07791 0.65364-0.22566 0.90625-0.40625s0.46925-0.42335 0.65625-0.71875c0.187-0.29952 0.39749-0.66291 0.625-1.0938l0.5625 0.125c-0.0809 0.23387-0.15314 0.4875-0.21875 0.75-0.0709 0.26263-0.13189 0.52687-0.1875 0.78125-0.0605 0.2585-0.1159 0.49714-0.15625 0.71875-0.0405 0.22561-0.0525 0.38768-0.0625 0.53125h-2.25c-0.65187 0-1.2125 0.0041-1.6875 0-0.46995-0.0041-0.88527 0-1.2188 0-0.33348 0-0.62731 0.004-0.875 0-0.24769-0.0041-0.46909 0-0.65625 0h-0.5c-0.19717 0-0.41873-0.0041-0.65625 0-0.23752 0.004-0.48107 0-0.71875 0-0.23752 0-0.47524-0.0041-0.6875 0s-0.36352 0-0.5 0l-0.0625-0.40625c0.40434-0.02051 0.74739-0.04447 1-0.09375 0.25277-0.05327 0.4211-0.14332 0.5625-0.25 0.13648-0.10668 0.23565-0.25291 0.28125-0.4375 0.0505-0.18872 0.0937-0.44222 0.0937-0.75v-8.0938c0-0.19285-0.0171-0.34143-0.0625-0.46875-0.0454-0.13118-0.14986-0.23059-0.28125-0.3125-0.13139-0.0863-0.30973-0.14648-0.5625-0.1875-0.24-0.036-0.59-0.077-1.02-0.093l0.0625-0.4375zm-67.938 0.15625c0.47947 0 0.92629 0.08269 1.3438 0.1875 0.42534 0.11134 0.80792 0.264 1.125 0.5 0.31691 0.24239 0.56432 0.56406 0.75 0.9375 0.17781 0.36692 0.28125 0.80148 0.28125 1.3125 0 0.76659-0.03166 1.6473-0.0625 2.6562-0.031 1.0025-0.03125 2.112-0.03125 3.3438 0 0.49797 0.08827 0.91235 0.3125 1.1875 0.22423 0.28181 0.55883 0.40625 0.96875 0.40625 0.36333 0 0.76987-0.09621 1.1875-0.3125l0.40625 0.5c-0.34791 0.28168-0.77849 0.50398-1.2812 0.6875-0.5103 0.17686-1.0208 0.28125-1.5312 0.28125-0.52572 0-1.0203-0.13261-1.4688-0.375-0.44846-0.24252-0.75157-0.6668-0.90625-1.25-0.14697 0.08524-0.37042 0.22938-0.6875 0.40625-0.31708 0.17686-0.684 0.37245-1.0938 0.5625-0.40992 0.18339-0.84862 0.33104-1.3125 0.46875-0.47176 0.1441-0.91841 0.21875-1.3438 0.21875-0.49489 0-0.934-0.06146-1.3438-0.21875-0.40992-0.15076-0.76855-0.3629-1.0625-0.625-0.289-0.261-0.52-0.571-0.682-0.905-0.155-0.341-0.219-0.708-0.219-1.094 0-0.65525 0.20778-1.191 0.65625-1.6562 0.44076-0.47186 1.0232-0.83818 1.75-1.0938 0.52589-0.177 1.2358-0.37898 2.125-0.5625 0.88151-0.18992 1.9345-0.30783 3.1562-0.40625 0.01558-0.09163 0.03125-0.21922 0.03125-0.34375v-1.4062c0-0.65512-0.199-1.1926-0.5625-1.625-0.37121-0.42592-0.96929-0.625-1.7812-0.625-0.44076 0-0.81564 0.05645-1.125 0.1875-0.3092 0.13758-0.5489 0.30857-0.75 0.53125-0.20094 0.21629-0.3682 0.46819-0.46875 0.75-0.09284 0.28168-0.15625 0.56708-0.15625 0.875-0.23965 0.16381-0.54341 0.25-0.96875 0.25-0.34037 0-0.69064-0.04992-1-0.1875-0.3092-0.13105-0.46875-0.32512-0.46875-0.59375 0-0.20976 0.08786-0.43996 0.28125-0.65625 0.18568-0.21615 0.44064-0.41537 0.75-0.625 0.3092-0.20963 0.65234-0.43495 1.0312-0.625 0.37121-0.19658 0.76192-0.3559 1.1562-0.5 1.0131-0.36692 2.0179-0.5625 3-0.5625zm15 0c0.49489 0 0.98953 0.04642 1.5 0.125 0.5026 0.07871 0.98928 0.22121 1.4688 0.4375 0.21652 0.09163 0.38362 0.22424 0.46875 0.375 0.07742 0.1441 0.125 0.2934 0.125 0.4375 0 0.22934-0.1351 0.43858-0.34375 0.6875-0.21669 0.25558-0.55178 0.48426-1.0312 0.6875h-0.125c-0.553-0.485-1.072-0.827-1.59-1.063-0.51-0.229-1.101-0.344-1.781-0.344-0.63399 0-1.208 0.09621-1.6875 0.3125-0.47176 0.22268-0.87042 0.52114-1.1875 0.875-0.31708 0.36026-0.55619 0.7848-0.71875 1.25-0.1701 0.47173-0.25 0.93967-0.25 1.4375 0 0.62915 0.12723 1.236 0.34375 1.8125 0.21652 0.57654 0.52775 1.0676 0.9375 1.5 0.40221 0.43897 0.89685 0.80026 1.5 1.0625 0.59544 0.26197 1.2892 0.375 2.0625 0.375 0.71912 0 1.3975-0.11956 2.0625-0.375 0.66499-0.25558 1.2228-0.65024 1.625-1.1875l0.65625 0.5c-0.25524 0.44549-0.59025 0.84016-1 1.1875-0.40221 0.34068-0.85657 0.63261-1.3438 0.875-0.48718 0.24239-1.0135 0.43798-1.5625 0.5625-0.54131 0.13105-1.076 0.1875-1.625 0.1875-0.9048 0-1.7422-0.13611-2.5-0.4375-0.75783-0.30139-1.3962-0.72078-1.9375-1.2188-0.542-0.503-0.98-1.056-1.281-1.718-0.302-0.655-0.438-1.366-0.438-2.093 0-0.88459 0.20754-1.684 0.625-2.4375 0.41763-0.76007 0.95255-1.4365 1.6562-2 0.7037-0.56349 1.5173-0.99153 2.4375-1.3125 0.92022-0.3211 1.909-0.5 2.9375-0.5zm32.125 0.25c-0.68221 0-1.342 0.10066-1.9688 0.28125-0.6266 0.18046-1.1812 0.47705-1.6562 0.875-0.48012 0.40208-0.87313 0.92642-1.1562 1.5625-0.28804 0.63594-0.40625 1.3974-0.40625 2.3125 0 1.0709 0.14528 1.9884 0.46875 2.7188 0.32856 0.73037 0.73953 1.3069 1.25 1.75 0.51539 0.44323 1.1132 0.74878 1.75 0.9375 0.63661 0.18459 1.2746 0.28125 1.9062 0.28125 0.68221 0 1.3107-0.06954 1.9375-0.25 0.6266-0.17647 1.1812-0.47292 1.6562-0.875 0.48012-0.40208 0.87329-0.92642 1.1562-1.5625 0.28804-0.64007 0.4375-1.4015 0.4375-2.3125 0-1.075-0.17653-1.9925-0.5-2.7188-0.32839-0.73037-0.73969-1.3028-1.25-1.75-0.51-0.443-1.08-0.78-1.712-0.969-0.637-0.189-1.275-0.281-1.907-0.281zm39.719 0c-0.68221 0-1.342 0.10066-1.9688 0.28125-0.6266 0.18046-1.1812 0.47705-1.6562 0.875-0.48012 0.40208-0.87313 0.92642-1.1562 1.5625-0.28804 0.63594-0.4375 1.3974-0.4375 2.3125 0 1.0709 0.17653 1.9884 0.5 2.7188 0.32856 0.73037 0.73969 1.3069 1.25 1.75 0.51555 0.44323 1.082 0.74878 1.7188 0.9375 0.63677 0.18459 1.2746 0.28125 1.9062 0.28125 0.68221 0 1.342-0.06954 1.9688-0.25 0.6266-0.17647 1.1812-0.47292 1.6562-0.875 0.48012-0.40208 0.87313-0.92642 1.1562-1.5625 0.28804-0.64007 0.40625-1.4015 0.40625-2.3125 0-1.075-0.14528-1.9925-0.46875-2.7188-0.32856-0.73037-0.73953-1.3028-1.25-1.75-0.51539-0.44323-1.1132-0.78003-1.75-0.96875-0.63677-0.18872-1.2432-0.28125-1.875-0.28125zm-85.812 5.75c-0.40204 0.03276-0.809 0.09725-1.2188 0.15625-0.41763 0.05247-0.82425 0.13365-1.2188 0.21875-0.39433 0.09176-0.77709 0.19965-1.125 0.34375-0.34037 0.13758-0.63535 0.30995-0.875 0.5-0.37892 0.28168-0.5625 0.64812-0.5625 1.0938 0 0.53726 0.17522 0.97031 0.5 1.3438 0.32478 0.37344 0.81959 0.5625 1.5 0.5625 0.47947 0 0.97411-0.0912 1.5-0.28125s1.028-0.4471 1.4688-0.78125c0-0.53726 0.01583-1.0515 0.03125-1.5625 0.0077-0.51115 0-1.0565 0-1.5938z" transform="matrix(6.0964 0 0 7.5085 -106.94 314.46)" fill="#ff0"/>
     <path id="path3003" fill="#ff0" d="m395.7 332.39c88.68 0 160.6 58.132 160.6 129.81 0 22.333-6.986 43.347-19.283 61.699-12.353 18.436-23.158 22.021-44.353 27.929-59.961 16.715-129.55 14.364-184.36-0.475-22.793-6.172-43.812-10.826-56.523-31.512-10.673-17.367-16.678-36.938-16.678-57.641 0-71.681 71.916-129.81 160.6-129.81z"/>
     <path id="path3005" fill="#e21c2a" d="m371.37 351.51c-32.292 20.587-62.209 50.85-70.026 89.706-2.734 13.59-3.596 27.676-2.347 41.488 0.992 10.967 3.3 21.535 6.78 32.021 13.538 40.802 39.358 49.252 79.219 49.252h11.349v-1.296c-0.572-0.048-9.164-5.283-10.076-5.811-15.432-8.921-30.069-17.387-41.061-31.792-19.236-25.208-29.42-50.715-23.687-82.146 5.876-32.209 24.58-55.588 48.295-76.794 3.363-3.007 15.771-12.549 21.855-10.815 0.525-0.273 1.049-0.547 1.574-0.82-0.372-0.401-0.744-0.803-1.115-1.204 0.088-1.061 2.757-4.214 3.243-4.214h17.835c0.747 0 0.973 0.226 0.973 0.973v0.324c0 1.55-0.367 2.013-0.973 2.917h-19.132c0.514 0.447 0.852 0.894 1.179 1.265 1.608 1.826 10.497 4.822 12.764 4.569 0.448 0.668 0.973 0.841 0.973 1.621v3.241c0 2.243-2.011 3.837-3.141 5.593-1.382 2.147-0.583 3.325 0.228 4.781 0.425 0.763 1.221 2.397 1.873 3.984 1.598 3.887 1.788 10.255-0.808 13.682-1.634 2.156-4.284 3.061-7.678 2.456-1.773-0.317-3.06-2.598-4.093-4.242 0-1.703 0.358-1.59-0.973-1.945-0.113 0.018-0.226 0.036-0.338 0.054 0.714 4.51 1.428 9.02 2.143 13.53 0.165 0.424 0.768 0.883 1.535 1.311 6.26 3.489 13.911 1.121 17.076-5.58 1.734-3.669 2.58-7.991 2.592-10.63 0.01-2.444 1.024-1.978 2.226-1.449 1.85 0.814 5.892 1.482 7.742 1.624 3.371 0.261 2.474-0.567 1.589-1.734-1.26-1.659-2.281-3.718-3.469-5.487-2.712-4.039-5.125-6.84-7.748-10.762 0.939-0.34 2.17-1.725 3.003-2.508 0.613-0.577 0.747-0.961 1.277-1.317 1.449-0.974 10.745-9.514 16.964-15.439 6.99-6.658 8.254-6.896-1.204-6.082-4.084 0.353-8.166 0.708-12.208 1.31-2.199 0.327-2.575 0.535-4.04-1.374-0.394-0.515-0.732-1.094-0.968-1.769-0.446-1.276-0.143-2.128-1.371-3.013-1.843-1.327-4.806-0.954-6.956-0.706-2.688 0.31-5.363 0.785-7.991 1.218-12.651 2.085-21.662 4.855-32.884 12.009zm4.87 29.663c0 0.685 0.337 0.956 0.811 1.006 2.697 0.28 5.209-1.514 7.839-1.844 0.883-0.111 1.727-0.25 1.727-1.43v-9.015c0-3.322-2.013-4.016-4.094-3.307-1.85 0.632-3.177 1.971-3.995 3.705-1.253 2.654-2 6.68-2.22 9.392-0.045 0.562-0.068 1.068-0.068 1.493zm21.564 28.145c6.589 19.841 15.85 37.841 34.316 49.235 29.527 18.221 52.639 6.692 82.345-0.393 3.183-0.763 2.73-2.508-0.473-2.513-20.852-0.036-42.703 2.676-62.993-3.38-23.147-6.91-39.307-20.864-50.911-41.434-0.369-0.654-0.629-1.231-0.887-1.749-1.281-2.571-2.73-3.779-1.397 0.234z"/>
     <path id="path3019" fill="#e21c2a" d="m24.666 727.42c-1.5653 0-2.8347-1.269-2.8347-2.835 0-1.565 1.2694-2.834 2.8347-2.834h747.23c1.566 0 2.835 1.269 2.835 2.834 0 1.566-1.269 2.835-2.835 2.835h-747.23z"/>
    </g>
   </g>
  </g>
 </g>
</svg>
