<?xml version="1.0" encoding="UTF-8" standalone="no"?>
<!-- Created with Inkscape (http://www.inkscape.org/) -->
<svg id="svg2" xmlns:rdf="http://www.w3.org/1999/02/22-rdf-syntax-ns#" xmlns="http://www.w3.org/2000/svg" height="100" width="165" version="1.1" xmlns:cc="http://creativecommons.org/ns#" xmlns:dc="http://purl.org/dc/elements/1.1/" viewBox="0 0 165 100">
 <metadata id="metadata7">
  <rdf:RDF>
   <cc:Work rdf:about="">
    <dc:format>image/svg+xml</dc:format>
    <dc:type rdf:resource="http://purl.org/dc/dcmitype/StillImage"/>
    <dc:title/>
   </cc:Work>
  </rdf:RDF>
 </metadata>
 <g id="layer1" transform="translate(0 -952.36)">
  <path id="path12031" d="m79.701 961.6a28.638 28.991 0 0 0 -8.3949 1.6897 28.638 28.991 0 0 0 -17.285 36.933 28.638 28.991 0 0 0 36.373 17.734l0.68737-0.2509a28.638 28.991 0 0 0 16.818 -37.155 28.638 28.991 0 0 0 -28.198 -18.951zm1.1893 7.2808c2.1623 0.0365 4.317 0.23469 6.4123 0.88638 11.474 2.2248 18.795 16.626 14.904 28.289-5.6962 18.178-31.626 19.633-40.486 3.8048-8.5435-13.392 2.9063-32.634 17.006-32.974 0.7203-0.0128 1.4426-0.0189 2.1634-0.007z" fill="#022454"/>
  <path id="path12031-6-7-9" d="m78.891 970.89c-1.6559 0.10355-3.2485 0.45299-4.7539 1.0098 0.2401 1.1999 0.18362 2.3965 0.10938 3.6602-0.2606 7.0472-6.168 11.974-13.193 13.672-0.09378 0.89017-0.14789 1.7823-0.11133 2.6699 0.01852 0.63249 0.07965 1.2538 0.16797 1.8672 2.8355-0.55604 5.9052-1.4337 8.2227-2.7988l0.48438-0.29492c7.2703-4.5581 10.757-12.268 9.0742-19.785z" fill="#ae9960"/>
  <path id="path12031-6-7-9-8" d="m80.891 970.89c-1.8354 7.606 1.6449 15.451 9.0059 20.066l0.48438 0.29687c2.578 1.5186 6.1016 2.4552 9.1797 2.9902 0.28396-1.4732 0.39022-2.976 0.30273-4.4766-7.5418-1.4022-14.121-6.4797-14.396-13.926-0.0822-1.3992-0.14341-2.7162 0.20117-4.0469-1.5414-0.48354-3.1434-0.79065-4.7773-0.9043z" fill="#ae9960"/>
  <path id="path3410" d="m23.814 1042.1c1.0115-0.3475 1.0598-0.6025 1.0627-5.6075 0.0029-4.9925-0.02782-5.1434-1.1102-5.4563-0.42345-0.1225 0.014-0.1671 1.7315-0.1766l2.2981-0.013 1.1375 2.6926c1.9811 4.6898 2.1362 5.0063 2.3134 4.7201 0.08836-0.1428 0.81973-1.8703 1.6253-3.8389l1.4646-3.5793 2.2981 0.015c1.8152 0.012 2.1681 0.052 1.6794 0.1875-1.0626 0.2954-1.0607 0.2852-1.0607 5.5414 0 5.275 0.0078 5.3155 1.0693 5.5654 0.38689 0.091-0.48935 0.1406-2.3951 0.1353-1.6529 0-2.7666-0.043-2.4749-0.085 1.1591-0.1676 1.149-0.1198 1.149-5.4957 0-2.6749-0.0534-4.81-0.11867-4.7447-0.06527 0.065-1.0906 2.4364-2.2786 5.2692-1.7592 4.195-2.1924 5.0885-2.3351 4.8163-0.09638-0.1838-1.1089-2.5218-2.25-5.1955-1.1411-2.6738-2.1052-4.8945-2.1424-4.9351-0.14025-0.1528-0.05548 9.4534 0.08539 9.6756 0.08115 0.1279 0.45779 0.3432 0.83698 0.4783 0.66357 0.2365 0.61648 0.2456-1.2551 0.2435-1.7334 0-1.8779-0.025-1.3304-0.2132z" fill="#022454"/>
  <path id="path3412" d="m40.171 1042.2c1.1617-0.168 1.149-0.1059 1.149-5.6213 0-5.4307 0.04115-5.2161-1.0607-5.5309-0.47312-0.1352 0.08846-0.1768 2.3865-0.1768 2.2538 0 2.8505 0.043 2.3865 0.172-1.0626 0.2954-1.0607 0.2853-1.0607 5.5414 0 5.275 0.0078 5.3155 1.0693 5.5654 0.38689 0.091-0.48935 0.1406-2.3951 0.1353-1.6529 0-2.7666-0.043-2.4749-0.085z" fill="#022454"/>
  <path id="path3414" d="m52.545 1037.7-3.8891-4.8098-0.04752 4.024c-0.05267 4.4604 0.04463 4.9754 0.97881 5.1813 0.92838 0.2046 0.82202 0.2243-1.1965 0.2223-1.4864 0-1.8865-0.044-1.4882-0.1601 0.29959-0.087 0.69734-0.3267 0.88388-0.5327 0.31182-0.3444 0.34396-0.7331 0.39849-4.821 0.05805-4.3516 0.05106-4.4569-0.32767-4.9384-0.21284-0.2705-0.63728-0.6016-0.9432-0.7357-0.51681-0.2265-0.41553-0.2448 1.4296-0.2582l1.9858-0.014 2.9198 3.644 2.9198 3.6441v-3.0799c0-3.403-0.05181-3.5923-1.0851-3.9663-0.5341-0.1933-0.40076-0.2164 1.3165-0.2285 1.7937-0.013 2.3524 0.1681 1.2199 0.3946-0.86319 0.1726-0.921 0.5581-0.921 6.141 0 2.815-0.05966 5.1149-0.13258 5.1109-0.07292 0-1.8827-2.1718-4.0217-4.8172z" fill="#022454"/>
  <path id="path3416" d="m59.616 1042.2c1.1596-0.1677 1.149-0.117 1.149-5.5208 0-3.6395-0.05646-4.9621-0.22097-5.1764-0.12153-0.1583-0.49939-0.3652-0.83969-0.4598-0.44345-0.1232 0.74588-0.1765 4.1984-0.1879l4.8172-0.016-0.01197 1.7235c-0.0098 1.4113-0.04725 1.6435-0.20666 1.2817-0.10709-0.2431-0.30904-0.6993-0.4488-1.0137-0.4144-0.9324-1.242-1.3167-3.0587-1.4203l-1.5771-0.09v2.4994c0 2.3947 0.01505 2.4993 0.35923 2.4993 0.61525 0 1.4869-0.4564 1.7199-0.9007 0.12263-0.2338 0.33352-0.7831 0.46866-1.2206 0.23209-0.7514 0.24666-0.6266 0.26317 2.2539 0.0096 1.6772-0.01665 3.0494-0.05837 3.0494-0.04171 0-0.20152-0.4323-0.35512-0.9606-0.32714-1.1254-0.93012-1.691-1.8026-1.691h-0.59488v2.1971c0 2.6989 0.03485 2.7526 1.7861 2.7526 1.9416 0 3.204-0.7191 3.8791-2.2097 0.39455-0.8711 0.43219-0.5107 0.14696 1.407l-0.19827 1.3331-4.9725-0.026c-2.7348-0.015-4.7338-0.061-4.4421-0.1032z" fill="#022454"/>
  <path id="path3418" d="m71.363 1042.2c1.0617-0.2499 1.0696-0.2907 1.0666-5.555-0.0015-2.6308-0.0691-4.8881-0.15025-5.0161-0.08115-0.1279-0.45779-0.3432-0.83698-0.4783-0.63768-0.2273-0.46383-0.2459 2.3158-0.2477 4.6986 0 6.203 0.3057 7.0097 1.4386 0.40389 0.5672 0.61528 1.79 0.43418 2.5116-0.16792 0.669-1.103 1.6441-1.7959 1.8728-0.33544 0.1107-0.60988 0.2361-0.60988 0.2786 0 0.043 0.7754 1.1622 1.7231 2.4881 1.169 1.6355 1.8938 2.4851 2.2539 2.6421 0.48153 0.2098 0.35851 0.2317-1.3254 0.2357h-1.8562l-1.8562-2.6564c-1.63-2.3328-1.91-2.6501-2.2981-2.6049l-0.44194 0.051 0.02081 2.17c0.02327 2.4265 0.17173 2.7903 1.1909 2.9184 0.30581 0.038-0.79633 0.075-2.4492 0.08-1.9018 0.01-2.7812-0.043-2.3951-0.1335zm6.3726-5.9932c0.63551-0.4506 0.87831-1.0316 0.88128-2.1087 0.0031-1.1274-0.37287-2.0055-1.0032-2.3428-0.25269-0.1352-0.94515-0.2462-1.5388-0.2465l-1.0794-0.0007-0.04957 2.3775c-0.02726 1.3077-0.0069 2.4888 0.04526 2.6247 0.13146 0.3426 2.1477 0.1196 2.7444-0.3035z" fill="#022454"/>
  <path id="path3420" d="m87.989 1042.4c-1.5237-0.4979-2.8288-1.6106-3.5495-3.0262-0.60515-1.1885-0.68718-3.6131-0.16878-4.9888 0.43892-1.1647 1.5429-2.3974 2.6555-2.965 1.5962-0.8143 4.4096-0.8212 5.983-0.015 0.89571 0.4593 1.9202 1.5247 2.4777 2.5768 0.41652 0.786 0.46839 1.0796 0.46839 2.6516 0 1.5866-0.04978 1.8622-0.48567 2.6893-0.67633 1.2834-1.3667 2.0172-2.4629 2.6179-0.83726 0.4589-1.1339 0.5201-2.708 0.5594-0.97227 0.024-1.9666-0.021-2.2097-0.1004zm3.1192-0.5637c0.97623-0.4726 1.5727-1.6437 1.8545-3.641 0.2546-1.8045-0.0091-4.1701-0.59668-5.3528-1.0532-2.12-3.7045-2.1694-4.8523-0.091-1.0361 1.8766-0.95749 6.3783 0.14241 8.158 0.40574 0.6565 1.5049 1.2815 2.2657 1.2884 0.23668 0 0.77052-0.1608 1.1863-0.3621z" fill="#022454"/>
  <path id="path3424" d="m100.77 1042.5c-0.40869-0.079-0.90064-0.2283-1.0932-0.3314-0.51654-0.2765-1.273-0.228-1.6411 0.1052-0.31149 0.2818-0.32312 0.2158-0.31908-1.812l0.0042-2.1045 0.42784 1.0406c0.23531 0.5724 0.65106 1.2785 0.92388 1.5691 1.4544 1.5494 3.9369 1.565 4.5788 0.029 0.50071-1.1984-0.11677-1.9863-2.5478-3.2511-2.4848-1.2927-3.3911-2.3341-3.3911-3.8965 0-2.3813 2.5948-3.8313 5.0889-2.8436 1.1986 0.4746 1.6005 0.4685 1.7999-0.028 0.13626-0.3389 0.16172-0.2932 0.17234 0.3094 0.007 0.3889 0.0632 1.2441 0.12515 1.9004 0.12095 1.2806-0.15693 1.7034-0.37068 0.5639-0.1306-0.6961-1.1213-1.9025-1.888-2.299-0.26986-0.1395-0.88791-0.2537-1.3734-0.2537-1.1698 0-1.8571 0.5468-1.8571 1.4773 0 0.8919 0.63056 1.4888 2.7497 2.603 2.0787 1.0928 3.0576 1.9741 3.3343 3.0015 0.69023 2.5633-1.7989 4.7874-4.7234 4.2204z" fill="#022454"/>
  <path id="path3426" d="m114.91 1042.5c-0.40869-0.082-0.90065-0.2328-1.0932-0.3359-0.51654-0.2765-1.273-0.228-1.6411 0.1052-0.31148 0.2818-0.32312 0.2158-0.31908-1.812l0.004-2.1045 0.42784 1.0406c0.23531 0.5724 0.65105 1.2785 0.92388 1.5691 1.7288 1.8418 4.6503 1.4363 4.6503-0.6454 0-0.8907-0.61974-1.5101-2.5099-2.5087-1.8146-0.9587-2.9923-1.9258-3.326-2.7313-0.12457-0.3008-0.18409-0.9381-0.1387-1.4854 0.19397-2.3391 2.6008-3.5566 5.0907-2.5752 1.1618 0.458 1.5645 0.4479 1.7623-0.044 0.11511-0.2863 0.16368 0.023 0.17349 1.1049 0.007 0.8264 0.0616 1.6816 0.12021 1.9004 0.064 0.2386 0.0276 0.3977-0.0908 0.3977-0.10857 0-0.19739-0.1233-0.19739-0.2739 0-0.405-0.50576-1.3355-1.0366-1.9074-0.67935-0.7318-1.3046-1.0007-2.3269-1.0007-0.76596 0-0.98626 0.08-1.423 0.5168-0.57166 0.5716-0.64181 1.0284-0.2681 1.7459 0.24281 0.4662 0.89766 0.9046 3.3374 2.2344 0.65973 0.3595 1.4634 0.9176 1.7859 1.2401 1.0594 1.0594 1.1896 2.7203 0.31612 4.0333-0.4203 0.6319-1.3616 1.3238-1.9533 1.4359-1.1658 0.2208-1.5746 0.2388-2.2681 0.1003z" fill="#022454"/>
  <path id="path3428" d="m121.78 1042.1c-0.2114-0.225-0.38436-0.6264-0.38436-0.8919 0-0.6141 0.72299-1.3506 1.3258-1.3506 0.61621 0 1.3258 0.7361 1.3258 1.3753 0 1.1201-1.4932 1.6912-2.2673 0.8672z" fill="#022454"/>
  <path id="path3430" d="m125.58 1042c0.30464-0.1858 0.67666-0.5131 0.82672-0.7273s1.2879-2.6473 2.5286-5.4068 2.3006-5.0172 2.3553-5.017c0.0547 0.0001 1.0857 2.2474 2.2912 4.9939 2.2209 5.0602 2.757 6.0454 3.4395 6.3208 0.23593 0.095-0.6893 0.1504-2.4493 0.1461-1.8035 0-2.612-0.058-2.231-0.1479 1.018-0.2403 1.0479-0.4903 0.26978-2.2591l-0.41078-0.9338-2.0837 0.05-2.0837 0.05-0.41406 1.0443c-0.51168 1.2906-0.3706 1.7476 0.62052 2.0103 0.57751 0.1531 0.3925 0.1818-1.2684 0.1968l-1.9445 0.018 0.55389-0.3377zm6.4288-3.4279c0-0.1127-1.7111-4.0135-1.7992-4.1016-0.0712-0.071-1.3106 2.5467-1.863 3.9353-0.067 0.1684 0.35806 0.2209 1.7872 0.2209 1.0313 0 1.8751-0.024 1.8751-0.055z" fill="#022454"/>
  <path id="path3432" d="m138.78 1042.1c-0.36593-0.366-0.43264-0.5625-0.34498-1.0165 0.21254-1.1007 1.2471-1.4992 2.1167-0.8151 0.34132 0.2684 0.46578 0.5282 0.46578 0.9722 0 1.2411-1.3408 1.7561-2.2375 0.8594z" fill="#022454"/>
 </g>
</svg>
