<?xml version="1.0" encoding="UTF-8" standalone="no"?>
<!-- Created with Inkscape (http://www.inkscape.org/) -->
<svg id="svg2" xmlns:rdf="http://www.w3.org/1999/02/22-rdf-syntax-ns#" xmlns="http://www.w3.org/2000/svg" height="100" width="165" version="1.1" xmlns:cc="http://creativecommons.org/ns#" xmlns:dc="http://purl.org/dc/elements/1.1/" viewBox="0 0 165 100">
 <metadata id="metadata7">
  <rdf:RDF>
   <cc:Work rdf:about="">
    <dc:format>image/svg+xml</dc:format>
    <dc:type rdf:resource="http://purl.org/dc/dcmitype/StillImage"/>
    <dc:title/>
   </cc:Work>
  </rdf:RDF>
 </metadata>
 <g id="layer1" transform="translate(0 -952.36)">
  <path id="path12800" d="m64.242 963.88a37.1 18.598 0 0 0 -1.127 0.0164 37.1 18.598 0 0 0 -10.875 1.0848 37.1 18.598 0 0 0 -22.393 23.692 37.1 18.598 0 0 0 47.119 11.376l0.89258-0.16132a37.1 18.598 0 0 0 6.916 -1.7596v-0.46759c-9.9505 1.8059-20.649 0.90079-30.164-1.8518-7.5309-2.1236-16.712-8.1224-13.312-15.6 5.5824-9.4455 19.807-11.578 31.139-12.044 3.973 0.0198 8.204 0.28333 12.338 0.95636v-2.2963a37.1 18.598 0 0 0 -20.533 -2.9448z" fill="#9db3ca"/>
  <path id="rect12864" d="m52.712 1006.1-1.8775 32.764h10.794l-2.5094-32.764h-6.4071z" fill="#291874"/>
  <path id="path12883" d="m70.169 1014.2c-5.7529 0.5293-11.537 0.6996-17.121 0.5059l-0.14818-3.4435c14.439-0.3157 30.331-2.0237 39.008-6.1143 5.6021-2.6407 8.9393-7.1277 10.229-10.101 0.57625-1.3284 0.46531-5.6438-0.22717-6.8927-1.7134-3.093-6.0497-5.7009-12.68-7.6267-5.5537-1.613-14.603-2.5938-25.059-2.7152-2.5763-0.03-7.7721 0.33587-12.676 0.80552l-0.07554-1.7556c1.0067-0.20869 2.036-0.43699 2.9856-0.61206 3.0238-0.5574 17.109-1.9635 20.143-2.0111 22.195-0.34761 38.886 3.93 44.536 11.413 5.7512 7.616-2.8132 16.862-21.303 23.001-8.3452 2.7711-17.928 4.6554-27.612 5.546z" fill="#291874"/>
  <path id="path12914" d="m58.03 992.03c-0.24278-0.15357-0.23616-0.22803 0.04818-0.54223 0.28217-0.3118 0.32961-0.80936 0.32961-3.4573 0-2.5041-0.05464-3.1384-0.28697-3.3312-0.47666-0.39559-0.13676-0.57995 1.0693-0.57995 1.055 0 1.4272 0.18831 0.95226 0.48182-0.2766 0.17095-0.25624 6.7012 0.02175 6.9792 0.11796 0.11796 0.15621 0.30876 0.08499 0.424-0.15726 0.25446-1.8268 0.27372-2.2191 0.0256z"/>
  <path id="path12916" d="m61.299 992.01c-0.25274-0.16912-0.24668-0.22595 0.04818-0.45193 0.29729-0.22786 0.33727-0.63785 0.33727-3.4587 0-3.0176-0.02229-3.2121-0.39085-3.4093-0.60346-0.32296-0.26227-0.5753 0.77787-0.5753 1.1087 0 1.2709 0.17048 2.8911 3.0386 0.55487 0.98224 1.085 1.833 1.1781 1.8905 0.09326 0.0576 0.16922-0.85488 0.16922-2.0328 0-1.7221-0.05617-2.159-0.28909-2.2484-0.159-0.061-0.28909-0.23175-0.28909-0.37941 0-0.1897 0.25445-0.26847 0.86727-0.26847s0.86727 0.0788 0.86727 0.26847c0 0.14766-0.12816 0.31766-0.28481 0.37777-0.23461 0.09-0.29406 0.74757-0.33727 3.7306-0.06852 4.7294-0.13582 4.7502-2.4747 0.76239-0.92223-1.5724-1.7736-2.9557-1.8918-3.074-0.15826-0.15827-0.21506 0.46553-0.21506 2.362 0 2.0904 0.05815 2.6413 0.30797 2.9173 0.16938 0.18717 0.25099 0.4325 0.18135 0.54518-0.15954 0.25814-1.0703 0.26161-1.453 0.005z"/>
  <path id="path12918" d="m68.13 992c-0.07122-0.11524-0.03298-0.30604 0.08499-0.424 0.2796-0.2796 0.30047-6.8829 0.02175-6.8829-0.106 0-0.19273-0.13009-0.19273-0.28909 0-0.22484 0.25697-0.28909 1.1564-0.28909 0.87835 0 1.1564 0.0668 1.1564 0.27772 0 0.15274-0.08673 0.33132-0.19273 0.39683-0.27627 0.17074-0.25595 6.5088 0.02175 6.7865 0.37834 0.37834-0.01858 0.63352-0.98539 0.63352-0.51749 0-0.99916-0.0943-1.0704-0.20952z"/>
  <path id="path12920" d="m73.143 991.85c-1.5117-0.92184-2.2476-2.732-1.844-4.5355 0.44798-2.0018 1.6721-3.218 3.3598-3.338 0.78104-0.0555 1.1655 0.0261 1.7688 0.37564 0.68339 0.39589 0.77764 0.53902 0.83017 1.2608 0.07469 1.0262-0.33188 1.1032-0.78686 0.1491-0.59701-1.252-1.9139-1.5985-2.7142-0.71418-1.2872 1.4224-1.1356 5.4496 0.2327 6.1819 0.79294 0.42437 1.7156 0.25064 2.5178-0.47406 0.79592-0.71907 1.1139-0.67119 0.72492 0.10913-0.62044 1.2445-2.8019 1.77-4.0891 0.98508z"/>
  <path id="path12922" d="m78.002 992.07c-0.04765-0.0795 0.28438-1.288 0.73786-2.6855 2.1584-6.6521 2.4043-6.8093 3.9135-2.5036 0.52666 1.5025 1.0694 3.1221 1.2061 3.5991 0.13668 0.477 0.32751 0.97189 0.42408 1.0997 0.29813 0.39474-0.03671 0.63494-0.8808 0.63186-1.0745-0.004-1.3997-0.21132-1.0954-0.69857 0.17475-0.27982 0.17722-0.56243 0.01034-1.1822l-0.21931-0.81447h-1.4262-1.4262l-0.13032 0.86903c-0.0857 0.57146-0.05106 0.96452 0.10115 1.1479 0.12731 0.1534 0.17552 0.36943 0.10714 0.48007-0.1421 0.22993-1.191 0.27486-1.3218 0.0566zm3.7257-3.5835c0-0.36831-0.74687-2.4923-0.94662-2.6921-0.09408-0.0941-0.35679 0.40828-0.60199 1.1511-0.23929 0.72493-0.47502 1.4264-0.52385 1.559-0.06436 0.17464 0.20848 0.24091 0.99184 0.24091 0.7761 0 1.0806-0.073 1.0806-0.25892z"/>
  <path id="path12924" d="m54.437 988.07c0.00027-1.59 0.03012-2.2148 0.06633-1.3885 0.03622 0.82635 0.03599 2.1273-0.000491 2.8909-0.03648 0.76366-0.06611 0.0876-0.06584-1.5024z" fill="#0f0"/>
  <path id="path12926" d="m52.519 992c-0.07122-0.11524-0.03298-0.30604 0.08499-0.424 0.278-0.278 0.29835-6.8083 0.02175-6.9792-0.47244-0.29198-0.10542-0.48182 0.93152-0.48182 1.2806 0 1.506 0.12084 1.0876 0.58314-0.24379 0.26939-0.28529 0.86862-0.24133 3.4847l0.05309 3.1594 0.91489 0.0587c0.77531 0.0498 0.98451-0.0164 1.3712-0.43364 0.6454-0.6964 0.95688-0.6436 0.79061 0.13401-0.07366 0.3445-0.22126 0.73477-0.328 0.86727-0.25152 0.31223-4.4952 0.34065-4.6864 0.0314z"/>
  <path id="path12928" d="m67.553 1038.5c-0.07036-0.1139 0.04021-0.3958 0.24572-0.6264 0.20551-0.2307 0.56905-1.11 0.80788-1.9541 0.48009-1.6968 2.3995-6.6974 2.8324-7.3789 0.30664-0.4829 1.2419-0.5975 1.5725-0.1928 0.24193 0.2962 3.3195 8.4842 3.3195 8.8317 0 0.1374 0.18254 0.4442 0.40565 0.6817 0.61728 0.657 0.31176 0.8457-1.3693 0.8457-1.6169 0-1.9746-0.1862-1.4567-0.7584 0.29244-0.3232 0.29151-0.4355-0.01272-1.5297l-0.32833-1.181h-1.8807-1.8807l-0.18934 0.6264c-0.38223 1.2645-0.38247 1.4878-0.0021 1.9713 0.20864 0.2653 0.32522 0.5698 0.25908 0.6769-0.16107 0.2606-2.1606 0.2499-2.3227-0.013zm5.6446-4.4667c-0.04998-0.1325-0.38449-1.0426-0.74335-2.0225s-0.70419-1.7821-0.76741-1.7827c-0.107 0-1.5232 3.6443-1.5232 3.9208 0 0.069 0.7031 0.1253 1.5624 0.1253 1.1699 0 1.5396-0.061 1.4716-0.2409z"/>
  <path id="path12930" d="m77.577 1038.5c-0.06964-0.1127 0.01197-0.358 0.18135-0.5452 0.44766-0.4947 0.46514-8.7848 0.01888-8.956-0.38029-0.146-0.3705-0.6288 0.01576-0.777 0.39512-0.1516 2.4643-0.1516 2.8594 0 0.38581 0.1481 0.39131 0.535 0.01208 0.8497-0.24842 0.2062-0.28492 0.874-0.24091 4.4082l0.05187 4.1651 1.2344 0.058c1.1937 0.056 1.2582 0.035 1.9581-0.6485 1.036-1.0116 1.3843-0.6683 0.94106 0.9276l-0.20071 0.7227h-3.3523c-2.1595 0-3.3974-0.073-3.4789-0.2048z"/>
  <path id="path12932" d="m85.286 1038.5c-0.06964-0.1127 0.01197-0.358 0.18135-0.5452 0.44766-0.4947 0.46514-8.7848 0.01888-8.956-0.38029-0.146-0.3705-0.6288 0.01576-0.777 0.52282-0.2006 6.2498-0.1295 6.646 0.082 0.27088 0.145 0.37278 0.4053 0.37278 0.9523 0 0.9871-0.29086 1.131-0.97029 0.48-0.58696-0.5623-1.9808-0.8399-2.9702-0.5916-0.47947 0.1203-0.49227 0.1661-0.49227 1.7581v1.6345l1.2045-0.01c0.74002 0 1.3456-0.1129 1.5702-0.2829 0.51872-0.3927 0.69434-0.1977 0.69434 0.7708s-0.17562 1.1635-0.69434 0.7709c-0.22465-0.1701-0.8302-0.2792-1.5702-0.2829l-1.2045-0.01v1.8887c0 1.212 0.08286 1.9716 0.23127 2.12 0.13451 0.1345 0.77935 0.2313 1.5413 0.2313 1.2322 0 1.3554-0.041 2.0742-0.6904 0.90087-0.8139 1.2552-0.7226 1.068 0.2753-0.26947 1.4364-0.10037 1.3787-4.0429 1.3787-2.2972 0-3.5919-0.072-3.6739-0.2049z"/>
  <path id="path12934" d="m93.776 1038.5c-0.06411-0.1037 0.06596-0.4354 0.28904-0.7371 0.38652-0.5229 0.4028-0.7356 0.3461-4.5253-0.05458-3.6477-0.08984-3.9988-0.42622-4.2445-0.2017-0.1473-0.31193-0.3565-0.24496-0.4648 0.06697-0.1084 1.2294-0.2559 2.5831-0.3279 3.816-0.2029 5.1414 0.2043 5.6465 1.7349 0.32053 0.9713-0.0469 2.0413-0.97325 2.8342-0.42158 0.3609-0.76651 0.7211-0.76651 0.8006 0 0.08 0.17701 0.3931 0.39337 0.6969 0.21635 0.3039 0.65305 1.1822 0.97043 1.9519 0.31739 0.7696 0.74826 1.5816 0.95749 1.8043s0.32181 0.4636 0.25017 0.5352c-0.21676 0.2168-3.5005 0.1494-3.639-0.075-0.06964-0.1127 0.02424-0.3716 0.20863-0.5753 0.31854-0.352 0.31843-0.4145-0.0022-1.254-0.55002-1.4403-1.2672-2.5915-1.6127-2.5887-0.17644 0-0.51593 0.055-0.75443 0.1189-0.4056 0.1087-0.43364 0.2198-0.43364 1.7181 0 1.167 0.07849 1.6804 0.28909 1.891 0.159 0.159 0.28909 0.4254 0.28909 0.592 0 0.2514-0.27638 0.3028-1.6268 0.3028-0.89474 0-1.6793-0.085-1.7434-0.1885zm4.2892-5.506c1.1643-0.4865 1.5864-1.0016 1.5864-1.9359 0-1.089-0.13639-1.3886-0.78469-1.7239-0.63896-0.3304-1.4018-0.363-1.9262-0.082-0.33027 0.1767-0.37278 0.4185-0.37278 2.12 0 2.1668 0.05392 2.2252 1.4972 1.6222z"/>
  <path id="path12936" d="m103.2 1038.4c-0.0758-0.1226 0.0678-0.3724 0.3259-0.5669 0.45672-0.3441 0.46195-0.3874 0.52057-4.3107l0.0592-3.963-0.61162-0.5587c-0.59405-0.5425-0.60026-0.5646-0.21642-0.7701 0.55312-0.296 3.022-0.2737 3.263 0.029 0.1053 0.1325 0.64958 1.5676 1.2095 3.189 0.55993 1.6215 1.0777 2.879 1.1507 2.7946 0.0729-0.084 0.59255-1.4364 1.1547-3.0044 0.63518-1.7717 1.1526-2.9208 1.367-3.0355 0.58787-0.3146 2.6002-0.2275 2.8929 0.1253 0.22134 0.2667 0.18434 0.363-0.26549 0.6906l-0.52267 0.3808v3.9706c0 3.7712 0.0204 3.9923 0.40564 4.4024 0.62551 0.6658 0.31366 0.8457-1.4656 0.8457s-2.0912-0.1799-1.4656-0.8457c0.38116-0.4058 0.40564-0.6399 0.40564-3.8789 0-1.9054-0.0732-3.3651-0.16367-3.2639-0.09 0.1007-0.66293 1.5895-1.2731 3.3084-1.1435 3.2211-1.3935 3.5859-2.1696 3.1659-0.21075-0.114-0.79358-1.3899-1.5009-3.2857-0.63601-1.7046-1.227-3.0998-1.3133-3.1006-0.0863-0.0007-0.1297 1.5216-0.0964 3.3828 0.0593 3.3114 0.0705 3.3916 0.52196 3.7318 0.67874 0.5114 0.34927 0.7859-0.94318 0.7859-0.63903 0-1.1927-0.096-1.2691-0.2191z"/>
  <path id="path12938" d="m118.25 1038.4c-2.0456-0.9546-3.1069-2.9052-2.9459-5.4143 0.19159-2.9854 2.2136-5.0229 4.9695-5.0075 1.9233 0.011 3.6809 1.1689 4.5092 2.9713 0.56486 1.2291 0.55879 3.6062-0.0124 4.8505-1.1777 2.5657-4.0984 3.7303-6.5205 2.6zm3.3367-0.9913c1.1833-0.9957 1.6874-3.6321 1.1186-5.8507-0.40918-1.5961-0.90648-2.2727-1.8861-2.5662-1.1106-0.3327-2.0093 0.1656-2.6655 1.478-0.41758 0.8352-0.48182 1.2206-0.48182 2.8909 0 2.1983 0.25253 3.1138 1.0898 3.9511 0.76922 0.7693 1.9768 0.8107 2.8251 0.097z"/>
 </g>
</svg>
