<?xml version="1.0" encoding="UTF-8" standalone="no"?>
<!-- Created with Inkscape (http://www.inkscape.org/) -->
<svg id="svg2" xmlns:rdf="http://www.w3.org/1999/02/22-rdf-syntax-ns#" xmlns="http://www.w3.org/2000/svg" height="100" width="165" version="1.1" xmlns:cc="http://creativecommons.org/ns#" xmlns:dc="http://purl.org/dc/elements/1.1/" viewBox="0 0 165 100">
 <metadata id="metadata7">
  <rdf:RDF>
   <cc:Work rdf:about="">
    <dc:format>image/svg+xml</dc:format>
    <dc:type rdf:resource="http://purl.org/dc/dcmitype/StillImage"/>
    <dc:title/>
   </cc:Work>
  </rdf:RDF>
 </metadata>
 <g id="layer1" transform="translate(0 -952.36)">
  <g id="g3041" transform="matrix(.21855 0 0 .32089 -2.6181 844.38)">
   <g id="g3043">
    <g id="g3045">
     <g id="g3047">
      <g id="g3049">
       <path id="path3051" d="m190.86 379.7c-3.57 11.989-7.14 23.978-10.711 35.968-68.87 25.84-172.17 84.33-77.38 168.69-118.58-81.93-5.838-174.46 88.09-204.66z" stroke="#0a622f" stroke-width="1.1997" fill="#0a622f"/>
       <path id="path3053" d="m180.09 415.69c-89.395 33.85-162.47 90.36-78.33 167.68-39.728-45.04-10.388-85.39 59.64-107.47 6.229-20.071 12.457-40.14 18.686-60.21z" stroke="#92a388" stroke-width="1.1997" fill="#92a388"/>
       <path id="path3055" d="m161.4 475.9c-12.38 39.87-25.41 81.31-37.79 121.18-10.16-0.09-63.216-39.39-28.087-84.23 16.467-16.87 40.657-29.42 65.877-36.95z" stroke="#f6bc1f" stroke-width="1.1988" fill="#f6bc1f"/>
      </g>
      <g id="g3057">
       <path id="path3059" d="m200.08 380.66c-3.772 11.927-7.544 23.855-11.315 35.783 42.51 60.024 95.197 166.4-30.601 183.05 144.12-1.29 102.72-141.13 41.916-218.83z" stroke="#0a622f" stroke-width="1.0045" fill="#0a622f"/>
       <path id="path3061" d="m188.8 416.49c55.003 78.172 83.788 165.95-29.243 182.74 58.156-14.988 56.509-64.852 10.928-122.41 6.105-20.109 12.209-40.216 18.315-60.325z" stroke="#92a388" stroke-width="1.0045" fill="#92a388"/>
       <path id="path3063" d="m170.49 476.82c-12.12 39.948-24.585 81.559-36.705 121.51 8.458 5.621 74.426 2.866 70.506-53.962-4.167-23.203-17.146-47.168-33.801-67.545z" stroke="#f6bc1f" stroke-width="1.0038" fill="#f6bc1f"/>
      </g>
     </g>
     <g id="g3065" stroke="#0a622f" fill="#0a622f">
      <path id="path3067" d="m281.88 571.32 8.524-28.898c61.827 34.671 105.27-7.941 44.284-35.68-18.276-8.313-26.762-21.337-23.879-39.188 7.189-44.526 78.124-53.14 114.15-33.683l-11.595 26.359c-8.665-5.318-33.156-11.3-45.343-8.428-4.65 1.096-9.035 1.223-12.678 3.668-5.75 3.909-8.555 10.79-4.875 16.695 10.225 16.413 35.392 20.895 45.189 36.777 4.242 6.875 5.679 14.46 4.336 22.772-2.391 14.809-10.051 26.858-22.979 36.149-12.962 9.255-28.674 13.901-47.211 13.901-8.137 0-16.134-0.874-24.073-2.62s-15.906-4.331-23.849-7.824z" stroke-width=".49194"/>
      <path id="path3069" d="m513.62 579.75 45.031-156.2h32.235l-43.765 156.95-33.501-0.743z" stroke-width=".50839"/>
      <path id="path3071" d="m678.28 568.9 11.931-37.734 6.193-19.239 3.435-12.505h-16.26c-25.331 0-56.64 60.49-21.795 60.49 5.546 0 8.017 0.133 13.256-4.582l-6.128 20.214c-1.217 4.016-20.346 6.883-24.135 6.883-10.589 0-18.307-5.276-23.694-12.928-5.386-7.651-7.152-17.761-5.306-30.284 5.287-35.862 34.803-63.915 72.301-63.891l46.286 0.03-28.743 105.57h-30.224l2.883-12.02z" stroke-width=".50840"/>
      <path id="path3073" d="m409.21 533.68c2.262-16.414 9.863-30.254 22.797-41.483 12.902-11.266 27.8-16.899 44.618-16.899 14.907 0 26.496 4.514 34.728 13.542 8.227 9.065 11.332 20.778 9.342 35.215-2.278 16.526-9.82 30.478-22.624 41.856-12.768 11.378-27.296 17.048-43.552 17.048-15.582 0-27.503-4.551-35.842-13.616s-11.493-20.966-9.467-35.663zm67.713-32.929c-6.582-1.045-13.335 1.363-20.216 7.233-6.88 5.867-11.784 13.483-14.684 22.892-2.25 7.3-2.291 13.518-0.124 18.654 2.181 5.097 5.992 8.076 11.479 8.949 6.583 1.044 13.24-1.338 19.935-7.155 6.693-5.817 11.554-13.562 14.55-23.284 2.224-7.222 2.336-13.387 0.306-18.42-2.03-5.03-5.76-7.999-11.246-8.869z" stroke-width=".51180"/>
      <path id="path3075" d="m560.07 579.75 45.032-156.2h32.234l-43.765 156.95-33.501-0.743z" stroke-width=".50839"/>
     </g>
    </g>
   </g>
  </g>
 </g>
</svg>
