<?xml version="1.0" encoding="UTF-8" standalone="no"?>
<!-- Created with Inkscape (http://www.inkscape.org/) -->
<svg id="svg2" xmlns:rdf="http://www.w3.org/1999/02/22-rdf-syntax-ns#" xmlns="http://www.w3.org/2000/svg" height="100" width="165" version="1.1" xmlns:cc="http://creativecommons.org/ns#" xmlns:dc="http://purl.org/dc/elements/1.1/" viewBox="0 0 165 100">
 <metadata id="metadata7">
  <rdf:RDF>
   <cc:Work rdf:about="">
    <dc:format>image/svg+xml</dc:format>
    <dc:type rdf:resource="http://purl.org/dc/dcmitype/StillImage"/>
    <dc:title/>
   </cc:Work>
  </rdf:RDF>
 </metadata>
 <g id="layer1" transform="translate(0 -952.36)">
  <g id="g3854" transform="matrix(.33625 0 0 .41450 -.70561 689.74)">
   <path id="path3000-2" d="m445.78 789.73c0.12573 0.0714 0.20117 0.0843 0.25 0h-0.25zm-140.12 1.75c-17.575 0.12003-34.386 3.1194-51.219 9.0312-8.1098 2.8483-22 9.3019-22 10.219 0 0.23846 2.5875-0.4542 5.75-1.5625 27.708-9.7102 66.575-8.6516 113.25 3.0938 13.821 3.4779 29.959 6.3366 41.5 7.3438 31.963 2.7893 68.808-6.773 88-22.812 2.7776-2.3213 2.4068-2.2537-5 0.9375-17.712 7.6311-39.829 11.181-64 10.25-17.444-0.67186-32.959-3.1892-50.5-8.1875-19.868-5.6612-38.206-8.4325-55.781-8.3125z" fill="#00afde"/>
   <path id="path2998-2" d="m421.22 677.47c-2.2508 0.003-4.5148 0.0766-6.7812 0.21875-33.815 2.1214-97.005 14.676-131.81 26.188-14.185 4.6914-33.547 12.391-32.875 13.062 0.2138 0.2138 2.5043-0.52844 5.0625-1.625 12.54-5.3754 45.111-13.99 69.625-18.438 35.329-6.4092 85.761-9.448 108.09-6.5 10.1 1.3332 12.335 2.842 11.594 7.875-0.28404 1.928-6.4069 14.75-13.594 28.5-14.15 27.072-14.988 29.749-11.125 36 1.0945 1.7709 4.357 4.7908 7.25 6.7188 5.8582 3.904 12.753 10.296 15.344 14.25 2.5078 3.8275 2.887 2.3377 0.5625-2.2188-1.1066-2.169-4.6182-6.3088-7.8125-9.2188-7.0752-6.4455-9.3035-9.6384-9.3125-13.375-0.006-2.6101 10.616-21.771 27.531-49.688 8.2734-13.654 8.8114-17.717 3.2188-23.688-4.5079-4.8123-19.213-8.0865-34.969-8.0625z" fill="#00519e"/>
  </g>
  <path id="path3002-4" d="m6.4999 978.11v5.9458c0 4.9915 0.1204 5.9457 0.75015 5.9457 0.55567 0 0.75015-0.51379 0.75015-1.9819 0-1.954 0.023006-1.9819 1.6722-1.9819 2.6631 0 4.2256-2.2029 3.6101-5.0924-0.46459-2.181-1.4631-2.8352-4.3134-2.8352h-2.4693zm8.7518 0c-1.1318 0-1.0881 10.204 0.04686 11.203 0.47395 0.4174 1.6396 0.6881 2.9537 0.6881 3.453 0 3.7508-0.523 3.7508-6.6339 0-4.3763-0.12528-5.2576-0.75015-5.2576-0.6188 0-0.75015 0.81194-0.75015 4.597 0 2.5237-0.12998 4.902-0.29694 5.2851-0.19158 0.43969-0.91635 0.68817-1.9535 0.68817s-1.7463-0.24848-1.9379-0.68817c-0.16696-0.38317-0.31256-2.7615-0.31256-5.2851 0-3.785-0.13135-4.597-0.75015-4.597zm8.7518 0v5.9458 5.9457h3.0006c2.3338 0 3.0006-0.1468 3.0006-0.6606 0-0.48938-0.58346-0.66064-2.2505-0.66064h-2.2505v-1.9819-1.9819h2.0004c1.4447 0 2.0004-0.18352 2.0004-0.66064 0-0.47713-0.55567-0.66065-2.0004-0.66065h-2.0004v-1.9819-1.9819h2.2505c1.667 0 2.2505-0.17127 2.2505-0.66063 0-0.51384-0.6668-0.66064-3.0006-0.66064h-3.0006zm7.0014 0v5.9458c0 5.6521 0.04941 5.9457 1.0002 5.9457 0.89041 0 1.0002-0.2888 1.0002-2.6701 0-2.2449 0.13895-2.652 0.82829-2.5325 0.48604 0.0843 1.237 1.1715 1.8441 2.6701 0.73517 1.8147 1.275 2.5324 1.9223 2.5324 1.1136 0 1.1363 0.1447-0.14066-2.7939l-1.0627-2.4361 1.0627-1.1836c1.3365-1.4964 1.3368-2.8288 0.0156-4.3079-0.89229-0.999-1.4142-1.1699-3.7508-1.1699h-2.7193zm11.502 0c-3.2229 0-4.0008 0.12845-4.0008 0.66064 0 0.44043 0.5001 0.66063 1.5003 0.66063h1.5003v5.2851c0 4.9915 0.05556 5.2851 1.0002 5.2851s1.0002-0.2936 1.0002-5.2851v-5.2851h1.5003c1.0002 0 1.5003-0.2202 1.5003-0.66063 0-0.53219-0.77794-0.66064-4.0008-0.66064zm8.6736 0c-1.2329 0.0191-2.4967 0.30781-3.2038 0.81204-0.90506 0.64541-1.1846 1.3779-1.3597 3.5097-0.28148 3.427 0.14284 5.4108 1.4222 6.6202 1.0934 1.0335 3.8202 1.2931 5.4542 0.523 1.2714-0.59928 2.016-2.7567 2.016-5.8219 0-2.7384-0.91194-4.9101-2.2661-5.3677-0.58706-0.1984-1.3232-0.28673-2.0629-0.27527zm10.83 0v5.9458 5.9457h2.1411c3.6867 0 5.8606-2.2835 5.8606-6.166 0-3.5178-2.2538-5.7256-5.8606-5.7256h-2.1411zm9.5019 0v5.9458 5.9457h3.0006c2.3338 0 3.0006-0.1468 3.0006-0.6606 0-0.48938-0.58345-0.66064-2.2505-0.66064h-2.2505v-1.9544c0-1.9338 0.02766-1.9568 1.8441-2.092 2.6382-0.19635 2.8088-1.2387 0.20317-1.2387h-2.0473v-1.9819-1.9819h2.2505c1.667 0 2.2505-0.17127 2.2505-0.66063 0-0.51384-0.6668-0.66064-3.0006-0.66064h-3.0006zm-63.513 1.2662 1.6253 0.13764c1.5305 0.12995 1.6351 0.25742 1.7816 2.0507 0.08557 1.0474-0.11204 2.187-0.43759 2.5324-0.32554 0.34546-1.1276 0.61936-1.7816 0.61936-1.1212 0-1.1877-0.15189-1.1877-2.6701v-2.6701zm26.162 0.0551c2.0874 0 3.1912 2.1719 1.7504 3.4408-0.33007 0.29068-1.1177 0.52302-1.7504 0.52302-1.0298 0-1.1565-0.20746-1.1565-1.9819 0-1.7745 0.12665-1.9819 1.1565-1.9819zm16.816 0c0.85708 0.0236 1.6952 0.32531 2.016 0.85332 0.28473 0.46855 0.51573 2.1648 0.51573 3.7712s-0.231 3.3026-0.51573 3.7712c-0.6264 1.0308-2.6019 1.1219-3.6882 0.16515-0.97702-0.86044-1.1255-7.198-0.18754-8.024 0.3566-0.31406 0.90214-0.4856 1.4847-0.52302 0.12136-0.008 0.25264-0.0172 0.37508-0.0136zm13.565 0c0.56261 0 1.5753 0.49272 2.2505 1.0873 1.6494 1.4526 1.7497 5.2566 0.18754 7.0056-0.61116 0.68426-1.5347 1.1561-2.2505 1.1561-1.2081 0-1.219-0.0222-1.219-4.6245 0-4.3651 0.0659-4.6245 1.0315-4.6245zm-58.043 13.213v7.7075 7.7074h3.4226c4.0201 0 4.9995-0.6267 5.4386-3.5097 0.2143-1.407 0.06134-2.0984-0.7189-3.0279-0.88183-1.0504-0.93087-1.3247-0.32819-2.0507 1.1691-1.408 0.88538-4.4916-0.53136-5.7393-1.0326-0.90938-1.7077-1.0873-4.2509-1.0873h-3.0319zm22.004 0v7.6385c0 4.1989 0.16045 7.7664 0.34382 7.9278 0.18337 0.1615 0.63346 0.2891 1.0002 0.2891 0.5001 0 0.65638-0.881 0.65638-3.5235 0-3.4114 0.04206-3.5234 1.1877-3.5234 1.0176 0 1.3702 0.4608 2.5474 3.3031 0.75287 1.8181 1.5598 3.4028 1.7816 3.5236 0.81462 0.4432 2.0588-0.319 1.7035-1.0461-1.3866-2.8371-2.6326-6.221-2.2817-6.221 0.23229 0 0.94143-0.8694 1.5784-1.9268 1.0398-1.726 1.1049-2.0643 0.51573-3.317-1.0691-2.2731-2.7379-3.1243-6.095-3.1243h-2.9381zm11.002 0v7.6385c0 4.1989 0.16657 7.7718 0.35945 7.9416 0.19288 0.1697 0.69923 0.2505 1.1252 0.1789 0.60493-0.1018 0.80754-0.8806 0.92206-3.5647 0.13632-3.1948 0.20794-3.4317 1.1721-3.3032 0.75686 0.1006 1.3386 0.8519 2.1567 2.7802 1.7316 4.0814 1.8377 4.2428 2.7037 4.0877 1.0374-0.1859 0.94061-1.2664-0.42196-4.3492l-1.094-2.4499 1.2971-1.6791c1.498-1.944 1.6192-3.3402 0.45322-5.0787-1.095-1.6324-2.6194-2.202-5.9387-2.202h-2.7349zm16.519 0c-1.2678 0-1.4432 0.24314-2.6724 3.8537-1.2876 3.7822-2.8443 9.9878-2.8443 11.327 0 0.3803 0.43717 0.6744 0.98458 0.6744 0.93871 0 1.1976-0.6043 1.6878-3.9639 0.06878-0.4713 0.83772-0.6901 2.688-0.7845l2.5943-0.1376 0.31256 1.679c0.53807 2.8048 0.762 3.207 1.766 3.207 0.53157 0 0.96895-0.2017 0.96895-0.4542 0-1.008-1.6256-7.4851-2.8443-11.327-1.2226-3.8542-1.3609-4.0739-2.6412-4.0739zm15.488 0-0.0156 6.4963-0.03125 6.4963-2.6568-6.3862-2.6568-6.3862h-1.6878-1.7035l-0.12502 7.5974-0.14065 7.5973h1.2503 1.2503l0.12503-6.1935 0.14065-6.1935 2.5005 6.1935 2.4849 6.1935h1.891 1.8754v-7.7074-7.7075h-1.2503-1.2503zm19.473 0c-0.90768 0-0.96895 0.37992-0.96895 6.3725 0 6.6951 0.37142 8.199 2.1879 8.9736 2.597 1.1074 6.3047 0.3187 7.2671-1.5416 0.32511-0.6283 0.54698-3.705 0.54698-7.432 0-6.0718-0.0461-6.3725-1.0002-6.3725-0.95279 0-1.0002 0.29224-1.0002 6.1934 0 3.4281-0.22926 6.5755-0.51573 7.0468-0.34874 0.574-1.0424 0.858-2.1254 0.8535-3.011-0.013-3.0896-0.2084-3.2663-7.4736-0.15072-6.1981-0.22295-6.6201-1.1252-6.6201zm12.534 0c-0.9621 0-1.0002 0.29358-1.0002 7.7075 0 7.4138 0.0381 7.7074 1.0002 7.7074s1.0002-0.2936 1.0002-7.7074c0-7.4139-0.0381-7.7075-1.0002-7.7075zm4.5009 0c-0.9621 0-1.0002 0.29358-1.0002 7.7075v7.7074h3.7508c3.0006 0 3.7508-0.132 3.7508-0.6606 0-0.5072-0.63902-0.6606-2.7506-0.6606h-2.7506v-7.0469c0-6.7532-0.0416-7.0468-1.0002-7.0468zm21.504 0c-1.2532 0-1.4406 0.25175-2.4692 3.3032-1.4963 4.4386-3.1308 11.62-2.7662 12.139 0.68112 0.9706 1.7146 0.3348 2.016-1.2388 0.61355-3.2029 0.59759-3.193 3.2038-3.193 2.5494 0 3.0162 0.3778 3.0162 2.4222 0 0.5661 0.14561 1.3511 0.31256 1.7342 0.41885 0.9614 2.2016 0.8925 2.1879-0.082-0.0163-1.1597-1.8479-8.2712-3.0631-11.892-0.98879-2.9457-1.1884-3.1932-2.438-3.1932zm-47.994 0.0145c-0.9944 0-2.016 0.19896-2.9694 0.63313-3.6715 1.672-4.191 10.719-0.78141 13.722 1.0984 0.9674 1.5872 1.0462 6.4701 1.0462 4.3544 0 5.2667-0.1152 5.2667-0.6608 0-0.4051-0.46131-0.6605-1.2034-0.6605h-1.219l0.07815-4.9549c0.04721-3.313-0.15403-5.4452-0.6095-6.4137-0.80479-1.7109-2.8446-2.7044-5.0323-2.7112zm-60.028 0.0414c-0.8535-0.0112-1.0981 0.44233-1.9379 2.6701-1.2712 3.3718-3.0326 10.255-3.0475 11.919-0.0081 0.9058 0.23222 1.2111 0.95332 1.2111 0.79369 0 1.0299-0.4285 1.3128-2.4223l0.34382-2.4224h2.6412 2.6412l0.35945 2.2297c0.338 2.1643 1.3082 3.1926 2.2192 2.3396 0.45084-0.422-1.3476-8.4552-2.8443-12.717-0.79632-2.2675-1.113-2.6643-2.2348-2.7802-0.14979-0.0157-0.2844-0.0268-0.40633-0.0268zm95.097 0.16508c-0.79261 0.0626-0.83068 0.78781-0.95333 7.5974l-0.14065 7.5972h3.7664c3.0111 0 3.7508-0.1319 3.7508-0.6606 0-0.4987-0.6069-0.6606-2.4849-0.6606h-2.4849l-0.14065-6.9367c-0.13109-6.6026-0.18882-6.9367-1.1409-6.9367h-0.1719zm-108.1 1.5415h1.6566c0.90768 0 1.9204 0.24606 2.2505 0.53673 0.64058 0.56413 0.79722 2.4717 0.29694 3.6198-0.20487 0.4701-0.93648 0.6881-2.2505 0.6881h-1.9535v-2.4222-2.4224zm22.004 0h1.6722c2.7584 0 4.1631 2.2102 2.8131 4.4318-0.3782 0.6223-1.052 0.8533-2.5005 0.8533h-1.9848v-2.6425-2.6426zm11.502 0h1.7347c1.2013 0 1.8915 0.26272 2.2505 0.85324 0.69905 1.1504 0.6589 3.2598-0.07815 3.9089-0.33007 0.2907-1.3428 0.523-2.2505 0.523h-1.6566v-2.6425-2.6426zm39.508 0c2.8981 0 3.5007 1.2956 3.5007 7.4735v4.8584h-2.1879c-1.4154 0-2.6144-0.297-3.3757-0.8396-1.0658-0.7596-1.2028-1.2553-1.3597-5.0786-0.21633-5.273 0.39194-6.4137 3.4226-6.4137zm-59.809 0.22022 0.82829 2.4224c0.45609 1.3321 0.97404 2.9672 1.1565 3.6335 0.32378 1.1821 0.29017 1.2111-1.8598 1.2111h-2.2036l1.0315-3.6335 1.0471-3.6335zm107.8 0.66065c0.29289 0 2.016 5.4264 2.016 6.3448 0 0.1471-0.90019 0.2615-2.0004 0.2615s-2.0004-0.2012-2.0004-0.4542c0-1.0302 1.653-6.1521 1.9848-6.1521zm-73.499 0.28911c0.01316-0.00034 0.02066 0.0112 0.03125 0.0134 0.34081 0.31058 1.9692 5.3086 1.9692 6.0421 0 0.1467-0.90018 0.2615-2.0004 0.2615s-2.0004-0.2012-2.0004-0.4542c0-1.2451 1.5929-5.8576 2.0004-5.8632zm-47.51 5.4364h1.6566c2.1763 0 2.8443 0.6772 2.8443 2.8628 0 0.9931-0.2638 2.0491-0.59387 2.3398s-1.3428 0.523-2.2505 0.523h-1.6566v-2.8628-2.8628zm59.012 14.039v2.381c0 1.3073 0.16878 2.5267 0.37508 2.7115 0.20629 0.1846 0.44432-0.1833 0.53136-0.8121 0.20099-1.4521 0.88894-1.4736 1.2971-0.041 0.55087 1.933 1.1144 1.1841 1.0783-1.4314-0.03481-2.5277-0.03416-2.5322-1.6566-2.67l-1.6253-0.1377zm-20.082 0.041c-0.38962 0.032-0.80556 0.1909-1.2034 0.4816-0.972 0.7105-0.91213 3.2708 0.09377 4.1566 1.1108 0.9782 2.3001 0.675 3.0944-0.7845 1.0652-1.9573-0.2964-3.9943-1.9848-3.8537zm-34.929 0.013c-0.8771 0-1.7532 0.7972-1.9066 2.3949-0.08651 0.9008 0.1111 1.9107 0.43759 2.2571 0.32648 0.3464 0.9863 0.6331 1.469 0.6331 1.357 0 2.0794-1.0915 1.9066-2.8902-0.15345-1.5977-1.0295-2.3949-1.9066-2.3949zm5.2511 0c-0.14396-0.011-0.31055 0-0.46885 0.015-0.63317 0.06-1.3047 0.3109-1.469 0.6881-0.50922 1.1687-0.33853 3.5005 0.29694 4.0602 0.72909 0.6421 2.2174 0.6864 2.6412 0.083 0.1753-0.2498-0.24312-0.4405-0.96895-0.4405-1.1597 0-1.2815-0.1654-1.2815-1.7617 0-1.4682 0.1667-1.7618 1.0002-1.7618 0.55011 0 1.0002-0.1982 1.0002-0.4403 0-0.2712-0.31827-0.4136-0.75015-0.4404zm2.2505 0c-0.27784 0-0.5001 1.1745-0.5001 2.6425 0 1.4681 0.22226 2.6426 0.5001 2.6426s0.5001-1.1745 0.5001-2.6426c0-1.468-0.22227-2.6425-0.5001-2.6425zm6.7201 0c-1.16 0-1.219 0.1338-1.219 2.6425 0 2.3489 0.11113 2.6426 1.0002 2.6426 1.2397 0 3.0006-1.495 3.0006-2.5463 0-1.2956-1.468-2.7388-2.7818-2.7388zm5.0948 0c-0.68395 0-1.8129 2.7253-1.8129 4.3767 0 0.5317 0.22477 0.8381 0.5001 0.6883 0.27506-0.1498 0.5001-0.5593 0.5001-0.9085 0-1.0086 1.3563-0.7339 1.766 0.3579l0.35945 0.9909 0.21879-0.9496c0.30964-1.37-0.76002-4.5557-1.5316-4.5557zm3.8758 0c-1.1198 0-1.1877 0.1537-1.1877 2.6425 0 2.2559 0.13419 2.6426 0.90643 2.6426 1.5632 0 2.7662-1.1134 2.7662-2.56 0-1.7006-0.94002-2.7251-2.4849-2.7251zm6.8295 0c-0.99957 0.037-1.0158 0.3338-1.0158 2.6425 0 1.4681 0.22226 2.6426 0.5001 2.6426 0.27506 0 0.5001-0.3964 0.5001-0.8809 0-0.4844 0.30874-0.8807 0.68764-0.8807 1.135 0 1.9501-1.2144 1.6097-2.4088-0.24864-0.8723-0.62211-1.1147-1.7972-1.1147-0.1861 0-0.34168-0.011-0.48447 0zm9.1737 0c-1.1198 0-1.1877 0.1537-1.1877 2.6425 0 1.4681 0.22226 2.6426 0.5001 2.6426 0.27506 0 0.5001-0.4955 0.5001-1.1011 0-0.6055 0.20798-1.101 0.45322-1.101s0.57757 0.4955 0.75015 1.101c0.17259 0.6056 0.54285 1.1011 0.81266 1.1011 0.6087 0 0.62616-0.8927 0.03125-1.7204-0.27335-0.3802-0.24238-0.916 0.09377-1.39 0.72155-1.0177-0.31529-2.1747-1.9535-2.1747zm4.5634 0c-0.9627 0-1.7504 0.1982-1.7504 0.4405 0 0.2421 0.22505 0.4404 0.5001 0.4404 0.27506 0 0.5001 0.8633 0.5001 1.913 0 1.0498 0.1523 2.0335 0.32819 2.1884 0.69154 0.609 1.1721-0.2828 1.1721-2.1471 0-1.0758 0.22505-1.9543 0.5001-1.9543 0.27506 0 0.5001-0.1983 0.5001-0.4404 0-0.2423-0.78766-0.4405-1.7504-0.4405zm5.7512 0c-0.27506 0-0.5001 0.9909-0.5001 2.2022 0 1.6637-0.18337 2.202-0.75015 2.202-0.56842 0-0.75015-0.5331-0.75015-2.2295 0-1.594-0.18008-2.1934-0.62513-2.0646-0.82143 0.2376-1.0715 3.1343-0.37508 4.2804 0.60878 1.0018 1.99 1.1789 2.9068 0.3715 0.72289-0.6367 0.80327-4.7621 0.09377-4.7621zm10.502 0c-0.27784 0-0.5001 1.1745-0.5001 2.6425 0 1.4681 0.22227 2.6426 0.5001 2.6426 0.27784 0 0.5001-1.1745 0.5001-2.6426 0-1.468-0.22227-2.6425-0.5001-2.6425zm3.2663 0c-0.64694 0-1.766 2.774-1.766 4.3767 0 0.5317 0.22477 0.8381 0.5001 0.6883 0.27506-0.1498 0.5001-0.5593 0.5001-0.9085 0-1.0098 1.3524-0.7332 1.7504 0.3579 0.32548 0.8925 0.38862 0.9068 0.6095 0.1652 0.34311-1.1522-0.86034-4.6796-1.5941-4.6796zm-10.737 0.028c-0.61442-0.011-1.234 1.1928-1.7347 3.6059-0.35373 1.7048 0.38577 2.3662 0.85955 0.7708 0.14386-0.4845 0.60875-0.8809 1.0471-0.8809 0.46357 0 0.79704 0.3684 0.79704 0.8809 0 0.4845 0.25695 0.8808 0.56261 0.8808 0.36743 0 0.44251-0.5326 0.2188-1.5829-0.51798-2.4316-1.1359-3.6635-1.7504-3.6746zm-56.386 0.041c-0.16439-0.011-0.34226-0.011-0.53136 0.013-1.7913 0.1816-2.2967 2.3218-0.65638 2.7803 1.336 0.3734 1.3362 1.5415 0 1.5415-0.56635 0-0.88889 0.1981-0.7189 0.4404 0.50234 0.7158 2.1747 0.5007 2.688-0.3441 0.57028-0.9385-0.1375-2.2985-1.2034-2.2985-0.39892 0-0.73452-0.2973-0.73452-0.6605 0-0.3672 0.44454-0.6608 1.0002-0.6608 0.55011 0 1.0002-0.2096 1.0002-0.4679 0-0.1937-0.35076-0.3226-0.84392-0.3441zm15.003 0c-0.16439-0.011-0.34226-0.011-0.53136 0.013-1.2372 0.1255-1.3907 0.3353-1.5316 2.0645-0.08611 1.0572-0.03685 2.1969 0.1094 2.5325 0.30201 0.6931 2.7974 0.84 2.7974 0.1652 0-0.2423-0.45009-0.4404-1.0002-0.4404-1.3612 0-1.269-1.1359 0.12503-1.5415l1.1252-0.3304-1.1252-0.1927c-1.3928-0.2413-1.4971-1.4589-0.12503-1.4589 0.55011 0 1.0002-0.2096 1.0002-0.4679 0-0.1937-0.35076-0.3226-0.84392-0.3441zm-11.127 0.8119c0.88158 0 1.008 0.2403 0.87518 1.6242-0.25244 2.6307-1.9066 2.4992-1.9066-0.1514 0-1.1888 0.19708-1.4728 1.0315-1.4728zm14.456 0c0.84389 0 1.4293 1.4956 0.98458 2.5326-0.67294 1.5694-1.469 1.1546-1.469-0.7708 0-0.9689 0.2191-1.7618 0.48447-1.7618zm16.269 0c0.41675 0 0.75015 0.3916 0.75015 0.881s-0.3334 0.8808-0.75015 0.8808-0.75015-0.3914-0.75015-0.8808 0.3334-0.881 0.75015-0.881zm4.5165 0c0.61166 0 0.76002 0.3813 0.64076 1.6242-0.18429 1.9205-1.2309 2.4427-1.6878 0.8396-0.40916-1.4357 0.02371-2.4638 1.0471-2.4638zm4.4853 0c0.41258 0 0.75015 0.2974 0.75015 0.6608 0 0.3633-0.33757 0.6605-0.75015 0.6605s-0.75015-0.2972-0.75015-0.6605c0-0.3634 0.33757-0.6608 0.75015-0.6608zm17.003 0c0.41258 0 0.75015 0.2974 0.75015 0.6608 0 0.3633-0.33757 0.6605-0.75015 0.6605s-0.75015-0.2972-0.75015-0.6605c0-0.3634 0.33757-0.6608 0.75015-0.6608zm-33.272 0.097c0.04671-0.011 0.08648-0.011 0.14066 0.015 0.34382 0.1006 0.62513 0.844 0.62513 1.6515s-0.28131 1.5507-0.62513 1.6517c-0.43342 0.1272-0.62513-0.3792-0.62513-1.6517 0-1.1132 0.15742-1.6361 0.48447-1.6653zm-4.2352 0.3441c0.07336 0 0.26247 0.3964 0.40633 0.8809 0.16346 0.5504 0.004 0.8808-0.40633 0.8808-0.41031 0-0.55417-0.3304-0.3907-0.8808 0.14386-0.4845 0.31733-0.8809 0.3907-0.8809zm43.962 0c0.10545 0 0.30936 0.3964 0.45322 0.8809 0.14386 0.4844 0.04615 0.8808-0.20317 0.8808-0.24931 0-0.45322-0.3964-0.45322-0.8808 0-0.4845 0.09772-0.8809 0.20317-0.8809zm-10.705 0.4404c0.27506 0 0.5001 0.2973 0.5001 0.6607s-0.22505 0.6606-0.5001 0.6606c-0.27506 0-0.5001-0.2972-0.5001-0.6606s0.22504-0.6607 0.5001-0.6607z" fill="#02519e"/>
 </g>
</svg>
